<svg viewBox="0 0 704 704" fill="none" xmlns="http://www.w3.org/2000/svg"><g transform="translate(203 303)"><path fill-rule="evenodd" clip-rule="evenodd" d="M367.1 98.3c-6.7 9-19.2 12-30.7 11-24.8-2.4-32.6-30.6-33.5-52.6 16.7 4.7-1.4-28.5 55.6-32 20-1.8 14.5 10.3 23.4 19.2-.2 18.6-3.3 38.8-14.8 54.4ZM249 77c-14.7 68.6-95 52.3-103.4-9.6 7.8-5.5 5.7-19 15.4-24 15.3-9.8 34.5-9.4 52-9.1 22.2 1.5 28.5 10.7 40 20.8-.6 6.7-2.2 14.7-4 21.9Zm150-63.8-2.4-.4a39 39 0 0 0-8.3-1.9C359.7 4.7 293.7 13.8 291 38c-9 3-17 .4-27.4.6-8-33.5-146.6-28.8-153.3-8.6-6.5-2-16-1.5-23.3-1.8-15.6-.3-31.3 1-46.6 4.4C11.6 37-27.5 42.5-7.6 78.3c3.5 3.5 9.3.7 9.5-4-6.7-17 8.5-19 20.1-24 29-10.4 58.6-11.8 88.5-8.6 2.3 2.7 5.7 5 9.3 6.2 20 3.3 9.5 18.2 22.2 20.3-2.3 51.9 60.6 80.2 97 46.1 14.6-14.2 18.1-35.3 21.5-54.3a5 5 0 0 0 3.6-2.7c4.3-4.3 7-8.2 15.4-9.4 8.5-1.2 15 1.2 16 1.9l.7 1.3c.4.7 1 1.2 1.5 1.7-8.4 51.6 31.7 84.2 72.2 57.5 17.5-16.6 21.3-41.9 22-64.5a6.8 6.8 0 0 0 3-7.7c-1-4.9 1.6-9 5.8-11.1 5.5-2.8 4.6-12.7-1.8-13.8Z" fill="#000000"/></g></svg>