<svg viewBox="0 0 704 704" fill="none" xmlns="http://www.w3.org/2000/svg"><g transform="translate(203 303)"><path fill-rule="evenodd" clip-rule="evenodd" d="M367 74.4a79.6 79.6 0 0 1-12.3 22.2c-21.3 18-42 8-52.5-16.4-4-17.2 6.6-35.8 17.8-48.6 16.3-16.2 42.7-7.7 50.2 11.6.4 2.6.7 5 .8 7.5a66 66 0 0 1-4 22.7M162.5 59c28-33.4 80.5-35.1 79.2 16.2-6 65-107.5 49-79.2-16.2ZM376 31.1c-1-1.7-2-3.3-3.3-4.8-.4-.3-.6-2.6-2.3-2.8C348.7-.4 310.7 13.2 297 37c-2.5 3-4.6 6.5-6 10.2a78.4 78.4 0 0 0-42 3.1c-12.4-32.6-50.2-35.5-75-21.6-15.6 7.7-25.6 23.6-40.6 32.4C98 63.6 60 55.7 25.2 64.6c-27.4 5.7-4.5 19.5.1 10.3C58.1 65.2 97 73.4 131 71.2c3.6 6 10.4 10.9 17.1 10.7 7.3 64.7 101.7 54 105-3.6a42.2 42.2 0 0 1 14.8-15A32 32 0 0 0 275 61c3.8-.5 9.6 1 13.1 4.2 12 71.9 81 63.5 93.3.6.2-.3 1-1.2 1.4-2.7 4.2-5.6 14.6-7.7 13-17-1.5-9.5-13.4-9.4-19.9-15Z" fill="#000000"/></g></svg>