<svg viewBox="0 0 704 704" fill="none" xmlns="http://www.w3.org/2000/svg"><g transform="translate(203 303)"><path fill-rule="evenodd" clip-rule="evenodd" d="M372.3 95.5a45.1 45.1 0 0 1-48.6 9.4c-41.4-17.4-21.1-71.4 10.9-86 4-1 9.3-3.3 14.2-3.8.4-.2 1.4.4 2.5-.2 35.3 4 43.3 58.7 21 80.6Zm-133.8 3.2a51.2 51.2 0 0 1-59.6 15.2c-40.8-16-26.4-64 1.6-82.8 59-22.2 83.4 34.3 58 67.6Zm-88.5-40h-.2l.7-.4-.2.6-.3-.2ZM400.4 39c-3.3 0-8.1.6-10.9 2.9-6.8-23-32-44.2-53.8-28.7a60.7 60.7 0 0 0-37.2 34.1c-13-7.8-33.6-4.5-45 5.8-7.4-24.5-25.7-33.1-47.5-34.4-23.7-3.9-47.4 19.2-54.8 37.7-6.1-.7-15.3-2.6-21 1.1C92.5 47.8 27 42.4 19.3 48c-5.4 2-8.4 14.9-.8 15.6 6.6-1-.8-9.4 5.9-10.4 35.5-2.2 70 5 105.1 8 3.2 4.2 13.3 5.6 18.7 4-8.5 31.3 9.9 52.7 37.4 59 42.7 9.9 79.8-28.3 68.7-68 12.9-6.4 27.8-6.1 41.8-2.8-23.5 86.6 116 82.8 94.2-8.3 14.5 7.2 17.6-4.4 10-5.9Z" fill="#000000"/></g></svg>