<svg viewBox="0 0 704 704" fill="none" xmlns="http://www.w3.org/2000/svg"><g transform="translate(203 303)"><path fill-rule="evenodd" clip-rule="evenodd" d="M389 63.3c-9.4 64.5-76 71.6-87.8 7.6 1.9-.8 3.2-2.5 3-5.7-.1-14 4.2-28.7 16.8-36.4 13-8 28.2-8.8 43.3-8.6 28.7-.7 28.1 23.3 24.8 43Zm-98.2-28c-9-.4-20.5-.1-28.5 5.4a34 34 0 0 0-13.9-15.8c21.7.6 44-1.5 65.8-3.2-5.2 3.6-10 9-13.2 15.1-3-1.5-7.1-1.4-10.2-1.6ZM251 70c-25 86-87.4 48.6-94.2 37.5-12.2-18.2-14.5-62.6-3.9-74.4 15.3-10.8 37-8 55-8.3 33.3.5 56.9 10.4 43.1 45.2Zm167.6-39.6c-6.8-.8-14-1-20.4 2-2-8.3-8-15.2-14.9-18.2-.8-1-.7-1.6-3.6-1.5-17.4-5.2-37-2.5-53.8 3-26.6 2.2-54.4 4-81.2 7-25.1-11.3-100.8-13-105.5 14.9-6-1-16-5.6-21 .7-36.4-6.2-74.1 2.4-110.8 6.3-9.2 1.7-14 20-3.5 19.7 6-1.6-.1-11.4 7.8-12.1 35.3-3.9 69.9-9.4 105.6-10-1.2 6.2 23.6 6.6 24 3h.1c-6.1 23-.6 55.9 10.5 70 15.6 18.6 54.6 24 72 12 22.3-11 45.5-66.4 39-84.8a76.6 76.6 0 0 1 35.8-.7c-2.8 8-7.6 27.5-.6 29.2-1.3 38.8 34 63 66.6 47.1C393 105 402.8 63 399.3 37.5c3.6 6.8 33-.6 19.3-7Z" fill="#000000"/></g></svg>