<svg viewBox="0 0 704 704" fill="none" xmlns="http://www.w3.org/2000/svg"><g transform="translate(203 303)"><g fill-rule="evenodd" clip-rule="evenodd"><path d="M370.3 94c-9.2 11.5-45.1 24.3-64.3 10.5C287 90.6 279.3 81 276.8 63.7c-.3-1.8-3.6-3-5-1.7a96.6 96.6 0 0 0-18 26C248 98.5 242.3 109 232 116.3c-18.4 9.8-51.6 11.2-61.4 6.9a63.6 63.6 0 0 1-37-50.6s-3.4-10.8-6.5-13.1c-2.8-2.2-18.6-4.1-20.3-4.4-31-5.8-70.4-9.5-98.1 10.8C5 68.2-7.8 76.7-8 74.6-8 66.4 1.2 47.8 22.3 39c26.1-11 65-11.5 87.5-9.1 1.1 0 5-.9 5.2-1 34.1-14.7 73.4-10.8 109.8-4.6 5.3 1 52 12.6 70.7 5.6 30.8-12.6 63.6-21.7 96.8-18.1.3 0 4.5 25.5 1.2 27.2-2.6 1.4-7 5-8.6 6.9a10 10 0 0 0-2.2 6.9A61.1 61.1 0 0 1 370.3 94ZM243.7 78.8c4-5.7 5.2-18.4 3.5-27.6-.8-4.7-2.4-8.4-4.4-10.3a6 6 0 0 0-4.6-1.7c-.9 0-1.9.3-3 .9a92 92 0 0 0-47.6-9.7c-13 0-22.2 3-28.5 7.9-7.6 5.7-11 14-11.2 22.9a51.3 51.3 0 0 0 11.3 31.4 42.6 42.6 0 0 0 26.4 16.8c11.5 2.3 23.3 0 33.5-5.3a57.9 57.9 0 0 0 24.6-25.3Zm113.8 6c6.6-7.8 11-18 11.6-28 .6-9-1.8-18-8.6-25.6-6-5.2-16.9-5.3-28.3-2.4a86.9 86.9 0 0 0-35 17.7c-1.2.7-2.3 1.7-3.2 4v1c-1.6 7-.7 14.2 2 20.8A47.8 47.8 0 0 0 309.9 91c8 6.6 16.4 8.6 24.2 7.5a38.3 38.3 0 0 0 23.4-13.8Z" fill="#FFFFFF"/><path d="M294.4 27C325.6 14.4 359 5.3 392.6 8.9c2.8-1 6.3-.2 7.5 3.8 12 36.6-14.8 26.4-14.4 40 2.8 76.8-100.3 89.9-111.9 11.6l-.2.1c-16.7 15.6-20.2 40.9-39.8 54.4a65 65 0 0 1-103-45.5l-.2-.7c-2.4-10.6-5.3-13.2-17.3-13.1l-1.9-.4c-31-6.1-72.3-11.6-101 9.4-6.2 3.6-6.4 13-11.7 17-5.8 1-9.3-5.8-9.7-10.6-1-47.8 84.6-51.2 122.8-47.1.8-.8 2.3-.7 2.9.2 34.6-15 73.6-12.9 110.6-6.6 23 4.5 45.7 14.6 69.1 5.8Zm95.1-9.4c-18.7-1-36 .1-54.3 4.6-9.7 2.3-17.1 5.3-26.4 8.8C251 56.6 244.4 11.1 115 29c1.7 7.1 2 14.2 2 21 26.5-1 20.3 24.2 30.2 41.9l.3.5a54.4 54.4 0 0 0 76 20.8c23-13.4 25.1-47.2 48-60.7 19.7-.8 11.8 26 22.6 37a44.8 44.8 0 0 0 66.4 4c8.9-9.2 13.6-20.8 13.9-33.3.5-8-.9-16.1 5.1-21.7 4.3-4.3 11.8-2.9 12.6-9.4.6-3.8-1-8-2.5-11.5ZM186.3 28.1c18.6-1 38.2 2.3 54.2 11.4 11.8-9.4 14.7 28 6.8 38.7-11.3 23.1-37.6 38.3-62.9 33.3-39.4-5.7-67-83.5 1.9-83.4Zm53 14-1-.2c-17-2.7-63.7-14.8-81.7 4.3-17.4 31.7 26.8 84.9 72.9 42.5 12.8-13 17.8-28.8 9.8-46.7Zm54.3 4c8.8-10.5 54-31.8 69.7-18.2 28.8 32.2-16.8 97.4-55 65.6C295.6 83 287.3 66 291 49.7V49c0-.3 0-.2.3-.5.5-1.3 1.4-2 2.4-2.5Zm69.3 19.5C372.6 13 332.1 33 299 47c1.7 1.6 1.7 3.9 1.2 5.7-3.5 39 44 61 62.8 12.9ZM111.2 30.2C97.2 35 5.5 26.5-3 69.5 6 55 24.5 49.3 41.2 46.2c22.7-4.3 45.2-1.8 67.5 2.6l.5-4.6c.5-4.9 1-9.5 2-14Z" fill="#000000"/></g></g></svg>