<svg viewBox="0 0 704 704" fill="none" xmlns="http://www.w3.org/2000/svg"><g transform="translate(203 303)"><path fill-rule="evenodd" clip-rule="evenodd" d="M335.4-59.6c5.8-2 10.4 4 9.3 9.3-1.3 6.1-7.8 11-12 15.4a335 335 0 0 1-42.2 36.7l-3 2.2A342.6 342.6 0 0 1 243.8 32c-2 1-4.3 2.6-6.7 3.8a45 45 0 0 1 17 26.8c3.7 24-11.8 46.3-33.6 55.1a71.3 71.3 0 0 1-34.7 4.4c-11.8-1.3-23.8-4.8-31.5-14.5a52 52 0 0 1-9.8-30.4 54 54 0 0 1 1-14.7h-14.2c-11.5.2-23 .2-34.6-.1-12-.4-23.8-.9-35.7-2-5.2-.4-10.4-1.2-15.5-2-5-.6-10.6-1-15.3-3-.3 0-.2-.6 0-.6 5-1.7 10.8-1.4 16-1.7l5-.3L64 52l29.4-.6h4.3c11.5-.3 23-.4 34.6-.8l14.4-.7c.6-1.3 1.4-2.4 2.2-3.6a64.5 64.5 0 0 1 30-21.5c8-2.7 19.5-4 27.9-3.9 8.4.2 20.3 1.4 24.2 8.2.4.7 7.7-.6 9.9-2.3 5-3.9 10-7.8 14.9-12 9-7.5 18.4-15 27-23.1a744.6 744.6 0 0 0 38.7-39c4.2-4.7 7.8-10.3 13.9-12.4Z" fill="#000000"/></g></svg>