<svg viewBox="0 0 704 704" fill="none" xmlns="http://www.w3.org/2000/svg"><g transform="translate(203 303)"><path fill-rule="evenodd" clip-rule="evenodd" d="m399 13.2-2.5-.4a39 39 0 0 0-8.3-1.9C359.7 4.7 293.7 13.8 291 38c-9 3-17 .4-27.4.6-8-33.5-146.6-28.8-153.3-8.6-6.5-2-16-1.5-23.3-1.8-15.6-.3-31.3 1-46.6 4.4C11.6 37-27.5 42.5-7.6 78.3c3.5 3.5 9.3.7 9.5-4-6.7-17 8.5-19 20.1-24 29-10.4 58.6-11.8 88.5-8.6 2.3 2.7 5.7 5 9.3 6.2 20 3.3 9.5 18.2 22.2 20.3-2.3 51.9 60.6 80.2 97 46.1 14.6-14.2 18.1-35.3 21.5-54.3a5 5 0 0 0 3.6-2.7c4.3-4.3 7-8.2 15.4-9.4 8.5-1.2 15 1.2 16 1.9l.7 1.3c.4.7 1 1.2 1.5 1.7-8.4 51.6 31.7 84.2 72.2 57.5 17.5-16.6 21.3-41.9 22-64.5a6.8 6.8 0 0 0 3-7.7c-1-4.9 1.6-9 5.8-11.1 5.5-2.8 4.6-12.7-1.8-13.8ZM225 37.7c-5-1-7 6.7-2 7.8 3.5.8 6.5 2.6 8.6 5.6l.2.3c2.7 4.4 9.7.4 7-4-3.2-5-8-8.4-13.7-9.7ZM372.3 33c-1.8-1.2-4.5-.3-5.5 1.5-1.1 2-.4 4 1.3 5.3l.1.2c1.6 1 3 3 3.2 5v.2c.2 5.1 8.2 5.1 8 0-.2-5.1-3-9.3-7.1-12.2Z" fill="#000000"/></g></svg>