<svg viewBox="0 0 704 704" fill="none" xmlns="http://www.w3.org/2000/svg"><g transform="translate(203 303)"><path fill-rule="evenodd" clip-rule="evenodd" d="M337.8 15c23.5 0 36.9 5 41.8 5.4h.1c2 .2 4 .4 5.8 1 7 2.8 8.2 10.2 4.1 14.9-.3 9.7 1 21-1.2 30.6-2.7 41-21.9 47.8-32.8 50.3-5.5 1.3-12 1.8-17.8.5-10-.4-19.8-3.5-28.2-9a52 52 0 0 1-23.2-32.9c-1.4-6.5-2-13.4-1.3-20l.1-1a32 32 0 0 0-12.7-2.3c-2.2 0-4.3-.1-6.4 0l-6 .9a16 16 0 0 0-6.3 3.5v2.5c-.5 6.3-1.3 12.7-2.6 19-1.9 9-5 17.8-11.4 24.3-2.2 3.3-4.9 6.2-8.2 8.7a62.9 62.9 0 0 1-43 11.3 64.6 64.6 0 0 1-52-36.8l-.2-.7c-2.9-7.6-5.2-17.5-14.4-19.2l-2-.3c-4.2-.8-8-1.9-10.5-6-1-1.8-1.6-3.8-1.8-5.8l-4.3.3c-11.4 2.4-79.8 4.4-85.3 4.4 0 0-10.5 4.5-14.9 1-3-2.3-4-5.5-2.4-9.1 2.6-5.4 14.3-8.7 19.6-9.7 0 0 84.3.7 90.4-.4 3.8-4 10.5-3.4 16-4a56.3 56.3 0 0 1 16.4-7l3-1.2a133.2 133.2 0 0 1 72.6-3c7.7 1.1 15.2 2.8 22.8 4.7l1.5.4c8 2.1 16.1 4 24.4 2.5a80.8 80.8 0 0 0 19.3-6.5l.8-.4c13.6-6.2 34.9-10.9 50.2-10.9ZM218.1 37.7c-5-1-7.2 6.7-2.1 7.8 3.5.8 6.5 2.6 8.6 5.6l.2.3c2.7 4.4 9.7.4 7-4-3.2-5-8-8.4-13.7-9.7ZM365 33c-1.7-1.2-4.4-.3-5.4 1.5-1.1 2-.4 4 1.3 5.3l.1.2c1.6 1 3 3 3.2 5v.2c.2 5.1 8.2 5.1 8 0-.2-5.1-3-9.3-7.1-12.2Z" fill="#000000"/></g></svg>