<svg viewBox="0 0 704 704" fill="none" xmlns="http://www.w3.org/2000/svg"><g transform="translate(315 248)"><g fill-rule="evenodd" clip-rule="evenodd"><path d="M95 163c26.5 0 48-18.8 48-42s-21.5-42-48-42-55.2 18-55.2 41.2c0 9.9 7.8 27 14.2 34.2 8.8 9.8 25.7 8.6 41 8.6ZM209.3 155c20.2 0 36.7-17 36.7-38s-16.5-38-36.7-38C189 79 167 95.3 167 116.3c0 8.9 6 24.4 10.9 31 6.7 8.7 19.7 7.7 31.4 7.7Z" fill="#FFFFFF"/><path d="M94.3 189c.2-.1.6-.2.8 0 4.4 2.7 4.9 12 5 17.2l5.1 1.4 10.7 2.2 2.7.5c9 2 18 3.3 27.1 4 8.8.7 18 1 26.7-.2 3.8-.5 7.6-1.3 11.2-2.4 4.3-1.3 7.8-3.4 11.8-5.3 10-4.7 18.5 9 8.8 15a68 68 0 0 1-29.2 8 157.6 157.6 0 0 1-59.9-9.6 107 107 0 0 1-12.2-5.7l-1.1-.6-2-1a70 70 0 0 1-5.5 19.1 8.5 8.5 0 0 1-11.7 5.6c-6-2.5-6.4-9-3-13.8l.2-.2c4-5.2 6.7-11.8 8.9-18 1.1-3.1 2.2-6.4 3-9.7.8-2.3.8-4.7 2.6-6.4Zm153.9-52.7a34.7 34.7 0 0 1-22 22.6 68.2 68.2 0 0 1-33.4.3l-7.2-1.4c2 1.2 3.7 3 5.3 4.7 2.5 2.7 4.7 5.6 5.4 9 .7 3.3-.4 5.8-2.3 7.7-3 3-7.8 4.6-11.8 5.4a63 63 0 0 1-27.3-.3 6.9 6.9 0 0 1-4.8-3.4 9 9 0 0 1-.5-6.6 9 9 0 0 1 3.8-5.4c1.6-1 3.6-1.2 5.8-.5a46.6 46.6 0 0 0 23.3 2 84.6 84.6 0 0 1-9.3-16 84.3 84.3 0 0 1-1.5-3.8l-.4-.4a26.7 26.7 0 0 1-7-9.3 52.4 52.4 0 0 1-1-33.7A42.6 42.6 0 0 1 177 85.4a22 22 0 0 1 2.8-4c3.8-3.9 9-6.5 14.1-8.1 11.5-3.6 24-1 33.6 5.8 9 6.3 16 15.8 19.7 26.3 3.6 10 4.3 20.8 1 31Zm-155.7-65a64.8 64.8 0 0 1 38.5 12c10.5 7.6 18.8 19 18.8 32.5 0 13.1-7 26-14.9 36.3a41.6 41.6 0 0 1-34.5 17c-7.5.1-15-.6-22.5-1.5l-4-.5c-5.4-.7-11-1.5-16.2-3.4-24.7-9-25.5-41.4-16.3-62 7-16 25-31.6 42.8-29.8 2.7-.3 5.5-.5 8.3-.6Zm23 15.3a65.1 65.1 0 0 0-54.2 2.8A56.8 56.8 0 0 0 48 113.7c-2 8.9-1.7 18.3 1.4 26.9 3.8 10.4 13 13 23.2 14.6l3.9.6 1.6.3a92.6 92.6 0 0 0 30.2.7c10.6-2 17.4-10.6 22.7-19.4l.2-.4c5.5-9.2 10.1-20.4 5.5-30.9-4-9-12.5-15.6-21.2-19.5Zm100.4 2.6a23 23 0 0 0-26.1 2.5l-1 .7c-2.7 2.1-5.3 3.2-7.4 6.1l-.3.4c-1 1.6-3 2.2-4.6 2-2 5.4-2.8 11.3-2.8 17v1.6c.1 6.8 1.3 15.1 6.7 19.7 4.9 4.2 12.3 5.2 19 5.8l5 .4h1.4c7 .6 14.6.4 20.4-3.7 5.1-3.6 7.5-9.7 8.1-15.7A38.4 38.4 0 0 0 216 89.2ZM88.8 90.5a27.3 27.3 0 0 1 28.6 2.4 8 8 0 0 0-2.1.7c-1.8 1-3 2.7-3.4 4.6-.5 2.2.7 4.3 2.8 5 1.9.6 4.1.8 5.8-.3 1-.6 1.6-1.4 2-2.4v-.1l.1-.1a12 12 0 0 0 .3-.8l.3-.3c1.5 2.2 2.6 4.8 3.3 7.5 4.6 18-14.3 36.5-31.2 38.4-6.4.7-12.2-.9-17-3.9v-.1c2 .3 4.3-.5 5-2.7 1.9-5.5 0-12-6-13.8-3.9-1.2-7.9.1-10.6 2.8-2.1-5.2-2.9-11-1.9-16.7a24.9 24.9 0 0 1 14-19c3.7-1.6 7-2 10-1.2Zm98.7 11 .3-.4c2.9-4.4 8.4-9.9 14.1-8.4.8.2 1.6.6 2.3 1a14 14 0 0 1 9.2 2v.2c-.3 1.1-.2 2.1.3 3.1.6 1.1 1.3 2.1 2.4 2.7.7.5 1.6.7 2.4.7 1.2 0 2.3-.6 3.2-1.4.5-.5.8-1.1 1-1.8l1.3 1.4a24.4 24.4 0 0 1-2 30.6l-1 1c-3.2 4.3-8.1 7.2-14 7.8a21 21 0 0 1-15-4.3l1-.7a9.8 9.8 0 0 0 2-3.4l.1-.3.2-.6v-.2c.8-1.9.5-4-1.3-5.2h-.2a4 4 0 0 0-2-.6c-1.8-2.2-4.5-2.7-7-2v-.8l-.1-.3c-2-6.5-1-13.9 2.8-20Zm-86.8-65.2h.6c5-.8 8.3 0 11.5 4.2 1.5 2 1 5 0 7-3.4 6.7-12.8 5.3-19 6.6a90.4 90.4 0 0 0-34.9 14.7c-4.8 3.2-9.2 8-14.8 9.8-.2 0-.5-.2-.5-.4.4-6.3 5.7-12.1 9.7-16.6A76.5 76.5 0 0 1 69.8 48a89.3 89.3 0 0 1 30.9-11.8Zm74.8 8.6c6.1-9 21.5-7.3 30.6-4.9 11.3 3 23.7 9.2 31.6 18 7.2 8-3.5 18.3-11.5 11.6l-2.2-1.8-1.4-1.1c-6.1-5-12.2-9.6-19.7-13-8.8-3.9-17.8-5.8-27-8-.4 0-.7-.5-.4-.8Z" fill="#000000"/></g></g></svg>