<svg viewBox="0 0 704 704" fill="none" xmlns="http://www.w3.org/2000/svg"><g transform="translate(315 248)"><path fill-rule="evenodd" clip-rule="evenodd" d="M181.7 212.8c.7-.2 1.3.8.8 1.3-2.4 2-3.9 6-5.6 8.6a116.6 116.6 0 0 0-9 16.7l-.3.6.9 2.4v.2c2.2 5.4-2.3 11.5-7.4 13-8.7 2.6-16.1-4.5-16.3-13-.2-6.6 4.3-12.5 9-17a52 52 0 0 1 13.5-9.5c2.2-1 4.5-2 6.9-2.4 2.5-.6 5.1-.2 7.5-.9ZM165.4 237c.6.3 1.2 1 1.6 1.8a3 3 0 0 0-1.6-1.8Zm5.4-92.6c7.6 4.6 19 15.3 11 26.6-9.6 10-23.4-1.4-30.2-6.6-6.3-4-13.3 6.3-7.5 11 49 36.3 69-29.8 30.5-36.4-4.2-.8-5.8 4-3.8 5.4Zm-62-44.1 1.3-.1c5.8-.5 11.6-1.3 17.3 0 7.7 1.8 7.1 13 0 15-6.2 1.8-13.2 1-19.6 1l-3 .1c-.3 2.4-1 4.5-2.3 6.6-.9 1.5-2 3-3 4.2-2.7 3.2-8.8 3.1-11.4 0-2-2.3-3.5-4.9-3.5-8 0-.8 0-1.6.3-2.4h-3.6c-8.6.2-17.3.1-25.8-1.3-3 .7-5.5-4.8-1.3-6.4 11.3-4.4 24-5.7 36-7 6.1-.7 12.4-1.2 18.5-1.7Zm96.4-4.6h.3c7.4-.8 15.7-2.1 23.2-1.3a8.7 8.7 0 0 1 0 17.4 67 67 0 0 1-12.7-.2c2.2 4.7-.4 10.3-5.8 11-4.9.6-10-4.2-8.4-9.3v-.2l1-3H201c-5.3-.5-12.7-1.5-14.7-5.7a3 3 0 0 1 .5-3.6c3.7-4.4 13-4.6 18.4-5ZM125.5 61c5.4-2 11 2.7 11.8 7.9.8 6-3.5 9.9-9 10.6h-.3c-12 1.4-24 3.8-36.1 5.2-5.5.6-11 1-16.6 1.2h-4c-4.8.2-10 .3-14.4-1.4-1.2-.4-1.8-2-.4-3 4.7-3.4 11.1-4.6 16.7-6.2A452 452 0 0 1 90 70.8c11.8-3 24-5.6 35.5-9.8Zm50 1.4c1.4-7.5 12.2-8.3 16.1-2.8l8.6 2.4 12.1 3.6c8.4 2.4 16.5 5.4 24.8 8.2.8.3.6 1.4-.2 1.5a199.8 199.8 0 0 1-34.4 1.7l-2.3-.1c-10.2-.4-27.5.3-24.7-14.5Z" fill="#000000"/></g></svg>