<svg viewBox="0 0 704 704" fill="none" xmlns="http://www.w3.org/2000/svg"><g transform="translate(315 248)"><path fill-rule="evenodd" clip-rule="evenodd" d="M171 240.2a40.7 40.7 0 0 1-22.7 0c-6.9-2-13.8-6.3-18.9-12.1a27.4 27.4 0 0 1-7.2-18.2c0-.8.3-1.4.7-2a3.3 3.3 0 0 1 3.9-.8 174.4 174.4 0 0 0 3.7 4.3c6.1 7.7 12.1 13.4 21.4 15.4 5 1.2 10.1.7 14.8-1 5-1.8 9.4-5 13-9.1a7 7 0 0 1 5.2-2.6c2 0 4.1 1 5.7 2.4a8.8 8.8 0 0 1 2.6 5.8c0 1.9-.5 3.8-2.2 5.6a44.3 44.3 0 0 1-20 12.3Zm-.2-95.8c7.6 4.6 19 15.3 11 26.6-9.6 10-23.4-1.4-30.2-6.6-6.3-4-13.3 6.3-7.5 11 49 36.3 69-29.8 30.5-36.4-4.2-.8-5.8 4-3.8 5.4Zm-70.6-20.2a8.4 8.4 0 0 0-8.5-.7 27.5 27.5 0 0 0-9.8 9.8c-2 3.4-3.5 7.4-3.2 11.5 0 1-.3 1.6-.9 2.2-.4.4-1 .7-1.8.8-.6 0-1.3 0-2-.2-1-.4-1.6-1-1.8-1.6a23.8 23.8 0 0 1 1.2-17.6c3.2-7.6 9-14 12.8-16a21.4 21.4 0 0 1 20.7-.1c5.5 3 9 8 12.4 13l2.2 3.2c1.6 2 1.7 4.1 1.1 5.9-.6 2-2.3 3.6-4.3 4.5-2 .8-4.2 1-6.1 0-1.7-.6-3.2-2-4.1-4.3a23.1 23.1 0 0 0-8-10.4Zm123.2 8.6c-1.6.9-3 1.1-4.8.6-1-.3-2-1-2.8-1.7a5.6 5.6 0 0 1-1.5-2.8c-.6-2.7-2-5.2-4.1-6.8a8.2 8.2 0 0 0-6.5-1.7c-2.7.4-5.3 2.2-7 4.2-.6.7-1 1.4-1.5 2.2-.9 1.4-1.7 2.8-3 3.8-.4.4-1 .7-1.7.7l-.8-.1c-2.7-2.7-3.2-4.8-3.1-6.8 0-2 1-4.2 2.2-6.2 3.2-4.7 9.2-8.5 13.2-9.4 5.6-1.2 11 .2 15.5 3.3a22 22 0 0 1 9 13.7c.2 1.4 0 2.8-.4 4a5.6 5.6 0 0 1-2.7 3Zm-111-58.5c-3.3 3.2-7.3 3.7-11.2 4.1a53 53 0 0 0-37 20.4 74.6 74.6 0 0 0-3.2 4 28 28 0 0 1-1.5 2.7c-.5.9-.8 1.1-1 1.3l-1.3.2a2 2 0 0 1-1-.5c-1.7-1.5-2.2-3.8-2.2-6.3 0-3.9 1.5-8 2.8-10.7 3-6 7.2-12.3 12.2-16.8 5.7-5.1 12-9 19.2-11.7a39 39 0 0 1 14.6-3c3.5.2 6.8 1.2 9.6 3.8A8.4 8.4 0 0 1 115 68c0 2.3-.8 4.6-2.5 6.3Zm117.8 29.6c-.2.4-.5.6-.8.7a2 2 0 0 1-2-.3c-.4-.2-.6-.6-.7-1-2.2-9.7-6.4-16.9-15.6-21.5a66 66 0 0 0-14.6-5l-4.4-.7c-4.8-.7-9.5-1.5-12.6-5.3a10.2 10.2 0 0 1-2.2-8c.4-2.5 1.9-4.9 4.6-6.3 6.7-3.5 15 0 21.9 2.9l1.4.6A51 51 0 0 1 223 71.8c4 4.2 7.7 10.4 9.1 16.8 1.3 5.3 1 10.8-1.8 15.3Z" fill="#000000"/></g></svg>