<svg viewBox="0 0 704 704" fill="none" xmlns="http://www.w3.org/2000/svg"><g transform="translate(315 248)"><path fill-rule="evenodd" clip-rule="evenodd" d="M167 221.4c1.5-2.7 5-5.2 8.2-4.8 14.5 1.7 14.5 19.2 9 29.5a27 27 0 0 1-25.6 13.6c-10.8-.8-20-7.1-24-17.2-2.7-6.7-4-19 3.2-23.5h.5c3.4 4 3.5 10 6.5 14.4 2.8 4.1 7 7.5 12.1 8 3.8.4 7.6-1 9.1-4.3.8-1.9.7-2.9.4-4.1l-.3-1.1c-.9-3.9-1.3-6.8.8-10.5Zm3.8-77c7.6 4.6 19 15.3 11 26.6-9.6 10-23.4-1.4-30.2-6.6-6.3-4-13.3 6.3-7.5 11 49 36.3 69-29.8 30.5-36.4-4.2-.8-5.8 4-3.8 5.4Zm-79.7-31.5c4.6-7 15.2-6 17.7 2.3 1.4 4.5-.5 8.5-.4 13 0 3.7-.2 8-1.3 11.6a19.5 19.5 0 0 1-19 14A23.5 23.5 0 0 1 67.8 140c-3.7-8-3-16.1-.2-24.2.1-.4.6-.5 1-.2 3.1 3.4 5.5 7 7.9 10.8l2.5 4c1.9 2.8 4.6 6.6 8.2 6.4h.5c1-.2.9 0 1.6-1.3.4-.6.3-1.8.5-2.5v-.4l-.2-2.2v-.3c-.3-5.4-1.8-12.4 1.5-17.3Zm117.5 4.6c-.9-8.9 11.6-10.8 15.8-4.3 2.2 3.5 2.8 7.8 3.3 11.9l.2 1.9c.5 4.2.7 8.6-1.1 12.5a15.7 15.7 0 0 1-15.9 8.9 19.3 19.3 0 0 1-15.3-9.9c-2.8-5-5.5-14.9-2.2-20.2.2-.3.6-.3.9 0 3.1 2.7 3.7 7.9 5.5 11.5 2 3.8 5 7.5 9.4 8 4.2.6 5.9-1.7 4.8-5.8-1.4-5.3-5-8.8-5.4-14.5ZM94.4 60l2-.8c7-2.6 16.7-5.7 22.4 0 3.5 3.5 4.2 8.7 1.7 13-3 5.2-8.5 5.3-13.8 6-6 1-12 2.6-17.6 5-6.3 2.6-12.1 6-17.8 9.6-5.5 3.5-10.9 9.3-17.4 10.4-.2 0-.5 0-.6-.4-1.5-6.3 2.6-12.6 6.3-17.5A72.8 72.8 0 0 1 94.4 60Zm127.3 22.6.6-.1c4.3-.7 8.1-.6 11.3 2.8a9 9 0 0 1 2.3 9.3c-1.1 3.1-3.5 6.3-7 7a115.8 115.8 0 0 1-36.7.1c-5.4-.7-10.9-1.7-16.1-3.2l-2.5-.7c-4.4-1.2-9.4-2.5-12.6-5.8-1.1-1.1-.5-2.8.9-3.3 5.6-2.2 13.2-1 19.2-1.2 6.9-.2 13.8-.8 20.7-1.5 6.8-.7 13.3-2.2 20-3.4Z" fill="#000000"/></g></svg>