<svg viewBox="0 0 704 704" fill="none" xmlns="http://www.w3.org/2000/svg"><g transform="translate(315 248)"><g clip-rule="evenodd"><path fill-rule="evenodd" d="M166.7 208c11.9 0 16.9 1.9 24.6 6.4 7.7 4.5 16 10.4 18 19.2 1.8 8.1-1.8 16-9.8 19.2-4.4 1.7-55.5 5.8-63.6 6.3-8 .6-15.6 0-20.8-5.4-13.3-13.8 5.2-31.7 17-38.3a70 70 0 0 1 34.6-7.5Zm-2.8 9.2c-8.9 0-23.5 6.6-23.5 9.8 0 3.1 42.6 0 43.5-2.7 1-2.8-11-7-20-7Zm7-72.8c7.5 4.6 19 15.3 10.8 26.6-9.5 10-23.3-1.4-30-6.6-6.4-4-13.4 6.3-7.6 11 49 36.3 69-29.8 30.5-36.4-4.2-.8-5.8 4-3.8 5.4Zm-85.4-41.6c13-9.5 32.1-2.2 35.3 12.6 2.2 1.2 3.4 3 3.7 5.7v.7c.4 3.2-2.5 6.3-5.4 7-3.2 1-5.7.6-8.7-.8-2.8-1.3-3.8-5-3.3-7.8v-.3c.8-3.5-2.2-6.9-5.2-8.3-3.4-1.5-7.3-.5-10.2 1.5-3.3 2.3-6 6.3-7 10.2v.4c-.8 3.4-1.3 9.7 2 11.7.5.3.1 1.1-.5 1-7.1-1.2-11.4-5.5-11.4-13.2 0-8.1 4.3-15.7 10.7-20.4ZM204 100c12.8-4.6 28.9 7.6 24 21.8-3.3 9.3-15.9 5.5-14.7-3.8v-.2c.8-4.9-2.9-7.2-7.4-5.6-6.6 2.4-10.2 12.8-7.1 19 .4.7-.7 1.3-1.1.6l-.5-.7c-3.5-5.5-6.6-9.6-5.5-16.7A19 19 0 0 1 204 100Zm-26-33.7c-.1-.6.6-1 1.1-.9 4.6 1.2 8.7 4.5 12.9 6.6 4.5 2.4 9.2 4.3 14 5.7 4.9 1.3 9.7 2 14.7 2 5.4 0 10.7-2.1 16-2 8 .3 12.1 11.9 4.3 15.9-11.4 5.8-28.4 1.6-39.5-3.3-9-3.8-23-13-23.6-24Zm-58 2.7c4-5.4 12.5-5.7 16.2.6 3.8 6.5-.8 13-7.2 14.4-11.9 5.3-24 9.4-37 11l-1.7.3c-11.3 1.4-25.5 2-35.7-3-1-.6-.7-2.1.3-2.4 5.8-1.7 12.2-1.6 18-2.7a149 149 0 0 0 16.7-3.8c10.8-3.3 21-8 30.3-14.4Z" fill="#000000"/><path d="M133.2 229.7s10.2-16.5 26.9-16.5 36 8.7 34.7 12.8c-.7 2.2-16.3 8.5-42.2 8.7-6.4 0-19.4-5-19.4-5Z" stroke="#22252B" stroke-width="1.5"/></g></g></svg>