<svg viewBox="0 0 704 704" fill="none" xmlns="http://www.w3.org/2000/svg"><g transform="translate(315 248)"><g fill-rule="evenodd" clip-rule="evenodd"><path d="M105.8 231.1c4.6-14 54.2-34.8 62.6-28.8 8.3 6-2.5 49.2-2.5 49.2s-46.2 4.8-49.5 2.4c-3.3-2.4-15.2-8.7-10.6-22.8Z" fill="#FFFFFF"/><path d="M190.3 203.4c.3.3-.3.8-.7.5-3.8-2.7-9.8-1.1-13.5.1 0 0-1.3 43.3.2 44.3s22.4.5 22.4 3c0 8.4-12.6 11.6-19.4 11-10.8-.7-21.9-2.2-32.6-1-10.8 1.3-33.6 8.1-45.3-1.4-14-11.3-12.1-29.9-.5-42a68 68 0 0 1 28.7-15.7c15.5-5 52.1-8.1 60.7 1.2Zm-28.6 31.8a748.9 748.9 0 0 1-40.3 13.1c7.8-.5 34.3-1.1 40.3-4 .6-2.7 1-9.5 0-9Zm4.2-30c-15.2 2.5-48.1 13.6-52.8 19.6 7.1-1.2 47.2-6 51.8-6 .6-3.5.2-9.6 1-13.6Zm5-67.8c7.5 4.6 19 15.3 10.8 26.6-9.5 10-23.3-1.4-30-6.6-6.4-4-13.4 6.3-7.6 11 49 36.3 69-29.8 30.5-36.4-4.2-.8-5.8 4-3.8 5.4Zm16.7-67c4.4 0 7 2.8 10.3 5.4 3.4 2.6 7.6 4.7 11.6 6.3 4.1 1.7 8.6 3 13 4 4.5 1 8.7.5 13.2 1.4 12 2.2 9.2 22.2-2.8 21.2a59.6 59.6 0 0 1-30.7-14.5c-3.9-3.2-7.2-7-10.4-11l-.6-.7c-2.9-3.5-5.5-7.1-4-11.8 0-.2.1-.3.4-.3Zm-100 58.3c0-6.4 3.7-21 13-21 5.7 0 9.1 10 9.7 20.2v.4c.3 6.4-1.4 20.2-9.8 20.2S87.7 135.4 87.6 129v-.2Zm135.2 0c0-6.4-3.8-21-13-21-5.5 0-9 9.5-9.7 19.4v.8c-.4 6.1 1.2 20.6 9.8 20.6 8.4 0 12.8-13.1 12.9-19.6v-.2ZM117.7 71.3c5.7-2.4 12.2-1.7 15.7 4.2 3.3 5.5 1 12.3-4.1 15.7-5.1 3.4-12 5.2-17.8 7.1l-.6.2a148.2 148.2 0 0 1-33.7 7.4l-1.6.2c-4.3.5-10.3 2.1-14.2-.3a.8.8 0 0 1-.3-1c2.3-4 8.3-5.5 12.1-7.5 5-2.5 9.8-5.3 14.7-8l14.5-8.5c5-3 10-7.2 15.3-9.5Z" fill="#000000"/></g></g></svg>