<svg viewBox="0 0 704 704" fill="none" xmlns="http://www.w3.org/2000/svg"><g transform="translate(315 248)"><path fill-rule="evenodd" clip-rule="evenodd" d="M190.6 219.8a28.5 28.5 0 0 1-16 9.2 33.9 33.9 0 0 1-19.5-.9l-.5-.2c-4.6-1.8-9-5.7-10.6-9.6a7 7 0 0 1-.4-4.7 6.9 6.9 0 0 1 3-3.7c.4-.3 1-.3 1.7-.2.8.1 1.6.5 2 1 2.7 2.7 6.4 5.4 11 5.4 3.4 0 6.2-1.4 8.9-3l2-1c1.8-1.1 3.6-2 5.8-2.5a14 14 0 0 1 11.2 3c1.2 1.1 2.1 2.4 2.4 3.7.2 1.2-.1 2.4-1 3.5Zm-19.8-75.4c7.6 4.6 19 15.3 11 26.6-9.6 10-23.4-1.4-30.2-6.6-6.3-4-13.3 6.3-7.5 11 49 36.3 69-29.8 30.5-36.4-4.2-.8-5.8 4-3.8 5.4ZM85.6 73.8l2.2-.6 2.2-.6 1.5-.4c10.3-2.7 21.6-5 31.8-3.9 3.7.5 6.7 2.5 7.3 6.4.4 3.3-1.7 7.6-5.3 8.1-12 2-24.3 1.4-36.3 3.4-6 1-12 2.2-17.9 3.3-4.5.8-9.2 1.1-13.8 1.8l1 .2c.5 0 .4.6 0 .6-1.5-.1-3-.2-4.5 0H53c-1 .1-1.5-1-.7-1.6 5.6-3.8 10.3-8 16.6-10.7 5.4-2.4 11-4.4 16.6-6Zm93.6-5.8c7.9-8 24.7-4.9 34-1.2 5.4 2 10.5 4.7 14.8 8.6l.4.4.6.6c2.9 2.8 6 6.7 5.6 10.7 0 .7-.4 1.4-1 1.5-3.8.7-7.5-1.3-11-2.5l-2.3-.8c-3.5-1.2-7-2.3-10.5-3.1-4.4-1-9-1.6-13.5-1.6-4.6 0-9.5 1.4-14-.4-4.8-2-7.3-8-3.1-12.2Zm-78 64.4c-2 2-4.8 3.2-8.2 2.6-2.6-.6-7.7-3.3-11.7-7.4-2.8-2.8-5.1-6.3-5.8-10.4-.1-1-.6-1.6-1.3-2-.5-.2-1.2-.4-2-.3-.6 0-1.2.3-1.8.6-1 .6-1.4 1.4-1.4 2-.8 6 1.5 11.8 5 16.8C79 141 86 146 90.1 147.1c7.2 2 14.7.4 20.2-4.6a36 36 0 0 0 8.8-14.4l.4-1 1.5-3.7c1-2.3.7-4.4-.3-6-1-1.8-3-3-5.3-3.4-2-.3-4.2 0-6 1.3a7.7 7.7 0 0 0-3 5.2c-.6 4-2.2 8.6-5 11.6l-.3.3Zm122.2-23.2c-1.6-.8-3-1-4.8-.5-1 .3-2 .9-2.8 1.6-.8.8-1.3 1.8-1.5 2.9-.6 2.6-2 5.1-4.1 6.8a8.2 8.2 0 0 1-6.5 1.7 12.5 12.5 0 0 1-8.3-6l-.2-.4c-.9-1.5-1.7-2.8-3-3.8-.4-.4-1-.7-1.7-.7l-.8.1c-2.7 2.7-3.2 4.7-3.1 6.7 0 2.1 1 4.3 2.2 6.3 3.2 4.7 9.2 8.5 13.2 9.4 5.6 1.2 11-.3 15.5-3.4a22 22 0 0 0 9-13.7c.2-1.3 0-2.8-.4-4a5.7 5.7 0 0 0-2.7-3Z" fill="#000000"/></g></svg>