<svg viewBox="0 0 704 704" fill="none" xmlns="http://www.w3.org/2000/svg"><g transform="translate(315 248)"><path fill-rule="evenodd" clip-rule="evenodd" d="M177.5 205.3c3.5-6 13.7-5 15.3 2 3.1 14.3-14 27.6-26.9 27.9-12.9.3-27.3-10.6-25.5-24.5.5-3.4 5-3 6.6-.9l.6.9c4.3 5.7 9.9 11.5 17.7 10.2 3.3-.6 6.2-2.7 8.2-5.3 2.4-3.1 2.1-7 4-10.3ZM95.6 100.6c1.8-.5 3.5-.3 5 .4a10 10 0 0 1 7.7 7.6l.1.4-.4-1c.2 1 1 2.1 1.4 3.2.3 1.2.4 2.7.3 4.1l3.3.1 1 .1c6 .6 12.5 1.6 16 6.7 2 2.9.1 8-3.5 8.6-5.6.9-10.4-2.2-16-2.8-5.2-.6-10.7-.3-15.9.7-10.7 2-20.5 6.3-31 9l-1.4.4c-1.8.4-3.8-2.1-2-3.6 8.3-6.8 19-12.4 29.6-15.8a9.4 9.4 0 0 1-1-8.3l.6-1.6.4-1c0-.6.2-1 .3-1.6v-.1a8.2 8.2 0 0 1 5.5-5.5Zm106.7.4c2.2-2.3 5.5-2 7.8-.1l.4.2a13 13 0 0 1 5.3 5.2 13 13 0 0 1 2.1 6.6c5.6 0 10.9 1.6 15 6.1 1.2 1.5 2.1 3.7 1.4 5.6l-.4 1.2c-1.4 3.7-7.5 5.8-9.6 1.5v-.2c-2.3-5.2-10.8-4.7-15.3-4.1a58.3 58.3 0 0 0-12.5 3l-1 .3c-.6.2-3.6 1.8-1.8 1.4.5 0 1 .7.4.9-2.2 1-4.5-1-4.4-3.4.3-4 6.8-6.3 9.9-7.7h.2l3.7-1.7a18 18 0 0 1-2.8-7.2c-.2-.7-.2-1.3 0-2v-1.4l-.1-.2c0-1.5.7-3 1.7-4Zm-36.6 43.4c8.8 2.7 23.3 10.1 18.7 21.5-6.4 10.5-23.3 2.8-31.5-.6-7.4-2.4-11.2 8-4.1 11 59 23.4 58.7-38.2 19-37.3-4.3.1-4.4 4.5-2 5.4Zm-78-80.3 1.5-.4c7.8-2.2 15.8-6.1 22.7 0 2.7 2.3 3.2 7.3 1.3 10.3-4.4 6.7-11 5.7-18.1 6.3a56.3 56.3 0 0 0-27.5 10.5c-3.6 2.5-6 6.5-9.7 8.7-1.4.9-3 0-3.4-1.3-1.7-4.8 1.2-10.8 3.6-14.9 3-5 7.5-9 12.4-12A66.8 66.8 0 0 1 87.7 64Zm113.5-5c13.1-.1 25.8 7.2 33.1 18 2.5 3.6.7 9-2.9 11-4 2.4-8.3.7-11-2.6l-.1-.2a41 41 0 0 0-26.2-16l-1-.3c-1.6-.2-3.4-.5-4.8-.2-.7 0-1.4.3-2 .7.2.6-.5 1.4-1.3 1-3.2-1.8-2.8-5-.1-7.4 3.8-3.6 11.3-4 16.3-4Z" fill="#000000"/></g></svg>