<svg viewBox="0 0 704 704" fill="none" xmlns="http://www.w3.org/2000/svg"><g transform="translate(315 248)"><g fill-rule="evenodd" clip-rule="evenodd"><path d="M171 171c28.2 0 51-23.3 51-52s-22.8-52-51-52-51 23.3-51 52 22.8 52 51 52Z" fill="#FFFFFF"/><path d="M203.1 187.8a.8.8 0 0 1 1.6 0c2.2 6.9 3.5 13.6 6.7 20a57.8 57.8 0 0 0 6.9 10.3c2.4 2.9 4.2 5.6 2.9 9.5-.6 2-2.3 3.2-4.3 3.3-5.6.2-8.8-5.1-10.8-10.7a113.2 113.2 0 0 1-43.7 6 86.4 86.4 0 0 1-35.4-9.8l.3 6.8c.1 4.2 1.3 8.9.8 13-.4 4.1-2.8 7.3-7 8-3.6.5-8.2-2-8.9-5.8-.8-4.6.7-7.8 2-12l3-11.5 2.4-11.7c.5-2.8.1-6 1.2-8.7 0-.3.2-.4.5-.3 5.4 1.5 5.7 10.2 5.7 14.9v3l2 .5c11.3 2.4 22.3 4.3 34.2 3.6 14-.8 26.3-5.9 39.5-9.4a41 41 0 0 1 .4-19Zm-46.6-124a51.6 51.6 0 0 1 55.8 14.9 54.2 54.2 0 0 1 13.3 35.9c-.1 13.6-3.7 29-10.4 40.8-14.2 25-47.2 25.2-71 15.3-25.3-10.7-35.6-37.6-29.5-63.5 4.6-19.6 20.2-43 41.8-43.3Zm41.3 19.4c-7.5-6-17-8.7-26.5-8-4.7.3-9.5 1.6-13.8 3.6-2.3 1-4.3 2.5-6.5 3.7-2 1-4.2 1.5-6.3 2.4l-.8.3c-3.3 1.5-6.8-.7-7-3.8a65 65 0 0 0-10.8 36.8 47 47 0 0 0 7.5 26.4c5.9 8.5 15.6 13 25.3 15.3a58 58 0 0 0 28.9.5c9.7-2.7 16-10 19.5-19.2 7.8-20 8.4-43.6-9.5-58ZM164.4 108c4.3-5.8 11.9-6 16 0 2.7 3.8 2.3 7.5 2 12v1c0 3.4 0 7-1.4 10.3-1.7 4.2-5 6.8-9.5 6.3-2.8-.4-5-2-6.4-4.2a29.7 29.7 0 0 1-2.7-11.5l-.2-3c-.2-3.9-.2-7.5 2.2-11Z" fill="#000000"/></g></g></svg>