<svg viewBox="0 0 704 704" fill="none" xmlns="http://www.w3.org/2000/svg"><g transform="translate(315 248)"><path fill-rule="evenodd" clip-rule="evenodd" d="M126.2 196.3c5.5-9.2 17.5 13.3 18.7 17.2 1.2 3.4 1.9 7 2.3 10.5 4.3 1 8.8 1 13.3.1 6.6-1.2 10.6-4.8 16.3-7.8 4-2.1 9 .3 11 3.8 2.5 4.1 1 8.4-2.2 11.5-6 5.8-18 7.1-25.9 5.6-4.5-1-8.7-2.6-12.3-5l-.1 1.3v.8c-.7 6.5-2.5 14.6-7.5 18.8-8.2 6.8-18.3-6.4-10.3-13.3l.2-.2c5-4 6-14.7 5.8-20.7-.2-3.8-.9-7.7-2.1-11.4l-.3-.8c-.3-1-4.3-10.9-5.8-9.6-.6.8-1.6 0-1.1-.8Zm44.6-52c7.6 4.7 19 15.4 11 26.7-9.6 10-23.4-1.4-30.2-6.6-6.3-4-13.3 6.3-7.5 11 49 36.3 69-29.8 30.5-36.4-4.2-.8-5.8 4-3.8 5.4ZM90.2 102a28 28 0 0 1 21 4.9l.5.3c5.9 4.3 12.5 11.9 9 19.3-1.3 3-5.3 3.4-8 2-4.2-2.2-5-7.7-8.8-10.8-3.1-2.5-7.4-4-11.4-3.6-9.5.8-15.3 10.2-18.3 18.3-.4 1-1.9 1.4-2.5.3-7-13 5.4-28.3 18.5-30.7ZM208.4 97c14.1-1.1 30.7 13.5 27 28.5-1.8 7.1-12.5 7-14.3 0-1-3.9-1-7.3-3.7-10.4a10.9 10.9 0 0 0-9-4 16 16 0 0 0-10 5c-2.5 2.3-4 5.9-6.4 8-.7.6-1.5.6-2 0-4.4-4-1.8-12.2 1-16.4 3.8-6 10.2-10 17.4-10.7ZM63.3 75.5c9-8 25.5-15.8 37.7-11.9 7 2.3 10.1 13.6 2.3 17.2-9.1 4.2-19.6 2.5-28.8 6.8-4 1.8-7.6 4-10.3 7.4-2.1 2.6-4.3 6-7.4 7.6-.8.4-1.9.4-2.5-.4-6.8-7.6 3-21.5 9-26.7Zm129.5-12.3a40.4 40.4 0 0 1 33.6 6.3l.6.4c5 3.8 11.1 9.4 10.8 16.1-.3 5.7-6.2 9.5-11.4 6.6-4.2-2.5-6.1-7.3-9.7-10.5a33.4 33.4 0 0 0-22.5-8.7c-3.4 0-6.8 1-10 1.4.2.5-2.4.3-4-.2-1-.5-1-1.9-.6-2.8 1.9-4.5 8.8-7.3 13.2-8.6Z" fill="#000000"/></g></svg>