<svg viewBox="0 0 704 704" fill="none" xmlns="http://www.w3.org/2000/svg"><g transform="translate(315 248)"><g fill-rule="evenodd" clip-rule="evenodd"><path d="M93.8 224.8c8-16 81.4-8.9 81.4-8.9l6.2 51s-35.4 11.3-56.5 9c-21-2.5-39-35.1-31-51.1Z" fill="#FFFFFF"/><path d="M99 251.5c-2.5-5.5 50-20.2 66.2-10.1 16.2 10 11.1 23.9 11.1 23.9S108 280.8 99 251.5Z" fill="#FF8181"/><path d="M89.3 215.3c12.2-14.2 32.9-15.2 50-11.7 11 2.3 21.6 6.1 32.7 7.5 5.2.7 10.5.9 15.7.8 5.2-.1 10.3-1.1 15.4-1 .8 0 1.1 1.1.4 1.5-7 4.4-16.5 5.7-24.8 6.6a93 93 0 0 1 .7 5.8l1.3 9.2c.8 6 1 12.3 2.5 18.2l.3 1a9 9 0 0 1 .3 3.4l.3-.1 1.1-.5.7-.4c2.6-1.2 5-2 8-1.7 2.3.2 4.2 1.7 4.2 4.2 0 11-14.7 14.5-23.1 16.6l-2.5.6c-10.8 2.6-21.7 4.9-32.8 5.4-17.7 1-37.7-4-49.3-18.4-10.8-13.4-12.8-33.4-1.1-47Zm80.6 46c-2-16.5-22.2-17.4-28-7-2.6-14.5-40.9-1.2-37.9 1.7 11.4 11 28.6 12 43.4 10 7.5-1 15-2.8 22.5-4.7Zm-22.5-43.2-5.1-.7-2-.3c-12.7-1.7-26.9-2.6-37.3 5.5a18 18 0 0 0-6.7 11A552 552 0 0 1 126 230l2.7-.3 18.6-1.7 4.3-.5 4.4-.4c1.6-.2 12-.7 14-.4.2-1.7.4-5.5.9-7.3-7.4.3-14.8-.3-22.1-1.2l-1.3-.2Zm23.4-73.7c7.6 4.6 19 15.3 11 26.6-9.6 10-23.4-1.4-30.2-6.6-6.3-4-13.3 6.3-7.5 11 49 36.3 69-29.8 30.5-36.4-4.2-.8-5.8 4-3.8 5.4Zm13.5 19.3.4-.2h.1c.2-.2 0-.2-.4 0l-.4.1v.3l.3-.2ZM87.6 123v-.2c0-6.4 3.7-21 13-21 5.7 0 9.1 10 9.7 20.2v.4c.3 6.4-1.4 20.2-9.8 20.2S87.7 129.4 87.6 123Zm135.2-2v-.2c0-6.4-3.8-21-13-21-5.5 0-9 9.5-9.7 19.4v.8c-.4 6.1 1.2 20.6 9.8 20.6 8.4 0 12.8-13.1 12.9-19.6Zm-130-62.6c7.5-1.2 17.5 1 21 8.6 1.5 3.4-.3 7.2-4.2 7.4-9.5.4-18-1.7-26.4 4.5a42 42 0 0 0-9 10l-1 1.4-.8 1.1c-1.7 2.5-3.4 5.3-3.1 8.3 0 1-.9 1.8-1.7 1.7-5.5-.2-6-7-5.4-11.1 1.4-7.7 5-14.8 10.2-20.6 5.4-6 12.4-10 20.5-11.3ZM196 67.5a29.3 29.3 0 0 1 17.9-4c12 .9 32 11 29.3 25.6-.8 4.5-7 6.9-10.8 4.4-4-2.7-4.9-6.9-7.8-10.4a28.5 28.5 0 0 0-8.6-6.5 28.3 28.3 0 0 0-10.3-3.1h-.6c-2.2-.3-13-.2-11.4 3.8.3.8-.9 1.5-1.4.9-3.4-3.7.4-8.5 3.7-10.7Z" fill="#000000"/></g></g></svg>