<svg viewBox="0 0 704 704" fill="none" xmlns="http://www.w3.org/2000/svg"><g transform="translate(315 248)"><path fill-rule="evenodd" clip-rule="evenodd" d="m182.2 226 .7-.2c5.6-1.3 10.9-3 16 .4 5 3.2 5.6 9.2 1.8 13.6-4 4.6-9.2 4.3-14.7 4.4h-.3a135.2 135.2 0 0 1-26.5-2.2l-2.5-.5c-2.5-.5-5-1.2-6.3-3.6-2.3-4.3 14.6-7.7 16.7-8.2 5-1.5 10-2.6 15.1-3.7Zm9.4-51.6a23.2 23.2 0 0 1-10.2 5.9c-10 3-23 1.4-31.1-1.7-1.7-.6-3.3-1.9-4.3-3.5a5.8 5.8 0 0 1-.4-5c.1-.5.4-1 .6-1.4a6 6 0 0 1 3.3-3 7 7 0 0 1 4.5-.3l.6.2c5.2 1.6 13.7 4.4 20.8 3.8 4.3-.3 8-1.8 10-5.7 1-2 .7-4-.2-5.9-1.4-2.8-4.1-5.2-6.4-6.9-3.3-2.4-6.7-3.3-10.3-4.3l-4-1.2c-.5-.2-1-.5-1.2-.8-.3-.4-.5-.9-.6-1.3 0-.5 0-1 .3-1.4.2-.4.5-.7 1-1 7-3 16-1 22.8 4 3.4 2.4 6.3 5.5 8 9a17 17 0 0 1 1.7 10.6c-.7 4.1-2.4 7.4-4.9 9.9ZM77.1 104.6c2-1 3.6 3.1 4 4.2l.9 2.3a26 26 0 0 0 5.7 10.2c2.4 2.3 6.3 4.3 9 1.6 2.7-2.6 1.4-5.4 1.8-8.6.7-5.6 8.4-11.3 13-5.4 10.5 13.4-5.7 31.9-20.6 28.6a23 23 0 0 1-16.2-15l-.1-.3c-1.5-4.6-3-15.2 2.5-17.6Zm135.1 9.2v-.1c-5-11.4 12.7-16.2 14.3-6v.6c1.5 11.3-1.6 26.5-15.4 27.7-15.6 1.2-22-16.1-20.6-28.8.2-2.3 3-2.6 3.8-.6l.2.5c2.5 6.4 4.9 18.7 13.7 18.7 6 0 5.7-8 4-12ZM223.5 81c9-.3 9 13.7 0 13.9-29.8.7-59.6 1.6-89.4 1.8h-5.5c-28 .2-56 .6-84-1.8-2.4-.2-2-3.5 0-3.4 29.3-4.2 59-5.4 88.5-7 30-1.6 60.3-2.4 90.4-3.5Z" fill="#000000"/></g></svg>