<svg viewBox="0 0 704 704" fill="none" xmlns="http://www.w3.org/2000/svg"><g transform="translate(315 248)"><g fill-rule="evenodd" clip-rule="evenodd"><path d="M107 164c30.4 0 55-19 55-42.5S137.4 79 107 79s-55 19-55 42.5S76.6 164 107 164Z" fill="#FFFFFF"/><path d="M195 148c23.7 0 47-15.4 47-34.5 0-19-19.3-34.5-43-34.5s-43 15.4-43 34.5c0 10.5 3.4 3.7 12.6 10 7.5 5.2 15.7 24.5 26.4 24.5Z" fill="#FFFFFF"/><path d="m199.7 206 .8-.1c5.7-.3 11.1-1.2 16.2 2a10.5 10.5 0 0 1 0 18c-5.3 3.2-11 2.1-17 2a953.9 953.9 0 0 0-43.9-.4c-8.8 0-17.6 0-26.4-.2l-3.8-.1c-9-.3-18.5 0-27.4-1.7l-.3-.1c-1.6-.5-2.4-3-.6-3.9 8.9-4 19-5.8 28.4-7.7 9.6-2 19.4-3.4 29.1-4.5a588.5 588.5 0 0 1 45-3.4ZM170.2 80.1l.6-.4c7.1-4.7 17.3-9.2 25.4-5.6.5.2.9.4 1.2.7a51.7 51.7 0 0 1 44 27.8 34.6 34.6 0 0 1-10.3 44.8 48.4 48.4 0 0 1-24.5 10.3c-3 .2-6 .3-8.9-.6 1.4 2.9 2.4 5.8 3 9 1.7 10.7-2.6 19.6-12.6 24.2-8.8 4.1-21 5.7-29.7.5-7.3-4.3-4.9-18.7 4.8-17.4 6.5.8 12.4 3 18.9.2 5.2-2.2 2-10 .4-14-2.6-6.7-6.5-13-9.7-19.5l-.6-1.3c-2-4.2-4.4-8.7-6.3-13.3-1 5.4-3 10.7-5.1 15.6a40.4 40.4 0 0 1-27.4 22 138 138 0 0 1-39.7 3.8c-13-.4-26.7-3.8-36.2-13.2C40 136.5 45 106.4 63.4 91.9a63.6 63.6 0 0 1 43.9-14 56 56 0 0 1 24 1 49.6 49.6 0 0 1 27 15.4l1.8-3.6c-.3-.2-.4-.6-.1-.9l1.6-1.4c2.2-3.1 5-5.8 8.6-8.2Zm-126 80.9c-.7-1 .6-2 1.4-1.5a90.7 90.7 0 0 0 23 11.3c8 2.4 16.5 2.2 24.6 4.2 3 .8 2.5 4.7 0 5.7-9 3.4-19 .5-27.5-3-8.6-3.7-16.1-9-21.5-16.7ZM92.5 87l.2-.3-.6.2a54 54 0 0 0-25 17.1c-11.6 14-11.7 36 5.5 45.5 9.2 5 20.2 5.3 30.5 4.8l2-.1c9.1-.5 18.3-1.3 27-3.7a28.2 28.2 0 0 0 19.8-17.7l.3-.8c3.6-9.5 5.5-20.1-1.2-28.7-11.4-14.7-37.8-17.6-54.1-10.6-4 1.7-7-2.4-4.4-5.7ZM197 83a5 5 0 0 1-.9.7c-3.3 2-7 2-10.6 3A45 45 0 0 0 176 90c-4.8 2.5-9.8 5.4-14.4 8.6a34 34 0 0 1 5.2 20c3.2 2.8 5.9 6.2 8.7 9.3l2.5 2.7a218.8 218.8 0 0 1 13.2 16 7 7 0 0 1 1-1.9 6 6 0 0 1 6.5-2.7c2.3.6 4 1.7 6.4 1.7a37.7 37.7 0 0 0 24-11c9.1-9.5 4.3-23-3-32.2A49 49 0 0 0 197 83Zm-82.3 23c3-.8 7.4.6 8.7 3.6l1 2.2-.2-.1 1 2.3.8.7a11.7 11.7 0 0 1 3.2 11.4 10.8 10.8 0 0 1-10.4 7.8c-14.2 0-17.7-23.9-4.1-27.8Zm85.6-4.2c6.6-.3 11 5.5 11.5 11.4.2 3.4-.4 7.1-1.4 10.3a10 10 0 0 1-19.4-.2c-1.3-3.1-2-6.6-2.1-10-.2-6.5 5.3-11.2 11.4-11.5ZM114 48.2c6.6-1 13 2.2 14 9.4s-4.4 12-11 12.6c-12.6 1.4-25.4 1.7-38 2.2-5.3.3-10.6.4-15.8.4h-2.7c-4.9 0-11.2 1-15.7-1.4-.3-.1-.3-.5 0-.7 3-3.9 9.5-5.5 14-7.2l.5-.1a264 264 0 0 1 17.6-6l3-1c11.2-3.2 22.7-6.3 34-8.2Zm42.2-3.5c4-1.5 8.2-.5 11 2 9.3 2.7 19 4.7 28.3 7l2.6.6c11.8 3 24.7 5.2 35.7 10.6 1.2.6.4 2-.6 2.2-12.2 1.5-25.4-1-37.5-2.3-12.5-1.5-25-3.9-37.4-4.8-9-.7-10.3-12.2-2.1-15.3Z" fill="#000000"/></g></g></svg>