<svg viewBox="0 0 704 704" fill="none" xmlns="http://www.w3.org/2000/svg"><g transform="translate(315 248)"><g fill-rule="evenodd" clip-rule="evenodd"><path d="M100.8 231.2c0-18.4 27-22.4 50.4-22.4s49.6 5.4 49.6 22.4-27.5 19.6-44.7 19.6c-17.1 0-55.3-1.3-55.3-19.6ZM101 147c21 0 38-14.3 38-32s-17-32-38-32-38 14.3-38 32 17 32 38 32ZM211.5 147a31.8 31.8 0 0 0 31.5-32c0-17.7-14.1-32-31.5-32a31.8 31.8 0 0 0-31.5 32c0 17.7 14.1 32 31.5 32Z" fill="#FFFFFF"/><path d="M151.9 205.7c9.3-3.3 19.2-2 28.6 1.4l.8.3c8.7 3.3 19.2 9 22.8 18 .7 1.8 1 3.6 1 5.4 1.2 0 2.3.2 3.5.4 2.3.4 2.2 4.2 0 4.6-1.4.3-2.9.6-4.3.7a22 22 0 0 1-7.6 10.6c-8.2 6.3-19.5 7.4-29.4 8.4-11 1-22 .8-33-.6l-3.8-.5c-9-1.1-18.9-2.6-26.5-7.4-7.1-4.5-12-13.2-9-21.6 3.1-8.7 13.7-12.3 21.6-15.1a85 85 0 0 1 35.3-4.6Zm-15.8 29 .3 7.6c0 .8-.2 1.5-.6 2 5.4.7 10.9 1 16.3 1-1-3-1-6.5-1-9.7l-15-.9Zm20 1.1.5 1.7c.7 2.5 1.3 5.2 1.2 7.7l7.6-.5 3.2-.3c.7 0 1.5 0 2.2-.2l.8-7.8-15.5-.6Zm20.4.7c.3 2.3.5 4.7.6 7 4-.6 8.1-1.6 11.6-3.4 1.7-1 3.1-2 4.2-3.2-3.5 0-7-.2-10.4-.3h-2l-4-.1Zm-71.7-5.3c.3 4.8 8 8.2 11.8 9.4 3.8 1 7.6 2 11.5 2.6a3 3 0 0 1-.1-1l.7-8-2-.2c-7.3-.6-14.9-1-21.9-2.8Zm47.6-18.4c.6 6 1.5 12 2.6 18h2l15 .2v-.8c.2-5 .1-10 0-15.1-6.3-1.4-13-1.9-19.6-2.3Zm22.2 3 1.4 15.1h6.5c4 0 8.3-.3 12.5-.4-.3-2.2-1.6-4.4-4-6.4-5-4.3-10.6-6.8-16.4-8.4Zm-26-4.2c-4.8.5-9.6 1.4-14.3 2.5 1.2 3.6 1 7.6 1.3 11.4l.3 4.9 15 .3c-.2-6 0-12 .3-18h-.6c-.8-.1-1.5-.5-2-1.1ZM131 215l-6.5 2-2.3 1c-5.7 2-13.2 5-16.4 9.6-.5.8-.8 1.5-1 2.3 8-.8 16.2 0 24.2.3l.4-3.2.1-1.5c.5-3.4.5-7.2 1.5-10.5Zm39.7-72.6c7.6 4.6 19 15.3 11 26.6-9.6 10-23.4-1.4-30.2-6.6-6.3-4-13.3 6.3-7.5 11 49 36.3 69-29.8 30.5-36.4-4.2-.8-5.8 4-3.8 5.4ZM78.3 86.7c10.7-18.6 37.2-18.9 52.4-4.6a40.6 40.6 0 0 1 4.7 52.7c-12.3 17-36.3 21.6-55.7 15.6a34 34 0 0 1-21.8-43.6 33.5 33.5 0 0 1 20.4-20Zm-10-31.2c9-8 25.5-15.8 37.7-11.9 7 2.3 10.1 13.6 2.3 17.2-9.1 4.2-19.6 2.5-28.8 6.8-4 1.8-7.6 4-10.3 7.4-2.1 2.6-4.3 6-7.4 7.6-.8.4-1.9.4-2.5-.4-6.8-7.6 3-21.5 9-26.7Zm129.5-12.3a40.4 40.4 0 0 1 33.6 6.3l.6.4c5 3.8 11.1 9.4 10.8 16.1-.3 5.7-6.2 9.5-11.4 6.6-4.2-2.5-6.1-7.3-9.7-10.5a33.4 33.4 0 0 0-22.5-8.7c-3.4 0-6.8 1-10 1.4.2.5-2.4.3-4-.2-1-.5-1-1.9-.6-2.8 1.9-4.5 8.8-7.3 13.2-8.6ZM204 75c9.4-1.9 19.8.2 27.7 5.7a40.1 40.1 0 0 1 13.9 46.2 38.4 38.4 0 0 1-41.2 23 36.1 36.1 0 0 1-28.8-38.1c.8-7.5 4-14.2 8.8-19.3l.2-.5c3.4-9 9.8-15 19.4-17Zm-86 14.3c-10.7-6.5-26.5-2.8-35.8 5-1.8 1.5-3.9 1-5-.3a29.7 29.7 0 0 0-11.4 20.8c-1.3 15.5 9.7 25.7 24.6 26.8 15.2 1.2 30.9-3 38-17.5A26.7 26.7 0 0 0 118 89.2Zm102 .7a31 31 0 0 0-27.9 4.3 30.5 30.5 0 0 0-6.2 25.3c3.2 11.7 14.4 20.8 26.8 19.5a25.9 25.9 0 0 0 23-22c1.1-11.1-5-23-15.7-27.1Zm-7.2 17.5c2-1.3 4.3.2 5 2l.4.9.4.9v.2l.4.6 1 1a6.9 6.9 0 0 1 1.8 4.9 6 6 0 0 1-7.5 5.6c-4-1-5.7-5.1-5.3-9 .2-3 1.4-5.3 3.8-7Zm-109.3.8a4.5 4.5 0 0 1 6.3 0c1 1 1.3 2 2 3.1l.3.5c.8 1.2 1.5 2.2 1.7 3.6.5 3.2-.5 6.1-3.7 7.5-3.1 1.3-6 0-7.9-2.6-2.3-3-1.6-9.5 1.3-12.1Z" fill="#000000"/></g></g></svg>