<svg viewBox="0 0 704 704" fill="none" xmlns="http://www.w3.org/2000/svg"><g transform="translate(315 248)"><g fill-rule="evenodd" clip-rule="evenodd"><path d="M127.8 246.7s14.2 11 40.6 11c26.4 0 41.7-9.9 41.7-9.9s-23.1-14-41.7-15.2c-18.6-1.1-40.6 14-40.6 14Z" fill="#FF6C6C"/><path d="M96.3 218.9c0-11 9.6-13 18.7-11.5a332 332 0 0 0 46.3 4.6h2.7c.5-.6 1.2-1 2.2-1.2 8.6-1 17.4-.8 26-1 7.6-.3 15.4-1 23-.4h.6c9.2 1 19 5.6 17.9 16.5-1 10-10.7 19-18.3 24.5a60 60 0 0 1-7 4.4A64 64 0 0 1 184 262a117 117 0 0 1-57.2-8.1c-5.7-2.6-11-5.8-15.7-9.8-7.3-6-14.9-15.3-14.8-25.3Zm73 19.8a64 64 0 0 0-21.6 3c-4.7 1.6-9 4.5-13.6 6.6a118 118 0 0 0 48.8 6 59 59 0 0 0 19.7-4.8l-3-2a64.3 64.3 0 0 0-30.3-8.8Zm1.5-94.3c-2-1.5-.4-6.2 3.8-5.4 38.4 6.6 18.5 72.7-30.5 36.4-5.8-4.7 1.2-15 7.5-11l2.3 1.7c7.2 5.6 19.2 14 27.8 5 8.2-11.4-3.3-22.1-10.9-26.7Zm26-50c8.2-7 18.4-2 24.4 5.1l1 1.3c1.3 1.4 2.6 3.1 3.4 4.9 6.7-5.7 15.7-9.7 24.3-7a16.7 16.7 0 0 1 11.8 19c-1.7 9.8-9 16.4-17 21.4l-2.3 1.5c-9.5 6-18.4 12.2-26.3 20.6-1.3 1.3-4 1.1-4.9-.7l-.6-1.4-.7-1.5c-5.6-11.9-11.6-23.7-16.5-35.8-3.6-9-4.8-20.5 3.4-27.5ZM105 99.1c6-7 16.1-11.6 24.1-4.9 8.5 7.2 6.8 19 3 28.3-4.5 11-9.8 21.8-15 32.7l-1 2.3-1.4 3c-.9 1.7-3.6 2-5 .6-7.5-8.1-16.1-14.1-25.3-20l-2.8-1.8c-8-5.1-15.7-11.7-17.4-21.7a16.7 16.7 0 0 1 11.8-19c8.6-2.6 17.6 1.3 24.3 7 .8-1.8 2.2-3.6 3.5-5l1.2-1.5Zm9.7-48.5c3 3.8-.2 10-4.5 11-5.2 1.2-10.6.4-15.8 2a49.5 49.5 0 0 0-13.3 6.8c-4.7 3.2-9 6.7-12.9 10.7-2.3 2.4-5.3 8-8.9 8.1-3.6.1 1.2-11 1.6-12 2.9-7 6.8-13.3 11.8-18.9 9.8-11 30.6-22.6 42-7.7Zm109.5-3 2.4.6a58 58 0 0 1 17.7 7.4l.4.3.7.5c6.5 4.8 15.7 14.5 11 23-.2.6-1 .6-1.5.4-6.1-2.7-10.7-8-17.2-10.3l-1.2-.4a64.3 64.3 0 0 0-21-4.2c-4.8 1.5-11.2.3-12.5-5.6v-.3l-.1-.6c-.8-4 .3-9 4.4-11 5.7-2.6 11.2-1.4 16.9.2Z" fill="#000000"/></g></g></svg>