<svg viewBox="0 0 704 704" fill="none" xmlns="http://www.w3.org/2000/svg"><g transform="translate(315 248)"><g fill-rule="evenodd" clip-rule="evenodd"><path d="m111.4 252.4-10.6-40.3 1.7.2c16.8 2.7 25.1 5.4 25.1 8.2v.1c-.2 3.2-5.6 13.8-16.2 31.8Zm97.2-31.6-3.7 28.8-19.5-21.3 23.2-7.5ZM98.5 149c21.8 0 39.5-16.1 39.5-36s-17.7-36-39.5-36S59 93.1 59 113s17.7 36 39.5 36Z" fill="#FFFFFF"/><path d="M157 112c19.9 0 36-15.9 36-35.5A35.8 35.8 0 0 0 157 41c-19.9 0-36 15.9-36 35.5a35.8 35.8 0 0 0 36 35.5Z" fill="#FFFFFF"/><path d="M206 142c16 0 29-14.3 29-32s-13-29.5-29-29.5-29 11.8-29 29.5 13 32 29 32Z" fill="#FFFFFF"/><path d="M101.2 210.7c7.2-1.4 16.2 1.6 23.5 3h.5c8.8 1.6 17.5 3.4 26.4 4.3 8.5 1 17.1 1 25.6 0a82.2 82.2 0 0 0 17-3.8h.2c1.3-.5 4.5-2.4 4.5-1.4 1-1 2.2-1.8 3.6-2.2 2-.5 4.5 0 6.2 1.4 2.1-1.7 5.3-.5 6.8 1.5 2.4 3.5 1.6 7.6 1.3 11.7v.3c-.3 3.9-.7 7.7-1.2 11.5l-.2 1.6c-.8 5.6-1 14.8-7.8 16.7-5.4 1.4-10.3-4-13.8-8.5l-2-2.4a54.3 54.3 0 0 1-8-13.6l-.1-.5c-10 1.3-20.2 1.2-30.2-.2-6.3-.8-12.6-2-18.7-3.6l-2.8 5c-3.2 5.8-6.5 11.6-10 17.4l-.2.4c-3.3 5.1-8.7 10.3-15.1 6.4-5.7-3.4-6-11.3-6.6-17.1l-.9-11.8V225c-.1-3.8-.8-8.2.7-11.8.2-.5 1-1 1.4-.4 3 3.7 4 9.5 5.3 14 1.5 5.2 3.6 10.7 4.4 16l.2-.4a375 375 0 0 1 2.3-4.2l2.3-4.3 6.4-11.5-7.3-3-5.5-2.2a25.9 25.9 0 0 1-8.6-5.2c-.4-.4-.3-1.3.4-1.4Zm103.7 14c-5.4 2.2-11 3.8-16.7 4.9l1.1 1.1 4.2 4.5.8.9c2.2 2.2 5.5 6 8.9 8l.1-1 .1-.3.4-3.2.1-1.6.8-8.6.2-4.6ZM141 40a40 40 0 0 1 39.1 5.4 46.6 46.6 0 0 1 17 36c8.9-7.7 21.8-1.9 29.3 5.3a37 37 0 0 1 11 32.5 32.7 32.7 0 0 1-22 25.7 31.2 31.2 0 0 1-23.6-2.4l.4 1.5c2.7 11.7 4.3 25 .2 36.5-6.7 18.7-30.5 29.1-45.3 12.6a39.1 39.1 0 0 1-10-25.6c.2-4.6 2.9-10 8.3-9.7 4.2.3 6.2 3.8 5.1 7.5v.2c-2.3 7.2 1.6 17.5 7.2 22.4 8.7 7.5 20.6 1 25.4-7.8 5.5-10.2 4.8-23.3 3-34.4-1.7-11-5.5-21-9.6-31l-1.4.2c-8.2 1.1-24.8 1.5-33.8-4.4 1 9.1-1 18.6-6.1 26.3a34 34 0 0 1-24.7 14.6 87.4 87.4 0 0 1-31-.7c-20.7-5-28-30.6-21.7-49 3.7-11 14-20.8 25.5-23.2a34 34 0 0 1 20.7-4.5c10.2.7 20.3 5.2 27.1 12.9 2.6 3 4.8 6.3 6.4 9.9a5 5 0 0 1 2-1c1.1-.2 2.1-.3 3.2.1a7 7 0 0 1 1.9 1.4l1 1.3c1.4 1.5 2.7 2.9 5.1 3.8a54.3 54.3 0 0 0 23 2.8c18.2-1.4 15.9-25.5 11.4-38a32.8 32.8 0 0 0-36-21.1 35 35 0 0 0-17.9 9.3c-5.4 5.1-7.8 11.4-11 18-.2.3-.9.2-1-.2-2.6-13.8 10-28.2 21.8-33.2ZM44.1 151c-.5-.7.3-1.8 1-1.3 5.9 4 12.3 6.8 19.3 7.6 3.3.3 6.6.3 10-.2 2.7-.4 5.2-1.2 8-.5 1.5.4 1.8 2.2.9 3.2-4.2 5-14.6 3.7-20.3 2.4A35 35 0 0 1 44.2 151Zm195.3-9.2c2.9-1.8 6.2 1.7 4.6 4.5-4.4 7.3-16.9 7.9-24.2 6.1-.5 0-.4-1 .2-1 4.1.1 8-.7 11.5-2.8 3.1-2 5-5 8-6.8Zm-139-58-.5.1c-6.7.1-12.8 2.6-19.2 4l-1.5-.1a30.7 30.7 0 0 0-14 24.1 33.8 33.8 0 0 0 5.8 21.7c5 7 13.2 8 21.2 8.3h.8c15.1.3 31.7-.6 37.1-17.5 4-12.5-.2-27.7-11.3-35.2a32.6 32.6 0 0 0-18.4-5.3Zm121.8 9-.4-.5c-6-6.8-15.3-13-24.6-9.5V84.6c0 13.1-5 25.4-17.6 29.2 3.4 4.8 6 10.2 8.2 15.7.8-.5 1.7-.8 2.8-1 4.4-.4 7 3.7 10.7 5.3 3.6 1.4 7.7 1.8 11.4 1 8.3-1.6 14-8.7 16.1-16.6 2.3-9-.7-18.3-6.6-25.2ZM96.5 104c2.8-4.6 9.6-4 12.3.1l.1.3a12.6 12.6 0 0 1-4.2 18.4c-5.3 2.6-12 2-15.5-3.2a9.1 9.1 0 0 1-1.5-4c0-.9 0-1.8.2-2.7v.2l.2-1.4c.5-1.9 1.6-4 3-5.3a8.5 8.5 0 0 1 5.4-2.4Zm113.2-4.8c2.4 0 4.6 1 6.4 2.6 2.5 2.3 2.8 5.6 2.3 8.8l-.7 2.8-.2.9v.4a7 7 0 0 1-.7 1.6c-1 4-5.3 5.8-9 5a7.5 7.5 0 0 1-5-4.9l-.8-1.7-.3-1.3-.7-2.8c-.6-3.3 0-6.3 2.3-8.8 1.7-1.6 4-2.6 6.4-2.6ZM156 65.5c4.2-.6 8.5 1.4 10.7 5.2a11 11 0 0 1 0 10.8l-.1.3c-3.5 6-11.7 6.8-16.6 2.1l-.2-.2a10.7 10.7 0 0 1 6.2-18.2Z" fill="#000000"/></g></g></svg>