<svg viewBox="0 0 704 704" fill="none" xmlns="http://www.w3.org/2000/svg"><g transform="translate(315 248)"><path fill-rule="evenodd" clip-rule="evenodd" d="M176 239.6c-6.4 0-13.5-2.3-18.4-4.2l-1.2-.5a33.4 33.4 0 0 1-11.6-6.8 13 13 0 0 1-2.7-3.4c-.3-.8-.4-1.5-.1-2.3a40 40 0 0 0 3.3-.4l1.3-.2 4 .3.5.1 3 .4c3 .4 6 .8 9 1 2.2 0 4.5 0 6.8-.2 6-.3 12-.8 16.7 3.4a5 5 0 0 1 1.7 3.9c0 1.7-.8 3.4-1.9 4.8-2.4 3-6.2 4.1-10.4 4.1ZM211 186a15 15 0 0 1-13.8 6.6 82.3 82.3 0 0 1-38.2-12.2 10.6 10.6 0 0 1-4.9-7.8l-.5-5.4-3.1 4.5-1 1.4a175.2 175.2 0 0 0-11.5 19.7 91.4 91.4 0 0 0-4.7 12.5c-2.3 7.3-4.6 14.5-9.6 19.6-.8.8-2 1-3 1-1-.2-1.9-.6-2.3-1.5-6-12.3 2-27 8.6-37.2l.7-1c6-9.3 16-21.5 27.4-23.2l1.3 2 1.8-1.2c3.1-2 7.2-2 10.8-.3l3.6 1.6a99.7 99.7 0 0 0 23.4 7.8 97.9 97.9 0 0 0-3-10.8c-3-7.7-7.6-14.9-12.2-21.7l-.5-.8-2-3c-3.6-5.1-7.5-10.6-7.8-16.1 4.7.3 8.6 3.2 12 5.7 4.8 3.5 9.1 7.4 13.1 11.7 7.7 8.4 14.6 19 17.7 30.1 1.7 6.3 1 13.1-2.3 18ZM87.6 123v-.2c0-6.4 3.7-21 13-21 5.7 0 9.1 10 9.7 20.2v.4c.3 6.4-1.4 20.2-9.8 20.2S87.7 129.4 87.6 123Zm135.2-2v-.2c0-6.4-3.8-21-13-21-5.5 0-9 9.5-9.7 19.4v.8c-.4 6.1 1.2 20.6 9.8 20.6 8.4 0 12.8-13.1 12.9-19.6ZM118.5 79.8a167.8 167.8 0 0 0-33.8 8 437.2 437.2 0 0 0-25 9.5c-3.3 1.3-6.5 2.7-9.8 3.8a93.7 93.7 0 0 1 34.7-27c7.3-3.7 15-6.6 22.8-9l4.3-1.3c6.4-1.9 13.4-3.6 19.3.2a9.5 9.5 0 0 1 4.4 6.2 9 9 0 0 1-1.8 7.3c-1.4 1.9-3.3 3-5.2 3.4a10 10 0 0 1-6.5-1.2H118.5Zm96 1.2a52.4 52.4 0 0 0-18.7-.5c-3 .5-6 1-9.2.4-1.6-.3-3-1.3-4.1-2.6a10.6 10.6 0 0 1-2.4-5.2c-.3-1.8 0-3.5.6-5 .9-1.6 2.2-3 3.9-4.3 5-3.8 13.7-3 19.6-2.1 5.9.7 11.7 2.5 16.9 5.4 5.1 2.9 9.6 6.7 13 11.4 3 4 4.3 8.5 5.8 13.2-6.7-5.6-17-8.9-25.5-10.7Z" fill="#000000"/></g></svg>