<svg viewBox="0 0 704 704" fill="none" xmlns="http://www.w3.org/2000/svg"><g transform="translate(315 248)"><path fill-rule="evenodd" clip-rule="evenodd" d="M196.5 186c1.5-2 5.1 6.4 5.9 7.4 3.2 4 5.8 9.9 6.2 14.9v.4l15.4-2.2c2-1.5 4.8-1 7.5.3 6 3 3 12.7-3.4 12.5-17.5-.4-35.3 1.8-52.7 3.9-8.9 1-17.8 2-26.6 3.5-8.3 1.3-16.8 3.2-25.2 3.5-.4 0-.6-.6-.2-.8 7.4-3.8 15.8-6.1 23.8-8.4a344.1 344.1 0 0 1 49.8-10.7l-.2-.4c-1-3.4-1-7.3-1.2-10.8l-.1-2c-.2-3.2-.4-9.3 1-11.2Zm-25.7-41.6c7.6 4.6 19 15.3 11 26.6-9.6 10-23.4-1.4-30.2-6.6-6.3-4-13.3 6.3-7.5 11 49 36.3 69-29.8 30.5-36.4-4.2-.8-5.8 4-3.8 5.4ZM49.4 104c12.6-2 25.4-2.2 38.1-1.5a404.7 404.7 0 0 1 30 2.6c2.5.3 6.3 1.7 8.7 1 7.1-1.9 13.9 4.9 12 12-2 7-10.4 9-15.8 4.7-2.5-1-5-1.8-7.7-2.5-.2.8-.5 1.6-.9 2.3l-1.3 2.7-.6 1.5-.6 1.5c-1 2.5-2 4.8-4.6 6.1-3.6 1.8-9.2.8-10.7-3.4-2.3-4.5-.8-10.7.5-15.3l.1-.3C81 111.6 65 108.8 49.4 105c-.5-.2-.6-1 0-1.1ZM236 87.2c.8-1.6 2.7-1.6 3.8 0 2.4 3.3-3 8.2-5.4 10.5l-.2.2a91.4 91.4 0 0 1-21.6 15.5l.7 1.6c1 2.6 1 5.8 0 8.5-1.7 5.6-6.4 10-12.5 10-3.2 0-7-3-6.6-6.5l.5-4c-4.3 1.4-9.5-.2-12.3-3.8-3.7-4.9-2.7-13 3.1-16 4.3-2.2 9-2.8 13.6-4 4.6-1.1 9.2-2.5 13.6-4l13.3-4.6 6.5-2.2c1-.3 2.4-1 3.5-1.2Z" fill="#000000"/></g></svg>