<svg viewBox="0 0 704 704" fill="none" xmlns="http://www.w3.org/2000/svg"><g transform="translate(315 248)"><g fill-rule="evenodd" clip-rule="evenodd"><path d="M107 148c18.2 0 33-13 33-29s-14.8-29-33-29-33 13-33 29 14.8 29 33 29ZM226.5 141c16.3 0 29.5-11.2 29.5-25s-13.2-25-29.5-25-29.5 11.2-29.5 25 13.2 25 29.5 25ZM119.7 216.6c4.8-12.8 32.5-23.9 51.5-23.9s49.7 11 49.7 11L212 228s-80-3.4-84.7-3.4c-4.6 0-12.4 4.9-7.7-8Z" fill="#FFFFFF"/><path d="M156.5 188.5c20.5-.8 58.6 3 74.1 15 16 12.1-4 50.9-6.3 50.8-23-.9-45.7 2.4-68.4 5.5l-4.5.6c-15.3 2.1-36.7 5.8-44-11.8-9-30.6 18.4-60.3 49-60.1Zm36.2 13a148.6 148.6 0 0 0-37-1c-11 1.2-21.4 4.2-28.3 12.5 1.7.3 3.2 1.5 4.2 3.2 14.8.4 30-.2 45 .6 8.4.1 17 1 25.3.6 7.2-.3 5.2-6.3 6.2-11.4a62.8 62.8 0 0 0-15.4-4.6ZM58 85.5c14.8-24.4 59.4-9.2 81.8-4.1 17.1-3.8 18.8 24.7 1 21.8a32 32 0 0 1-7.2 43.2C99.4 175 36.6 128.4 80 95c.5-4.1 6-5.3 9.3-7l-1.1-.2a52.1 52.1 0 0 0-28.7-.5c-1 0-1.5-1-1.4-1.8Zm120.8 50.8c7.6 4.6 19 15.3 11 26.6-9.6 10-23.4-1.4-30.2-6.6-6.3-4-13.3 6.3-7.5 11 49 36.3 69-29.8 30.5-36.4-4.2-.8-5.8 4-3.8 5.4ZM256.5 59c.5 0 .7.7.4 1-9.3 9.2-21 16-31.4 23.8a44.6 44.6 0 0 1 37.4 30c4.6 25.4-32 37-51.4 29.4-16.1-5.6-27.8-21.2-19-37.8-9.2 0-18.5-12-11.7-18.8 6-6.2 13-2.5 15.6-4l3-1.5c18-9.6 36.8-18.8 57-22Zm-124.8 51.4c-11.6-18.3-57.3-18.7-56 9.6 1.8 37.2 75.6 28.8 56-9.6ZM226 94.7c-8.6-1.8-16.1 8-21 5.5-27.2 31 28.2 49 46.4 25.2 10-12.8-13.2-30.4-25.4-30.7ZM111 112c11.2-4 11 12.6 2.7 16-9.5 3.7-12.7-16.2-2.8-16Zm101.1 1.8c-.6-10.2 14.9-14.9 18.8-4.7 5.4 13.7-18 20.6-18.8 4.7Z" fill="#231F20"/></g></g></svg>