<svg viewBox="0 0 704 704" fill="none" xmlns="http://www.w3.org/2000/svg"><g transform="translate(315 248)"><path fill-rule="evenodd" clip-rule="evenodd" d="m157.9 261 2-.5c7.7-2 15.7-5.4 23-.8 2.6 1.6 3 5 .9 7.3-6 6.4-14.6 5.2-22.6 5.2h-.4c-8 .2-16-.2-24-1.4-1-.2-1.3-1.9-.3-2.3 7-3 14-5.4 21.4-7.4Zm13-116.6c7.5 4.6 19 15.3 10.8 26.6-9.5 10-23.3-1.4-30-6.6-6.4-4-13.4 6.3-7.6 11 49 36.3 69-29.8 30.5-36.4-4.2-.8-5.8 4-3.8 5.4ZM223.2 84c12.2-.4 12.2 19 0 19h-11c2.2 7.6 1 16.8-2.8 23.3a7.8 7.8 0 0 1-12 1.5c-6.2-6-7.4-14.8-5.2-22.8l-.5-1-.3-1.1h-52.9c-11.5 0-23 .2-34.4 0l.4.7a30 30 0 0 1 1.1 13.6c-.3 2-.9 4.5-2 6.4-.6 2.3-1.2 4.5-3 6.1a6 6 0 0 1-1.6 1.1c-1 1-2.3 1.8-4 1.8-1 0-2-.2-3-.6-1.5.1-3-.6-4.4-1.2a9 9 0 0 1-2.8-2c-.4 0-.8-.2-1.1-.4-2.3-1.4-3.2-4.2-3.3-6.8v-.5l-.2-1c-.8-4.5.1-9.7 1-14l.8-3.7c-2.3 0-4.5-.2-6.8-.3-5.8-.2-12.7.6-18-1.8-.4-.2-.3-.7 0-1 4.8-3.4 12.4-4 18.3-5.1l.5-.1a372.7 372.7 0 0 1 62.5-7.6C166.8 85 195 85 223.3 84Z" fill="#000000"/></g></svg>