<svg viewBox="0 0 704 704" fill="none" xmlns="http://www.w3.org/2000/svg"><g transform="translate(315 248)"><g fill-rule="evenodd" clip-rule="evenodd"><path d="M97.8 210.4c16.7-11.2 101.5-9 109.3-.4 7.9 8.6 26 33.1-12.8 45.2-38.7 12-86.7 7.9-99.2-7l-.7-.8c-11.8-14.4-13-26 3.4-37Z" fill="#FFFFFF"/><path d="M170.8 144.4c7.6 4.6 19 15.3 11 26.6-9.6 10-23.4-1.4-30.2-6.6-6.3-4-13.3 6.3-7.5 11 49 36.3 69-29.8 30.5-36.4-4.2-.8-5.8 4-3.8 5.4Zm-68.2-87.6 1.9-.3 1-.2c5.6-.9 12.2-1.5 16.1 3 2.2 2.4 3 7 0 9.3-5.1 4.2-10.8 2.6-17 3-5.1.2-10 1-14.9 2.5C79 77 70.2 82.8 61 88.9c-1.2.8-2.4-.7-1.9-1.8a59.3 59.3 0 0 1 26-24.1 64 64 0 0 1 17.5-6.2Zm49.7 143.5c16.5 1.2 52-6.7 66.9 5C274.9 275 54 293 77.8 216c15.2-25 50.2-15 74.5-15.6Zm-2.8 42c-4-.4-9 2.9-10.2 5.4-1.2 2.4-.7 7.7-.7 8.6 7.1.7 14.3.8 21.4.4-1.8-6.2-1.9-13.5-10.5-14.4Zm32.8 10.3c-1.1-7.6-6.6-9.4-11-8.3-4.5 1.2-7.1 6.3-6.8 11 0 .3-.2.5-.3.8 6.1-.7 12.2-2 18.1-3.5Zm-50.4-9c-2.5-3.8-8.7-5.7-12.6-5-6.4 1.3-7.1 9.4-7.1 11.1a113 113 0 0 0 21.7 5.6l.1-1c.2-2.1.3-7-2-10.6Zm72.4-.6c-6.5-10.1-20.6-2.9-19.5 8.2l3.8-1.2c5.1-1.8 10.8-4 15.7-7Zm-51.6-35c-8.9-.8-16.1-.5-21.9.6l-.1 1.9c-.7 6.7-1.5 13.2 2 15.9 2.8 2.2 12.3 2 18.6.4 1.6-.4 3.6-14.2 1.4-18.8Zm13.6-.8c-1.4 6.6-2 14.6.8 17 3 2.5 12.6 2.1 15.2.4 2.2-1.4 2.1-8.1 1.3-15.7a96 96 0 0 0-17.3-1.7Zm-39.4 1.4h-4.5c-4.1.1-8.6.4-12.8 1.3-8.4 18.1 22.2 21.3 17.5-.6l-.2-.7Zm60.6.5v1c-.3 5-.1 11.8 2.7 13.6 4.1 2.7 12 2.1 16.1-10.2-1.4-3.7-16.2-4.2-18.8-4.4ZM106.2 101c1.8 0 3.5.6 5 1.7 1.6 1.1 3 2.7 4 4.7 2.2 3.8 3.6 9 3.6 14.8 0 5.7-1.4 11-3.5 14.7-1.2 2-2.5 3.6-4 4.7a8.5 8.5 0 0 1-5 1.7c-1.8 0-3.5-.6-5-1.7-1.6-1-3-2.7-4.1-4.7-2.2-3.8-3.6-9-3.6-14.7 0-5.8 1.4-11 3.6-14.8 1.1-2 2.5-3.6 4-4.7a8.5 8.5 0 0 1 5-1.7Zm112.3 0c1.7 0 3.4.6 5 1.7 1.5 1.1 2.9 2.7 4 4.7 2.2 3.8 3.5 9 3.5 14.8 0 5.7-1.3 11-3.5 14.7-1.1 2-2.5 3.6-4 4.7a8.5 8.5 0 0 1-5 1.7c-1.8 0-3.5-.6-5-1.7-1.6-1-3-2.7-4-4.7-2.3-3.8-3.6-9-3.6-14.7 0-5.8 1.3-11 3.5-14.8 1.2-2 2.5-3.6 4-4.7a8.5 8.5 0 0 1 5-1.7Zm-15.3-48.8 1.4.3 1 .2c15.5 3.3 35.1 9.9 42.4 25 .3 2.1 0 2.6-.3 2.9-.2.3-.4.7-1.4 1A36 36 0 0 1 237 78l-2.8-1.4a77.7 77.7 0 0 0-10.1-4.3c-7.5-2.4-15.1-4.1-23-5a9.4 9.4 0 0 1-4.5-1.8 7 7 0 0 1-2.6-4 7 7 0 0 1 .8-5.8 7.4 7.4 0 0 1 3.6-3.1c1.5-.6 3.2-.8 4.9-.4Z" fill="#000000"/></g></g></svg>