<svg viewBox="0 0 704 704" fill="none" xmlns="http://www.w3.org/2000/svg"><g transform="translate(315 248)"><path fill-rule="evenodd" clip-rule="evenodd" d="M146.6 241a40.7 40.7 0 0 1-17.1-13.2c-1.5-2-2-4.2-1.6-6.2a8.9 8.9 0 0 1 9.6-7.2c1.9.3 3.7 1.3 5.2 3.5l.3.4a27 27 0 0 0 10 8.3c3.6 1.8 7.8 2.6 12.1 2.1 8.3-1 14-5.4 20-11.4l2.2-2.3c.5-.8 1.1-1.2 1.9-1.5a4 4 0 0 1 4.6 1.6c.4.7.7 1.5.6 2.5a25.7 25.7 0 0 1-8.5 16.2c-5.1 4.9-12 8.2-18.4 9.4-7.1 1.3-14.4.4-21-2.3Zm24.2-96.6c7.6 4.6 19 15.3 11 26.6-9.6 10-23.4-1.4-30.2-6.6-6.3-4-13.3 6.3-7.5 11 49 36.3 69-29.8 30.5-36.4-4.2-.8-5.8 4-3.8 5.4ZM83 102c.8-10.3 16.6-12.7 18.1-2.4a42 42 0 0 1-4.3 25.9c-4 7.9-14 4.2-14.7-3-1-9.7.3-14 .9-20.5Zm120-4.5c2.2-3 5.4-4.9 9.2-3.8 11.9 3.5 8.4 20.4 4.2 28.6-2.3 4.4-9.6 5.6-12.9 1.6-5.4-6.4-8-19.1-1.1-25.5l.6-1ZM96.6 56.8l1.9-.3c5.8-1 13-2 17.1 2.7 2.2 2.5 3 7 0 9.4-5.1 4.2-10.8 2.6-17 3-5.1.2-10 1-14.9 2.5C73 77 64.2 82.8 55 88.9c-1.2.8-2.4-.7-1.9-1.8a59.3 59.3 0 0 1 26-24.1 64 64 0 0 1 17.5-6.2Zm95.6-4.6 1.4.3c15.7 3.2 36 9.8 43.4 25.1.3 2.2 0 2.7-.3 3-.2.3-.4.7-1.4 1A36 36 0 0 1 226 78l-2.8-1.4a77.7 77.7 0 0 0-10.1-4.3c-7.5-2.4-15.1-4.1-23-5a9.4 9.4 0 0 1-4.5-1.8 7 7 0 0 1-2.6-4 7 7 0 0 1 .8-5.8 7.4 7.4 0 0 1 3.6-3.1c1.5-.6 3.2-.8 4.9-.4Z" fill="#000000"/></g></svg>