<svg viewBox="0 0 704 704" fill="none" xmlns="http://www.w3.org/2000/svg"><g transform="translate(315 248)"><path fill-rule="evenodd" clip-rule="evenodd" d="M55.6 167.6c3.5-7.8 19.1-20 19.1-20s4.8 27 1.1 35.3c-3 6.8-14 19.2-22 15.7s-4-18 1.8-31ZM250.2 160.5c-2.8-6.6-15.7-17-15.7-17s-3.9 22.9-.9 30c2.5 5.7 11.5 16.2 18.1 13.2 6.6-3 3.2-15.3-1.5-26.2ZM117 199.2h87.8l5.2 14.5s-65.5 15.3-88.5 5.5l-4.5-20Z" fill="#FFFFFF"/><g fill="#000000"><path d="M181.7 171c8.2-11.3-3.3-22-10.9-26.6-2-1.5-.4-6.2 3.8-5.4 38.4 6.6 18.5 72.7-30.5 36.4-5.8-4.7 1.2-15 7.5-11l1 .7c7.1 5.5 20 15.5 29.1 6ZM104.5 56.5l-2 .3c-6 1-12 3.4-17.5 6.2a59.3 59.3 0 0 0-25.9 24c-.5 1.2.7 2.7 2 2 9-6.2 17.8-11.8 28.6-15a67.7 67.7 0 0 1 19.5-2.5c4.4.2 8.6.3 12.4-2.9 3-2.3 2.2-7 0-9.4-4.1-4.7-11.3-3.7-17.1-2.7ZM204.6 52.5l-1.4-.3a8.5 8.5 0 0 0-4.9.4 7.4 7.4 0 0 0-3.6 3.1 7 7 0 0 0-.8 5.9 7 7 0 0 0 2.6 4c1.2.9 2.9 1.5 4.6 1.7 7.8.9 15.4 2.6 22.9 5 3.5 1.2 6.8 2.7 10 4.3L237 78a45 45 0 0 0 9.4 3.6c.9-.3 1.1-.6 1.3-.8v-.1l.1-.1c.3-.3.6-.8.3-3-7.4-15.3-27.7-21.9-43.4-25.1ZM123.3 128c-3 1.8-6.3 1-8.9-1.1-1.6-1.3-2.8-3-4-4.6-1.5-1.9-2.9-3.8-5-5.1-3.2-2.2-7.5-2.3-11.2-1.7-5.6 1-10.4 3.6-15.3 6.2a86 86 0 0 1-8.3 4.2c-1.1.5-1.8-1-1.4-1.8a38 38 0 0 1 27-22.5 29 29 0 0 1 30.4 18.2c1.1 3-.7 6.7-3.3 8.2ZM242.6 115.4c.2 0 .5-.2.4-.5-3.2-10.3-15.1-14.7-25.2-13.8-6.2.5-11.9 2.8-16.6 7-4.5 4-8 11.4-4 16.9 4.3 5.6 12.8 3.8 13.3-3.6.4-4.8 8.6-7.8 12.8-8.5 6.5-1.2 13.2.2 19.3 2.5Z"/><path fill-rule="evenodd" clip-rule="evenodd" d="M176.1 195.5c11.6-.1 25.6-.3 35.6.3 3.6.2 5.3 5.3 5.6 7.8 2.3 22.4-15.6 40.4-35.4 47.3-18.4 6.5-42.7 7.7-59.2-4.3a50.2 50.2 0 0 1-16-20.6 56.8 56.8 0 0 1-4.3-15c-.6-3.3-1.3-7.3-.2-10.4 1.7-4.4 6-4.5 10.1-4.5h1l5-.2 12.8-.2 27.7-.2H176Zm-49.8 19a253 253 0 0 0 42.5 1.5c10-.4 36-6.5 36-9 0-2.7-1.1-5-2-5-4 .5-34.7.8-56.4 1a3011.2 3011.2 0 0 0-24.7.3c-1 3.2 1.7 10 4.6 11.1ZM82.3 146.6c-.3-2-2-3.2-4-2.2a7.5 7.5 0 0 0-2.6 2.2l.1-.2c0-.2 0-.4-.2-.4-4.4-.7-10.1 5.4-13.2 8.8l-.7.7a61.8 61.8 0 0 0-11 16c-3.5 7.5-7.2 18.9-2.5 26.6 6.6 10.9 20.5 2.7 25.7-4.8a39.9 39.9 0 0 0 7-21.5c0-2.2 0-4.4-.2-6.7 0-2-.2-4.2 0-6.3 0-1.8.4-3.6.8-5.3.5-2.3 1-4.6.8-6.9Zm-9.9 32.5c-1.5 5.8-4.6 12.5-10 15.6-2.9 1.7-7.1 2.3-8.8-1.1-3-6.5 1.3-16.4 3.9-22.2a63 63 0 0 1 17.2-23 29 29 0 0 0-1.6 11.2l.2 5.4c.2 4.7.3 9.5-.9 14.1ZM253.3 157.5A65.2 65.2 0 0 1 262 175c3 11.9-7.2 20.5-18.5 18-11.9-2.7-16.3-16.4-16-27.2 0-5 1-10 2.1-14.9l.4-2 .7-4.1c.3-2 .5-4 1-5.9-.5-1.5-.9-3-.8-4.6 0-2.5 2.6-3.8 4.7-2.7 3 1.5 4.7 4.3 6.3 7.2l1 1.8 3.6 6 3.5 6 3.2 5Zm-13 25.5c3.1 2.8 8.5 3.9 12 1.2 4.9-3.6.8-10-1.9-14.2l-.7-1.2a1574 1574 0 0 1-13-21.3l-.8 4.9-.7 3.6c-1.3 8.8-2.2 20.3 5.1 27Z"/></g></g></svg>