<svg viewBox="0 0 704 704" fill="none" xmlns="http://www.w3.org/2000/svg"><g transform="translate(315 248)"><g fill-rule="evenodd" clip-rule="evenodd"><path d="M79.2 197.8c11-6.6 51.7-1.8 83.8 0 25.5 1.4 43.7-1.4 49.5 2.5 13.1 8.9 6.8 51.7-16 57.6-22.6 5.8-106.6 14-121 0-14.6-14-15.9-48.3 3.7-60.1Z" fill="#FFFFFF"/><path d="M93.3 186.5c17.2-2.1 33.8 3.1 50.6 5.8a236.6 236.6 0 0 0 32 3c.2-1.6 1-3 3-4 4-1.7 7.1-2.5 11.4-2.4 4 .2 8 .6 11.9 1.3a37 37 0 0 1 19.4 9.4c12 11.8 10.1 30.9.9 43.8-19.2 26.7-54.1 28-84 27.6h-2.8c-27.3-.5-66.3 3.6-78.7-27.4a43.6 43.6 0 0 1 1.7-35.6c6.6-13 20.6-19.8 34.6-21.5Zm85.2 44.4h-.2c-12.6.5-25.2.8-37.8 1a500.6 500.6 0 0 0 2.3 17.3c.2 1.1.8 2.8.6 3.8v.4a3.8 3.8 0 0 1 2 2.2c9.8 0 20.3-.1 30.2-1.9v-.2c.2-1.3.8-2.1 1.5-2.7.7-4 .6-8.4.9-12.4l.5-7.5Zm-47.6 1.2c-9 .2-18 .3-27.1.2h-4.2c1 4.6 1.9 9.2 2.6 14 .9 4.8-3.4 8-7.2 7.8l1.3.2c11.6 1.6 23.7 1.2 35.5 1.2-.6-3.7-.4-8-.5-11v-.5l-.4-11.9Zm-61.5-.8c.3 2.4 1 4.8 1.8 7 4 9.3 12.8 13.6 22.2 15.5-1.7-.6-3-2-3.3-4.2A128 128 0 0 1 89 232c-6.6 0-13.1-.2-19.6-.8Zm143.2-2c-4.7 1-10 .6-14.6.8l-12.9.5.6 8.8c.3 3.7.3 7.7 1 11.5 8.7-3 16.4-7.7 22.2-15.2 1.4-1.9 2.7-4 3.7-6.4ZM91.4 201.8c-7.8 1.8-15 5.7-19 12.8a27 27 0 0 0-3.2 14c6.5-.7 13.2-1 19.8-1.2l.1-3.6.1-3c.2-5.9.3-13.2 2.2-19Zm40 .7-3.3-.4c-9.5-1-19-2.2-28.4-1.6l-4.2.5c1.7 6 1.5 13.1 2.2 19.1l1 6.9h1.7c10.1-.6 20.3-1 30.5-1.4V218c.2-4.8-.1-10.3.6-15.4Zm47.6-.8a190.6 190.6 0 0 1-41.5 1.4l.5 6.2 1.3 12.4.5 3.6 37.5-1.9h1.7l.5-7c.4-4.6.7-9.2 1.3-13.8l-.4-.1-1.4-.8Zm4.4 1.7 1.2 19.6 8.2-.4 4.2-.2c5.3-.3 12.2-2 17.5-.4.4-4.8-1-9.5-5.3-12.7-7.7-5.7-17.3-3.7-25.8-5.9Zm-28.2-58.3c12.3-7 43-14.2 45 7.9 1 10.1-6.6 18.6-15.5 22.3l-.3.1c-8.3 3.4-23 7.3-30.1 0-6-6.2 2-17.2 9.3-12.2 3.9 2.6 11.9.7 16.1-.6h.3c4.6-1.4 10.7-5.7 8.8-11.3-1.7-5-8.8-6-13.3-6-6.7-.3-13.2 1.2-19.8 1.7-1 0-1.3-1.4-.5-2Zm50.8-35.5c16.7-.8 27 17.4 23.2 32.3-.6 2.6-3.5 5-6.3 4.8h-.7l-1-.2c-2.7-.8-5-3.5-4.8-6.4v-.8c.4-7-.4-15.1-8.7-16.8-7.1-1.5-11 5.3-11.2 11.6 0 1.1-1.2 2-2.2 1.3-5.2-3-6-9.3-4-14.6a17.2 17.2 0 0 1 15.7-11.2Zm-123.6 3.9c12.2-4 25.2 2.4 31.1 13.1 2 .6 4.1 2.2 3.8 4.6-.4 3.5-1 5.7-3.4 8.4-3.8 4.1-11 2-12.5-3.1v-.2c-1.9-6.6-9.1-11-15.7-8.7-7.8 2.7-7.5 10.9-13 15.6-.6.6-1.4.7-2.1.3-5.8-2.8-4.8-11.1-2.7-16 2.7-6.2 8-11.8 14.5-14ZM66 76.7c9.8-10 35.5-19.7 42.2-1.2 1.3 3.5-1.5 8.2-5.1 9-6 1.2-11.4-1.4-17.3-1a26 26 0 0 0-13.8 5c-10.7 8.3-13 22.3-20.5 32.9-.4.5-1 .3-1.1-.3a58.4 58.4 0 0 1 15.6-44.4ZM194 66.8a33 33 0 0 1 20.5 0 39.7 39.7 0 0 1 23 18.6c.8 1.5 1.7 4.4 2.6 6.2 5.1 3 7.3 9.7 2.7 14.5l-.2.3-.6.6a9.9 9.9 0 0 1-9.6 2.5c-7.5-2.2-8.4-8.1-11-14.4a25.8 25.8 0 0 0-8.3-10.6 39.8 39.8 0 0 0-32.6-5.4c-.5.1-1.1-.6-.8-1 2-2.6 3-4.6 5.7-6.6 2.6-2 5.5-3.6 8.6-4.7Z" fill="#000000"/></g></g></svg>