<svg viewBox="0 0 704 704" fill="none" xmlns="http://www.w3.org/2000/svg"><g transform="translate(315 248)"><path fill-rule="evenodd" clip-rule="evenodd" d="M182.2 218a28 28 0 0 0-20.3-.9 60.8 60.8 0 0 0-21 12.7c-2.5 2-4.8 4.4-7 6.7-3 3-6 6-9.2 8.4a54 54 0 0 1 13-25.2c6.8-8.3 16.3-15 26.5-18.2a36.8 36.8 0 0 1 31 4c8.7 5.6 15 14.8 16.3 26 .3 2.4-.8 4.6-2.5 6.2-1.9 2-4.6 3.2-7 3.2-2.6 0-4.9-1-6.6-2.7a10.3 10.3 0 0 1-3-6.7c-.1-2.8-.8-5.2-3.1-8.1-1.6-2-4.5-4.2-7.1-5.5Zm16-96.7c-2.5 1-5.6 3.3-6.5 5.8-.2.6-.3 1.1-.3 1.7-.9-1.7-1.2-3.8-1-5.8.3-6.5 6.4-11.1 11.7-13.9 1.8-1 3.7-1.6 5.6-2l6.8-1.1-6.3-2.7a63 63 0 0 1-16.2-9.7 42.5 42.5 0 0 1-14.2-22l-.2-.8c-.3-1.4-.7-2.1-1-3-.3-.4-.5-1-.8-1.7-.1-.5-.2-.9 0-1.2 0-.3.4-.4.7-.5 2-.8 5.4-.3 6.8.3 3.4 1.3 6.4 4.3 9.3 7.1 1.5 1.4 2.8 2.7 4.2 3.8A56.3 56.3 0 0 0 227.2 88l.6.1c2.8.2 5.5 1.3 7.3 3.2 1.7 1.7 2.7 4 2.7 6.6a10 10 0 0 1-3 7 9.1 9.1 0 0 1-6.7 2.8c-1.8 0-3.6-.2-5.4-.4l-6.7-1 5 4.5c1 .8 2 1.8 2.9 3 4.6 6.3 6.6 16 6.4 23.6 0 1.5-.4 3-1.2 4.3a6.9 6.9 0 0 1-2.7 2.8 9 9 0 0 1-4.3 1.1 7 7 0 0 1-4.4-1.4 11.3 11.3 0 0 1-3.5-4.8c-1-2.5-1-5.1-1.2-7.8 0-1.8 0-3.6-.4-5.4-.4-2.3-1.5-5.2-2.8-6.2-2-1.3-7-.3-10.3.9l-1.2.4Zm-27.4 23c7.6 4.7 19 15.4 11 26.7-9.6 10-23.4-1.4-30.2-6.6-6.3-4-13.3 6.3-7.5 11 49 36.3 69-29.8 30.5-36.4-4.2-.8-5.8 4-3.8 5.4Zm-53.5-14.5a19 19 0 0 0-7.2-5.7 19 19 0 0 0-12-.6 19 19 0 0 0-10.3 7.8c-2.2 3.2-3.7 7-4.6 10.9a11.6 11.6 0 0 1-2.8-6 21 21 0 0 1 1-10.5c2.7-7.6 9-14.4 16.4-17.3a31.5 31.5 0 0 1 37.6 13 9 9 0 0 1 .7 8.2 11 11 0 0 1-6.5 6c-1.5.5-3 .5-4.3 0-1.9-.4-3.6-1.4-5-2.6-1.1-1-2-2.1-3-3.2Zm12.6-47.9a9 9 0 0 1-7.8 3.7l-.6.6-1.2 1.4a60.2 60.2 0 0 1-14.2 11.1 68 68 0 0 1-42 8.4l-1.7-.3c-4.1-.6-9.6-1.4-13-4 1.4-.4 2.7-.4 4-.5a55.3 55.3 0 0 0 14.5-2.2c7.5-2.1 14.4-5 21-9.2a69 69 0 0 0 17.5-15.6l.6-.8.7-1c2-2.5 3.7-5 6.8-6.6 2.4-1.2 4.9-1.6 7.2-1.2a16 16 0 0 1 7.6 3.7A7.7 7.7 0 0 1 132 75c.2 2.4-.6 5-2 7Z" fill="#000000"/></g></svg>