<svg viewBox="0 0 704 704" fill="none" xmlns="http://www.w3.org/2000/svg"><g transform="translate(315 248)"><path fill-rule="evenodd" clip-rule="evenodd" d="M155.9 251c7.5-1.1 15.7-5.4 22.9-2 3.4 1.7 5 7.3 2.7 10.4-3.5 4.7-7 5.5-12.8 6-4.2.3-8.5.3-12.7-.2l-1-.1c-7.6-1-15.5-3.1-21.3-8.2-1.2-1-.6-3.3 1-3.6 6.9-1.5 14.2-1.4 21.2-2.4Zm-9-17.5h.2a24.8 24.8 0 0 0-.1 0Zm24-89.1c7.5 4.6 19 15.3 10.8 26.6-9.5 10-23.3-1.4-30-6.6-6.4-4-13.4 6.3-7.6 11 49 36.3 69-29.8 30.5-36.4-4.2-.8-5.8 4-3.8 5.4ZM209.4 93c1.7 0 3.4.6 5 1.7 1.5 1.1 2.9 2.7 4 4.7 2.2 3.8 3.5 9 3.5 14.8 0 5.7-1.3 11-3.5 14.7-1.1 2-2.5 3.6-4 4.7a8.5 8.5 0 0 1-5 1.7c-1.8 0-3.5-.6-5-1.7-1.6-1-3-2.7-4-4.7-2.3-3.8-3.6-9-3.6-14.7 0-5.8 1.3-11 3.5-14.8 1.2-2 2.5-3.6 4-4.7a8.5 8.5 0 0 1 5-1.7ZM127.3 99l.7-.1c4-.8 5.9-.5 9.3 2.1 2.5 2 1.8 6 0 8-3.2 3.7-6.3 3-10.6 3.2h-.3l-10.9.3h-3c.1 9.2-5.1 16.2-12.1 21.5-4.5 3.4-10.2-.5-11.8-4.8a23.1 23.1 0 0 1-1-11.8c.3-1.4.9-3 1.7-4.2l.2-.4v-.9c-6.5-.4-13-1-19.3-1.8l-2.2-.3c-5.4-.7-13.5-1-18-4.5l.1-.5c2.5-1.3 5-1.2 7.7-1.3h.4l8.9-.4 3-.1c7.5-.2 15-.6 22.7-1l4-.2c1.3-.6 2.8-1 4.2-1 1.2 0 2.4 0 3.4.4l8.3-.7 2.8-.2c4-.4 8-.6 11.8-1.3Zm48-68.7a34 34 0 0 1 27-.8l.5.2c8.7 3.6 19.1 12 16.9 22.3-2 9.5-17 7.9-17.7-1-4.8-6.7-15.6-8.2-22.3-4-4.1 2.6-7 7-8.9 11.3-1.6 3.7-2 8.3-4.4 11.5-.1 0-.3.1-.4 0-7.5-1.7-7.7-13.6-6.4-19.4a30.2 30.2 0 0 1 15.6-20Z" fill="#000000"/></g></svg>