<svg viewBox="0 0 704 704" fill="none" xmlns="http://www.w3.org/2000/svg"><g transform="translate(315 248)"><path fill-rule="evenodd" clip-rule="evenodd" d="M189 229.1c6.4-1.5 11.3 3.9 10.1 10-1.3 6.6-8.3 8.8-14.2 8.6-6.7-.2-13.3-1.6-20-1.9-7-.3-13.8-.3-20.7-.1-6.4.1-13 1.3-19.3.3-2.4-.4-2.2-3.7-.6-4.8 4.8-3.5 11-4.9 16.5-6.3a131.8 131.8 0 0 1 35.4-4.4c2.7 0 6 .6 8.7 0 1.3-.2 2.7-1 4.2-1.4Zm-18.2-84.7c7.6 4.6 19 15.3 11 26.6-9.6 10-23.4-1.4-30.2-6.6-6.3-4-13.3 6.3-7.5 11 49 36.3 69-29.8 30.5-36.4-4.2-.8-5.8 4-3.8 5.4ZM116.1 110c10-1.7 11.8 12.7 1.8 13.7l-6.3.6.5 2 .2 2c.3 3.5-2.2 7.2-5.1 8.9-3 1.8-7.5 2-10.5 0a11 11 0 0 1-4-4 11.5 11.5 0 0 1-1.8-6c-4.6 1.3-9.3 3-14 3.8l.5.5c.1.2 0 .4-.2.3l-2.3-.5-2.2.2c-1.2 0-2.2-1.5-1-2.6a47.7 47.7 0 0 1 16.3-9.7l5.6-2.3c7.2-3 14.8-5.6 22.5-7Zm81.2 4.4c6.6-.7 13.2-.4 19.8 0 11.2.7 6.5 17-2.5 13.2.1.6.2 1.2 0 1.7-.3 2.9-1.2 5.3-3.8 6.8a8 8 0 0 1-8 0 9.3 9.3 0 0 1-4.4-6.4c-.6-2.2-.3-4 0-6.1 0-.7.4-1.4.8-2l-1.9-.4c-5.6-1.3-11-1-16.6-1.8-.6-.1-.7-1-.2-1.3 5-2.4 11.4-3 16.8-3.7ZM115 64.3c3.9-1.4 8.7 1 10.6 4.3 2.2 3.8 1.3 8.2-1.5 11.3-4.1 5-12.1 8-18 10.7l-.5.3a167.4 167.4 0 0 1-47.8 15.5c-2.7.3-4.8-.5-7.4-.5-.4 0-.5-.5-.2-.7 2.4-1.5 4.2-3.5 6.9-5l8.3-4.3a299.3 299.3 0 0 0 33.3-20.3c5.3-3.8 10.2-9 16.3-11.3Zm68-3c4.8-1 9.6 1.2 11 6 1.3 4.7 0 5.7 3.5 9 3 2.7 6 5.1 9.1 7.4l4.6 3.5c8.4 6.1 16.8 12 26.4 16.1.8.4.3 1.6-.4 1.6a92 92 0 0 1-43.7-8.6A37.6 37.6 0 0 1 177 82.7c-4.3-7.3-4.2-19.5 6.2-21.5Z" fill="#000000"/></g></svg>