<svg viewBox="0 0 704 704" fill="none" xmlns="http://www.w3.org/2000/svg"><g transform="translate(315 248)"><path fill-rule="evenodd" clip-rule="evenodd" d="M195.6 205.7a29.7 29.7 0 0 0-26.6.3 73.6 73.6 0 0 0-25.3 21.7c-2.7 3.3-5.2 6.8-7.8 10.3l-3.1 4.4-.7.8c-1.7 2.2-4 5.2-4.8 8-.4 1-.5 2-.4 3l.5 1.3c-1.4.4-2.3 0-2.9-.6-1-1-1.3-2.6-1.3-4.5 0-6.5 4.2-16 6-20l.4-1a75.8 75.8 0 0 1 30.7-36.5c13.7-7.6 29.9-9 44-1.8 15.7 7.9 20 23.6 21.7 39.7a8 8 0 0 1-2.5 6.5c-2 2-4.7 3.2-7.2 3.2a9.9 9.9 0 0 1-9.8-9.8v-1.5a37 37 0 0 0-2.5-14.8 18.1 18.1 0 0 0-8.4-8.7Zm-20.8-72.3c7.6 4.6 19 15.3 11 26.6-9.6 10-23.4-1.4-30.2-6.6-6.3-4-13.3 6.3-7.5 11 49 36.3 69-29.8 30.5-36.4-4.2-.8-5.8 4-3.8 5.4Zm-63.6 1.5a10 10 0 0 1-6.5 1c-2-.5-3.9-1.6-5.6-3.6-2.3-2.7-4-6.5-3-10.1l.4-1c.4-1 1-2 1.6-3 .4-2 .5-3.3.5-4.5v-1a20.3 20.3 0 0 1 1.4-6 195 195 0 0 1-7.7-2.9 202.2 202.2 0 0 1-27.4-13 84 84 0 0 1-5.7-4.1l-1-.9-.6 1.3c-.6.5-1 .6-1.4.4-.4 0-.8-.4-1-.8a2.5 2.5 0 0 1 .7-3c1.8-1.5 4.3-.9 6.4-.5l.9.2 9.7 2 3.9 1 4.4 1c16.9 3.8 33.7 7.7 51 9.4l1.7.1c3.1.3 5.8 1.6 7.6 3.7 1.7 1.9 2.5 4.4 2.1 7.4a9.8 9.8 0 0 1-12.2 8.2 542 542 0 0 1-16-4.6l1.3 3c1 2.5 2 5.2 2.1 8 .1 2.5-.6 5-1.9 7a14 14 0 0 1-5.7 5.3Zm120.2-61.5c-1.4 1.8-2.9 3.4-4.4 5-3.2 3.2-6.5 6.6-10 9.6l-3.8 3.4-1.4 1.2-.8.7.6.7.5.6c2 3.2 3 6.6 4 10 .8 2.4 1.6 4.7 2.6 7l.3.7c1.3 2.8 1.6 5.7 1 8.3a10.6 10.6 0 0 1-7.3 7.4c-2.9.6-5.8.2-8.2-1.2-2.3-1.3-4-3.4-4.9-6.2a44.4 44.4 0 0 1-1.8-14.6 7.8 7.8 0 0 1-7.5 1.8c-2.2-.6-4.3-2-5.7-3.8a8.6 8.6 0 0 1-2-5.7c.1-1.8.9-3.7 2.5-5.4l1.5-1.6c1.2-1.1 2.8-2 4.4-2.5a8 8 0 0 1 4.7 0c2-.5 3.2-1.1 4.4-1.7l2.3-1.1 10.4-4.6 9-3.9 9.6-4Z" fill="#000000"/></g></svg>