<svg viewBox="0 0 704 704" fill="none" xmlns="http://www.w3.org/2000/svg"><g transform="matrix(.99789 0 0 1 156 62)"><path fill-rule="evenodd" clip-rule="evenodd" d="M195.4 82.7c151.6-7.5 220 99.2 224.4 147 3 33-16.5 71.1-16.5 100.7 0 15 18.5 47.5 9.9 69.5-19.2 49-59.7 103.3-111.4 103.3-51.6 0-118.9 14.3-176-67.5-5.3-7.6-73-51.2-79.6-92.6C29.8 239.9 87.2 88 195.4 82.7Z" fill="#FFDD00"/><g fill="#000000"><path d="M211 8c-8.2-.4-17.3 2-22.8 8.3a51 51 0 0 0-48.2 7c-13-4.9-28.1-.6-36.2 10.6-16-4-33.7 6-38.9 21.5-10.5 1.1-19.6 12.1-16.4 22.3-12.8-7-28 4.6-29.5 18.2a32.2 32.2 0 0 0-14.2 13.4A19 19 0 0 0 3.7 123c-6.6 4.4-12.6 10-14 18A19 19 0 0 0-7.8 154a34 34 0 0 0-11.6 37.2 31 31 0 0 0-9.5 20c-.1 5.3 1.8 10.9 5.4 14.9a47 47 0 0 0-9.4 23.7c-.3 7 1.9 13.7 6.2 18.9-6.3 10.9-4 25.4 4.5 34.6a31 31 0 0 0 7.2 33.5 20 20 0 0 0-.6 7.1c-.6 2.2-.8 4.5-.7 6.7.5 8 5.5 13.6 12 17l.4.5c-1.4 5.3-1 11 1.9 16.4 3 5.8 8.8 10 15 11.7a23.9 23.9 0 0 0 19.7 20.5c.7 5.2 3 10.3 7 14.2a23.7 23.7 0 0 0 16.3 6.5c1.8 4.8 5 9 9.7 12.2 7.2 5 16.5 5.5 24.4 2.5l1 .2.3.1a35.3 35.3 0 0 0 32.7 2.3c4.4 2.8 9.7 3.9 14.6 2.5l1.3 3c1.2 3.2 2.2 6.5 3.2 9.7l2.3 7.3c2.6 7.5 5.5 13.2 14 14.3 3 .4 6.2-2 7.6-4.4 3.2-5.5 1.1-10.7-1-16l-.9-1.9-.3-1-1.5-3.9c-1.6-4.3-3.2-8.6-5-12.8A105.2 105.2 0 0 0 141 426c-5.1-6-11-11.3-16.7-16.7l-4.2-3.9a229.9 229.9 0 0 1-18.4-19.7c4-.7 6.6-2.4 8.1-6.8.5-1.5 0-3-1-4-3.1-3.6-7.2-3.5-11.4-3.4-2 0-4 0-6-.3-5.7-1-11.3-3.4-15.6-7.2A34.8 34.8 0 0 1 65 332.8c1.3-10.6 5.8-19.4 15.5-24.4a47 47 0 0 1 15.7-4.5c1.2 1.6 3 2.6 5.8 2.6h.5c7.7 3.2 17.5 3.6 23.7-2 .6-.5 1.1-1 1.5-1.6l1.5-.8c9.8-5.6 15.7-15.9 16.2-26.8A33.3 33.3 0 0 0 156 258c1-4.8.5-9.5-1.4-13.4a32 32 0 0 0 3.3-11.7 22 22 0 0 0-.7-8 34 34 0 0 0 9.9-10.5c12 4.3 25.7 3.3 36.9-3 6 4.1 14 5.7 21.3 4.8 5-.6 9.7-2.4 14-5a32.6 32.6 0 0 0 28.8-1.6l.4-.3c2.2.2 4.4 0 6.5-.4 3 2.3 6.6 4 10 4.8a28 28 0 0 0 22.3-4.8 35 35 0 0 0 35.6-.7 30.6 30.6 0 0 0 31-.2c4.3 4 9.7 6.8 15.6 8l-.5 3.3c-1.3 9.2-2.2 18.4-2.5 27.7-.4 18.8.8 37.6 2.8 56.3l3 22.5c1.2 8.5 2.4 17 3.3 25.4l-.1 2.2a144 144 0 0 1-2.8 53.4c-12.2 45.7-52.8 83.7-101.2 81a197.8 197.8 0 0 1-13-1.1l-1.8-.3h-.4l-.7-.1c-6.5-1-13-2-19.5-3.6-6.2-1.4-12.2-3.3-18.3-5.4l-.4-.2a21.4 21.4 0 0 0-11.2-1h-.6l-.7.1h-2.5c-3.4.1-5.4 3.5-4.8 6.7a19.9 19.9 0 0 0 8.8 13.7c4.5 2.8 10 4.4 15.2 5.8l2 .5c12.6 3.4 25.5 5.3 38.4 6.6 10.3 1 20.2 1.4 30.4-.1 14.2-2.1 28.2-7 40.6-14.4a131.2 131.2 0 0 0 63-98.3c1 0 2-.1 3-.4a25.2 25.2 0 0 0 17.5-28.1 29.2 29.2 0 0 0 8.1-20.5c3.3-1.8 6.1-4.5 8.2-8.2 3-5 3.7-10.7 2.8-16a30 30 0 0 0 9-25 26.2 26.2 0 0 0 8.1-16.8c.5-5.8-1.2-11.5-4.4-16 1.8-4.4 1.9-9.2.7-13.7 2.7-7 3.2-15-.3-22-1-2-2.2-3.6-3.7-4.9l.5-2.5.2-.6c1-5.4.3-9.7-1.7-15-1.6-4-1.2-7.9-.9-12 .2-1.6.3-3.3.3-5 0-6.6-2.8-13.8-8.3-17a25.2 25.2 0 0 0-8.9-24c-1-9.2-5-18-13-22 .8-8 .1-16-4-23.1A26.9 26.9 0 0 0 413 91.3a36.4 36.4 0 0 0-34.5-31A29.6 29.6 0 0 0 347 41a43.2 43.2 0 0 0-45.7-15.5c-4.9-6-12.4-9.4-20-10.6-7-1.1-13.7-.3-20.5.6-5.3.7-10.6 1.3-16 1-6-.2-11.5-2.2-17-4.2s-11-3.9-16.9-4.2Z"/><path d="M110 337.2c-5.2-7.5-12.7-15.6-22.6-15-6.3.3-13.6 4.8-13.3 11.7 0 .6.7.9 1 .5 2.8-3 6.6-4.3 10.4-3.6-4 1.7-7.6 5.6-6 10 1 2.8 4 5.2 7.1 4a7.7 7.7 0 0 0 5-4.9l.3-1 .6-1v-.1l.4-.5 1-1.5c2 2.4 3.4 5.3 4.7 8 3.7 7.7 16.4.3 11.4-6.6Z"/></g></g></svg>