<svg viewBox="0 0 704 704" fill="none" xmlns="http://www.w3.org/2000/svg"><g transform="matrix(.99789 0 0 1 156 62)"><g fill-rule="evenodd" clip-rule="evenodd"><path d="M389.5 161.7c-60.1-39.8-180.6-35.5-246.8-11.1-64.6 20.5-87.2 77.6-97.9 139.2-13 69.3-11.3 169.2 82.5 168 13.1 6.4 27.7 9.1 41.4 14.4 18.6 6.5 37 14 55.9 19.6 37.3 12 78.8 11 114.2-6.6 19.5-9.4 27.6-24.1 40.4-39.8 37.2-45.6 55.9-110.8 54.2-168.8-3-40.8-9.7-88-43.9-115Z" fill="#FFDD00"/><path d="M465.6 329.7c-6.1-38.3-7.9-77.3-16-115.3-7.5-35.7-21.7-69.5-46.6-96.8A207 207 0 0 0 321.2 64c-60-22.1-129.1-17.1-187.3 8.7A250.3 250.3 0 0 0 11 195a328.9 328.9 0 0 0-28.4 110.1c-4 42.5-4.5 85.4-6.2 128-.2 5.3-.5 10.6-.5 15.8-.1 5.8 2.2 10.8 4.1 16.2.1.4.3.7.6 1l-4.3.7c-1.6.2-1.6 2.8 0 3.2 13 2.6 26.2 3 39.4 3.6 13.7.7 27.3 1 41 1.5l40 1.4 21 .7 10 .3 5 .2c1.3 0 3.5.9 3.7 0l.8.3 1 .6c1.5 1 4 1 5.7 0l.4-.3a6 6 0 0 0 2.6-3c6.8 8.2 19-1 12-9.8-3.8-4.7-41.2-120-25.7-207.7l62-8.2 32.5-3.4 6.7-22.3.3-1.3 4.5 7.9 7.6 15.5s113-1.9 140.8-1.7c.5 0 2.7 33.7 1.7 48.6-2 29.8-4.2 59.5-7.2 89.3a208 208 0 0 1-13.5 55.2c-11 27.7-42.7 54-73.6 54-19.3 0-62.8-15.6-69.2-18.7-6.3-3.2-10.1 5.4-4.3 8.9 11.7 7 44 21.7 73.5 21.7 42.8 0 75.2-40.7 79.1-46.5 39-2.1 79-1.1 118 2.7 3.2.4 6-3.6 5-6.6a722 722 0 0 1-31.4-123.3Z" fill="#000000"/></g></g></svg>