<svg viewBox="0 0 704 704" fill="none" xmlns="http://www.w3.org/2000/svg"><g transform="matrix(.99789 0 0 1 156 62)"><g fill-rule="evenodd" clip-rule="evenodd"><path d="M431.6 424.8c-4-5.8-13.5-48.4-19.6-55 .5-25 7.4-112-12.4-151.2 4.2-4.2 15.3-40.5 12.4-54.3 9.4-28.8-50.7-74.5-73.5-86.8C232.2 20.5 78.3 83.4 30 188.9 1 252.5.4 323.6-2.8 392c-.4 14.7-1.8 29.5-1.8 44 2.1 13 12.3 26 4.6 36.7-8.5 5.9-25.8 20.3-18 28.4 4.4 3.8 11.6 1.6 16.5 5.2 2.5 1.4 4 4.4 7 4.9 26.5-1 45.2-1.1 71.8-2.2 11.7-.4 29.4 4.6 42.8-5.3 46.8 26 27.2-11.7 36.7-38.5 28.7 9.7 86 40.7 116.7 41.7 25 3.1 48.3-11.4 72.8-8 30.4 11.2 66.1 13.7 94-5.4 7-5 14.7.8 23.5-4.6 17-8.2-23.6-55-32.2-64Z" fill="#FFDD00"/><path d="M30 189C78.3 83.3 232.2 20.4 338.5 77.4c22.8 12.3 82.9 58 73.5 86.8 2.2 10.4-3.7 33.7-8.4 46.3-22.2 16.4-86.8 13-194-10.2l-4.1-.9-36.7 21.7-15 56.5c-10 10-18.2 22.2-24.5 36.6 0 0-15-16.6-37.5-14.5A95.6 95.6 0 0 0 59.5 320c-6.7 7.2-6.8 23.3-.4 48.3l.4 1.5 32.3 10h15l41 50.2 6 51.7c-1.3 22.6 3.8 42.7-33.7 21.8-13.4 9.9-31.1 5-42.8 5.3-26.6 1-45.3 1.2-71.9 2.2-2.9-.5-4.4-3.5-7-5-4.8-3.5-12-1.3-16.5-5-7.7-8.2 9.6-22.6 18.1-28.5 7.7-10.7-2.5-23.8-4.6-36.6 0-14.6 1.4-29.4 1.8-44l.3-6.2C.5 319.3 1.9 250.6 30 189Zm373 204.5 9.4-35.4-.2 5.3-.2 6.5c6.1 6.5 15.7 49 19.6 55l.9.9c10.1 10.9 47.8 55 31.3 63-8.8 5.4-16.5-.4-23.5 4.6-27.9 19.1-63.6 16.6-94 5.3-3.6-.5-7.1-.6-10.6-.4l-1.5-4.6 33.3-28.6 35.6-71.6Z" fill="#FF0000"/><path d="M396.8 215.3c-.4-2.2 2.6-3.8 3.8-1.6 8.4 16 11.8 34.5 14.7 52.2 3 17.8 5 35.7 5.1 53.8.1 14-1.1 28-3.5 42l.3 1 1.6 5.4.8 2.8 4.7 15.7c3.4 10.9 7 21.8 11.4 32.4 4.3 10.3 9.5 20.2 15.7 29.5 6 9 15.4 16.5 19.6 26.4 1.5 3.5-.7 8-4.7 7.5-.3.3-.7.6-1.3.6-3 .3-6 0-9.2-.3a1.4 1.4 0 0 1 0-2.7c1.4 0 2.7-.2 4-.3-9-5.3-15.4-15.7-20.5-24.1a176 176 0 0 1-15.6-35 274.8 274.8 0 0 1-10.2-42.2 294 294 0 0 1-11.4 37.2l-.6 1.6C390.9 444.5 376.7 472 353 490l-3.3 2.3 1.3.8c1.4.7 2.7 1.5 4 2 4.8 2.3 10 4 15 5.2 10.7 2.5 21.8 1.8 32.6 2.1 3.6.2 5.6 5.5 2 7.2a49.4 49.4 0 0 1-37.2.5 66.7 66.7 0 0 1-24-13.9c-23.7 13.3-53.1 14.7-79.4 10-13.7-2.4-27-7-38.7-14.6a68.2 68.2 0 0 1-25-29c-.4-1 1-2.3 1.9-1.3 17.9 21.8 48.8 31 76 32.6 14.4 1 29.3.2 43.2-4.1a78.8 78.8 0 0 0 34-21.7c19.2-20.4 30.8-48 39-74.4 9-28.6 13.3-58.7 14.2-88.7.4-15.2-.2-30.5-2.5-45.5-2.4-15-6.8-29.4-9.4-44.2Zm-269-129c1.2-.7 2.1 1 1 1.8a286.7 286.7 0 0 0-58.6 62c-29.9 42.5-49 91.6-58 142.7a486.9 486.9 0 0 0-6 91.4c.2 12 1 24.2 1.7 36.3l.9 13.4c.4 6.3.7 12.5.5 18.8l-.1 1.4c-.4 7.3.3 14.7-1.5 21.8-1 3.7-6.1 4.3-8 1l-1-1.8a89.3 89.3 0 0 1-16.4 19.2c3-.7 6-1 9.2-.7 5 .6 9.3 2.5 12.5 5.8 3-1.4 6.3-2.3 10-2.3 2.7 0 4.7 3.1 3.2 5.5-3.1 4.8-7.4 7.4-12.3 10a6.2 6.2 0 0 1-9-3.3v-.3c-1.4-4.6-9-3.9-12.7-3.2l-1 .3c-6.8 1.4-13.4 3.2-20.2 1.3-4.4-1.2-5.6-7.8-1.3-10 13.4-7 24.7-16.4 36.4-25.8-2.6-6.3-4-13.3-5.7-19.7-2.4-9-3-18.7-4-28a522 522 0 0 1-2-53c.6-59.6 10.8-119.4 36.8-173.4a270.8 270.8 0 0 1 44.1-65 212.9 212.9 0 0 1 61.5-46.2Zm-20.9 292c-.7-1 .7-2.2 1.6-1.6a120.3 120.3 0 0 1 43.9 56.3c9 22.2 14.6 49.4 5.7 72.6-1.4 3.7-8.3 5-9 0-3-22.6-3.6-45.2-10.4-67.2a211.8 211.8 0 0 0-31.8-60.1ZM91 451.7c.1-.4.8-.4.8 0-.5 8-.9 16-1.9 24l-1.7 11.5c-.5 4-.4 8-2.7 11.3-3 4.5-11.1 3.2-10.9-3 .2-4.2 2.2-6.9 4-10.6a102 102 0 0 0 3.2-7.3l1.4-3.7c3-7.4 5.7-14.6 7.8-22.2Zm-36.6-21.2c0-.6 1-.4 1 .2a261.5 261.5 0 0 1-6.8 48.7l-.5 2.1c-1.2 5.3-2 11.5-4.7 16.2-2.7 4.8-9 1.3-8.2-3.4 1-5.6 4.4-11.2 6.4-16.5a357 357 0 0 0 12.8-47.2Zm68.3 31.4.2-.3c1-1 2.3-.3 2.8.7 1.8 4.4.9 9.6.7 14.2v1c0 4.8 0 9.2-2.1 13.5-2.6 5.3-9.5 2-10-2.7-.6-5 1.8-10.1 3.4-15 1-3 1.7-6.1 3.2-9-1.3.3-2.5.8-3.7 1-.6.2-.8-.6-.3-.7 2-.7 4.2-1.2 5.8-2.7Zm272.6 15.5c-.6-.7.2-1.6 1-1.2a85.7 85.7 0 0 0 29.6 8.4c4.6.4 4.7 7.8 0 7.3-11.2-1-23-6-30.6-14.5ZM52.6 323.7c8.6-19.3 35.7-36.4 54-18.5.3.4 0 1.1-.6 1-11.3-4.8-25.1 1.2-33 9.7a41.3 41.3 0 0 0-10.7 24.6 35.1 35.1 0 0 0 7.6 25.8c3.2 3.8 7.5 7.3 12.6 7.7 5 .5 9.4-3.1 14.2-4.1 3.7-.7 6.4 1.5 6.8 5.1.8 8-7.2 13.3-14 14.6a29.5 29.5 0 0 1-21.3-4.1c-20.5-13-25-40.8-15.6-61.8Zm192.6-189c3.7-3.6 10 0 8.7 5-3 10.8-9.2 20-16 28.7a258.7 258.7 0 0 1-21.4 23.8 201.8 201.8 0 0 1-24.4 20.4l-2.6 1.9c-6.1 4.3-12.6 8.6-19.5 11.7a184.5 184.5 0 0 1-9.7 41.8 201 201 0 0 1-18 37.2l-1 1.7c-6.8 10.7-14.8 22.7-26.1 28.5l-1 .4c2.5 1.7 4.6 3.8 6 6.9 1.3 3.3-1.6 6.5-4.4 7.6-6 2.3-11.7-1.6-17-5.9l-.6 1.6c-1.2 3.3-1.6 6.8-4.6 9-1.5 1-3.3.1-4.2-1-3-4 .1-9.4 2.7-12.6l1.2-1.3A27 27 0 0 0 90 338c-6.2-3.3-15.4-3.9-19 3.4-.2.6-1.1.3-1.1-.3 0-9 9.2-13.8 17.1-14.5a34 34 0 0 1 16.7 4l1 .4c1.9 1 3.9 1.8 5.8 2.7-.3-.8-.3-1.8.2-2.7 6-11.8 16.3-21.3 23.8-32.2a193.8 193.8 0 0 0 30.2-70.5c-.9.2-1.9-.6-1.8-1.5.1-2.2 1.2-4.2 3.1-5a190 190 0 0 0 3.2-35.3c0-1 1.3-.9 1.4 0 1 10.5 1 21.2.2 31.8 5-4.6 10.3-9 15-13.7 7.3-7.1 14.4-14.4 21.1-22 7-7.7 13.4-15.7 19.4-24.2l3.1-4.4c4.8-6.8 9.7-13.6 15.8-19.4Zm-9.4-76c41.1-2.6 85 2.4 122 21.7a115 115 0 0 1 47.3 46.6c6.7 12 11.7 25.1 13.7 38.7 2 14-.4 26.4-9.3 37.5-3.5 4.4-9.5-.6-8.6-5 5.3-27.6-3.3-54.8-18.6-77.6-22.3-33.1-61.1-47.8-99-54.4a273.8 273.8 0 0 0-56.2-3.9c-14.4.5-29.1 1.9-42.8 6.7-.5.2-.8-.7-.2-1a177 177 0 0 1 51.7-9.4Zm61 62.2c2.1-1.3 4.7 0 5.5 2.2 2.5 7.7-2.9 17.8-6.5 24.5a137 137 0 0 1-14.7 21.2 112.2 112.2 0 0 1-40.6 31.1c-1 .5-2.1-.7-1.2-1.5 12-11.3 23-23.3 32.5-36.8 4.6-6.7 8.5-13.7 12.2-21 3.3-6.4 6.5-15.7 12.8-19.7Zm69.2 9c1.4-4.7 9-3.9 8.8 1.2-.8 13.2-7 26.5-13.8 37.7-7 11.5-15.8 21.7-26 30.6-.4.4-1.1-.2-.7-.7 8.8-9.6 15.8-20.5 21-32.3 5.2-11.8 7.2-24.2 10.7-36.4Zm-38.3-2c1.5-4.2 8.5-3.9 8.1 1-1.2 13.5-9 27.6-16.4 38.7a132.6 132.6 0 0 1-28.8 31c-.4.3-1-.2-.6-.6a123 123 0 0 0 32.6-51.5c2-6.2 3-12.6 5.1-18.7Z" fill="#000000"/></g></g></svg>