<svg viewBox="0 0 704 704" fill="none" xmlns="http://www.w3.org/2000/svg"><g transform="matrix(.99789 0 0 1 156 62)"><g fill-rule="evenodd" clip-rule="evenodd"><path d="M412.5 250.2c-1.2-21.9-2.2-44.5-6.4-66a66.6 66.6 0 0 0-12.8-28.8c-6-7.8-13.8-13.8-21.5-19.8-15.7-12-30.7-25.3-48.2-34.6-16.7-8.9-34.9-14.3-53.7-16.7-36.2-4.6-74.2 3.1-105.6 21.7-30.5 18-55 46-70.2 78A195.5 195.5 0 0 0 78 233.7c-3.7 20.6-3.3 41.3-3.2 62.2 0 7 0 14-.4 21-.5 3.4-.9 6.8-.9 10.5-6.9 9-9.7 21.2-5.3 32.4 6.9 17.8 26.4 26 44.2 22.8.8 4.7 2.7 9.2 5.1 13.7 4 7.6 8.6 15 13.5 22.2a194 194 0 0 0 35 39.7c27.1 22.9 61.4 37.9 96.9 40 32.3 2 66.4-7.2 92.8-26.1 13.7-9.9 25.5-22 34.3-36.4a149 149 0 0 0 18.8-55.7c6.3-42.7 6-87 3.8-129.9Z" fill="#FFDD00"/><path d="M157.5 24c-1.3-13.7 11.4-24 23.2-20.2 2.2.3 4.3 1 6.2 2.1 5.4 3.3 6.6 8.7 5.1 13.3 2.6 1.9 4.6 4.5 5.6 7.6 1 3.3 1 6.4 0 9.2a15.5 15.5 0 0 1 6.8 17c5.6 1.8 10.1 6 10 12.5 3.3.2 6.6.3 9.9 0a15 15 0 0 1 1.9-3.7c1.7-2.4 4.2-4.1 7-5.1l.3-.2v-.7c-2.1-2.3-3-5.2-.9-8.4.4-.6.9-1 1.4-1.4l.8-4c-1.8-2.7-1.6-7 1.5-8.2-.4-2.5-.5-5.1 0-7.7a22.3 22.3 0 0 1 26.8-17c2.6.2 5.2.8 7.8 1.6 2.9 1 3.6 3.5 3 5.6 4 5.3 5.1 12.5 1.1 19l-.5.7a7.2 7.2 0 0 1 1 10.4 5 5 0 0 1-2 1.4v.2c-.2 3.4-.8 6.9-1.8 10.2 4.2 3.9 7 9.2 7.5 15l4.7.5c.3-1.6 1.2-3 2.7-4.1 1.2-1 2.5-1.7 3.8-2.2a16.6 16.6 0 0 1 8.1-11.5c0-3.6.7-7.2 2.7-10.6 1.7-2.8 4-4.8 6.8-6.1 2-4 5.7-7.3 11.1-9.2 4-1.4 8.3.3 11.4 2.9l.6.6c2.9 2.5 3.9 7 2.8 10.5-.4 1.7-1.3 3.6-2.4 5.2 1.2 5.5-1.3 10-5 12.6 1.2 1.9 2.3 4 3.2 6.1 1.6 3.8-.2 8.5-3 11.5 1.2 2 2 4.3 2.3 6.7 1.3 0 2.6.3 3.9.7.6-2.4 2-4.5 3.9-6.3.8-1.6 1.9-3.2 3-4.6 1.8-2.1 4.1-3.7 6.7-4.3.3-.8.8-1.6 1.4-2.3-.6-7 4-14.2 11.2-14.2a38 38 0 0 1 1.8-4.8c1.5-3.2 4.6-5 7.9-5.6 2-4.8 5.8-8.3 12.4-8.8 14.7-1.3 24 16.5 20.4 29.4-1 3.8-3.6 7.3-7 9.4-.8.6-1.7 1-2.6 1.3a11.5 11.5 0 0 1-4.6 3.8c0 5.7-4 10.4-8.8 11.9.3 3.6-.6 7.2-3.4 10l-.2.2-.4.3v.2c1 2.5.9 5.3-.5 7.6 0 2 .5 4 1.2 6 2.7 2.2 5 4.7 7.2 7.5a5.4 5.4 0 0 1 5.4-1.2 7 7 0 0 1 1.6-.3h2.5l1.3-1.6c3.5-3.5 8.5-3.4 12.5-1.2.8-.6 1.6-1 2.5-1.4 10.2-4.3 16.9 8.6 17.9 16.7.5 4.4-3.3 7.1-7.2 7.4-.7 2.6-3.3 4.6-6.1 5.2a7.7 7.7 0 0 1-8.5 8.5v.8c.3 3-1.3 5-3.4 6a4.7 4.7 0 0 1-2.8 3.2c5 11.6 9 23.8 12.2 35.8A467.7 467.7 0 0 1 421.8 370a189 189 0 0 1-13 53 160 160 0 0 1-24 38.2 124 124 0 0 1-77.1 45.2c-16 2.3-32.3 1.5-47.8-2.8s-32-11.7-41.7-24.9c-2.6-3.5-1.3-9.3 1.6-12.2 3.3-3.4 8.2-3.6 12.3-1.6 7.2 3.5 13.8 8.3 21.1 11.7a99.7 99.7 0 0 0 64.9 4.6 108.3 108.3 0 0 0 62.7-45.9c17-26.4 23-57.4 25.8-88.2 3-33.8 2.7-68-1.3-101.7-2-16.7-5-33.3-8.7-49.7-2.6-11.7-5.5-23.3-8.3-35-2.5-2.3-4.9-4.8-7.2-7.3h-1c-13.8 1.2-28.8-.2-40.5-8.2a41.7 41.7 0 0 1-11.9-12c-4.2-3-8-6.6-11-11-2-2.2-4-4.5-5.8-7-4.6-6-7-12.4-9.8-19.4l-.1-.5c-.6-.9-1-1.8-1.1-2.8a261.5 261.5 0 0 0-24.8-1.7c.5 2.1.9 4.3 1 6.5l5.3.6c8.5 1.4 14 5.8 19.2 12.6a93 93 0 0 1 12 22.5c2 4.8-.5 10-4.6 13.2a89.7 89.7 0 0 0-30.3 7.5c-.3.2-.6.5-.7.8-7.7 2.3-15.4 4.4-23.2 6.2a47.5 47.5 0 0 1-32-2.9c-1.6.2-3.4 0-5.2-1.1-2.8-1.6-5.6-3.4-8.3-5.3-5-2.3-9.7-4.8-14.3-7.7-3.6-4.4-8.8-9-14.6-12.3-.7-1-1.3-2-1.7-3.1-2.5-6.1-1.5-13.5 3.8-17.7 0-1.4.7-2.8 2.1-4l3.4-2.5-.7-.6-1.4-1.1c-3.5 1.9-7 3.8-10.7 5.5l-.3.2c-6.8 4.5-13.3 9.6-20.2 14l-5 3-1.8 2.5c-.2 1.4-.6 2.7-1 4 .8.7 1.6 1.7 2 2.8 2.2.8 4.2 1.9 6.1 3l1.7.8a44 44 0 0 1 6.9-4.5 39 39 0 0 1 23 12.8l1 1 1.8 1.9c.5.7 1.2 1 1.9 1.2 3.5 3.4 6.9 7.1 9.2 11 3.6 6.4 1 14.2-1.6 20.4l-1.4 3c-5.2 6.9-10 14-15 21.1-3.2 3.2-6.5 6.4-9.6 9.7l-1.6 1c-9 4.7-17.9-.6-26.5-3.9l-1-.3c-8.9-3.3-20-5.4-20.5-17v-4.8a176 176 0 0 1 7.6-17 11 11 0 0 1-1.5-2.1c-.9-1.2-1.7-2.4-2.2-3.7-4.2 8-8.1 16.4-13.4 23.4-3 3.8-6.6 5.2-10.5 5.2a9.2 9.2 0 0 1-5.2.9l.2 2 .6 5.4c3.7-.1 7.7 1 11.1 2.3 10.3 4 20.2 9.7 30 14.5 4.8 2.4 11.4 4.3 15.3 8 3 2.8 2.6 6.3 1.5 10l-.6 1.8v.2c-3.2 4-5.4 8.8-7 13.7a54.7 54.7 0 0 0-5.6 14.2c-1 4-1.7 8-2.2 12v1.1l-.2.1v1a122.6 122.6 0 0 0 .7 27.3c-1.2 3.5-6.5 4-9.2 1.8a87 87 0 0 0-9.5-6.4 20 20 0 0 1-14.7.7c-.3 0-.7-.2-1-.4a71 71 0 0 0-11 2.4l-1.1.3c-5.7 1.8-11 3.9-15.4 8.2a37 37 0 0 0-8.5 30.6c1.5 10.2 7.4 21.8 18 24.7 4.4 1.2 9 1.2 13.3-.5 1.6-.6 3-1.5 4.3-2.6 1.7-1.2 3-2.6 5-3.4 1.8-.7 4.9-.7 5.8-.7 2.7-.2 5 2 5.8 4.4 2.5 7.5-1.2 13-7.1 16.7 2.5 3.8 4.8 7.8 7.3 11.4 4.6 6.6 9.5 13.1 14.6 19.5a183 183 0 0 0 25.2 26l1.6 1.3c2.7 2.3 5 4.6 5 8.5-.1 2.2-1.6 4.2-3.8 4.8-7.6 2.1-15.7-8-20.7-13l-.3-.5c-6-6.1-11.7-12.7-16.8-19.6a115.8 115.8 0 0 1-17.6-35.7 39.2 39.2 0 0 1-33-1.1 18 18 0 0 1-3.3 5c-5 5.3-12.3 6.8-19.3 6.7-9 0-17.1-5.7-17.4-15.3-.2-6.2 3-11.6 7.7-15.2 1.7-4.3 5-7.8 9.8-9a57 57 0 0 1-1.3-30.5C55.6 320.4 61 311 69 305l.4-.4-.2.1-5.5 3.3-.9.4c-8.2 4.7-17.8 8.7-27.4 6.2-15.3-4-16.7-23-3.5-30.5 4.5-2.6 9.8-3.6 15-4.3.8-1 1.8-2 2.8-2.8.2-3.5 2-7 5-9.2 3.3-2.2 6.8-2.4 10.2-1.4a19.8 19.8 0 0 1 7.9-3.6v-3.1c-.3-1-.4-2-.5-3.1l-.7-.1a23 23 0 0 1-9.1-4.3 18.3 18.3 0 0 1-15.6 1.8c-5.7-1.6-11-7-13.8-13A29 29 0 0 1 23 237c-5.8 1.4-12-.8-14.3-6.8-1.7-4.4.4-9.7 4-12.4 1.1-.8 2.3-.7 3.2 0a17.2 17.2 0 0 1 1.2-3c-.1-5.8 2-11.5 7.3-14.6 4-2.3 8.6-2.6 12.8-1.2 2.4-2.2 5.3-3.8 9-4.7 6.4-1.6 13.1.2 17.7 5l3-.6a13 13 0 0 1 8-10.7c.9-3 2.2-5.8 4.4-8l-3-3.2-2.7-.6a18.4 18.4 0 0 1-10.4-8.4 16 16 0 0 1-13-2 17 17 0 0 1-6.7-8.7l-3.6-1.3a12.7 12.7 0 0 1-7.2-6c-1.7.6-3.7.6-5.2-.6-9.3-7.2-3-19 7-21.3 4-1 7.4-.4 10.6 1 2.2-2.1 5-3.7 8.2-4.4a17 17 0 0 1 11 1.4h1c3.4-2.6 7.8-3.8 13.2-2.5a20.4 20.4 0 0 1 13.2 9.3 15 15 0 0 1 12.9-3.8l3.3-4.6a12.1 12.1 0 0 1-4.7-9.1c-.9-.5-1.7-1.1-2.4-1.7-3.8-2.6-7-6-8.4-10.4-.7-2.2-1-4.5-1-6.8l-1.1-.3c-16-4.6-22.6-26.6-10-38.4C87 51.5 97 55 103.5 59.6c4.4 3.1 8 7 11.2 11.3h.4c4.7 1.1 8.3 4.1 11 7.9 4.8-.8 10 0 14.5 3.4 3.3 2.4 5.4 5.4 6.4 8.7 4.3-2.3 8.8-4.2 13.3-6l1-2.1c.7-1.4 1.6-2.6 2.6-3.6a20.6 20.6 0 0 1-3-4.3 19.5 19.5 0 0 1 1.9-21.1 21.3 21.3 0 0 1-.6-16c-2.6-4.2-4.3-8.8-4.7-13.7Zm-70 307.3c2.8-.7 3.4-1.6 6.6-1.3a44.8 44.8 0 0 1 22.5 9c6.5 4.8-1.3 13.9-6.4 8.7l-.2-.2a51.9 51.9 0 0 0-11.7-9.2c-2.3-1.3-4.5-2.2-6.9-3.4-1.6-.7-2.5-2-4-2.8-.3-.2-.3-.7.1-.8Zm15-73.3c-1.6-.6-3.4.6-3.8 2-.4 1.7.5 3.1 2 3.7h.1c2 .8 3.8 2 5.3 3.3l.3.3c2.8 2.7 7-1.5 4.2-4.2-2.3-2.3-5-4-8.2-5.1Zm71.7-109.2c-1.6-3.5-6.6-.6-5.3 2.8l.1.2a11 11 0 0 1-.7 9.6l-.2.3c-1.8 3.4 3.3 6.4 5.2 3 2.8-5 3.3-10.7.9-16Zm43.6-43-.1-.4c-.7-3.8-6.5-2.2-5.8 1.6 1.2 6.3 5.8 10.4 11.6 12.5 3.7 1.3 5.2-4.5 1.6-5.8-3.9-1.4-6.5-4-7.3-8Zm94.5-6.1h-1l.8 1 .2-1Z" fill="#000000"/></g></g></svg>