<svg viewBox="0 0 704 704" fill="none" xmlns="http://www.w3.org/2000/svg"><g transform="matrix(.99789 0 0 1 156 62)"><g fill-rule="evenodd" clip-rule="evenodd"><path d="M403.3 205.4c18.2-11.6 42.9-41.3 28.8-63.8a25.7 25.7 0 0 0-22-12.4c-2-2.5-5.4-3.3-8.6-3.3v-.1a57 57 0 0 0-32.2 11c-6-5.3-13.4-8.3-20.6-11.5 3-15.2 7.7-30 12.9-44.6 2.8-8.4-6.1-17.2-14.6-14.7 2-9-2.7-19.6-13-19.5-5.6 0-12 3-17.3 4.3-4 1-7.9 2-11.7 3.3v-.3c10-7 9.7-23.3-5.1-21.7-6.3.6-12.8 4.9-18.6 7.5-9.6.6-18.8 3.6-28.2 5.8-25.6 6.4-53 12.7-74 28.8-36.5 14-81.9 35.8-86.4 78.8-64.3-24.8-112.9 54.6-54.6 85.8 11.5 5.4 24.7 8.1 37.2 5.6-3 10.9-5.8 21.9-8.4 32.9C44.6 328.4 26.6 382.5 33 438.6c0 10.2 13.2 16 20.4 8.5 6-7.2 13.2 1.2 11.3 8.2a12.1 12.1 0 0 0 11.5 15.1c9.5.5 17-5.9 23.7-11.7l.7-.4c16.5 39 32 8.7 52.5 26.3 4.7 4.4 8 9.6 14.2 12.5 14.3 7.2 25.6-5.7 39.3-7.2 12.7-1 25.2 3.4 37.3 6.4 14.2 3.4 28.5 5.2 43 3.6 18.7-2 55.8-10.5 66.8-17.4 13.5 9 27.3-1.7 34.7-14 5.2 5 15 5.7 19.1-2 4.2-8.5 12-21.6 20.8-19.7.8.3 1.3.4 1.8.8 8.3 7 19 1.7 20.2-8.6 7.9-66.6-8.2-133.3-29.6-196-4.6-13-8.5-26.7-17.5-37.6Z" fill="#FFDD00"/><path d="M396 203.5c-.4-.9 1-1.4 1.5-.6a518.7 518.7 0 0 1 38 82.6c9.2 25.3 17.4 51 23.2 77.2l.4 1.8c5.5 25.3 8.2 52 1 77.4l-.3 1.2c-1.7 5.6-3.9 11.3-9 14.6a19.5 19.5 0 0 1-14.1 2.4c-4.2-.7-8.2-2.5-12.4-3-3.1-.4-4 1.1-4.9 3.7l-.7 2.2c-3.3 9-7.3 17.6-18 19.5-5.8 1-12 0-17-3l-.2.5-.2 1c-1 3.9-2.4 7.8-5.2 10.9a15.6 15.6 0 0 1-15 4.6c-2.5-.5-4.9-1.7-7.3-2.6a7.3 7.3 0 0 1-8.4 5.5c-2-.4-3.6-1.4-4.7-2.5a56.2 56.2 0 0 1-20.3 8.4c-9.7 2.5-20 3.5-30.1 3.2a98.6 98.6 0 0 1-30.2-5.7l-1.5-.6c-8.3-3-17-6.9-23.7-12.6-1.3-.6-.5-3 1-2.5 9.2 3 17.7 6.4 27.2 7.8 9 1.3 18 1.5 27.2 1 9.2-.6 18.1-2.4 27-5.2 7.6-2.4 15.1-6.8 23.2-7.4l1.4-1.7c7-6.8 14.2-3.4 22.1-.9.3 0 .3.2.3.4l.1-.2h.1c-.4.4.3-1 .4-1.3 1-2.5 1.3-5.2 2-7.7 1.9-6 5.3-11.5 11.9-13 3.2-.7 7.6.4 9.1 3.8 1.3 2.7 3.3 4.1 6.4 4 3.3 0 4.5-2 5.6-4.8 1.8-4.6 2.8-9.5 5.9-13.6 3.4-4.6 8.5-7.3 14.2-7.5 4.4-.2 8.8 1.1 13 2.3l.4.1c1.9.6 5.3 2 6.8 1 2.3-1.5 3.5-10.3 4.1-13.6v-.2c1.2-5.5 1.9-11.2 2.2-16.9 1.1-23.8-3.8-47.5-9.2-70.6A1233.6 1233.6 0 0 0 396 203.5ZM76.6 261.7c.3-.4 1 0 .7.4-1 2.3-1.5 4.7-2.2 7-.9 2.6-2.3 5.2-3.3 7.7l-5 12.3c-3.2 8.3-6.3 16.7-9.2 25.1-5.8 17-10.6 34.3-14 51.8a266.6 266.6 0 0 0-6.2 53 61.2 61.2 0 0 0 5.8 27l.4.7.1.3.4.5c1-1.5 3.9-3.4 5-4.4l.2-.2 5.6-5.2c2.5-2.2 6-2.8 9-1.1 9 5 8.6 14.3 10.5 23.1l.1.4c.9 3.7 2.3 6.8 6.7 6 4.6-.7 7.3-5.4 8.8-9.5l.2-.5c2.7-7.5 12.3-7.2 15 0l1 2.7c2.2 5.6 5.1 12.4 10.6 14.6 4.7 1.9 10-1 14.2-2.6 2.3-1 5 1 5.7 3.2l.3 1.7c4.5-.4 8.7.6 13 2.6 5.7 2.6 12.8 8.3 14 14.9 1.2 7.7-7.8 11.4-12.4 5.2-3-4-4-8.7-7.5-12.4-2-2.2-4.6-4-7.3-5.7-2.4 8.5-15.8 10.9-23.8 8.4-7.7-2.4-12.8-8-16.6-14.7-7 7-17 10.3-26.8 4.3-5.7-3.5-8.4-9.7-9.4-16-.4-2-.4-5.1-1-8l-.5.6c-4.8 5-10.4 9.5-16.7 8.5-8.3-1.4-12.2-10.7-14.8-17.7-5.4-14.6-4.4-30.8-2.6-46a339.8 339.8 0 0 1 26.2-95.1 231.4 231.4 0 0 1 18-33c2.4-3.5 5.4-6.4 7.8-9.9ZM26.9 159a54.4 54.4 0 0 1 66.5-6 47 47 0 0 1 15 16.7c.2.5-.4 1-.8.6a59.3 59.3 0 0 0-40.9-14.5 47.2 47.2 0 0 0-44.8 49 40.6 40.6 0 0 0 18.8 32c11.6 6.8 24.8 4.5 37.3 1.5 4.5-1 6.7 4 4.2 7.2-12.6 16-38.6 11.8-53.2.8C1 225 1.8 182.2 27 159ZM67.8 184l1-.2c9.1-1.5 28.5-3.2 31.3 7.9 1.5 5.6-4.1 8.7-9 8.4-4-.2-8-1.4-12-2.3-1.1 4-1.5 8-2 12.2-.6 3.6-6.3 2.6-6.3-.9.1-4.7 2.4-8.8 5.9-11.8a70.5 70.5 0 0 0-31.5 4.3l1 .6c.4.1.2.8-.3.7l-4.6.2c-1.9.5-3-1.7-1.8-3.2 7.1-8.4 17.4-14 28.3-15.9ZM399 124.8a35 35 0 0 1 35.1 15.6c7 11.3 7.6 25.7 2.7 37.8a56.9 56.9 0 0 1-21 25.6c-3.8 2-6.7 1.8-10.7 1-2.5-.4-4.3-3.7-3.5-6.1l.6-1.9c.7-2 1.3-3.4 3.1-5.3 1.6-1.6 3.6-3 5.3-4.4 3.8-3.1 7.3-6.6 10-10.8a29.7 29.7 0 0 0 3.7-25.1 23.5 23.5 0 0 0-20.3-16.5 57 57 0 0 0-16.5.9l-3.3.6c-4.6.8-8.3 1.8-11.5 6-.3.4-.8.3-1-.1-1.5-4.6 3.3-8.7 6.8-10.9 6-3.7 13.6-5.6 20.5-6.4Zm-60.4-5.6c-.7-.9-.1-2.6 1.2-2.1 15.5 5.8 28.5 20.1 37.4 33.6 2.7 4 5.1 8.3 7.3 12.7 3.1-3.8 7.8-6.5 12.1-8.4l.5-.2c5-2 15.9-5.7 19 1a5 5 0 0 1-1.2 6c-2.7 2.6-7 1.7-10.3 1.6-6.8 0-12.1 2.1-18.1 4.2l3 7.2c1.4 3.3 2.3 6.8 4 10 1.4 3 3.8 5.7 5.8 8.4 2.7 3.7-1 9.8-5.3 9.4-9.2-1-12.9-8.5-15.4-16.6l-1.4-4.4c-2-6.6-4.2-13-7.3-19.3-4-8-8.8-15.9-14.2-23-5.4-7-11.7-13.2-17.1-20.1Zm-24-94.8c5.8-2.1 10.6 5.2 7.7 10-2.5 4.1-4 8.5-4.5 13l25.1-6c5-1.2 9.8 3.2 8.4 8.4l-3.9 14.4a62 62 0 0 1 15.7-3c4.6-.3 7.2 4.4 6.4 8.4-1.6 8.2-3.8 16.3-6.7 24.1l-2.2 5.7c-2.5 6.6-5.5 13.2-11.5 17-3 1.7-6.8-.6-6.8-4 0-8 5-15 7.8-22.5 1.7-4.6 3-9.2 4.3-14a47.3 47.3 0 0 0-13.4 6.3l-.6.5c-5 3.4-11.2-2.2-10-7.5V75l4.8-17.7-22.5 5.4c-4.7 1.1-8.3-2.1-8.7-6.6-.5-4.8-.2-9.5.8-14-14.9 4.6-30.1 8.3-45.4 11.7l-2.3.5c-33.5 7.4-67.7 14-98.4 30-13.6 7-26 15.3-37.4 25.6a114 114 0 0 0-21 25.6l-1.5 2.5c-.7 1.2-1.3 2.5-1.8 3.8l-.2.6c-.3 1-.7 2.5-.4 3.5.5 1.4 3 3.7 4.8 3 .2 0 .3.3.2.4-1.6 1.9-3.8 2.2-6 1.3-3.5-1.5-4.4-5-4-8.5 1-8.8 7-18.5 12-25.7C123.1 87 156 69.2 189.1 58.1c41.1-13.8 84.7-18.5 125.5-33.7Z" fill="#000000"/></g></g></svg>