<svg viewBox="0 0 704 704" fill="none" xmlns="http://www.w3.org/2000/svg"><g transform="matrix(.99789 0 0 1 156 62)"><g fill-rule="evenodd" clip-rule="evenodd"><path d="M397.5 243.8c-2.4-30.8 1.3-63-10.5-92.2-20.7-48.5-78.7-64.7-123.6-83.1-18-5.4-78.6-6.1-99.6-13.1-47.7-16-59.1-35-97-4.6a41.2 41.2 0 0 0-13.4 18.5h.2c-.9 3.2 0 6.4 1.9 8.9a61.8 61.8 0 0 0-14.9 64.3c27.5 58.2 26.2 89.7 17.4 152.2-11.6 58.4 14.8 79.8 58.7 111.5-1.8 3.5-2.2 8 .1 11.1 50.7 71.2 146.2 105.2 228 69 33.3-14.7 48.1-50 56.6-82a228.4 228.4 0 0 0 4.9-109.8c-3.3-16.9-7.5-33.6-8.8-50.7Z" fill="#FFDD00"/><path d="m34.6 156.5 30.1 20.1L172.6 63l-36-28.2s-65 48-77.8 60.8c-12.8 12.7-24.2 61-24.2 61Z" fill="#0000FF"/><path d="M105.2-96.9c6.2-.9 10.8 3 13 8.3l.2.3 2.3 5.4c15.4-7.6 37.4-5.7 47.1 9.6 7 11 2.7 24 0 35.5l-1.6 7.6c3.3 2.1 5.8 6 5.7 9.9v.3l-.7 10.6a55.2 55.2 0 0 0 10-14c8.6-12.9 27.8-1.7 20.7 12a67 67 0 0 0-9 18.6c3.3 1.5 6 4.7 6.2 9.5a29.4 29.4 0 0 1-14.8 26.8c-2.8 1.8-5.7 2.1-8.3 1.5l-1.4 1.8c3.8 3 7.2 6.6 10.1 10.5a182 182 0 0 1 26.6-2 59 59 0 0 1 35.5-3.2c7.5 1.3 14.7 3.8 22 5.6 7.8 1.8 15.7 2 23.6 3.2 10 1.6 18.6 6.2 24 13.5a36 36 0 0 1 17.7 6l36.5 23.5c4.6 3 6.4 7.8 5.5 13.1v.4l-.4 2.2 1 1.4c3.6 5.2 7.7 10.7 10.1 16.5 4.5 6.5 8.5 13.2 12 20.2a146.5 146.5 0 0 1 13.3 37.1c.6 3.7-.3 6.6-.9 10.2-.6 4.5-.9 9-1.6 13.5-.4 3-3 4.5-5.6 4.6a889.4 889.4 0 0 1 4.6 55.5c3 4.2 9 7.6 13.3 8.8 6 1.6 12.3-.1 18-2.2 3.5-1.3 6.5 3.2 4.7 6.2-5.4 9.4-17.1 9.4-26 5.2-3.8-1.7-7-4.3-9.5-7.6l.5 9.5.1 2.8c1.8 33.6 5.7 68.3-.6 101.5a127.5 127.5 0 0 1-116.6 104.7 161 161 0 0 1-68.6-12.3c-12.6-5-7.7-15.3 1-12.3 15.2 5 43 12.5 67.8 9.3 58.5-7.7 108.2-37 103-163-.7-17.8-2.9-35.7-3.4-53.6-.4-17.4-.3-35-1-52.4l-.3-6c-.3-6.9-.6-13.9-1.1-20.9-.7-2.7-1.2-5.4-2-8-2-7.3-4.8-14.3-8.2-21-.7.6-1.5 1-2.5 1.2a31.2 31.2 0 0 1-28-7.3c-1.2-1-2-2-2.6-3-3 0-6.2-1-8.2-3.2-2.2-2.6-2.6-5.2-1.7-7.7v-.2h-.1a38.5 38.5 0 0 1-13.7 16.8 55.5 55.5 0 0 1-31.5 8.5 218.2 218.2 0 0 1-46-5.4c-.2 0-.3.2-.4.3a34 34 0 0 1-37.6 6.8 58.5 58.5 0 0 1-19.4-14.4c0 3-.2 6.2-.5 9.3l-.1 1.2c-.6 5.8-1.6 11.9-6 16-7 6.8-17.2 4-25.3-.3v.6l6.6 22.4.4 1.6c1.6 5.3 3.4 10.6 3.9 16 1 10.7-6.1 21.1-17.9 17.6-6.2-1.9-11.1-7-15.8-11.2l-3-2.6c7.7 25.3 13 51.4 13.6 77.8 0 1.4-1.2 2.5-2.6 2.6-3.2 0-6.6-.5-9.8-1.8h-.6a37.2 37.2 0 0 1-15-5.7c1 3.2 1.5 6.7 1.3 10.4-.1 1-1.5 1.2-1.7.2-2.6-12.7-17.4-22.2-30.2-19.8a34.3 34.3 0 0 0-26.4 27.9 53.7 53.7 0 0 0 11.9 42.3c4.3 5.1 10 9.4 16.8 10.5 3.1.5 6.3.3 9.4-.6l3.7-1.4c1.7-.7 3.8-.8 5.5-1.6 3.8-1.7 7.6 1.8 5.7 5.7a16.4 16.4 0 0 1-6 7.5c2.3 2.8 4.3 6.6 5 7.6a128.7 128.7 0 0 0 26.8 28.4l2.3 1.8c5 4 9.4 7.6 12.9 13.3 2.8 4.5-.8 10.6-6 10.5-16.3-.2-28.2-14.6-36.6-27a69.7 69.7 0 0 1-3.4-5.7 12 12 0 0 1-1.3 1.7l1 2.5c2.7 7.4-9.2 12.2-12.6 5.3-2.5-5-5.4-9.7-8.7-14.2-1.9-.3-3.8-1.4-4.8-3-2.6-3.7-5.6-7.6-8-11.6a102 102 0 0 0-4.3-3.8l-1.3 1c-1.8 4.2-4 8-6.8 11.6l-.6.8c-5.4 6.7-12.4 13.6-21 15.2-2.6.5-5.1-2.7-2.8-4.8 6-5.4 13.2-9.1 18.7-15.2 2.8-3 5.3-6.2 7.4-9.7l.5-.8 1.1-1.8-7.5-5.1c-6.9 5.9-15.9 8.6-23.5 13.5l-.8.5c-7 4.6-14.2-5.6-8.6-11.2 6-6.2 11.2-13.5 16.6-20.4a40 40 0 0 1-4.2-15.8l-.5-4.8c-3.9 0-7.8-1.2-11-3.5l-1.3-1c-4 1.4-8.2 2-12.3 1.9-9.4-.3-13.3-11.1-7.4-18 6-7 16.6-8.5 25-5.1l.9-.5c-.4-1.8-.4-3.5 0-5v-.8a23 23 0 0 1-3.2-17.6c.2-.9.6-1.8 1-2.7-.7-1.7-1.1-3.5-1.3-5.3l-.5-.7a14.2 14.2 0 0 1 .6-17.6l.1-1-.6-1.5c-3.9-4-6.7-8.6-6.2-14.4a15 15 0 0 1 3.8-8.9 5 5 0 0 1 0-3.4c-3.3-9-2.9-20-.4-30.1-.6-1.5-.9-3.2-.8-5 .3-7.5 6.8-14.4 14.5-14.3 1 0 1.8.1 2.6.3v-.2c.3-2.2 1-4.3 1.8-6.2a4 4 0 0 1-1.2-.7c-5 2.7-10.1 4.7-15.6 6-4 1-8.2-3.5-5.6-7.3 1.1-1.8 2.4-3.3 3.8-4.8-2 0-4 .2-6 .4-3.6.5-7.7-2-10-5.3l-8.8 8.5c-7.4 7.2-18.6 1.9-19.8-7.6-2.2-.6-4.3-1.6-6-3a104 104 0 0 1-37.2 8.4c-9.3.4-14.7-10.4-10.3-18A60 60 0 0 1-66 145.4c-6.4 2-13 3.4-19.9 4.3-3.6.5-8.8-2.5-10.3-5.9a44.4 44.4 0 0 1 1.3-39l.8-1.5a75 75 0 0 1 2.2-5c-8-8.3-8.6-20.6-4.3-31a10.4 10.4 0 0 1-1.3-9.1 78.7 78.7 0 0 1 14.2-23.8l-1.5-3.6a29.8 29.8 0 0 1 8.5-30c5-4.6 10.8-7.3 17-9 2.5-4.6 5.9-8.7 9.7-12.2l.5-1c6-11.4 17-17.5 28.8-18.9.5-4.4 3.5-8.7 7.9-10 1.2-4 3-7.6 5.4-11C-3-66.4 3.4-69 9.5-65.4c3.3 1.9 6.5 4 9.5 6.4a13 13 0 0 1 4.5-1.1h.5l9.8-.6 12.4-5.6a33.2 33.2 0 0 1 18.7-7.5 89.9 89.9 0 0 1 29.8-4.7l.2-5.6v-1c-.2-6 4.7-10.8 10.3-11.7Zm-6.9 484-3 .6 1 2.2 2.4 1.3c-.3-1.4-.4-2.7-.4-4ZM47 372l-.7 1.2-.3.6 4.2.1v-.1l-.5-.2c-1-.5-1.9-1-2.7-1.6Zm27.7-55.8c8.9.5 16.4 1.8 24.4 5.7l.7.3c7.1 3.6 18.9 10 17.9 19.4-.3 2.7-2.2 5.5-5.3 5.3-8.3-.6-13-9-18.7-14.2a96.6 96.6 0 0 0-19.6-14.4c-1-.5-.6-2 .5-2.1h.1Zm-40-123.2c-2.2 0-1.5 2.1-.4.4 0-.2.2-.3.3-.4ZM149 55.4c-20 .5-40.2 12.3-55.3 24.3A196 196 0 0 0 59.3 116c-2.5 6.7-4.8 13.5-6.6 20.3-1.3 4.5-2 9-3 13.7l-.4 1.4a22 22 0 0 0-1.8 4.8c1.8 1.8 4.2 3.1 6.8 3.7.8.2 1.5.7 2 1.2 2.2-3.5 4-7.2 5-11v-.2c4.1-6.6 8.5-13 13.2-19.2A230 230 0 0 1 118.8 85c13-9.8 27.5-17.5 43-22.5a47 47 0 0 0-12.8-7.2Z" fill="#000000"/></g></g></svg>