<svg viewBox="0 0 704 704" fill="none" xmlns="http://www.w3.org/2000/svg"><g transform="matrix(.99789 0 0 1 156 62)"><path fill-rule="evenodd" clip-rule="evenodd" d="M397.2 173.7c-33-46.7-115.8-52-168.2-51.7-103.4-.9-125 118-130.5 201.3a46.6 46.6 0 0 0-29 14.4c-8.9 10.6-12 28.7-3.6 40.5C71.4 386 80 388.7 89.2 389c30.2-2.9 36.4 24 51.3 44.2 38.1 51.5 104.2 68.3 164.9 68.5 20.5.6 45.4 2.1 58.5-17.3 41.7-72.2 42.6-168 45.2-249.7.3-21 .2-43.1-11.9-61.1Z" fill="#FFDD00"/><g fill="#000000"><path d="M468.4 214.2c.4.8.7 1.7.9 2.6.5 3-.6 5.4-2 7.6l.3 4.4c.5 7.5-1.2 17.8-7.8 20.8l-.4.4c-.5.8-1.2 1.6-2.3 2a9 9 0 0 1-1 .7l-.1.2a14.3 14.3 0 0 0 .4-.5 21.7 21.7 0 0 1-11 1.3c-2.3.9-4.6 1.5-6.6 2-6.1 1.5-14 2.7-20 .1-1.8-.7-3.3-1.7-4.4-3l.5 14a859 859 0 0 1-.9 74.8 589.6 589.6 0 0 1-3.7 39.1A271.7 271.7 0 0 1 393 444a138 138 0 0 1-21 36 93.6 93.6 0 0 1-32.2 25.1 95.3 95.3 0 0 1-39.6 6.5c-5.1-.1-10.5-1-15.6-1.9h-.3c-4-.7-8-1.5-12-2.6a128.6 128.6 0 0 1-22.3-7.5l-6.6-2.5c-2.8-1-5.5-2.3-8.2-3.8L228 490a99.9 99.9 0 0 1-11.8-6.8l.1-.7c-.1-.3-.1-.6.3-.9.2-.2.7-.1 1.1 0l-1.6-.9a.8.8 0 0 1 0-1.3l.3-.2.1-.6c-.2-.4-.3-.8.1-1 .6-.6 2 .2 2.6.6h.2l1.1.7.8.4c0-.1 0-.2.2-.3l-2.8-1.5c-.5-.3-1.3-.9-.5-1.5.6-.5 2.1.4 2.9.8l.3-.1a18.3 18.3 0 0 0-1-.6c-1-.5-.3-2 .6-1.5h.2l.2.2c.6 0 1.5.4 2 .7 3.1 2 6.4 3.7 9.8 5.2a427.8 427.8 0 0 0 13.8 6 146.7 146.7 0 0 0 48 11.7h7.7l13.4-1.3 1.4-.2a74.1 74.1 0 0 0 18.7-5.4c4.2-2 8.4-4.5 12.3-7.5l7.4-7.3 7.3-7.4 4.5-6.1c5.8-8.3 10.4-17.5 14.2-27l6-17.4a237.5 237.5 0 0 0 6.4-25.6c2.2-10.8 3.5-21.6 4.5-32.5 2-19.8 2.5-39.6 2.6-59.5 0-11.9 0-23.7-.3-35.6 0-6.9-.2-13.7-.3-20.6a2668.7 2668.7 0 0 0-.4-25c0-.5.2-.8.6-.8l-.1-15.6c0-.4.1-.6.3-.7v-1.3a59 59 0 0 0-8.4-19c-1-1.7-2.3-3.3-3.8-4.7l-1-.6a244.4 244.4 0 0 1-2.8-2l-1.8-1-1.7-1.2c-.7-.3-.3-1.2.2-1.5l-.3-.2-4.5-3.9c-.3.2-.7.1-1 0a66 66 0 0 0-2.7-2.6 60.3 60.3 0 0 0-6.8-3.8 100.6 100.6 0 0 0-13.9-5.3l-.2-.1H351l-2.3-.2a1094.6 1094.6 0 0 0-169.3 5.7l-6.5.6c-8.2.7-17 1.4-24 5l-1 .5c.5 4 2 7.8 3.4 11.5l.7 1.7a53 53 0 0 1 4.4 20.2c-.1 5-1.2 9.7-2.7 14.4-.8 6.6-2.9 13-5 19.2a272 272 0 0 0-16 95.3c0 .9-.3 1.6-.6 2.3v.1l.6 4.2c1 5.5-6.4 8.3-8.9 4.6a1 1 0 0 1-.6.3c-.7 0-1.7-1-2-1.5l-1.2-2-.2-.1.4.8.4.8c.4 1-1.2 1.3-1.7.5l-1.4-2c-.3.2-.5.2-.7 0a33 33 0 0 0-5.5-7 25.6 25.6 0 0 0-10.8-5.1 37 37 0 0 0-20 2.8l-7.9 5.5-1.8 2a37.4 37.4 0 0 0-4.6 7.7v.2l-.1.3a31 31 0 0 0-1.5 11.5v4.5c.4 3.9 1.4 7.7 3 11.3a16 16 0 0 0 3.3 5.7c.8 1.4 1.7 2.7 2.8 3.9 2 1.4 4.4 2.6 6.8 3.5l1.9.5a39.8 39.8 0 0 0 22.3.8c2.5-.4 5-1.2 7.3-2.2 2.2-1.1 4.4-2.5 6.3-4 .3-.2.6-.1 1 0l.2-.1 1-.9c.3 0 .4 0 .5.3l.2-.1c.7-.6 3 1.1 2 2.1l1.2 1c1.7 0 5.2 3.2 4.5 3.7l-3 2.4c1 .6 2.1 1.7 1.6 2.1-1 1-2.2 1.9-3.3 2.6a30.4 30.4 0 0 1-5.4 3.1c1.7 3.4 3.4 6.7 4.9 10.1 1 2.4 2.2 4.7 3.5 7 1.7 3.4 3.8 6.6 6.2 9.6a109.1 109.1 0 0 0 17.3 19.5l4.6 3c4 3 8.3 5.6 12.8 7.8.5.2 1 .9.3 1.4l4.4 2.5c.7.4 1.8 1 1 1.7-.6.4-2.4-.4-3.5-1l.3.2h.2v.1c.5.3 2.2 1.2 1 1.7-.6.1-1.1 0-1.7-.2l-1.6-.7c0 .1-.1.3-.4.5h-.7l3.7 2c.4.2 2 1.1 1 1.7-.6.1-1.1 0-1.6-.2a27.8 27.8 0 0 1-3-1.4l-.4-.2h-.5l3 1.5c.6.3 1.6 1 .7 1.6-.6.5-2.2-.3-3.1-.9l-.2.3c-.7.4-2.1-.4-2.8-.8-.2 0-.2-.1-.3-.2a155.4 155.4 0 0 1-22.6-14.3 102.4 102.4 0 0 1-21.5-22.8c-4.6-6.5-8-13.3-11.3-20.5 0-.1 0-.4.2-.7a210 210 0 0 1-2-5l-5.2.4c-4 .2-8-.1-11.7-1-4.6-.6-9.1-1.9-13.2-3.9a69.8 69.8 0 0 1-6.9-4 35.3 35.3 0 0 1-18.7-28.3 43 43 0 0 1 1.5-21.5 36 36 0 0 1 12.9-19.3 34.9 34.9 0 0 1 11-6.2l-.7-1.9c-.3.1-1.3 0-1.4-.4l-.5-1.6-.4-1-.7.2v1c0 .3-.5 2-.8 1.1l-.5-1.6-.4-1-.5-.5-.1-.3v.3c0 .2-.6 1.6-.7 1.3-1.7-4.7-3-9.6-4.2-14.5a159.4 159.4 0 0 1-3-15.8l-.2-.7v-1a165.8 165.8 0 0 1-1.8-26.5h-.2l-.1.1c-2.6 1.1-5.4 2-8.2 2.8a28 28 0 0 1-31 11l-1 .2c-1.6.2-2.9-.1-4.2-.5a18.1 18.1 0 0 0-3.2-.6c-3.3-.4-6-.8-8.3-2.8-.7 0-1.4 0-2-.3-6.4 1.6-13.1-1.8-15.4-8.8a23.6 23.6 0 0 1-8.8-9.3 54.5 54.5 0 0 1-9-17.8h-.1c-1-2.2-1.5-4.5-1.5-6.8-1-6.5-.8-13 1.2-18.9a26.4 26.4 0 0 1 9.3-19.4c0-3.6 1.6-7.7 3.7-10.4a22.1 22.1 0 0 1 16.6-8.8c3.3-8.4 13.3-10.4 21.9-7.6 3.5-3.6 8.8-5.4 14-4.8a20 20 0 0 1 11.3 5.6l2.5.7c2.7-1.2 6-1.5 8.8-.7 5 1.3 8.4 5.1 10.7 9.5l2.1 1.6c.8.3 1.5.8 2 1.3 1 .5 1.8 1.3 2.3 2.5 1.2 1.3 2.4 2.7 3.5 4.2a207 207 0 0 1 2.5-5.4c1.4.4 3-.2 3.7-2l.2-.5c4.4-11.8 12.3-32.7 19.8-42.4a51.5 51.5 0 0 1-31.7 8.7c-5.7 1-11.5 1.1-16.9 0a88.6 88.6 0 0 1-13.7-6.6l-.3-.3c-.7 0-1.4 0-2.2-.2a13.2 13.2 0 0 1-8.2-6.7 23 23 0 0 1-7-15.4c-.6-3-.5-6.3.5-9.2l.3-.6a25.6 25.6 0 0 0 .3-1c.3-1 .7-2 1.2-2.9.2-1 .5-1.8 1-2.7v-1.3c-3-6-2-13.8 2.8-18.7a12 12 0 0 1 2-9.3c1.3-2 3.3-3.6 5.5-4.8l1.6-.5 2.6-2c.2-5.9 6-9.3 11.1-12.2l.8-.4c1.6-1 2.8-2.3 4-3.7 1.3-1.5 2.5-3 4.3-3.9 3.1-1.7 7-2 10.6-2.4.8 0 1.5-.2 2.3-.3 10-1.2 20.5-2 30.5-1 5.5.6 10.1 3.3 12 7.7 4.8.5 9 4 12.4 7.5 4.2 4.4 7.7 9 9 14.9.8.4 1.5 1 2.2 1.6 0 4-.5 8.2-1.7 12a10 10 0 0 1-1.5 6.5c.2 1.9 0 3.7-.3 5.6 2.2 4 .1 10.1-3 14.2l-.1 2.2c.2 0 .4-.2.5-.3 9.2-7.9 18.6-10 28.7-12.3 5.8-1.4 11.9-2.8 18.3-5.4a323.6 323.6 0 0 1 48-5.7h-.3c-8.2-1.4-16-4.7-22.8-9.6a11.7 11.7 0 0 1-8.1-7l-.8-1c-5-1.2-9-5.6-8.3-11.3a15.1 15.1 0 0 1-3.3-13.5c-1.8-3-2-6.8-.6-10-2.9-3.5-3-8.3-.9-12.2a8.3 8.3 0 0 1 0-10.1 8.4 8.4 0 0 1 4.7-3.1 9.5 9.5 0 0 1 5.6-6.5c.4-2 1.5-3.7 3.5-5.1 1-.7 2-1.1 3-1.3a11 11 0 0 1 4.6-5.5c2.7-1.6 5.9-1.8 8.7-1 3.7-5.6 12-7.8 17.6-3.6 4.7-3 10.7-2.3 15 1.2 5-3 11.4-1.8 15.4 2.4 6.5-3.5 15-.9 18.4 5.8 6.6-.7 12.7 3.5 14.4 9.7l.9.7c4 .3 7.6 1.8 9.8 5.4 1.1 1.8 1.6 4 1.5 6a10 10 0 0 1 4.5 13.2c3.3 3.5 4.2 8.8 1.9 13.2 1 1.6 1.4 3.5 1.3 5.5 0 3-1.5 5.4-3.3 7.4a10 10 0 0 1-2.4 12.7c-2.2 7.8-7.8 13-16.3 16.2a86 86 0 0 1-13.4 3.7c18.3 2.5 36.3 6.8 53.6 13.2 1 .4 1.7.3 2.3-.1l.5.2.6.3a188 188 0 0 1 14 8.5V98c0-4.1.4-8.2 1.5-12-1.5-2-2.5-4.2-3.1-6.5-1.5-5.8 1.3-13.9 6.3-15.8 1.7-4.9 5.7-8.4 10.5-9.7l1.3-1c1-.7 2.1-1.2 3.3-1.5.6-2.6 2-5 4.4-6.7 3.4-2.4 7.5-2.6 11-1.3l2-.6a14.2 14.2 0 0 1 19.7 1.2c3.5-1.6 7.5-1.7 11 .4 2.9 1.7 4.7 4.5 5.3 7.5 5.4.1 10.3 3.7 11.8 9 5 .5 9 4.4 9.9 9.3 3 .4 6 1.9 7.8 4.8a9.9 9.9 0 0 1 1.3 4.3c1.6.8 3 2 4.1 3.5 2 2.6 2.3 5.7 1.6 8.6l.2.4.3.6c.5 1 1 2.2 1.3 3.4 1.6 2.4 2.4 5.3 2.2 8.3a40.8 40.8 0 0 1-.3 27.2c-.4 1.8-1 3.6-1.7 5.4-1.6 2.2-3.4 4.4-5.3 6.5a41 41 0 0 1-10 10.4 36.8 36.8 0 0 1-11.1 6.2l-2.2-.4a36.6 36.6 0 0 1-16 2.7c-5 0-9.3-1.2-13-3.5l.8 1.5.5 1-.3.2c-.8-1.3-1.7-2.5-2.8-3.3-1.4-1.1-3.7-1.2-4.7.6v.1c-.5 1-.5 2 0 2.7l.4.7.1.1c1.4 1.2 2.7 3.8 4 6.5.9 1.5 1.7 3 2.4 4.6.5.7 1.3 1.3 2.1 1.4-.1 1.3.4 2.6 1.4 3.2l1-1.5a16.8 16.8 0 0 1 19-5.7 43.4 43.4 0 0 1 16.5.4 26.1 26.1 0 0 1 6.3 5.3l2 1.5c2.5 1.4 4.4 4 6 6.6 1.2 1.8 2.3 3.7 3.2 5.6 4.4 7.5 9.4 16.8 5.5 24Z"/><path d="M118.7 358.4c1.6 1.8 2.8 3.9 3.7 6.1.4.8 0 1.2-.8 1-.3 0-.8-.2-1.2-.5l.2.5c.4.7 0 1.3-.8 1l-.2-.1c.5.8 1 1.7 1.3 2.5.4.8 0 1.4-.9 1l-1.3-.8.2.3.4 1c.4.7 0 1.1-.9 1l-1.8-1.4-.2-.1c.2.6-.3 1-1 .8-.9-.1-2.6-1.7-3-2.5l-.1-.2-1.4-1.2c-.4.5-1 .8-1.3.2-.8-2.2-2.1-4.2-3.9-5.9a40.4 40.4 0 0 0-6.1-5.7 22.2 22.2 0 0 0-5.2-1.6l-.4-.1H94l-2-.4c-3-.4-5.8-.5-8.7-.2-.5 0-1-.4-1.2-.8h-2c-1 .1-.8-1.4 0-1.5l3-.5v-.3a36 36 0 0 0-5.5.2c-.8 0 .2-1.5.6-1.5h.3l.3-.1v-.1c-1.2 0-2-1.7-.6-2h.5l.5-.1v-.5h-1.7l.4-.6c.1-.4.3-.8.5-.8h.4l.5-.1c0-.4.5-1.2.8-1.3 1.9-.3 3.7-.5 5.6-.6.2-.4.4-1 .7-1a51.2 51.2 0 0 1 6.3.1l1 .3a28.5 28.5 0 0 1 11 4.3 45.5 45.5 0 0 1 8 6.6 86.2 86.2 0 0 1 6 5.6Z"/></g></g></svg>