<svg viewBox="0 0 704 704" fill="none" xmlns="http://www.w3.org/2000/svg"><g transform="matrix(.99789 0 0 1 156 62)"><g fill-rule="evenodd" clip-rule="evenodd"><path d="m154 59.3 8.6 10.3c-4.7 3.4-9.2 6.8-13.5 10.2a118 118 0 0 1 65-20.5c45.3 0 137.4 39 158.2 67 10.3 14 29.5 56.8 39.5 103.3 8 37.4 19.9 143 8 182.7-15.2 50.7-65.3 97.7-117 97.7s-131.9-37.3-189-119c-2.6-3.8-32.5-8.1-54-22.2l5.7 61.9 4.3 36-1 2.5c-15.3 41.4-27.4 63-36.4 64.8-9.1 1.9-27.7-13.1-55.8-44.9l-3.6-15c-9.1-38.5-13.7-59.1-13.7-62v-.5c.2-6.5 2.4-43.3 2.4-53.2V210C-8 109.5 20.7 59.3 48.2 59.3H154Z" fill="#FFDD00"/><path d="M82.4 25.1a31.3 31.3 0 0 1 27.6 2.4 48 48 0 0 1 41.7 23.1l.5.6 1.8 2.2c1.8 2 3.6 4.2 5 6.6-7 .1-13 3-17 8.8-3 4.2 3.7 8.2 6.7 4.2l.1-.1c2.5-3.5 6.3-4.9 10.4-5 1.2 0 2.1-.4 2.8-1.1l.6 2.8c21-8.1 43.6-10.3 66-8.4-1 1.6-1.8 3.3-2.4 5.1-.7 2 .8 4.4 2.8 5 2.1.5 4-.7 4.9-2.6v-.2c.9-2.5 2.3-4.6 4.2-6.2 10.6 1.4 21 3.7 31.3 6.6 12.4 3.6 24.6 8 36.5 12.9-2 .7-3.8 2-5 4.3-2.4 4.5 4.3 8.5 6.8 4.2l.1-.1.7-1 .4-.1.6-.2h.3l.9-.2h2.3c1.8 0 3-1 3.5-2.3 6 2.6 11.7 5.4 17.5 8.3l1.3.8c17.7 9.2 34.4 21.3 44 39 .7 1.3.9 2.6.7 3.8l6 7.6c5.9 8 10.2 17 14.2 26a282 282 0 0 1 18 56c4.1 18.5 7.5 37.3 10.6 56.2 3.4 20.9 6.3 42 7 63.2 1 37.8-6.4 75.8-27.6 107.6-19 28.4-47.5 51-81.3 58.2a114 114 0 0 1-98-22.7c-4.3-3.7-3.7-11.2 0-15 4.3-4.2 10.6-3.6 15 0 25.5 21.6 62.7 25 93.4 14 28.5-10.2 50.8-33.7 64.4-60 16.7-32.2 19.5-69.2 17-104.7-1.4-19.6-4.4-39-7.4-58.3l-1.8-11.6c-2-12.7-4-25.3-6.7-37.8l-.7-2.9a256 256 0 0 0-13.1-44.6 240.2 240.2 0 0 0-13.1-25.8c-1 .3-2.3.4-3.6 0a145.6 145.6 0 0 0-49.2-6.7c-9-.5-18 .3-26.6 3a187 187 0 0 0-2.5-2 6.6 6.6 0 0 1-5.4-4.3c-1-.9-2.2-1.7-3.3-2.5-2.7.7-5-1.6-5.7-4l-1.8-1.2-1.4.2c-2 .2-4-.1-5.7-1a10.5 10.5 0 0 1-4.6-5.4c-3.3.2-6.8-.9-9.8-2.9a29.7 29.7 0 0 1-6.1-6 209.5 209.5 0 0 0-72-17.6 99 99 0 0 0-9.6 2.5c5.5-.7 11-.8 16.7 0 26.9 4 47.8 24 65.8 43 4.3-.8 8.6 4.7 4.7 8.4l-31 28.6c.8 3.2-2.9 6.4-6 5.6l-16.3-3.8a17.2 17.2 0 0 1-17.8-1.7l-1.2-.8-1.2.9a8.7 8.7 0 0 1-6.2 1.2c-2.2-.3-4.2-1.5-5.9-2.8-1-1-3.6-4.6-5-4.9h-.1c1 0-2 2.9-2.9 3.4a9 9 0 0 1-6.3 1.8c-4.1-.4-7.6-4.1-9.6-7.6l-.2-.3v-.1.2h-.1c-.3.9-1.3 1.8-2 2.4a7.6 7.6 0 0 1-6.4 1.9c-2-.4-3.8-1.6-5.1-3.1l-.3-.3c-.4-.4-3-4-2.6-5h-.1c-1.7.4-3 0-4-.8-5.6-1.3-11.2-2.7-16.5-4.5l-1.3 3.5c3 1.8 5.7 4.4 8.1 6.2l14.2 10.5 18.7 13.8 2-.6c2.8-.7 5.2.8 6.2 3.3v.2l1.5 3a9.8 9.8 0 0 1 9.9 6.8l3.5.1c3.2.4 5.4 2.8 4.8 6.1V211c1.8.8 3.2 2.4 3.5 4.7.5.8.9 1.6 1.2 2.5 1.3 4.8-1.3 10.7-2.7 15.3l-.2.3-2.7 9-2.4 7.5c-6.6 20.7-13 42.6-7.7 64.3 1.2 4.6-4.7 6.7-7.3 3-6.1-8.6-12.8-16.8-19.8-24.7h-.4c-4.9-1-6.8-4.5-9-8-1.4.3-2.8.4-4.2.2-2-.4-3.8-1.6-5.2-3-1.2-1.2-2.3-4.4-3.7-5.1-1.8-1-5.3.4-7.4 0-1.7-.2-3.3-.8-5-1.5a27 27 0 0 0-5.1 13.4 11 11 0 0 1-1.6 4.8c3-.1 6 0 9 .6 10.9 2 18.7 8.8 23 18.9.3.4-.3.8-.6.3-6.5-10-20.7-10.5-31-7-11 3.8-17.1 13.4-19.3 24.4-2.4 12.1.7 25.1 7.2 35.4 3 4.8 7.2 9.1 12.8 10.9 6.5 2 12.6-1.7 19.3.3 4.6 1.3 6.7 5.7 5.8 10.1-.3 1.8-1 3.3-1.7 4.6 2.4 4.8 4.6 9.8 7.5 14.3 4.4 7 9.7 12.8 15.5 18.7 6 6 12 12 18.5 17.5 6.1 5.4 13.2 9.2 19.6 14.1 4.5 3.5 6.8 8.3 4.5 13.9-1.8 4.5-8 8.4-13 6.4-9.6-4-18-10.7-25.7-17.7a89.8 89.8 0 0 1-18-22.5c-4.4-7.8-7.6-16.8-10.3-25.4l-.4-1c-1.3-4.2-2.6-8.8-3.5-13.5a30.8 30.8 0 0 1-18 2.6A40.2 40.2 0 0 1 74.2 387c-2.9-3-5.5-6.6-7.7-10.5l.4 6.7c5.3 5.7 7.3 14 5.5 21.5a16 16 0 0 1 3.3 17c4.8 4.7 4.6 12.3 2.5 19.1a19.9 19.9 0 0 1 1.8 23.3l-.1.5c4.4 7.5 3.4 17.1-2.1 23.7 3.8 7.4 3.2 17.3-6.4 20.2-3.4 1-6.8.2-9.3-1.8 2.3 11.5 3.3 23 .2 34.6a11 11 0 0 1-10.3 7.9c-4 0-6.8-2-8.8-5 .3 5.9 0 11.7-1.3 17.5-.8 3.5-4 6.3-7.5 7.1a4.6 4.6 0 0 1 .5 5.6c-5 9-17.4 5.3-18.2-3.3-3.5-2.6-5.1-6.9-5.8-11.5-1-6.7-1.3-13.3-2.4-20l-.4.4-.3.2v.5a10 10 0 0 1-5 7c.6 5.7-.4 11.5-4 15.8-2.4 3-6.5 4-10 3.4h-.7c-8-1-12.7-8.6-10.6-15.6-3.2-4-4.5-9-3.6-13.9-6.2-4.1-6-13.2-4-20.5-6.5-5.1-9-14.7-5.6-22.4a24.5 24.5 0 0 1-2.7-25.8 13.9 13.9 0 0 1 0-21c-3.5-6.9-5.5-15-2.1-21.2a13.8 13.8 0 0 1-3.5-10.1c.4-5.4 4-9.1 8.4-11.6l.3-1.7c1 .1 2.2-.2 3.1-1 1-1 2-1.8 3-2.4 1.2 0 2.2-.5 2.9-1.3 2-.7 4-1 6.3-1 5 0 5.1-7.5.5-8a4 4 0 0 0-2.8-1.1h-.9c-2 0-4 .1-5.8 1a6.6 6.6 0 0 0-2.8 2.1c-.2 1.5-1 3-2.6 4a6.3 6.3 0 0 1-6.7.4c-3-1.8-3-4.4-2.7-7.4.8-6.4-3-12.4-2-19 .4-2.9 1.3-5.4 2.9-7.4-3.3-5-4-11.4-1.4-16.9a19.4 19.4 0 0 1-2.8-21.4l.1-.5c.4-1.2 1-2.3 1.5-3.3-3-5.1-3-11.5.1-16.6a16.4 16.4 0 0 1-.6-19.7v-1.4a18.3 18.3 0 0 1 1-15c-.8-1.9-1.5-4-1.9-6.2a36.8 36.8 0 0 1 2-19.7c0-3.9.1-7.7.3-11.6-.7-3.2-.9-6.8-.9-10.1v-2.2c0-5.4-.4-13.4 3-18-2.2-5.1-1.2-11.4 2.5-15.4a15.2 15.2 0 0 1 .9-17.2c-.2-4.6.7-9.2 3.1-13.8 1.6-3 4-5.5 6.8-7.5l-.1-1.8c0-2.6.6-5.3 1.6-7.8-1.8-3-2.6-6.4-1.5-10 1.1-4.2 4.2-7.8 8-9.8.3-4 .9-7.9 1.8-11.7-2.4-5.2-.5-12.1 4.8-15.2-.7-4.1 0-8.5 3-11.7 1.1-1.2 2.5-2.2 4-2.8A13.8 13.8 0 0 1 4.8 58a15.4 15.4 0 0 1 15.6-12.3 11.2 11.2 0 0 1 9.2-8.1 52 52 0 0 1 22.5-12.2 37 37 0 0 1 22.2 0l.5.3h.5c2.4-.4 4.7-.5 7-.6ZM23.8 519c-2-.7-4.4.7-5 2.8a4 4 0 0 0 2.8 4.9c2.6.8 5.3 1 8 1a4 4 0 0 0 4-4 4 4 0 0 0-4-4 18 18 0 0 1-5.8-.7ZM5.4 476.4c-3 0-5.7.7-8 2.9-1.5 1.4-1.5 4.2 0 5.7a4 4 0 0 0 5.5.1l.3-.3h.1l.4-.3-.3.2.6-.2h.3l1.1-.1c2.1 0 4.1-1.8 4-4a4 4 0 0 0-4-4ZM63.6 451c4.3-2.6.5-9.4-3.9-7l-.1.1c-2.3 1.4-5 1.2-7.5 1.2-5.2 0-5.2 8 0 8h.8c3.7 0 7.5-.3 10.7-2.3Zm-34-29.2c-3.3-.6-7-1.1-10.4-.8h-1.6a4 4 0 0 0-2.6 1c-1.1.5-2.2 1.2-3.2 2-3.9 3.4 1.8 9 5.7 5.7l.7-.5.2-.1h4.3c.4 0 .8 0 1.1-.2l3.6.6c5 1 7.2-6.7 2.1-7.7ZM25.8 345c-6.3-2.9-13.2-2.8-19 1.2-4.2 2.9-.3 9.7 3.9 7l.1-.1 1.6-1c3 1 6 1 8.7 0l.4-.2h.2c4.7 2.2 8.7-4.7 4-6.9Zm68.3-12.5c-6.4-.7-6.4-10.7 0-10a53.1 53.1 0 0 1 34.6 17.8c4.2 4.8-2.7 11.8-7 7.2v-.1a43 43 0 0 0-27.6-14.9Zm-71-51.4c-1.4-.1-2.8-.2-4.2-.1-3.3.1-7.4 2.3-6 6.3 1.3 3.3 5 3.4 7 1.7l2.3.1c2.1.2 4.2.6 6.3 1 5 1 7.1-6.7 2-7.7l-2.2-.4a107.6 107.6 0 0 0-3.7-.9h-1.5Zm-39.8-62h-.4c-6.8-1-17.6-.2-18.4 8.4-.5 4.8 6.4 5 7.7 1 5-.9 10-1 15-.5 2-2 2-5.6-1.2-6.5-.5-1.2-1.4-2.3-2.7-2.4ZM138 204.5c-1.6-1.4-4.2-1.6-5.7 0-.9 1-1.6 2-2.2 3.2l-.4.7-.2.4-.4.7h-.1l-.2.2c-1.4 1.5-1.6 4.2 0 5.7 1.6 1.4 4.2 1.6 5.7 0 .9-1 1.6-2 2.2-3.1l.4-.8.2-.4.4-.7.2-.1v-.1c1.5-1.5 1.7-4.2 0-5.7Zm-82-10.4c-5.7-4-12.4-4.2-17.6.7-3.7 3.4 1.8 9 5.5 5.7h.2l.4-.4c.7.5 1.5 1 2.5 1h1.6c.3.2.7.4.1 0 .2 0 .3.2.4.3l.3.2c1.5 1.4 4 1.6 5.6 0 2.6-.9 4-5.3 1-7.5Zm55-13 .1-.1c5-1.4 2.9-9.1-2-7.7-5.4 1.5-7.9 6.4-9 11.4-.4 2.1.7 4.3 2.9 5 2 .5 4.4-.7 4.9-2.9.3-1.5.7-2.7 1.2-4l.4-.6c.1-.3.2-.3.7-.8l.8-.4Zm-83.7-40.4-.7-.1c-4.9-1.1-11.3-1.7-14.2 3.1-2.6 4.4 4 8.3 6.8 4.2h1.5c1.5 0 3 .2 4.5.5 5 1.2 7.1-6.5 2.1-7.7ZM200.1 110c3.6-3.7-2-9.3-5.7-5.7a38.4 38.4 0 0 0-7.5 9.5c-1 1.9-.5 4.3 1.4 5.4 1.8 1 4.5.5 5.5-1.4 1.6-3.2 3.6-5.2 6.3-7.8Zm-46-9.6c-3.6 2.1-6 5.7-7.4 9.7-.7 2 .8 4.4 2.8 5 2.1.5 4-.7 4.9-2.7v-.2c.4-1 1-2.3 1.8-3.3.6-.8 1.6-1.7 2.4-2 1.8-.6 3-2.2 2.9-4.1-3 1-5.8-.2-7.4-2.4ZM46.3 83a11.4 11.4 0 0 0-13-1.8c-2 1-2.4 3.8-1.4 5.5 1.2 2 3.5 2.4 5.5 1.4-.5.3.4 0 .8-.1h1.2-.2l.6.1h.2l.6.5c3.8 3.6 9.5-2 5.7-5.6Z" fill="#000000"/></g></g></svg>