<svg viewBox="0 0 704 704" fill="none" xmlns="http://www.w3.org/2000/svg"><g transform="matrix(.99789 0 0 1 156 62)"><g fill-rule="evenodd" clip-rule="evenodd"><path d="M242 75.3c56.8 0 115.6 44 136.4 72 24 32.5 43 188.4 34.1 241.3-8.9 53-53.1 110.6-130 110.6-76.7 0-123.5-9.5-125.3-23.2-2-13.8-50.7-90.2-50.7-90.2s-49.9-14-50-47.6c-.3-33.5 26.7-45.7 26.7-45.7s-9.6-132.3 14.5-166.7C122 91.3 185.3 75.3 242 75.3Z" fill="#FFDD00"/><path d="M275.1 8.2c9-2 12.6 11.8 3.7 13.4-6 1-12 2.3-18 4 2.4-.2 4.9 0 7.2.9l1.4-.5c19.2-6.7 40.1-11.7 60.3-6.6 16.6 12-24.1 13.8-30.7 15.4 22 1.3 44.7-3.6 66 4.3 8.1 3.2 5 15.8-9.6 10 .3 1 .4 2.2.2 3.2 6.6.7 13.5 2.5 19.5 6.3 44.7-1.1 60.8 35.3 23.2 22.7 1 .8 1.8 1.8 2.4 2.7h.6c10 .9 36.4 6.6 35 18.6a50 50 0 0 1 19.6 8.1c5.9 4.7-.5 13.6-7 11.9-2-.5-3.7-1.4-5.5-2.3-.7.8-1.6 1.5-2.8 2.3 11.3 9.1 26.2 16.8 32 30.5 1.1 3.3-1.2 7.3-4.6 8-11.8 3-21.6-6.2-29.7-14.9 1.7 4.8 3 9.4 3.2 13.5a61 61 0 0 1 19.3 17.2c8.7 4.9 19.4 13 19.7 22.9.2 7.2-6.9 11.2-13.4 10h-.2a50 50 0 0 1 5.7 17.5l.6.4c6.2 3.8 12.3 8.4 12.5 16 .1 5.7-5.6 9.4-11 8.2l-2.1-.7v.6c2.2 1.6 4.4 3.3 6.4 5l1.8 1.5c7 6 13.8 12.8 11.8 23-.7 3.5-4.3 5.3-7.5 5.6H483l.3.8c4.4 11.9 7.3 31-7.1 29.3 2.2 19.4-9.5 22.3-17.6 12.6 9.5 11.3 26.8 82.7-3.4 70-1.4 16-4.3 32.2-11.6 46.6l-.2.5c-3.7 8-20.2 32-25.5 14.5 3.8-21.8 14.7-42.4 16.5-64.8-2.2-.3-4-2.4-4.8-4.7a71.8 71.8 0 0 1-14.8 30.8l-3.9 9a128.2 128.2 0 0 1-17.2 26.4 59.5 59.5 0 0 1-12 11.7c-3.8 2.6-8.2 4.2-12.4 5.8a88.3 88.3 0 0 1-24.2 16.2 143.7 143.7 0 0 1-45 12.4c-16 1.9-32 1.4-47.7-1.3-15-2.6-31.2-9.2-40.5-22-.8-1 .7-2 1.7-1.6a156.4 156.4 0 0 0 126 .3c10.6-5 19.5-12.1 29-18.7 1.8-2.4 3.7-4.8 5.8-7l3.3-3.5a106.3 106.3 0 0 0 23.3-37.4c7.2-20.4 5.3-42.6 4-63.9l-.1-1.8c-1.1-19.7-3-39.4-5.3-59-1.7-.5-3.4-1.4-4.7-2.6-5.3-33.3-20.7-67.3-46.7-89.8a136.7 136.7 0 0 1 25.6 71.5c.4 4.6-5.9 4.5-7.3 1-14.5-37.8-21.9-78.6-66.1-93.4-17.6 23.8-25.3 52.5-40 77.6-3.8 5.9-12 3-12.5-3.3-1.8-18 5.5-35.8 14.5-51.6l-7.3 8.8c-56.4 67.5-61 77.6-55 181-.5 5.2-7.2 7.7-10.2 2.8-17.2-32.8-9.8-73-5-108l-5 10.4c-1.1-3.6-3 .4-2.6 5.7-3 6.7-5.8 13.6-8.3 20.7.1 22.4 7.6 43.9 7.6 66.2.5 6.3-8 7.3-11 3-2.6-3.7-5-7.2-7-11 .2 9.4 4 17.7 6.6 26.5 1.8 3.1 2.6 6.4 1.4 9.9v.3c-2 5.8-9 7-13.3 3 0 3.7-.3 7.4-1.4 10.8a99 99 0 0 1 12.2 19.2c1.8 4.3-.7 7.9-4.2 9.6 3 7.5 4.2 15.2 1.6 22.6-.8 2.2-4 3-5.3.7-4.2-7.7-6.5-16.2-10.5-24a112 112 0 0 0-2.3-4.2c-4.4-3.8-8-8.4-11.5-13.2-12.2 14.4-23.8-16.5-26-25.9l-1-.9c2.4 22.3 15.7 42.7 15.9 65.1-.5 4.7-5.6 9-10.3 5.8C94 470.2 90.6 448.1 86 429.6c-.7.3-1.5.6-2.3.7-.8 12.5 28.4 53 4.7 53.2-26.2-13.3-23.2-51.5-26.8-76.2-1.6 7.4-.2 19.5-5.5 24.8 22.8 55.4-15.6 37.7-25-3.7a19.8 19.8 0 0 1-4.3 4.5c-3.4 2.7-8 2.6-10.5-1.4-5.2-8-3.4-17.6-1.2-26.5-20.2-8.7-28.9-29-30.4-50.4l-1.7 2.2c-2.5 2.9-7.4 1.9-9-1.1-5.1-8.7-2.7-19.7 1.6-29a7.7 7.7 0 0 1-3.4-2.6c-7-11.3-9-24.2-8.3-37.2-1 .9-2 1.8-3.1 2.5-3.4 2.4-7.8-.2-9-3.5-3.8-11 4.8-22 12-29.4 2.5-2.6 5.4-5.1 8.5-7.2 1.5-4.1 3.2-8.1 4.8-12-2.4-4.8-3.8-10-4.3-15.4-2 3.4-4.6 6.3-8.3 8.6-3.5 2-7.4-.7-7.6-4.3-.7-11 8-20.6 14.5-28.7l.7-.8c1.1-1.5 3-4 5-6.2l1-3c-5 2.8-12.8.8-12.4-6.2 1-22.7 25.1-33.7 32.1-53.7-35.4 31.4-31.6-9-6.7-24.7l6.1-4.7a5.6 5.6 0 0 1-1-8.6c7.2-8 18.3-9.6 28.6-10.4 3.7-.4 7.4-.4 11-.1h1.3c2.4-2.8 5.1-5.4 7.7-7.6-19.6-3.7-1-32.1 43.8-21.8a89 89 0 0 1 7.5-3.3c-6.7-.3-13.3-1-20-2.3-5.9-1.2-6.8-10-1.6-12.7 20.8-10.3 44.8-7.7 67-2.5-.5-1-.8-2.2-.8-3.4-7.3-.7-8-12 .5-12.6a85 85 0 0 1 40.5 7.2c1.6-.2 3.2-.4 4.9-.4 2.4-24.8 35.2-4.2 42.4 7.7a145.4 145.4 0 0 1 46-19.2Z" fill="#000000"/></g></g></svg>