<svg viewBox="0 0 704 704" fill="none" xmlns="http://www.w3.org/2000/svg"><g transform="matrix(.99789 0 0 1 156 62)"><g fill-rule="evenodd" clip-rule="evenodd"><path d="M242 75.3c56.8 0 115.6 44 136.4 72 24 32.5 43 188.4 34.1 241.3-8.9 53-53.1 110.6-130 110.6-76.7 0-123.5-9.5-125.3-23.2-2-13.8-50.7-90.2-50.7-90.2s-49.9-14-50-47.6c-.3-33.5 26.7-45.7 26.7-45.7s-9.6-132.3 14.5-166.7C122 91.3 185.3 75.3 242 75.3Z" fill="#FFDD00"/><path d="M203.8-10.2c7.6-9 21-.4 20.8 9.4 3 .8 6.6 3.6 8 7.4 3-.2 6 .4 8.7 2l.6-.8c9.5-11.5 22-21.4 34.9-13 3.5 2.4 5 6.2 4.3 10.3v.3l.2-1.2-.3 1.7-1 2c13.2-9.4 33.3-3.9 22.7 14.3l4.3-1.7c15-5.8 33.4-12 47-1.6 6.1 5.8-.6 13.6-6.8 15.5l1-.1c12-2 36.7-7 40.2 8.4 1.3 5.6-2.4 9.6-7 11.9 9.8 0 19.6 1.6 28.2 6.4 8.1 5.8 1.5 15.4-7 15 2.6 3.3 3.5 8.8 1 12.3 4.8 1.3 9.3 3 13.4 5.5l1.1.1c8.3 1 17.7 1.7 22.2 9.8 6.7 17.5-17 16.8-27.3 10.7.6 1 1 2 1.3 3.2l3.3.9c12.5 3.5 26.6 7.3 34.6 17.8 3.7 6-1.4 16.3-9 14.4 20.8 10 12.8 36.1-7.6 22.5-1 .9-2.1 1.6-3.3 1.8l4.3 2.4c10.9 6 24 14.1 21.7 27.7-2.1 7.2-12 5.9-17.2 3.1 8.9 7.7 17.2 15.9 24.8 24.8l2.1 2.5c6 7 16.2 20.1 5 27-13.6 6.9-20.5-13.7-28.4-21 6.3 15-14.4 25.4-21.6 10.3-1.2.2-2.5.2-3.7 0 6.3 6.7 23.1 52 2.2 42a85.2 85.2 0 0 1-9-11.5c3.4 26 5.8 52 7.4 78l.6 9.5c.6 9.8 1 19.6 0 29.4a99.5 99.5 0 0 1-9.6 32.3 128.2 128.2 0 0 1-17.2 26.4 59.5 59.5 0 0 1-12 11.7c-3.8 2.6-8.2 4.2-12.4 5.8a88.3 88.3 0 0 1-24.2 16.2 143.7 143.7 0 0 1-45 12.4c-16 1.9-32 1.4-47.7-1.3-15-2.6-31.2-9.2-40.5-22-.8-1 .7-2 1.7-1.6a156.4 156.4 0 0 0 126 .3c10.6-5 19.5-12.1 29-18.7 1.8-2.4 3.7-4.8 5.8-7l3.3-3.5a106.3 106.3 0 0 0 23.3-37.4c7.2-20.4 5.3-42.6 4-63.9l-.1-1.8a934.5 934.5 0 0 0-10.6-96.2c-2.4-4-5-7.8-7.9-11.3 2.4 9.1-5.8 21.8-15.8 15.8-11.4-9.8-10.9-25.6-20.5-37.6-9.9-15.3-78.5-45.2-99-49.4 3.4 4.8 9.4 8.1 10.8 13.8 25 22.1-15.8 34-28.6 2.3.3 10.5 1.4 21 3.7 31.2 3.4 9.5 6 36.8-11 28.5-8.2 2.4-14.4-4.6-15.4-12.4-6 17.7-.4 46.1-11.2 59.2-3.3 3.4-8.5 1.1-10.2-2.8-10-2.6-9.1-14.3-10.4-22.6-9 33.3-20.5 56.4-22.1 91.2 7 10-8.4 17.4-15.1 9.4-9.3-13.5-.7-32 1.5-46.8-2.7 0-5.3-1.3-7.4-3.8-1.2 4.6-.5 10.7-.1 15.8-6 23.1-28.5 8.3-27.5-10.5-1 5.3-1.8 10.7-2.2 16 4.3 5 7.5 11 9.5 17.4 1.3 4.6-3.3 7.4-7 6.7-1.8 6.5-10 11.1-15.4 5-5.4-5.5-6.3-13.3-6.7-21a4 4 0 0 1-1.2-3.1 7 7 0 0 1 .9-3l-.4-4.7c-4.2 12.9-1.5 26.3-1.1 39.5a82.3 82.3 0 0 0 24 7.6l1.2.3c2.6.5 3.5 4.4 1.5 6 5.2 5 9.7 11.2 14 16.7 5.8 7.5 11.4 15.2 16.8 22.9l3.2 4.5c9.2 13.2 22 31 16.3 47.3-.8 2.2-4 3-5.3.7-4.2-7.7-6.5-16.2-10.5-24-3.9-7.6-8.7-14.7-13.5-21.8l-2.8-4c-4.6-7-9.2-13.8-13.4-21l-3-4.8a109 109 0 0 1-7.5-14.3c-7.3 1.7-14.9.5-21.8-2.6l-.1.5-.2.9c-1 4.2-6.8 7-10.5 4.3a36.3 36.3 0 0 1-13.4-27.2c-1.7-3-3.3-6.2-4.5-9.4-.6 6.5-3 12.8-10.9 12.6-13.4-1-14.8-13.8-11.1-26.5-16 5-17.8-17.7-12.8-29.5a8.4 8.4 0 0 1-4.6-3.2l-.8 1.4c-3 5.3-6.6 10.5-11.4 13.3-6.8 3.8-16.6-1-16.2-9.4 1.5-13.9 13.6-24.4 21-35.5-1.4.2-2.7.2-4 0-14.8 8.2-21.8-11.2-16.6-22.4a79.5 79.5 0 0 1 18-26.4L3.5 232c-4 2.3-8.3 4.5-12.6 3.6-28 18.5-37.3-12.5-5.8-22.2v-.2c-3.1-3-4.5-7.8-2-12.7-11.6 4-28.1-5-18-17.6a62.9 62.9 0 0 1 23.3-14.5c-.5-2.3-.6-4.6-.4-7h-.6c-5.4.9-12.2 3.1-15.6-2.8-1.7-3-1.5-7.9 1.3-10.2 9.7-8 20.7-14.6 32.7-17.3l1.4-4.3c-10.2-.2-21.7-13.8-10-21.5A67 67 0 0 1 30 96.9c-6.8-6.7-2.8-19 6.3-20.8-6-12.7 8.8-19.3 19.8-17.2-.4-5.7 2.6-12 8.4-13.4-3-17.8 15.8-16.1 27.7-12-4-6.8 0-14.9 7-17.3 11.5-2.6 22.5 8.3 31.2 15-3-7-.5-13.4 6.6-16.2 7.3-2.8 15.2 2.7 21.2 6.4 3.4-4.1 9-5.5 14-5.2.6-1.6 1.4-2.9 2.4-4 0-9.5 16.4-14.8 22-5.9a34 34 0 0 1 7.3-16.5Zm204.8 174.5.2 1 .7.7 2.1.5-3-2.2Zm12.7-25.3-.3.3v.2l1.8.7.9.4.3.1c-1-.5-1.8-1.1-2.7-1.7ZM273.9 12l-.6.1-.5.1h-.2.2l-.9.7h.8l1.2-1Z" fill="#000000"/></g></g></svg>