<svg viewBox="0 0 704 704" fill="none" xmlns="http://www.w3.org/2000/svg"><g transform="matrix(.99789 0 0 1 156 62)"><path fill-rule="evenodd" clip-rule="evenodd" d="M242 75.3c56.8 0 140 37.9 146.2 74.4 7.3 43 23.7 204.6 14.8 257.5-9 52.9-43.6 92-120.4 92-76.8 0-134.2-41.9-147.3-56.3-13.2-14.4-29.1-59.1-29.1-59.1s-42-7.1-42.3-40.7c-.2-33.5 21.2-43.8 21.2-43.8s-11.5-139 12.6-173.5C122 91.3 185.3 75.3 242 75.3Z" fill="#FFDD00"/><g fill="#000000"><path d="M413.5 252.3c3 33.8 4.2 68 4.9 101.8.5 32.2-2.3 65.7-20.6 93.2-16 24-40.4 41.5-67.6 50.9a165.8 165.8 0 0 1-48.8 7.8c-8.5.3-17 0-25.3-1l-3.2-.3c-7-.6-14.1-1.2-19.3-6.6-1.6-1.7-1.6-5.1.8-6.2a20 20 0 0 1 12.8-1.7 189.2 189.2 0 0 0 39.6 1.3 141 141 0 0 0 48.4-13 111.4 111.4 0 0 0 54.8-53.3c12.5-27.3 11.8-59 11.3-88.5v-1.2c-.7-32.7-2-65.3-4.8-97.9a994.7 994.7 0 0 0-9.4-72.1l-1.6-7.5-1.3-5.5-2 .2c-4.2 0-8.8-1-11.9-3.9a8.7 8.7 0 0 1-4.5 1.4c-11.1.6-22.3.3-33.5 0a14944.6 14944.6 0 0 0-70.2-.2h-8a1442.7 1442.7 0 0 1-53.2-.4c-13.1-.2-26.4-.4-39.2-2.8-5.3 19-5.1 39.7 6 56.7 3.1 4.7.6 10.3-3.5 13.3A41 41 0 0 1 146 225a284.4 284.4 0 0 1-1.8 4.2 143.9 143.9 0 0 0-10.4 33 99 99 0 0 0 .2 2.3l.2.8.2 1.4.9 4.4c1 4.8 1.6 9.6 2.1 14.4 1 8.8.9 20.2-7.7 25.4-4.6 2.8-10 2.5-15 .7-2.7-1-5-2.5-7.5-4l-1.5-.8c-.8-.5-1.6-1-2.4-1.3-1-.6-2-1-3-1.7l-1.3-1a37.5 37.5 0 0 0-20.7 12.6 40.5 40.5 0 0 0-8.8 31.1c1 10.3 5 22 13 28.8a19.1 19.1 0 0 0 19.1 3.5l3-.4c1.4-.2 2.8-.3 3.9-.8 3-1.2 6.6 2.5 5.4 5.5l-.7 1.9c-.6 1.4-1 2.8-1.9 4a453.6 453.6 0 0 0 27 39.2c6.2 8 13 15 20 22.2l8.7 9c4.2 4.6 6 13.6-1.7 15.6-6.8 1.7-12.1-4.5-16.3-9.5l-1.6-1.9a168.7 168.7 0 0 1-38.7-71.8c-3 2-6.3 3.2-9.9 3.7a32 32 0 0 1-20.3-4c-23.4-13.5-29-50-18.1-73a41.2 41.2 0 0 1 11.3-14.2c-.4-.7-.5-1.5-.3-2.4l1.4-4.7c-.6-.3-1-.8-.9-1.5l1.1-11.4.2-2-.1-6.3c-.2-4.7-.3-9.4-.3-14.2 0-5 .3-10.2.4-15.2l.5-17.5c0-18.9.4-37.8.8-56.6A3012.5 3012.5 0 0 0 75 58.9v-.4l-.3-7c-.8-13.7-1.8-29.2 10.5-37.3a8.7 8.7 0 0 1 8-.6A62.7 62.7 0 0 1 119 4.4C132.3 2.3 145.6 1 159-.3l11.7-1.1c9-1 18.4-1.3 27.4-1l14.2-.3c4.5-.2 9-.4 13.4-.3a480.3 480.3 0 0 1 32.2 1.4l.8-.1c15.8-1.5 31.7-.7 47.6 0 3.8.3 7.6.5 11.5.6 18.8.8 38.6 2.8 55.5 11.8a26 26 0 0 1 5.5 3.9c2.2.3 4.3 1 6.2 2 5.4-1.1 11.5 1.3 12.8 7.6a87.5 87.5 0 0 1 1.4 28.3v.3c2.2 8.7 2 18.2.2 26.7a482.9 482.9 0 0 1 1.3 37.5c.1 5.9.2 11.8-.3 17.6a29.1 29.1 0 0 1-7.6 16.8c-.8 1-2.2 1-3.3.9l-.8-.3c2.1 4.5 3.9 9.2 5.6 13.9l1.1 3a250 250 0 0 1 8.8 27c4.6 18.6 7.6 37.4 9.4 56.4Z"/><path d="m94.8 336.1-3-1.8s-5.5-1.8-4.5.5c.4.8-.6 1.7-1.2 1-2-2-.9-4.3 1-6 3.2-3.1 8-2.4 12-1.7 5.7 1 11 3.5 15.8 6.6 5 3.4 11.3 8 12.3 14.5 1 5.8-5 12.3-11 8.4-3.2-2.1-5.5-5.3-7.8-8.5a45.4 45.4 0 0 0-12.8-12.4l-.8-.6Z"/></g></g></svg>