<svg viewBox="0 0 704 704" fill="none" xmlns="http://www.w3.org/2000/svg"><g transform="matrix(.99789 0 0 1 156 62)"><g fill-rule="evenodd" clip-rule="evenodd"><path d="M242 75.3c56.8 0 130.1 35.6 136.4 72 7.3 43 46.8 208 37.9 261-9 52.8-57 90.9-133.7 90.9-76.8 0-134.2-41.9-147.3-56.3-13.2-14.4-37.6-65.7-37.6-65.7s-41-5.5-41.3-39c-.2-33.5 26.8-45.7 26.8-45.7s-9.6-132.3 14.5-166.7C122 91.3 185.3 75.3 242 75.3Z" fill="#FFDD00"/><path d="M374.9 141.5c0-.8 1-.9 1.3-.2 12.2 40.5 19.8 72 27.7 113.5l2.4 12.2c6.2 32.6 12.6 65.2 18 97.9l.3 2c2.6 16.8 4.2 34 .8 51a85.6 85.6 0 0 1-22.8 41.9 158 158 0 0 1-81.6 42.6 170 170 0 0 1-69.4 0l-.9-.1c-7.6-1.7-14.4-3.6-18.4-10.8-1-1.8-.6-5 1.5-5.9 4-1.7 7-2.4 11.4-2 4.2.5 8.3 1.8 12.5 2.6a147 147 0 0 0 71.1-4c26.1-8 52.6-23.7 67.9-47 18-27.4 10.8-60.7 6-91l-.1-1c-4.8-30.9-9.6-61.9-14.2-92.8l-2-13.3c-5.1-35.1-10-60.2-11.5-95.6Zm-265-86A79.3 79.3 0 0 1 154.4 45h2c19.5.3 118.1 2.7 151.2 3.4l7.8.2 42.2.6h.6l15.9.3h.8c4 .2 7.3.8 10.4 3.6a6.9 6.9 0 0 1 2 5.6v.3l7.9.7c5.3.4 8.1 5.2 6 10l-.1.3c-3.8 8-6.7 31.5-8.7 40.1-1 4.6-1.9 9.2-2.4 13.8-.4 3.7-.4 7.4-2.5 10.6-4.3 6.9-16.6 6.8-16.8-3v-.8c-30.7-1.4-72.8-1.3-103.6.6a579 579 0 0 0-106.7 16.5c-5.8 1.5-13 2.4-18.1 5.5-5.8 3.5-5.7 9.8-5 15.8.6 6.4 1.7 3.1 3.3 9l.1.3a114 114 0 0 0 6.4 18.4c1.6 3.4 4 6.7 3.1 10.6a14 14 0 0 1-3.8 6c-7.3 7-19.5 2.5-24.5 12-5 10-5.2 23.5-5.7 34.5v.7c-.3 7.5-.2 15.2.3 22.7.4 7 2.3 13.8 0 20.4-1.8 4.8-7.4 5.3-10.4 1.3l-1-1.3-.2-.5.8 1.4c.2.5-.4 1-.8.6-7-7.5-17-6-24.9-.8-8 5.4-11 15.6-11.5 24.7-.4 10.1.5 22 4.7 31.4 1.8 4 4.3 7.6 8.5 9 2 .7 3.8.7 5.8.8 2 .2 4.5 1.2 6.5 1 2.6-.1 5 2.9 4.2 5.4v.1l-.1.4.2.3a186.3 186.3 0 0 0 58.9 67.5c1.2.7 2.3 1.2 3.7 1.6l2 .5.6.2h.2c1.8.2 3.3 1.5 4 3.4 1.5 5-1.3 9.4-6.3 10.7-5.3 1.5-10.4-1.1-14.6-4.1l-.3-.2a119 119 0 0 1-49.7-76.8c-1 2.1-2.3 4-4.6 5.2-3.5 2-7.8 2-11.7 1.4a29.3 29.3 0 0 1-19-12.6 51.3 51.3 0 0 1-7.4-22.9c-1-8-1.6-16-.5-23.9 1.5-11.5 6.3-22.8 15.6-29a109 109 0 0 1-7.7-49.1c.6-20.6 4.2-41.4 6.9-61.7l7.7-58 .4-2.3c1.8-13.6 4.1-27.3 9.2-40.1A66 66 0 0 1 110 55.6Zm-32.7 274c12.9-6.2 26.7-.4 33.6 11.6 6 10.5-11.8 17.5-14.8 6.6v-.3c-2-8.2-10-15.3-18.4-16.4-.6 0-1.2-1-.4-1.5Z" fill="#000000"/></g></g></svg>