<svg viewBox="0 0 704 704" fill="none" xmlns="http://www.w3.org/2000/svg"><g transform="matrix(.99789 0 0 1 156 62)"><g fill-rule="evenodd" clip-rule="evenodd"><path d="M288.3 508.4c-20.7 0-39.6-4.1-57.6-13-21.7-7-45.4-10.9-63-26.6-8.6 1.9-17.4-7-24.5-12.2-11.6 42.7-72 35.6-97.6 8-15.6-13.2-21.8-45.8 5.3-54.4C6.4 380-9.6 327.9-6.5 271.5c3.2-94.6 75.9-193 169.4-209.3 18.4-3.3 37.3-3 55.7 1 10.3 2.1 20.2 6.4 31.1 6.3 42.6-6.8 89.3-6 124.5 21.2 56.2 37.6 64 112.8 57.4 173.3l.3.6c-3.3 22.2-8.7 42.5-19 55.9-.8 19.2-7.5 60.3-8 76.5 1.2 75.6-41.7 109-116.6 111.4" fill="#FFDD00"/><path d="M142.9 76.4c38.3-13 62.5-6.3 98.3.9l2.2.4 3.5.7c35.9-2.4 66.8-10.3 101.5 6.9 72 30.3 85.4 114 80.5 184l-.3 1.2a66.3 66.3 0 0 1-12.6 28.9c-11.7-57.4-49.2-95.3-95.3-131.5l-1.6-2c-5.7-7-12-14-19.5-19l.3-6.6c0-3-4.4-5.6-6.7-3l-.4.6c-3 3.6-18.5 20.8-26.4 29.7l-1 1-2.3 2.8-4 4.8c-43.3 51.7-89 103.6-153.5 128.5-15.4-9.8-34.2-1.2-43.8 12.6-27.5 32 4.3 92.3 46.5 76 2.6 22 13.7 47 28.7 63.7-16.5 23-42.8 27.1-67.5 14.1-24-10.7-39.6-33.3-24.8-58.2l1-.5a79.9 79.9 0 0 0 38 13.5h1.1c8.6.4 8.4-13-.2-13.7C27.4 405 2 339.6 1.9 288.4c-2.4-90.1 53.8-183 141-212Z" fill="#FF0000"/><path d="M41 409.1C-93.4 290.3 44.7 22.7 219.7 58.2c17.8 6 35.7 8 54 3.6 92.6-14.4 168.2 64 164.3 154.8.6 15.5.5 31-1.2 46.5-1.9 20.4-7.1 42.1-18.8 59-.1 11.3-6.8 54-7.9 74l-.2 4.1c-1 20.6-3.4 41.6-12.4 60.4-27.8 50.4-99.5 61.2-151 46.5l-2-.7c-9.6-3.1-20.4-7.4-26.5-15.4-3.2-4.2 2.1-9.6 6.5-8.4 5.7 1.4 10.4 5 15.7 7.4 34.6 15.2 75.5 10.1 109.6-4.1l1-.5c61.2-24.8 44.4-113 52.5-163.4 1.8-63.9-51.5-107.4-91.7-149.7l-1.2-1.3c-4.1-4.6-8.5-9-14.2-10a33 33 0 0 1-9 12.3L279 182c-8.1 8.8-16.3 17.5-24.5 26.1-40 40.7-80.8 95.8-142.4 100 3.8 3.4 7 7.4 11 10.6 1.7 1.7 0 4.5-2.2 4-4.2-1.2-6.9-5.1-9.6-8.3-33.3-14-60.7 37.7-32.5 59.1 10.5 11.1 41 2.7 34 16.3 7.7 24.2 19.6 48.6 39.7 64.8 6 4.4 15.1 6.7 19 13.3 1 1.5.5 4.1-1.3 5-8.5 4-17.7-2.7-24.2-7.8-34.7 67.7-161.7-7-105-56ZM247 78.4l-3.5-.7C206.4 70.4 182 63 143 76.3 55.7 105.5-.5 198.3 1.9 288.4 2 339.6 27.4 405 84.6 412.2c8.6.7 8.8 14.1.2 13.7h-.2c-14.1-.9-27.8-6-39.4-13.9-15.6 25.3 0 48.3 24.3 59.1 24.7 13 51 8.9 67.5-14a122.4 122.4 0 0 1-28.7-63.9c-42.2 16.4-74-44-46.5-76 9.6-13.7 28.4-22.3 43.8-12.6 66.6-25.5 113-80 157.5-133.2l2.3-2.7c7.8-8.8 25.7-28.7 27.7-31.2 2.2-3 6.7-.3 6.8 2.8 0 2.2 0 4.4-.3 6.6 8.2 5.4 15 13.5 21.1 21 46.1 36.2 83.6 74 95.3 131.4a68.3 68.3 0 0 0 12.9-30.1c5-70-8.4-153.6-80.5-184-34.7-17.1-65.6-9.3-101.5-6.8ZM83.3 340.9c-3-2.7 16.9-3 18.7-1l.5.2c7 2.5 20 10.6 13.7 19-9.1 8.5-15.5-17-32.9-18.2Z" fill="#000000"/></g></g></svg>