<svg viewBox="0 0 704 704" fill="none" xmlns="http://www.w3.org/2000/svg"><g transform="matrix(.99789 0 0 1 156 62)"><path fill-rule="evenodd" clip-rule="evenodd" d="M287.4 509.5c-22.2.1-41-6.2-55.4-16.6-18-6.4-39.7-16.3-52.8-26.7-5.2 1.3-11.3-4.1-15.2-7-24.5-18.2-43.6-45-49.3-71.7-8.8 11-21.3 11.6-33.2 6-25-14.2-24.1-44-15.1-66.4-19-42.6-32.1-155-3.2-200.3 6-6.8 14.6-10.8 20.9-17.8 5.6-6 10.9-12.3 17.3-17 19.8-15.1 53.8-23.1 75.2-27 89-19.1 157.3 15.4 238 44.6a142 142 0 0 1-18.5 32c20 7.5 10.8 24.3-4.7 32.8l-9.2-4.5c14.4 51.6 47.5 179.8 33.2 221-11.4 64.1-61.5 119-128 118.6" fill="#FFDD00"/><path d="M86 309.8c-11.3 0-19.7 12.7-19.7 12.7H64C46.2 276.7 35 170.9 63 127.3c3-3.4 6.7-6.2 10.4-9A68 68 0 0 0 86 107c4.7-5.2 9.4-10.4 15-14.5 19.8-15 53.8-23 75.1-26.8C252.7 49 314 72.3 381 97.6c11 4.2 22 8.4 33.3 12.5a142 142 0 0 1-18.4 32c20 7.5 10.8 24.3-4.7 32.8l-6.9-3.3c-1.8-9.7-6.6-28.5-16.7-29.5-7.2-.7-19 6-30.4 12.5-10.3 6-20.4 11.7-26.7 11.7-5 0-17.4-4-33-9-26-8.4-60.8-19.6-83.8-19.6-36.8 0-68 30.4-80.5 52.4s18.5 49.3 18.5 49.3-18.5 23.7-18.5 34.1c0 10.4 4.3 42.9 4.3 42.9s-20-6.6-31.3-6.6Z" fill="#FF0000"/><path fill-rule="evenodd" clip-rule="evenodd" d="M300.3 515c-28.9 3-63-3.9-82.3-27.3a3.6 3.6 0 0 1 2-5.8c.7-.2 1.5 0 2.4.4l1.8 1a115.7 115.7 0 0 0 87.7 15c27.6-6.3 50-22.4 66.4-43.5a162.5 162.5 0 0 0 32.2-83.7c3.5-36.4-4.5-72.5-12.6-107.7-8.6-37-18-73.8-29-110.2-.3-1.1-.3-2.1-.3-3-3.2-1.4-6.6-1-10 .1-6.2 2.2-12.4 6.9-17.6 10.8l-5.2 3.8a42.4 42.4 0 0 1-21.3 8c-8.1.6-16.1-2-23.6-5.1l-11.1-5c-10.5-4.7-20.9-9.4-32.2-12.5-15.2-4-31-6-46.7-6-28 .3-56.3 7.6-73.5 31.3-7 9.6-11.5 20.7-8 32.6a59 59 0 0 0 9.6 17.7l1.4 1.8c2.1 3 4 6 4.6 9.1.5 2.6.1 5.4-1.8 8.5a40 40 0 0 1-4.2 5.3c-1 1.3-2.2 2.5-3.1 3.8a48.9 48.9 0 0 0-4.9 8.6 50.8 50.8 0 0 0-4 18.7c-.2 7.7 1 15.2 2 22.8.7 5.4 1.5 10.7 1.8 16.2 0 1-.2 1.6-.6 2.1a3 3 0 0 1-2 1.2h-.8l.3 1.6a28.6 28.6 0 0 0-1.8-2c-.6-.4-1-.9-1.4-1.5l-2.6-2.2a27.6 27.6 0 0 0-16-5.8c-5.5 0-10.9 1.8-15 5.7C72.4 327.5 70 340.2 70 351c0 11 2.5 24.4 12.2 31.2 3.8 2.8 8.6 4.5 13.3 4.5 4 0 7.7-1.4 11.5-2.7l3.4-1.2c1.3-.4 2.5-.4 3.5 0 1.2.3 2.1 1 2.9 2a7 7 0 0 1 .4 7.8l2.1 3.5a220.5 220.5 0 0 0 27.3 37.8c6.2 6.6 12.8 12.8 20 18.3l1 .7c.7.5 1.4 1 2.1 1.7 2.1 1.7 4.7 4 7 4.1l1.9-.1c1.3-.2 2.5-.3 3.6.2.9.4 1.8 1 2.7 2.4a6.5 6.5 0 0 1 0 6.7 9.5 9.5 0 0 1-4.2 4 10 10 0 0 1-5.9.5c-5-1-10.7-5.2-14.3-8l-.7-.4c-8-6.1-15.5-12.8-22.1-20.3a126.6 126.6 0 0 1-26.6-44.3 25.2 25.2 0 0 1-13 3.7 44 44 0 0 1-19.5-4A42.8 42.8 0 0 1 56 370.6 71.7 71.7 0 0 1 59 326c-15.3-38.7-20-81.7-18.7-123a291 291 0 0 1 6.5-58.5c2-8.4 5.6-16.5 11.3-23.1 3.2-3.8 7.2-6.8 11.2-9.7 3.4-2.6 6.9-5.1 9.8-8.3l1.4-1.5.9-1c5-5.6 10-11 16-15.5 7.1-5.3 15-9.4 23-12.9a264.3 264.3 0 0 1 55-15.2C215.8 50 257.2 49.6 297 60a587 587 0 0 1 59.4 20l41.9 15.3 19.4 7.2a7 7 0 0 1 3.6 3 5 5 0 0 1 .4 4.5c-4 10-9 19.5-15.2 28.3a19.6 19.6 0 0 1 8.1 15.4c.3 12-10.6 20.1-19.6 26-.9.5-1.7.8-2.5 1 8.8 33.4 17.1 67 24.2 100.9l.5 2.3c7.4 35.4 12 71.6 5.2 107.4a169 169 0 0 1-41.6 83.8 128.6 128.6 0 0 1-80.5 39.9ZM110.5 311.3c-3.8-12-5.8-25-4.3-37.2a58.9 58.9 0 0 1 14.5-32.4l1-1.2c.5-.5 1-1 1.1-1.7.1-.4 0-.8-.2-1.3-.5-1.2-1.5-2.2-2.4-3.3l-1.6-2c-8.3-11.1-14.4-24.5-12.4-38.7 2-13.8 11-26.7 20.7-36.5C148 135.6 181 130.7 210 132a186.6 186.6 0 0 1 72.8 18l1.7.8c.9.5 1.8 1 2.7 1.3 5.8 3 11.7 5.8 18 7.4 12.5 3 21-3.4 29.8-9.9 3-2.2 6.2-4.5 9.4-6.4l.7-.4c6-3.5 13-5.8 19.8-5.7 6 .1 11.6 2 16.3 6.5 1 .9 1.5 1.9 1.7 2.9a8 8 0 0 1 1.2 2.6 8705 8705 0 0 1 5 18.7l1.3-.9c4-2.6 8.4-5.5 10.3-9.9.8-1.7.7-4.4-.3-6.5a4 4 0 0 0-1.4-1.7c-.4-.3-1-.5-1.6-.4-1.5.2-2.8 0-4-.5a6.7 6.7 0 0 1-3.1-2.7 6 6 0 0 1-1-4c.2-1.1.8-2.4 1.8-3.6 6.8-7.8 12.6-16.5 17-26L379 101l-30.8-11.4-5.6-2a466.2 466.2 0 0 0-57-18c-38.7-8.8-79-6.7-117.6 1.5l-2.3.5a202 202 0 0 0-47.5 15.2 84 84 0 0 0-20.2 13.7c-2.6 2.5-5 5.2-7.3 7.9A88 88 0 0 1 80 119l-3.6 2.9A42.2 42.2 0 0 0 63 137.5c-3.3 7.2-4.8 15-6 22.8-3.2 19.3-4.5 39-4.4 58.7.2 33 5.2 65.2 11.6 97.4 5-7.3 12.2-13 21.3-14.1a29 29 0 0 1 25 9Zm-9.6 39.1a38.5 38.5 0 0 0-20.8-2.2 3 3 0 0 1-2-.3c-.6-.4-1-1-1.3-1.6-.3-.7-.3-1.4 0-2.1.1-.6.6-1.2 1.4-1.6a43.6 43.6 0 0 1 24.6-4h.8c4.3.7 10.4 2 15 4.7 3.5 2 6.2 5 6.8 8.7.3 2-.1 4-1.3 5.5a5.8 5.8 0 0 1-4.9 2.3c-3.8-.1-6-1.7-8.7-3.8l-1-.8a36 36 0 0 0-8.6-4.8Z" fill="#000000"/></g></svg>