<svg viewBox="0 0 704 704" fill="none" xmlns="http://www.w3.org/2000/svg"><g transform="matrix(.99789 0 0 1 156 62)"><g fill-rule="evenodd" clip-rule="evenodd"><path d="M428.9 194.6C409.2 75.4 258.7 54 160.7 79c-1.8-22.9-16.3-43.1-34.3-56.5-76.6-55-167.2 38.5-149 119 3.2 24.5 22.7 52.4 50 48.2-34.3 65-47.7 196 28 236.5 7.2 5.2 8.4 15.7 14 22.5 9.2 10.9 48.1 24.8 69.2 13.6 6.6 6.1 14.2 12 23.2 14.1 46.1 37 113.5 45.3 169.7 30 34.6-5.8 70.5-21.4 88.3-53.3 15.1-24.3 8.2-52.8 1.2-78.4-3-14.2-4.9-28.4-6-42.8 2.4-2.9 2.5-6.8 3.1-10.5 2.7-12.8 8.5-24.7 11.4-37.5a215 215 0 0 0-.6-89.3" fill="#FFDD00"/><path d="M1 65.5a88.2 88.2 0 0 1 83.8-48.2c34.2 2.5 60.3 26 66.3 64l.2 1.2.4 2.5-.4.1.2.3.3.5 1.3 2 .8 1 2.5 3.7.2.2.6.8 1-.4a246.5 246.5 0 0 1 166.4 1.4l1.6.6 1.5.6.8.2a126.1 126.1 0 0 1 76.6 59.1l.6 1 .5.9c16.3 28 24.7 62.6 24.1 97.3v1.3l-.1 1a98 98 0 0 1-7.2 27.2l-.6 1.4-.8 2.2-2.7 6.8-.7 1.7-7.7 20.1 1.5-20.2.3-7.2v-.6l.2-8.6v-1.9l.1-2.4v-1.2l.2-1.8v-.8A58.5 58.5 0 0 0 395 237l-.5-.5-.5-.5-.7-.7c-7.5-7.3-15-12.9-30.7-23.2l-.7-.4-9-6-3.5-2.2c-7.5-5-12.1-8.1-17-11.9l-1-.8-.8-.6a101 101 0 0 1-20-20.2l-.5-.7-1-1.4.8-1.5v-.8a32.4 32.4 0 0 0 .4-3.5v-1l-.2.5c-9.7 28-32.7 51.5-65.2 68.7l-1 .6-1 .5c-32 16.6-71.2 26-105.1 26.4h-2.1l-1-.7c-3-2.6-8.8.6-7.7 5.2 9.6 42.2 11.6 86 5.8 128.1l-.3 1.5v.1l-.2 1.2-.6 3.4-.3 2-1.2 8.3-.6 3.5-.2 1.4a66 66 0 0 1-9.5 27.1l-.5.7-.4.4-.5.5c-1 1-1.5 1.8-1.8 2.3v.2c1.5.6 4.6.5 7.2-.2l.3-.1.3-.1 2.1-.7 1.5 2 .4.6 2.7 3.6 1.2 1.6 2.9 3.7-2.6 1.8c-8.9 6-21.2 4.9-34.3-.8l-.5-.3h-.2a51.6 51.6 0 0 1-17-15.9l-.9-1-3-3.8-1.1-1.5-2.2-2.6-.2-.2-.8-1-.2-.3c-3.3-6.6-8-11-16.2-15.8l-1.2-.7-.8-.5c-20.9-14.5-33.3-37.4-38.5-67.1a266 266 0 0 1 .1-78.7l.2-1.4.2-1.5a201 201 0 0 1 21.8-68.7l.5-1.1.6-1-2.7-2-1-.9A36 36 0 0 0 33 187l-.3-.2-.3-.2v.1l-2-.2c-8.5-.9-16.8-4.5-23.6-10.1l-.6-.5-.5-.6a73.4 73.4 0 0 1-19.5-52.8A122 122 0 0 1 0 67.2l.5-.8.5-1Z" fill="#FF0000"/><path d="M427.3 255.3c-1.1 14.4-7.2 27.3-12.3 40.7.5-8 .3-16.2.8-24.4-6-51.5-76-65-103.2-104 1-2.2 1.4-21.9-2.6-16.3-15.8 68.8-109.3 103.3-173.3 103.5-4.8-4-14.4.2-12.6 8.2 9.5 42 11.6 85.8 5.5 128.5-3 15-3.4 33.2-12.4 46.1-9.6 9.2 2 9.9 8.3 7.8 1.7 2.5 3.6 5 5.5 7.3-9.2 6.3-22.5 2.9-31.9-1.3-10.5-5.6-16.5-16.3-24-25a40.9 40.9 0 0 0-18.6-17.6C11.5 378.2 12.6 311 19 262.5c18.8-144.4 179-214 307.7-163.9 69.4 17.8 102 89.6 100.5 156.7Zm-419-81.7C-19 146.2-13.4 98.4 3.8 66.9 38.3.9 136.6 3 148.4 82.9A214.4 214.4 0 0 0 30.8 183.5a42 42 0 0 1-22.4-9.8Zm420.6 21C409.2 75.5 258.7 54 160.7 79.1c-1.8-23-16.3-43.2-34.3-56.5-76.6-55.1-167.2 38.4-149 119 3.2 24.4 22.7 52.3 50 48.1-34.3 65-47.7 196 28 236.5 7.2 5.2 8.4 15.7 14 22.5 9.2 10.9 48.1 24.8 69.2 13.7 5 6 33.4 24.8 31.4 6.5-2.1-5-8.6-6.3-12.9-8.7-9-5-17-12-23-20.3 19.3-54.7 17.8-115.6 7-171.9 65-3.3 141.3-31.7 170-94.2 19.3 45.5 79.3 51.3 94.5 102.2 1 26.7-4.8 53-.6 79.7 1.2 26.2 15 52.2 7 78.2-22.3 56.7-102.8 65-156 62.6-12.6-1-23-7.8-33.4-14.3-6.2-3-13.6 3.2-9.8 9.8 14.5 20.3 44.5 22 67.4 21.4 59.7-3.6 145.9-21.2 149-94.9-2-29.1-13.4-57-14.3-86.6 2.5-2.8 2.6-6.8 3.2-10.4 2.7-12.9 8.5-24.8 11.4-37.6a215 215 0 0 0-.6-89.3Z" fill="#000000"/></g></g></svg>