<svg viewBox="0 0 704 704" fill="none" xmlns="http://www.w3.org/2000/svg"><g transform="matrix(.99789 0 0 1 156 62)"><path fill-rule="evenodd" clip-rule="evenodd" d="M244.8 58.7c44.8 0 98.5 21.7 103 22.1h.2c2.4 0 11.8 7.2 28.1 21.5L358.4 137l1.4 1.4c7 6.6 12.8 12.6 17.4 17.3 37.8 38.6 44.6 190.3 35.7 243.2-9 53-25.4 104.7-102.2 104.7-76.8 0-162.3-46.2-175.4-60.6a37.4 37.4 0 0 0-29.6-13.8c-.4-.5-.9-1-1.3-1.7l-1.6-.2a99.6 99.6 0 0 1-32.6-8.8C57.4 411 43.4 373 43.4 364.7c0-8.3-21-68.8-21.5-75.2v-.1c0-5.4-27.4-30-27.4-37.7 0-7.8-5.6-7.4 0-34.9l1.6-8C2 179.5 13.5 131 57.4 109.9c48.3-23 142.2-51.2 187.4-51.2Z" fill="#FFDD00"/><path d="M117.7 298.3s-20.2 9.6-40.4 25.2c-20.1 15.5-10.2 16-10.2 16s-.8 33.5 5.4 46.7c6.2 13.3 43 15.6 43 15.6l6.2 21-.8 9.6a33.5 33.5 0 0 0-15.2-3c-.4-.5-.9-1-1.3-1.7l-1.6-.2a99.6 99.6 0 0 1-32.6-8.8c-12.8-7.3-26.9-45.4-26.9-53.7 0-4.7-6.6-25.8-12.5-44.6-4.6-14.6-8.7-27.8-8.9-30.6v-.1c0-2.5-5.6-8.8-11.8-15.8-7.4-8.4-15.6-17.7-15.6-22 0-2.2-.5-3.8-1-5.6-1.3-4.3-3-9.7 1-29.2l1.6-8c5.9-29.3 17.4-77.8 61.3-98.9C105.7 87.1 199.6 59 244.8 59c35.3 0 76 13.5 94 19.4 4.9 1.6 8 2.6 9 2.7h.2c2.4 0 11.8 7.2 28.1 21.5l-4.1 8.1c-54.1 1.6-143 6.4-181.9 21.2-57.7 21.9-72.4 166.4-72.4 166.4Z" fill="#0000FF"/><path fill-rule="evenodd" clip-rule="evenodd" d="M50 108.9C74 83.3 210.8 43.8 280 52l2 .3c5.5.7 11 1.8 16.4 3.2 17.3 4 35.2 10.2 49.6 20.5 12 8.3 49.7 22 38.6 44a32.5 32.5 0 0 1 2.9 25.2c-.4 2.6-1.2 5-2.3 7.6 8.9 13 15.8 27.7 21.5 41.7 9.9 35.2 16 71.9 17 107.8 2.9 68.3-4.6 149.9-64 194-36 28-92.2 29-132.6-5.8-2.3-2.7-13-10-9.5-11.3a102.7 102.7 0 0 0 3.3 3l-1-1c-2-1.8-4.6-4.5-1.7-4l.4.5 1.5 1h.1c-1.7-1.8-2.7-3.6-.2-2.4l.3.1 3.5 3.4v-.4l-1-1c-1.1-1-1-1-.4-1.9-2.3-3.1 2-1.3 2.2 0 2.6-.6 5 4.3 6.6 4.9 74 56.9 181.4 6.4 179.7-152.1v-3.1c-.6-50.7-4.8-102.8-25.8-148.7a132 132 0 0 0-6.8-12.9c-1.8-3.1-3.6-6.2-5.6-9.1a82.5 82.5 0 0 1-22-4.7l-80.1 4.6-8.5.5c-22.8 1.5-46.4 3.8-64.8 18-18.1 12.8-18.2 38.2-33.7 52.3-22 15-22.2 28.5-26.5 50.6.4 16.6 11.9 40.8-9.3 47.8 3.6 5-1.4 2.6-1.8.8 3.1 6-1.6 2.3-2 .4l-.7-.5c3.2 5.1-2 1.5-1.7.6-6.2-9.6-19-11-28-8.5 0 .3-.5.4-.7.2-38.2 8.3-28.4 87.4 10.8 79.7 1.7-.3 1.6.5 2 .6-1-2.4 1.6-1.4 1.6-1H109.6c-.9-4.8 4 2.3 3.7 2.5l.4-.1-.1-.5c-.8-2.2-.8-1.2-.8-2.5-.6-1.5-.6-.9-.5-1.9 2.2-1.6 2.8 3.4 3.5 3.8-1.2-1.7-.2-3.1 1-2.2 8.8 18.6 20.2 36 34.9 49.7 1.6 1.3 3.2 2.6 5 3.7 6.2 5.5 15.8 9 21.7 13.8l-.1.3v.1l.2.2 2 1c.7.5 1.2 1 1.7 1.7.5.6 1 1.2 1.3 1.9.2.8-.2 1.2-1 .8-.4 0-.7-.2-1-.4v.1c.1.2.9 2 0 1.7h-.1l-1.5-.6 1.6 2.1c.5.5.8 1.1.9 1.8 0 .4-.2.5-.6.5l-1.7-.6.1.3c.4.8 1 2.1 0 1.7a32 32 0 0 1-2.6-1c0 .2-.2.2-.5.1-2.6-1-5.2-2-7.7-3.5l-6.5-4.7c-2-1.2-4-2.6-6-4.1a129 129 0 0 1-32.4-30.1c-14.7 12.7-44.1.6-62.3-9.4-16-8.9-22.4-25.4-24-43-3.4-24-23-32.2-21.5-84.6h-.1c-.8-.2-1.4-.4-2-.8-.8-.3-1.4-.7-2-1.2l-.7-1-1-.6-.1.1c-.5.6-.2-.2-.1-.4L9.4 290l-9-12.4v.2l-.2.2a79.2 79.2 0 0 1-14-31c-2-8.3-1.2-16.8.5-24.5C-6 195.6 18.2 134.9 50 108.9ZM223.5 480l-.4-.3.4.4c.2.2.3.4.7.6v-.2l-.7-.5Zm56.1-414.5c-46.9-4-93 6.3-137.8 18.8l-3 1c-25.5 7.2-52.4 13.7-74 29.3-30 23-45.5 59.6-59 93.4a62.3 62.3 0 0 0 12 71c1.9-17.4 5-34.4 10-51.1 1-2.7.2-3.5 2.4-3.9 3.4 45.3-13.1 78.7 19.6 132.3 14.2 25.3-2.3 43.8 37.8 57l1 .5a47.3 47.3 0 0 0 25.7 3.9l-.7-1.2c-.7-1.2-1-1.8.1-2.4v-.1c-1-1.7-1.8-3.4-2.6-5l-1 .2c.2.4.2.8-.4 1-2.2.7-4.5 1-6.8.9h-.5a23 23 0 0 1-5.7-1.1l-1.5-.3c-4.7-1-9.7-3.7-13-6.4-37-21-33.2-92.7 12.5-99.5.9-45 22.4-121.2 58-164.2 32.1-39.5 120-56.6 181.2-50.6l2.6.9c9.5.8 18.5 5 27.9 7A85 85 0 0 0 342 85.6a161.7 161.7 0 0 0-62.4-20Zm-187 274.6c2.4-1.4 2.1 0 2.7-.4 17.7-1.5 36.7 14 46.6 26.9-.8.8-2.9-1.6-3.3-2l-.1.1.2.4c4 5.8-3.9-1-4.6-2.4-.2 0-.3.1-.4 0 .6.7 2.5 2.3 2.8 3.5l.5.4c4.8 4 4.4 7.2-1 1.3.1.3.2.6 0 .8h.3c2.7 2 4.9 7.2-.7 1.8.5 4-5.6-3.6-5.8-3.6a82.3 82.3 0 0 0-39.6-17.5h-.4c-2.5-.4-3.6-1-2.8-2.7-3-.7-2.3-2.2-.8-2.1-2.2-1.4-.3-2.8 1-2.3-.9-2.3 2.5-.7 2.8-1 1.8-2.8 2.3-.5 2.6-1.2Zm-37-145.4c8.4-3 33.5 6.2 31.5 18.6-1.2 2.8-5.1 4.4-8 2.8l-3.5-2.4c-6.3-4.2-12-8-18.7-11.6-3.7-1.8-5.3-5.7-1.4-7.4Zm48.2-18.3-3.3-2.1c-17.6-11.6-42.6-29.1 1.7-11 5 2.2 11.8 3.5 14.5 8.3 4.3 8.9-7 9.4-12.9 4.8Zm2-52c-1.4-5.3 16.2 1 21.4 2.7l.8.3c5 1.9 10.7 3.6 13.7 7.9 3.5 6-3.6 7.2-8 4.5-9-5.9-18.9-10.3-28-15.3Zm44.9-25c-10-10.8 16.7-.4 20.6 2.4l.2.1c3 2.1 2.3 6.6-.5 8-8 0-13.8-6.5-20.3-10.5Zm45.2-11.9c-15.8-11.3 5-6 12.3-1.5 4.9 4.4-.2 11.7-12.3 1.5Z" fill="#000000"/></g></svg>