<svg viewBox="0 0 704 704" fill="none" xmlns="http://www.w3.org/2000/svg"><g transform="matrix(.99789 0 0 1 156 62)"><g fill-rule="evenodd" clip-rule="evenodd"><path d="M418.6 283.2c-.4-22.4-.9-45.3-4.2-67.4a101.6 101.6 0 0 0-27.6-57c-32.7-33.5-80-41.7-124.2-49.2l-75.4-12.8c-23-4-47.6-10.1-70.8-4.6a73.6 73.6 0 0 0-30 16.6c-8.7 7.2-17.9 15-23.7 24.7a91.8 91.8 0 0 0-9.7 32.1 469.6 469.6 0 0 0 .7 167.7l1 5.7a60 60 0 0 0-3.7 20.7c.3 20.6 17.7 33.5 35.2 40.5 10.1 4 20.7 6.7 30.7 11.2a69 69 0 0 1 24.8 21.2 241 241 0 0 0 46.7 44.2c37.3 26.6 84.6 39.1 129.9 29.6 10.9-2.3 21.8-5.9 31.6-11.2a70.7 70.7 0 0 0 24.6-23.5c12-18 20.7-38.2 27.3-58.8 6.7-21 11.5-42 14-63.9 2.6-21.8 3.2-43.9 2.8-65.8Z" fill="#FFDD00"/><path d="M178 18.8c31.1-4.3 74.2 9.6 89.7 37.8C342 39 435.5 38.5 496.7 96.7c63.8 69.1-16.3 160.2-69.5 180.7 3.9 18.8-2.2 139.3-44.9 193C348.5 516 269.6 537 233 482.7l-.2-.4c-4-6.3-.6-6.1 3.4-1.4 35.8 31.4 84.4 32 121.9-1.2 70.2-60.7 63-209.4 29.5-295.4-95.1-10.5-197 18.4-262.7 90l4.5 26.7c.7 4.6 1.6 9.1 2.2 13.7.5 3 .5 5.8-1.5 8.2-6.7 7.8-18-4-27.3-8.6-2.8-.4-5.5-.5-8.2-.3-44.7 5.7-35.9 92.3 13.2 77.2 4.1-2.6 7.7-1.8 9.3 1.9 11.7 10.7 19.4 29.8 38.8 48.2 6.9 7 13.1 12.7 20.9 18.3 4.5 4.5 18.2 9.2 13.8 17-8.2 17.9-56.5-38.2-65-53.7-26.8 10.6-56.5 7-84.2 4.4C-105 419.6-85.5 265.3 34.5 168a335.5 335.5 0 0 1 73.4-40.6c3.5-1.4 2-7.2-1.6-5.8-17.1 7-33.8 15.2-49.8 24.7v-5.7c0-9.6.1-19.6 1.8-28.3.8-6.1 2.2-12.6 4.4-17.5 2.7-14.9 44.4-66.2 115.2-76Zm-85.4 315c2.3-2.2 6.5.4 8.5.3 5.2.7 10 2.9 13.9 5.6 2.5 1.4 4.3 2.7 5.7 4v-.1l.2.1c2.1 1.5 10 10.1 5 7.8l-1.1-1.4-.2.2.3.4c4.2 6.4-3-.3-4.2-2.1h-.2l1.5 1.9.5.6.3.3c4.9 4.8 5 9.1-.6 2 .2.3.4.7.4 1l.3.4c4.5 5.8.9 3.7-1.3 1.3l-.2-.2c2 3.2-2 1-2.7-.7-.9-.7-1.3-1.4-1.5-1.6-3.9-4-9.4-7.3-14.1-8.8l-2-.3c-3-.6-5.8-1-8.7-1.3-.3 0-.7-.3-1-.7-4.3 0-3-1.9-1.2-2.2H90c-2.8-.3-4.7-1.3-1.9-2h.4l-.1-.2c-2.5-.3-.9-2.7.5-2-.6-2 2-1 2.3-1.3l.7-.5c.8-.6.4-.5.8-.6Zm15-30.1-.6.3-1.5.6 2 .9V303.7Z" fill="#000000"/></g></g></svg>