<svg viewBox="0 0 704 704" fill="none" xmlns="http://www.w3.org/2000/svg"><g transform="matrix(.99789 0 0 1 156 62)"><g fill-rule="evenodd" clip-rule="evenodd"><path d="M260.3 105.2c150.5 4.7 159.6 76.2 159.6 196.1 0 120-78.1 195.5-106.9 208.7-28.7 13.2-104.4 69.8-172.7 43.7C72 527.6 91.7 417.3 91.7 370c0-47.4 18-269.5 168.6-264.7Z" fill="#FFDD00"/><path d="M114.8 295.4c31.1-126.9 88-188.8 170.4-185.7C409 114.3 407.7 240.5 400 229c-5-7.5-40.6-33.7-106.5-78.7l-4-2.8-174.6 148Z" fill="#0000FF"/><path d="M321.3 470.6c-27.6 15.4-59.2 16-89 6.3a187.5 187.5 0 0 1-49.5-25.5 341 341 0 0 1-37-30.8 272.6 272.6 0 0 1-22.3-66c-3.6-20.8-4-42.4.1-63.3 31-25.5 62-51.3 92.8-77.1 15.7-13.2 31.4-26.3 47.4-39.2l24.1-19.7 4-3.2c16.6 12.1 34.5 22.6 51 35a349.4 349.4 0 0 1 37.4 32.4c3.6 3.7 7.2 9 12.3 10.3a5 5 0 0 0 2 .2c7 60.7 12 126.4-17.8 181.5-13 24.1-31.4 45.6-55.5 59Zm-179.8 22.3c-3.8-3.5 1.9-9.1 5.7-5.6 23.8 21.8 55 33.3 86.4 38.7 5 .8 2.9 8.5-2.2 7.7-32.8-5.6-65-18-89.9-40.8ZM113 526.4c-4.6-2.5-.5-9.4 4-7 18.6 10 38.9 15.2 59.5 18.7 5.1.8 3 8.5-2 7.7a198.6 198.6 0 0 1-61.5-19.4Zm75.5-337c15.3-13.9 31.9-27 49.4-38 17.6-11.3 37-18 57.8-18.2l-4.2 3.7-11.8 10.1c-8 6.8-15.8 13.6-23.5 20.4-15.3 13.6-30.7 27-46 40.7-29.2 26.1-57.9 52.8-86 80.3l.5-2c9.3-38.9 34.6-70.9 63.8-97ZM309 134.8l.2-.9c40 5.3 73.5 34.7 84.6 73.5-1 1.4-1.5 3-1.3 4.6 0 .9.2 1.8.3 2.6l-4-3.8a325.7 325.7 0 0 0-39.2-33.8 178.2 178.2 0 0 0-53.5-28.5l3.8-3.2c3.9-3 7.4-5.7 9-10.5Zm71.8-41.5A175.2 175.2 0 0 0 286.4 40a185 185 0 0 0-102 10.5c-67.7 26.6-121.1 85-146.2 152.9a278.3 278.3 0 0 0-15 124.6c4.4 41.6 17 84.5 39.8 120 2 3.2 4.3 6.3 6.7 9.3a79.7 79.7 0 0 1-11.5 34.6l-1.1 1.7c-6.6 4.9-13.4 9.5-20 14.3-5.8 4.1-11.5 8.4-17 13-5 4.3-11 9-14.5 14.9-2.8 4.8-4 11.3-.1 15.8 4.7 5.5 12.6 3.6 19 3.6H26l5.8 3.3 57.7 30.2c38.3 20 76.5 40.6 115.7 59 18.1 8.5 37.5 16 57.8 16 19.1-.1 36.3-7.7 51.2-19.2 17-13.1 31.2-29.8 45-46 5.4-6.6 10.8-13.2 16-20 10.3-3.3 20.3-4.3 29.4 2.2 7.3 5.3 16.8-1.8 17-9.7 0-2.8 0-5.6-.3-8.3-1.9-16.8-10-32-19.3-46.1a694.1 694.1 0 0 0-19.5-28.1 363.6 363.6 0 0 0 49.1-103.6A353 353 0 0 0 444 266c-3.7-61.4-20.6-126.3-63-172.7Z" fill="#000000"/></g></g></svg>