<svg viewBox="0 0 704 704" fill="none" xmlns="http://www.w3.org/2000/svg"><g transform="matrix(.99789 0 0 1 156 62)"><g fill-rule="evenodd" clip-rule="evenodd"><path d="M343.4 146.7C277.6 93.3 172.2 76 101.8 129.8c-54.7 50.6-77.3 194.5-67.6 266.7 2.7 46.4 38 99 90 84.3 8.9-.9 17.5-4.3 26.4-5 10.6-1.2 21.4-1.2 32 .3 23.2 3.3 43.7 15.6 66.2 21.3A156.8 156.8 0 0 0 373.1 477c118.7-78 65-254.6-29.7-330.2Z" fill="#FFDD00"/><path d="m334.6 498.7 3.7-1.3c0 .3.2.5.4.8l.5 1.2c-1.5 0-3-.2-4.6-.7Zm-2.4-518c-.5-1.2-1.2-2.4-1.9-3.5 1.7.5 3.4 1.3 5 2.3l-3 1.2ZM72.4 138.8h-.2c1-2.4 2.5-4.6 4.2-6.2l1-.9a50.2 50.2 0 0 0-5 7.1Zm475.4 248.4c-1-8.4-2-16.7-3.5-25-1.4-7.8-2.5-16.3-6.6-23.3-4-7-8-13.8-12.7-20 .6-3 1.5-6 2.3-8.4 4.5-13.7 9-31.1-.4-43.8-2.2-3-4.8-5.3-7.9-7.3-1.2-.9-3.4-1.7-4.4-2.9-.7-.8-.4-.3-.5-.8-.1-2.2 5.2-7 6.4-8.8 2.3-3.3 4-7 5.4-10.8 5.2-15.1 1.6-31.7-1.5-46.8-1.6-8-3.5-16-4-24.3-.6-7.6.4-15.1 1-22.8.6-7.5.5-15.3-2.8-22.3-1.5-3.4-4-6.4-6.8-8.7-2.9-2.3-6.4-3.6-9.2-6-2.8-2.2-2-5.3-1.2-8.4 1-4.3 2.2-8.5 2.3-12.9.2-7.7-2.9-15.1-7.8-21-5-6-12.2-10-20-10.9-3.6-.4-7 .3-10.6 0-3.5-.2-4.3-2-5-5.1-1.4-7.4-.8-14.6-4.4-21.4a28 28 0 0 0-15.2-12.7 66 66 0 0 0-37.1-.9c-7.2-21-29.6-35-51.7-35.1A31.2 31.2 0 0 0 336-36c-11-4.2-22.6-1.7-34-1.7h-.1a61 61 0 0 1-6.7-.4c-13-1.5-26-6.9-38.9-1.7-5.7 2.4-10.3 6-13.2 10.5-4.4 1.2-8.7 2.6-13 4.2A55.1 55.1 0 0 0 184.5 1c-13-1.5-27.2 1-35.8 11.7-2.3 2.8-4 6-5.2 9.5-8.8 2.8-17 8-22.2 15.6-5 7-5.8 16-2.6 23.4a45.7 45.7 0 0 0-17 23.5c-1.7 5.8-2 11.9-.8 17.6-8 1.8-15.8 5.1-22.6 10-7.1 5.3-16 13.5-16.5 23v2.2C46 136.5 30 139 19.4 151.7a39.8 39.8 0 0 0-9.4 32.8 87.2 87.2 0 0 0-48.7 28c-9 10.5-17 23.9-16.5 38.2.2 4.3 1.2 8.6 3 12.6-.8 1.5-1.6 3-2.3 4.7a69.3 69.3 0 0 0-24.8 34.8c-3.8 11.4-6.2 26.1-2.1 37.7.6 1.7 1.4 3.4 2.3 5-.8.7-1.5 1.6-2.2 2.4C-89 357-97 368.5-96.5 381c.2 5 2.1 10.1 5.2 14.3-10.8 11-19.5 24.8-18.6 40.2.7 13.5 8 27 19.6 33.5a32.5 32.5 0 0 0 22.5 37.5c1.1 12.2 12 22 23.4 24.8 2.2.6 4.3.9 6.4 1 10.4 5.1 22.7 4.5 33.3-.1A34 34 0 0 0 13.2 544c14.9 4.4 30.2-1.6 43.2-8.5l1.9-.9a35.4 35.4 0 0 0 26.3 9.4c7.8-.5 14.7-3 21-6.7l2.9.3c6 .3 11.3-1.6 16.2-4.6 3.1.4 6.4.4 9.7-.2 7.3 1.9 14.3-1 20-5.7 2.6-2.1 4.7-4.5 7-6.9 2.3-2.4 4.1-3 7-4.6 6.5-3.8 7.2-13.5 4.4-20.5.5-1.2.9-2.6.9-4.1 0-13.3-6.2-25.5-13.7-36-3.3-4.8-7-9.4-11-13.6-3.2-3.4-7.7-8.9-12.4-10.2l-1-.7c1-3.2 1.5-6.5 1.3-9.8-.2-3.4-1.3-6.7-3.1-9.5 6-11.6 8.5-24.2 7.3-37.5a64.4 64.4 0 0 0 12.2-38.7c0-2.5-1-5.8-1-8.4.1.8 1.2-2.3 1.6-3 4.8-9 11-16 12-26.5.7-6.2-.8-13-4.5-18a44.9 44.9 0 0 0-4.9-35.3c.6-1.8 1.2-3.7 2-5.4l.8-2c2.7-2.4 5.2-5 7.3-7.6a34.2 34.2 0 0 0 8.8-19.6 31 31 0 0 0-1.8-11c-.5-1.5-.8-3.3-1.3-5-.4-.8-1.1-1.7-1.4-2.5l-.1-.4v-.9c0-3.6.5-7 .5-10.5a29 29 0 0 0 11.8 7.2c9 3 18.5 1.6 26.5-2.9 8.7 6 18.4 11.3 28.6 13.4 6 1.3 12 .8 18.1 1.6 6 .8 12 3.4 17.6 5.5 12.6 4.5 25.2 9.2 38 13.7a63 63 0 0 0 32 4.4 34.8 34.8 0 0 0 23.5 15.6c3.6.6 7.8.3 10.7 2.8 2.9 2.4 4.7 6 7.2 8.7a37.4 37.4 0 0 0 19.1 10.8l-.6 20.5c-.1 14.9 0 29.7-.3 44.6-.2 14.8-.6 29.6-1.4 44.4-.8 13.9-1.8 27.8-5.1 41.3-11 45-52.1 77.1-98.2 78.8-13.6.5-27.2-1.5-40.2-5.5-13.6-4.1-25.7-12.7-39.5-15.4-3.7-.6-7 3-5 6.5 3.6 6 8 9.7 13.9 13.4a139.2 139.2 0 0 0 59.3 17c10.2.4 20.4-.3 30.4-2.2.7 2.2 2 4.3 2.9 6.3.1.2.6 0 .5-.3l-.3-1.3c3.4 4.4 8.6 7.5 14 9a30.8 30.8 0 0 0 15.1.2c4 3.5 9 5.8 14 7-.8 5.2 1.8 11 7.9 12.5 2.5.6 5 .6 7.4.4 2 1 4 1.6 6.3 2.1 3 .7 6.5-.2 8.7-2.3 1.2.9 2.3 1.5 3.4 2.8 4.6 5.6 14.6 1.1 15-5.3h4.4l1 .6c6.5 3 13.2 5.6 20.3 3.2 1.3-.4 2.5-1 3.6-1.6 5 .4 10 .5 15-1.2 3-1 5.8-2.5 8.2-4.5a38 38 0 0 0 23.9.5 29.5 29.5 0 0 0 13.8-10c5.1.2 10.2-1 14.9-3.4 7.9-4 13.4-11.9 17.3-19.7a160.5 160.5 0 0 0 15.6-54.8c2-18.8-.9-37.5-2.8-56.2Z" fill="#000000"/></g></g></svg>