<svg viewBox="0 0 704 704" fill="none" xmlns="http://www.w3.org/2000/svg"><g transform="matrix(.99789 0 0 1 156 62)"><g fill-rule="evenodd" clip-rule="evenodd"><path d="M405.9 203.2c-10.3-37.2-49.7-53.4-85.2-56-96-10-193.7 43.5-236.3 130.3-34 66-35.1 135.2 38.1 172.8L135 457c3.7 3.4 7.5 6.7 11.7 9.5a228 228 0 0 0 136.2 35.1c70-1.4 95-49 110.4-109.9 16.1-60.6 25.1-126.5 12.6-188.5Z" fill="#FFDD00"/><path d="M451.8 553.7c-3.2-10-7.3-19.5-11.2-29.2-.8-4.8-1.3-9.7-1.4-14.6-.6-17.5 2.7-35.2 6.4-52.3 7.5-34.7 15.4-69 19.4-104.4 7-63.2 2.9-129-26-186.7-24.8-50-67-91-121.6-106.2-16.1-4.6-32.7-7-49.4-8l-6.2-1a329.7 329.7 0 0 0-70.3-3.8c-39 2.6-77.6 13.7-110 35.9A163.8 163.8 0 0 0 14.8 175C3.6 214.8 4.5 257.7-14.9 294.9c-5.7 11-12.4 21.4-18.8 32-17 19-35.3 40-39.3 66-5 32 13.5 59.2 31 84.2 15.8 22.6 37.2 53.9 21 81.7-7.7 13.2-20 23-29.2 35-9.6 12.4-17 26.7-21 42a89.2 89.2 0 0 0 18.9 80.9 99.1 99.1 0 0 0 37 25.4c14.4 6.1 28.5 12 40.4 22.4 5.4 4.8 10.4 10 15 15.5 4.4 6.8 9.5 13.2 15.3 19 6.3 6.5 18.7-2.3 13-9.9l-1.4-1.7A515 515 0 0 0 54 771a90.5 90.5 0 0 1-11.8-71.7 88.6 88.6 0 0 1 7.2-18.2l2 5c3 6.3 7 13.8 12.1 20.2.2 4.4.9 8.7 2.1 13 8 26.4 34.4 39.4 58.3 49.6l7 2.9c6.2 2.6 12.8-6.3 8.9-11.7l-3-4.3a85.7 85.7 0 0 1-13.5-58.7c3.2-21.9 16-40 28.9-57.3 12.5-17 26-34.5 31.7-55.3 6.2-23 .5-45.9-9-67-8.9-19.4-20.6-37.3-30.4-56 3.4 3.3 6.8 6.5 10.4 9.6 4 3.5 8.1 7.6 13 10 3.4 1.9 7-2.5 4.2-5.5-3.7-3.9-8.4-6.9-12.5-10.4a257.4 257.4 0 0 1-24.4-24 217 217 0 0 1-8.4-26.2c-3-12-5.8-24.8-5.6-37.3.2-12.8 6.8-21.7 15.7-30.3l11.3-10.8c8-6 15.6-12.5 23-19a649 649 0 0 0 47.5-47.3 524.8 524.8 0 0 0 31.8-35.6 150 150 0 0 0 28.4-14l-11.7 11.7a217.3 217.3 0 0 1-28 24.7c-1 .7-.4 2.3 1 2 12.8-2.5 24.8-6.8 36-13.6 11.5-7 21.6-16.4 31-25.9 5.3-2.4 10.4-5.4 15.1-8.5l.8-.5c-4.7 14.7-11.4 31.2-25.9 36.5-.5.1-.4 1 .1.9 12.2-.7 22-6.2 29.7-14.2a197.6 197.6 0 0 0 33.4-30.3c-6.9 13.7-14.6 27-22.2 40.2-.4.7.4 1.7 1.1 1.2 16.1-10.9 28.3-25 38.3-41.5l4.2-7.5c-1 4-2.1 7.9-3.4 11.7l-6.5 21c-1.2 3.8-2.6 7.5-4.2 11.2-1.1 2.6-2.6 5.1-2.8 8 0 .2.2.3.3.3 6.4-1.6 12.4-9 17-13.5 2.5-2.5 4.9-5.3 7-8.2.5 16.8.8 33.6.4 50.5-.7 31-2.7 62-5.3 92.8-2.2 27.2-3.9 55.9-19.1 79.6A92 92 0 0 1 308 488c-30 7-60-1-86.5-15.3-8-4.3-14.8 7.4-7 12.2a130 130 0 0 0 97.9 16c-1 38.5 18 75 36.8 107.7 10.6 18.3 21.2 36.5 28.7 56.3a192.2 192.2 0 0 1 12 52.3c1.8 21.2 0 42.5-2.9 63.5l-.5 3.4c-.6 4.5 3.4 8.3 7.8 6 19.4-10.2 27.8-32 32.9-52 4.8-18.9 8-38 9.8-57.4 2.6 7.3 4.8 14.8 6.4 22.4l.7 3.3c1.3 6.3 10.9 5.9 12.4 0l.8-3.3a269.2 269.2 0 0 0-5.5-149.4" fill="#000000"/></g></g></svg>