<svg viewBox="0 0 704 704" fill="none" xmlns="http://www.w3.org/2000/svg"><g transform="matrix(.99789 0 0 1 156 62)"><g fill-rule="evenodd" clip-rule="evenodd"><path d="M408.5 275c-6.9-83.7-27.8-157.8-126-161a343 343 0 0 0-130.3 27.2C53.2 191 21.7 372.4 109 445.4a1 1 0 0 0 0 1.6c18 12.1 38 22.1 58.1 30.5 53.5 22.6 116.4 32.4 171 7.9 83.2-35.4 84.4-134 70.4-210.5Z" fill="#FFDD00"/><path d="M572.3 236c3.4-3.1 6-7.2 7.3-11.7 1.1-4.1 1.2-8.6 0-12.8-1.4-4.4-4.3-8-3.6-12.5 0-.5.2-1 .3-1.4 2.5-8.7 8.6-15 6.4-24.5-.6-2.7-1.7-5.2-3.4-7l.5-6.4a33.5 33.5 0 0 0-.4-26.8c-.4-4.2-1.2-8.4-2.2-12.6.5-3.7-.1-7.7-1.3-11-2-5.6-4.6-11.1-7.4-16.6.3-1.5.2-3-.7-4.5a41.7 41.7 0 0 0-5.5-7l-4.3-7.6-2.2-3.8c2.2-4 3.4-8 1-12.9a6 6 0 0 0-5.2-3l-6.6.3c-4-5-8.7-9.4-13.7-12L516 29.6l-4.2-3.7c-1-3.9-2.2-7.6-3.4-11.4-.7-2.3-1-4.7-3.2-6-4.8-2.7-12-3-17.5-3.5l-1.6-1.5c2.4-6.5 2-13.5-1.1-20.1-1-2.3-4.7-3.3-6.8-1.8a22.6 22.6 0 0 1-15.6 4.1c-8-6.1-40.5-34-45.5-37l-.2-.3a40.7 40.7 0 0 0-10-11l-1.7-1.8a21 21 0 0 1 4.5-10.4c3.6-4.3-.8-9.8-5.8-7.5l-1 .5c-4 1.7-8.2 3.5-12.6 5.1-1.6-.6-3.3-1.1-4.8-1.8L369.5-85c-2.7-1.1-5.5-2-8-3.3-1-6-7-9.8-13.1-9.6a11.6 11.6 0 0 1 2.3-4.2c3.2-3.7-1-10.6-5.6-7.3l-1 .7-3.8 2.5c-2.1-1-4.5-1.1-7-.2a71.4 71.4 0 0 0-15.3 7.7l-.6.4a13.1 13.1 0 0 0-9.6-4.8h-.2a12.6 12.6 0 0 0-11.8-5.6c.3-5.6-5.3-10.6-10.4-11.2a12 12 0 0 0-13.1 8.6l-1.5 4.8a52.7 52.7 0 0 0-14.6-5c-11.6-2-23 .1-34.2 3.3l-3.3 1-4.5-5.5c-2.5-3-8.4-.6-8 3.3.2 2.7-.9 4.7-2.6 6a38.4 38.4 0 0 1-16-1.3c-1.9-.7-4.1-2.6-5.2-4.3-4-6.4-14.4-8.2-19.4-2-5.1-2.3-11.7.8-14.6 5.3-1.5 2.3-4.6 3.6-8.6 4.7-3 .8-6 1.4-9 2-1.4-1.9-4.3-3.1-6.4-1.6l-4.1 3.3a59 59 0 0 1-31-2.6c-8.5-3.5-16.3 6-15 14-2.4 1.2-5 2-7.5 3.4a30 30 0 0 0-13.6 16c-2 1.6-3.9 3.2-5.8 5l-9.5-5c-2.4-1.1-6.4-.3-6.9 2.9-.8 5.2-2.6 9.5-5.3 13C17-46 8.7-40.7.7-35c-9.2 2.8-19 4.5-27 6.4-2.8.7-4.3 4.2-2.7 6.6l4.9 7.6c-4.6 4.5-8.9 9.1-13 14A259 259 0 0 0-66 43l-10 4c-3.3 1.4-4.7 5-2.1 7.8 1.2 1.4 2.3 2.7 3.3 4.2A55 55 0 0 1-93 78.7a12.2 12.2 0 0 0-5.1 6.2l-2.4 1.7c-2.2 1.7-3.6 5.3-1 7.5 1.8 1.5 3.5 3.3 5 5.3l1 3.4a84.2 84.2 0 0 0-17.9 23 4 4 0 0 0-3 .6c-8 6-8.3 15.5-5 24-2 12.8-.8 26 3 38.4-5 5-8 12-9.2 19-2.1 12.1-2.3 30.8-2.8 43.1-5.5 5.3-9.3 12-11.5 19.3l-5.4 2.7c-1.6.8-2.8 3-2.7 4.7a38 38 0 0 0 8.7 21.6c1.7 4.7 4.2 9 7.4 13.3 2.2 2.9 4.4 5.6 6.4 8.7l.4.8c-.8.9-1.4 2.2-2 3.2-4.6 8.1-4.7 17.7 2 24.8-2.6 2-2.6 6-.5 8.6 14.2 16.2 26 35.9 45.7 44.5l.3.4c-4 9.6-4.5 14.6-1.3 24.6v.2c1.8 5.2 5 13.5 10.8 15.2 1.8.5 3.6.7 5.4.7l13.7 13.2c.4 2.2.7 4.4.7 6.7.2 3.7 3.7 6.7 7.5 5.6 1.3-.4 8.6-7.5 10-7.5l2 2c2.4 2.6 5.8 6.6 6 9.3.6 5 4 10.8 9.2 11.8 2 2 5.2 2.7 7.7 0l.5-.5h.8l3.5 10.5c2.3 7 11.2 11.4 17.6 7.3l3 2 4.6 2.8.3.8c1 3 5.2 4.8 7.8 3l2.5.6c4.4.9 8.9.6 13.1-.8 3-1 6-3 9.3-3.3h.6a25.8 25.8 0 0 0 13.6 11.8 25.3 25.3 0 0 0 18.5-1.2 43 43 0 0 0 5.9 8.7c1.2 1.5 3.6 1.2 5 0l7.4-6.7c1.9-.7 3.7-1.6 5.6-2.4 6-2.4 12.5-3.4 18-7 2.7-1.6 5.1-3.7 7.2-6.2 3.8-2.2 7.3-5 10.5-8.1 1.6 0 3.2-.4 4.8-1.2a20 20 0 0 0 10.5-17.4 122.6 122.6 0 0 0 9.5-54c-.2-3.2-1-5.4-2.3-8.3l-1-2.8.1-9.2c.9-2.6 2.3-5 4.4-7 3.2-3.2 4.6-9.7 1.7-13.6l-5.6-7.5c.5-10.8 3-28-2.6-29.7.2-1.6.7-3.2 1-4.8a29 29 0 0 0-3.5-21.1l-2.2-3.9-1.1-6.6-1.6-10.2-.8-13.2-.7-12c0-2 .3-3.7.5-5.5 1.4-10.8 5.8-14.8 13.4-22.3a80 80 0 0 0 3.6-.6c5.4-1.2 11.1-3 16.7-2.3 6.1.7 11.6 3.3 17.5 0 1.7-1 5.6-3.8 5.9-6v-.3l1.3-.2c4.7-.1 9.2 1.7 14 1.2 5.6-.6 10.6-3 14-6.8a28.8 28.8 0 0 0 23.2-2.5c2.3-1.3 1.5-1.6 4-.6 6 2.4 11.3 5.5 17.9 3.9a19 19 0 0 0 8.9-5.2c.5-.6 1.5-1.4 2.2-2.3a146 146 0 0 0 12.4 5.5c3.6 1 7.5.8 11.1-.4 2.6-.9 5.9-3.3 8.2-3.8 3-.6 9.6 3.5 13.2 5a25.1 25.1 0 0 0 19.2.5c2.2-.9 6.4-4.4 8-4.4 2.7 3.3 10.1 21.2 12.3 27.7 9 26.4 11.3 108.8 7.2 129.9l-.5 1.8a299 299 0 0 1-19 54 88 88 0 0 1-35 39.2 99.7 99.7 0 0 1-54.7 10.3c-12-.8-23.8-3.2-35.4-6.2-6-1.6-12-3.3-18-5.2-2.7-.8-5.3-1.5-7.9-2.4-4.5-1.6-6.9-1.8-11.2.3-4 2-5 7.5-2.9 11 3.4 5.8 9.5 6.2 15.4 7.9 6 1.7 12 3.3 18.1 4.8a235 235 0 0 0 35.5 6 122 122 0 0 0 62.8-10.3c2.2-1.1 4.3-2.2 6.4-3.5l-2.3 3.2c-2.2 3-.6 7.9 2.5 9.5l2.8 1.4.5 1c2.7 5.5 8.5 8.8 14.5 10.2 7 1.7 14.8.5 22 .3l19.8-.6 4.7-.2 23.6-.7c7-.2 6.6.4 13.2-2.4 3-1.3 5.3-3 7.4-5.4 1.2-.6 2.4-1.2 3.6-2 3.8-2.3 7.1-5.5 10.2-9 5.2 1.7 12.5.2 13.6-6.4 1.6-10.5 15.3-15 21.6-22.6a34.3 34.3 0 0 0 8.7-21.8c13-6.3 20-22.9 21.7-37 .7-6.4.6-13.4 1.7-20 .5-.5 1-1 1.3-1.7 3.3-5.3 6.1-10.7 8.6-16.3 3.4-2.4 7.5-4 11.8-4.2a9.3 9.3 0 0 0 2.5-18.2h-.2a26.2 26.2 0 0 0-.8-21.3l.4-2.1c5.7-6 8.9-14.5 8.5-22.7 2.6-1.8 5.5-3.2 8.6-4 4.9-1.4 5-7.3 1.3-10-1.4-1-2.6-2.3-3.6-3.7a23.5 23.5 0 0 0-3.6-22.3l9.7-12.4c2.1-2.7 3.3-7.4 0-10l-6.3-5Z" fill="#000000"/></g></g></svg>