<svg viewBox="0 0 704 704" fill="none" xmlns="http://www.w3.org/2000/svg"><g transform="matrix(.99789 0 0 1 156 62)"><g fill-rule="evenodd" clip-rule="evenodd"><path d="M432 270c-3.9-62.1-24-132.7-83.5-163.2-131-52.6-303.1 79.8-312.2 215-3.2 46.3 22.5 96.9 69.4 109.7 10.5 13.9 26.3 22.3 41.9 29.6 185.6 96.3 305.5 18 284.3-191Z" fill="#FFDD00"/><path d="M474.2 231.4c-6.6-18.3-13.5-36.3-20.8-54.3-7-17.4-13.5-35.3-22.3-52C378.4 26 282.7 26 233 38.9c-25.6-11-73.7-8-100.4 2-43.3 16.2-96 79.8-114 108.3-39.9 63-64.7 147-38.3 219.9 3.5 9.5 7.9 18.3 12.8 26.8-3 4.2-6.7 8.3-10.7 12.2-11.8 11.7-23.7 23-34 36.3a180.4 180.4 0 0 0-24.8 42.5c-11.8 29-12.4 62 3.3 89.7 13.6 24 37.7 42 64.9 43.8l4.1.5c3.6 5.9 8 11.4 13 16.1C24.4 651.5 61 659 82 659.5L85 662c12.8 10 26.2 20.1 40.8 27.3 10 4.9 23 8.9 33.3 5.4 4.7 3.1 12.4 2.5 17 0A45.2 45.2 0 0 0 194 675c9.2-18.9 7-39.6 4.6-59.7l-7.6-67a276 276 0 0 0-9.4-51.8c-2.8-8.8-6.3-17.1-11-25a4 4 0 0 0 0-2c-1.6-4.9-4.7-7.4-8.5-10.8l-1.4-1.3a45 45 0 0 0-6-5.8l-2.4-2.5c-6.7-7-13-14.4-18.7-22.4a293 293 0 0 1-15.2-24c-4.8-8.2-8-17.4-12.7-25.7-.4-.7-1.5-.9-2-.3-1.5 1.6-2.5 3.3-2.3 5l-.7.2c-.3-2.7-2.8-5-6.2-4.4-5 1-9.2 1.3-13.6-.4a1112.5 1112.5 0 0 0 5.7-43.8 41.2 41.2 0 0 1 16.7 8.7c2.7 2.5 4.6 5.8 8 7.6 3.7 2 8.4-1.3 7.2-5.6-2.2-8.8-15-13.8-23-15.4-2.8-.6-5.6-.8-8.3-.8a657.6 657.6 0 0 0 2.2-26.9 45.4 45.4 0 0 1 19.2-1.5l6.3 5a1256 1256 0 0 1 21.2 17.8c3.8 3.3 8.5 0 7.9-4.6-5.3-38 18-68.1 45.2-91.5 30.1-25.9 84.9-28.9 120.7-73.7 16.5 3.3 53.3 13.3 68.5 37.5 21.3 34 18.5 64.4 20.1 102.9 1.7 38.5 5.8 78.7-3 116.7-8 35-29.9 65-63.8 78.7l-2.5 1a102.6 102.6 0 0 1-55.1 5 144 144 0 0 1-54.5-24.7c-1-.7-2.4.7-1.6 1.7 22.3 29.6 66.3 39.5 101.2 31.7l4.8-1.2a91.7 91.7 0 0 0 30.7 102.4c12.6 9.8 28 17.8 36.8 31.7 8 12.7 5.5 27-8 34.3-3.5 1.9-4.8 7.9-1.4 10.5l4 3c7.5 5.8 28.5 16.6 31.9 17 30 3.6 50.3-18.5 63.3-44.6 15.2-30.6 11.2-67.9-5.5-97-13.5-23.4-40-46.4-29.5-76a85.5 85.5 0 0 1 19-27.8c8.5-9.2 17.6-17.9 25.8-27.5a98 98 0 0 0 19.3-31.9c6-17.4 3-36.3-1.4-53.8-9.5-37.5-21.7-74.4-34.8-110.7Z" fill="#000000"/></g></g></svg>