<svg viewBox="0 0 704 704" fill="none" xmlns="http://www.w3.org/2000/svg"><g transform="matrix(.99789 0 0 1 156 62)"><g fill-rule="evenodd" clip-rule="evenodd"><path d="M297.6 145.2c-115-4.2-225 73.1-262 182.4-2.8 8.6 5.6 16.6 14 15.2C41 386.3 60 444.8 109.1 451c10 1.3 20.2.6 30.3 1.5 9 .8 58 28.3 76.2 34.8 38.6 13.5 135.8 11 174.4 0 1.4 3.2 31.4-119.9 38.2-158 2.5-16.5-20.2-28.8-18.6-45.8 2.2-21.9 27.8-48.6 20-69.4-20.7-53-80.7-67.8-132-69Z" fill="#FFDD00"/><path d="M240.4 48.8c5.2.4 10.4 1.1 15.5 2.1 15.6-2.5 31.6.3 46.7 5.2a248.8 248.8 0 0 1 95.8 57.3A131.5 131.5 0 0 1 430 160c3.5 9 5.5 18.8 6 28.5l.1 1.2c.2 3.2.3 7-.1 10.9 1.2 7.7 2.3 15.5 2.4 23.3 0 3.6-.2 7.2-.6 10.8l.1.4c-.6 4.2-1.4 8.5-2.2 12.8l-.3.2c0 1-.2 1.8-.3 2.6a284 284 0 0 1-5.3 20.6c-.2.8 0 1.4.5 1.8-1 3.6-2 7-3.3 10.5l1.8 9.1c3.3 15.7 6 31.6 9.8 47.2 7.5 31.7 19 63 22.1 95.5 2.5 25.3-1.6 53-17.3 73.6a82.5 82.5 0 0 1-56 31.1 84 84 0 0 1-31.6-1.9l-1.1-.3a52 52 0 0 1-16.5-7 33.4 33.4 0 0 1-13-8.6c-4.1-4.5-8.5-12.2-7.4-18.6-6 .5-12.1.6-18 .6-14.7 0-29.5-1.2-43.6-5.4-12.6-3.8-27.2-10.2-34.7-21.6-.3-.6.2-1.4.9-1.2 6 2.2 11.6 5 17.8 6.6a125 125 0 0 0 18.5 3.7c12.3 1.3 24.8 1.1 37 .5l4.3-.2c13.2-.7 26.9-1.7 39.2-6.7 4.9-1.9 9.4-4.6 13.4-7.8l.7-.5a63 63 0 0 1 6.7-4.7l1-1.3c5.3-6.7 10.9-13.2 15.6-20.3 9.3-14 13-28.7 13.4-45.4.6-17.7.6-35.5.8-53.2l.1-6c.3-20.2.3-40.5 1.9-60.7.7-9.4 1.7-18.7 3.3-28l.3-2 2.6-14.3c.6-3.5 1-7 1.7-10.4-.9-1.5-1.9-2.9-3-4.2l-3.3-3.6-.8-.7a26.2 26.2 0 0 1-4.9-5.3l-.3-.6c-1.6-1.9-3-3.9-4.4-6l-.2-.5-1-1.2a54 54 0 0 0-3.3-3.6c-4 7.7-9.6 14.4-17.5 18.5a5 5 0 0 1-7.4-3c-2.4-8-6-15.6-10.8-22.4a67 67 0 0 1-35.6 28.9c-3.8 1.2-7-2.7-6.2-6.2a83.4 83.4 0 0 0 1.7-32.5c-5.7 4-11.5 7.8-17.5 11.3a198.8 198.8 0 0 1-42.9 26.2c-3.6 1.6-9-1-7.3-5.6 1.3-3.9 2.5-7.8 3.2-11.9l.1-1c-35.9 49.5-123 97.3-129.6 97.7h-.2c4.2 4 7.6 9 9.8 14.6 2.3 6-7.2 8.5-9.6 2.8v-.1a30.2 30.2 0 0 0-23.2-18.2c-6.1 1-12 4-15.9 8.5-7.7 8.8-7.8 19.4-2.5 29.4l.8 1.4c2.9 5.4 5.9 10.7 7.5 16.6 2 7.2.5 14.5 1.8 21.7v.4c.6 3.2 2 6.8 5.8 6l.8-.3c.8.6 1.8 1.1 3 1.5 3 .8 6.2.4 9.1-.3 2.9-.6 5.6-1.7 8.3-3 .3.8.4 1.6.5 2.3 0 3.7-1.5 6.8-3.9 9.3 3.8 4.7 7 10 10.7 14.9 5.2 7 10.6 13.8 16.3 20.5 5.9 6.9 12.3 13.4 19 19.6 4.7 4.3 12.5 9 15.4 15.2 3.4 1 6.3 3.6 7.3 7.9 2 7.7 2.5 25.8 1 33.6-1.5 7.8-7.2 12.7-13.5 16.8a5.1 5.1 0 0 1-5.3.1c-1.4 1.4-3 2.7-4.8 3.8a53 53 0 0 1-22.3 6.5 67.3 67.3 0 0 1-32.8 2.2c-3.7.4-7.3.8-11 1a346 346 0 0 1-111.7-8.3c-16.7-4-32.5-11.5-47.2-21-25.3-16.4-36-62.5-21.3-106.6l1.1-3.5a399.3 399.3 0 0 1 23.4-57.6l1.1-2.2a220.2 220.2 0 0 1 31.4-47.4c6.4-7 13.9-13.3 22.3-17.8 3.2-1.7 7-2.8 10.6-4.2l.1-.9.1-.9a239.7 239.7 0 0 1 18.5-72.4 269 269 0 0 1 27.1-48l2.3-4.6a155 155 0 0 1 35.5-47.1 159 159 0 0 1 59.4-30.5 314.8 314.8 0 0 1 69-12.8c12.3-.8 24.6-.8 36.8.2Zm-163.6 281c11.3-7.4 26.6-2.3 32.3 9.6 4 8.6-9.5 13.5-11.7 4.9a18.6 18.6 0 0 0-20.1-13.5c-.6 0-1-.7-.5-1Z" fill="#000000"/></g></g></svg>