<svg viewBox="0 0 704 704" fill="none" xmlns="http://www.w3.org/2000/svg"><g transform="matrix(.99789 0 0 1 156 62)"><g fill-rule="evenodd" clip-rule="evenodd"><path d="M394.1 209.1c1.1-10-10.7-37-10.4-31.6-19-29.3-56.1-40.8-88.1-50.5-68-22.4-121 4.6-168.7 52.6-28.2 26.4-55 55.8-69.1 92.2-27.8 69.5 13.9 148.7 77.3 182 5.1 2.7 10.7 5.3 15.6 8.7 26.2 15.1 57 20.4 86.2 27 54.6 12.4 123.3 6.5 155.5-45.5 21.8-37 16-81.7 14.3-122.7-2.6-36-7-76.5-12.6-112.2Z" fill="#FFDD00"/><path d="M102 106.7c35.4-33.1 87.7-49.2 135.6-46.4 26 1.5 50.9 8 74.3 19.2 7.3 3.5 14.5 7.6 21 12.4a119.5 119.5 0 0 1 60.7 59.4A139 139 0 0 1 405 184l.4 1.9c1.1 5.7 3.4 13.2.5 18.5a10.3 10.3 0 0 1-9.5 5.5c.8 3.3 1.8 6.5 2.4 9.8l1.7 9a1014 1014 0 0 1 5.1 31.4 2089.7 2089.7 0 0 1 10.9 96.8l.8 8.1c1.3 14 2.4 28 1.4 42a97.3 97.3 0 0 1-20.3 55.6c1.2 2.9 1.6 6.1 2.5 9.7 1.2 5 2.9 9.8 4.6 14.6l2.4 5.6 2 5 1.7 3.3c1.8 3.6 3.5 7.2 4.6 10.9 7 3.7 12.9 10 13.2 18.3.2 7.7-3.8 15.8-10.4 19.6-6.7 3.9-13.4 2.4-19.8-.6a29.2 29.2 0 0 1-16.8.1 28.3 28.3 0 0 1-15.7 7.2c-9 1-17.6-1.5-26-4.8l-.5-.3c-.3 0-.5-.2-.8-.3-9.5-.4-19-4.2-25.8-11a34 34 0 0 1-6.6-40c-1.2.2-2.4.2-3.6.2-15.8.5-31.5-.3-47.2-1.3l-3.7-.3c-10.2-.7-25.1-2.5-25.4-15 0-1.7 1.6-2.9 3.1-2.4 5.8 1.6 11.5 4.2 17.4 5 7.9 1.3 16 1.4 23.9 1.9h2.2a192 192 0 0 0 48.1-1.7c11.7-2.3 24-6.6 34.6-12a86 86 0 0 0 27.2-20.4c16.6-19.1 18.8-46.2 18-70.4-1-29-4.4-57.9-6.3-86.8l-.8-13c-.8-10.8-1.4-21.6-1.7-32.5-.2-7.9 0-15.8 0-23.7v-12c0-2.1.4-4.3.5-6.5a8.4 8.4 0 0 1-3.7-4 13 13 0 0 1-8-5.8c-2-2.8-4.3-5.4-6.7-7.8a87.2 87.2 0 0 0-17.7-12.9 186.9 186.9 0 0 0-42-16.6c-22.2-6.3-45.2-9.6-67.8-14.6-6.2 8.6-12.7 17-19.6 25.2-21.5 25.3-46.1 48-72.5 68-5.4 4.2-10.8 8.3-16.3 12.2-7.3 11-14.6 22.1-22.1 33l-3.2 4.8-1.3 2a296.1 296.1 0 0 1-5 7.2 17 17 0 0 1 3.5 2.5c2 1.8 1.6 4.8 0 6.7-5.3 6.1-13.8-1.9-19.9-4-6.6 2-12.1 10-14.9 16-4 8.6-5.5 19.1-3.7 28.5 1.6 8.6 6 16 13.4 20.7l.8.5.8.5a27 27 0 0 0 11.1 3.3c2.3.1 4.6 0 6.9.3 2.3.2 4.2 1.3 6.4 1.9 2.5.6 4 3.9 2.5 6l-2.2 3.1a126 126 0 0 1 14 22.9 181 181 0 0 1 29.7 60c5 18 8 38.5 3.4 57-4.2 17.1-16.5 31.2-34.8 32.2-3.8.1-7.6-.3-11.1-1.2a54.1 54.1 0 0 1-26 7.4c-7 .3-14.5-1.2-20.2-5.4-6.8 3-14 4.6-20.4 5a34 34 0 0 1-20.4-5.4A66.2 66.2 0 0 1 8 569.8a39.4 39.4 0 0 1-36.1-3 29.6 29.6 0 0 1-12.9-32.2c3-11.5 12.5-20 21.3-27.3l1.8-1.4c8.7-7.2 17.6-14.1 23.2-24.2a80 80 0 0 0 8.8-35.2c1.2-26.7-4.2-53-5.8-79.6a414 414 0 0 1 3-82c7.2-52.7 26.3-104.5 60.8-145.6 5-6 10.3-11.6 16-17 4.3-5.6 9-11 14-15.6ZM561.2 408h.5l.3.3.9.8c.3.3.2.8 0 1.1-.3.3-.7.3-1 0h-.1l-.9-.9-.2-.3v-.5c0-.2.2-.5.5-.5ZM92 326.3c8-2.4 17.6 3.4 22.4 9.5 2.4 3 3 7.2 0 10.2-2.6 2.6-7.7 3-10.3 0-2.8-3.4-5.2-8.2-9.3-10.4-4.4-2.4-10.4-1.8-11.4 4-.2 1-1.6.7-1.7-.2-.4-6 4.8-11.4 10.3-13Z" fill="#000000"/></g></g></svg>