<svg viewBox="0 0 704 704" fill="none" xmlns="http://www.w3.org/2000/svg"><g transform="matrix(.99789 0 0 1 156 62)"><g fill-rule="evenodd" clip-rule="evenodd"><path d="M407.9 144.5c-2.3-5.6-6.2-12.7-12.7-13-5.1-15.5-17.8-31.3-35.3-30.9-51.6-52.7-116.5-50.2-184.3-39-35.8 6.6-72.1 19.6-98.8 45.2-32 30.2-44.5 83-19.4 121.1-21.7 11.6-22 39.1-12.8 59-11.2 7.7-11.8 26.4.7 32.2-.7 2.8-.2 5.6 1 8-6.1 5.2-14.2 9-21 12.3a9.9 9.9 0 0 0-5.3 6.5c-22 14.4-76.6 49.6-76 77.6-.3 14.6 10.5 24.2 23.7 28-7.8 15.7-13.8 34-6.3 50.9 2 5 17.6 20 18.4 20.3 1.4 1.2 23.6-9 34.5-14.2 2 13.6 16.7 20.8 29.3 16.1 12-3.6 19.2-13.7 26.8-22.9 10 21.8 39.4 22 58.4 12.7 17-8 30-22.4 37.3-39.8a205 205 0 0 0 125 16.8c2.6 4.7 8.5 7.9 13.8 6 22.2-6.6 46.7-7 65.5-22.3 39.2-28 42.5-80 39.8-124.1-2.5-44-.3-88.5-8.4-132 3.5-13 9.3-24.3 14.7-36.3 5.8-12.7 5.6-31.5-8.6-38.2Z" fill="#FFDD00"/><path d="M230 57h1.5a277.3 277.3 0 0 1 50.2 5.2l2.4.5 12.8 2.8 11 2.6a342 342 0 0 0 13.5 3h.5s29.2 14 38.7 23.3l1 .9.3.4 4.1.1v.5c4.2.7 7.9 2.8 11.3 6l.4.4.3.4a59 59 0 0 1 7.7 10.2l.7 1 1.2 2 1 1.5 1.8 3 .6.9.4.7 10.6 6.2c1.5.9 2.9 2 4.2 3.4l.3.4.3.4 3 3.4-.7.6.3.4.5.7.5.7.5.7.2.3.3.7.2.3v.3l.5.2.7 1.3a48.7 48.7 0 0 1 3.8 38.2c-1.1 3.4-2.6 6-5.2 9.7l-2.1 2.8-.4.6-.5.7-.3.3c-3.3 4.9-32 14-49.5 14.5h-1.2a91 91 0 0 1-25.3-4.5l-1.6-.5-8-2.7-.7-.2-.7-.2c-1.8-.6-3-.9-4-1h-.2V201c0 3.7-2.2 6.4-5.7 8.2a31.4 31.4 0 0 1-8.7 2.4l-.6.1a195.6 195.6 0 0 1-26.1 1.6c-2.6-.1-4.5-.6-8.2-1.6l-1.8-.5-1-.3c-1.7-.5-2.7-.7-3.6-.7h-.5c-1.2 0-2 .2-2.7.8l-.5.4-5.4 4.5-1.8 1.5-.2.1a38.7 38.7 0 0 1-23 9.5H224.8a30 30 0 0 1-12.2-4l-1-.4-.7-.4-1.2-.6-3.7-2-2-1a26.4 26.4 0 0 0-4.3-2h-.2c-2 2-3.7 4.4-5.6 7.7l-.2.6-.4.7-2.6 5.2-.5 1c-2 3.7-3.5 6-5.5 8.2-2.9 3-6.4 4.8-10.7 5h-.9c-2 0-4.2-.2-6.5-.9l-.6-.1-.5-.2c-3.5-1-9-.4-13.3 2-4.7 2.4-7.3 6.2-7.2 11.1 0 2.5.4 5 .8 7.9l.2.8c.6 3.4 1.5 7 2.8 11.6l3 9.8.3 1.1.3 1.2 1.2 4.6c1.1 5.3 1.3 9.4.1 12.8-5.2 15-14.2 23.1-24.5 23.5h-.8c-8-.1-15.1-5.3-15-12 0-.7 0-1.3.3-2l.1-.2v-.3c-2.4-5.8-8-10-14.7-10.9h-.7l-1.1-.1h-.7c-8.9 0-17.6 5.8-24.4 15.4-1.5 2-2.8 4.2-4 6.5l-.4.8-1.9 4-1.3 3.7c-7 20.8-3.5 42.5 10.4 53.7l.4.4a33 33 0 0 0 19.3 7h1.1c2 0 4-.2 5.7-.7 1.5-.4 2.5-.9 3.2-1.5l.4-.4.1-.1 9.5 1.3a90 90 0 0 0 13.9 33l.4.8.9 1.3.8 1.3c9 13.7 18.9 25.2 29.8 34l.7.7 1 .8 1 .7c1.8 1.4 3.3 2.5 4.9 3.5l.3.3 3.6 2.2-1.6 4a83.9 83.9 0 0 1-16 24.4l-.5.7-4.6 4.7-3.6-4.5h-.4a22.4 22.4 0 0 0-6.2 4.7l-.3.3-.4.3-.5.5a37.5 37.5 0 0 1-26 11.6h-1.9A38 38 0 0 1 77 497.6c-.2-.5-.4-.7-.8-.8H76c-1 0-2.3.7-3 1.5l-.1.1-2.4 3.2-.9 1.2c-8.4 11-15.3 17.1-24.6 19l-2.3.2h-.8c-4 0-8.6-1.1-12.2-3.2-4.8-2.6-7.7-6.8-7.3-12v-.8c.4-2.7-1.8-4.2-3.5-2.9l-.1.1-.1.1A68 68 0 0 1-4.8 518l-.7.2-1.2.4a42.6 42.6 0 0 1-13.2 2.8c-3.5 0-6.4-1.2-8.4-3.6a16.2 16.2 0 0 1-3.1-6l-.2-.4-.3-1-.2-.7a61 61 0 0 1-.6-28.4c1.5-7.7 3.8-15.2 7.7-25.6l.8-2 1.5-4.1c.2-.4-.8-1.9-1.3-2H-26.7c-12.7 0-22.4-12.5-22.3-25.6 0-12.4 6.3-23 18.1-35.6l1-1 1.2-1.2 1-1.2A248 248 0 0 1 5 355l1-.7 1-.7c3.7-2.7 7.4-5 12.5-8.2l3-1.9 12-14.3 1-.5v-5l11.8.3c-3-1.5-5.5-3.4-7.5-5.7-6.6-7.9-5.7-18.8 2.3-24.2l.3-.1 3.4-2.1 2.8 2.4c2.4 2.1 5 3.5 7.6 4.2h.5l2 .5.5.7.2-.4v-.1l-.4-.4-.2-.4-4-4-1.3-1.2-1-1a34.6 34.6 0 0 1-11.8-25.4 36 36 0 0 1 20.9-32.4c.4-.2.7-1.7.2-2.6a103.9 103.9 0 0 1-9.4-74 108.2 108.2 0 0 1 40.1-59.4c35-27 83.3-40.8 134.6-41.3h3Z" fill="#FF0000"/><path d="M43.6 331.5c2.3-.6 3.6 2.5 1.6 3.8-12.4 7.9-25.3 15-37.3 23.6-11.5 8.1-22 17.5-31.9 27.5l-1 1.1c-9 9.2-18.8 20.8-19 34.3 0 10.5 8.1 22 19.4 20.6 4.3-.5 8.2 5 6.7 8.8l-1.6 4.1c-6.3 16.6-12.7 35.4-7.7 52.9l.2.6c1.2 4 2.5 7.5 7 7.5a62.8 62.8 0 0 0 35.2-16.6c5.8-5.4 13 0 12.3 6.8v.2c-1 7.6 11 11.2 16.6 10 10.9-2 18.7-13 24.8-21.3 3-4 10.2-5.6 12.8 0a33 33 0 0 0 28.4 19.6 32.6 32.6 0 0 0 24.2-10l.5-.5c2.7-2.9 4.6-4.4 8-6.3 3.5-1.8 8 .5 8 4.5-.1 5.3-1.7 8.7-5.3 12.5a48 48 0 0 1-35.4 14.8 48 48 0 0 1-35.5-18c-8.7 10.4-19.5 20-33.5 19.7a29.1 29.1 0 0 1-25-14.1A77.2 77.2 0 0 1-5.6 528l-.7.2c-11 3.2-23.6 4.4-30.7-6.5-6.7-10.2-7.1-24.4-5.6-36.2 1.3-10.4 4.6-20.4 8.3-30.2A33.7 33.7 0 0 1-56 431.7c-4.2-16.1 4-31.8 14.2-43.7 11-13 25-24 39-33.7a148 148 0 0 1 46.3-22.8Zm359.9-126.1c0-.5.7-.6.8-.1 4.8 35 7.6 70 10 105.4 1.1 17.8 2.5 35.7 4 53.6 1.3 17.1 3.7 34.7 3.1 52-.8 26.9-13.9 48.8-35.3 64.5a151.7 151.7 0 0 1-71.1 25.8 180.6 180.6 0 0 1-66.3-3.7l-3.2-.8c-5.8-1.5-12.4-3.5-13.2-10.4-.4-3.3 1.4-5.8 4.3-7.5 3.7-2.2 8-.9 11.8.1a172.4 172.4 0 0 0 63 5c24-2.6 49.5-10.4 68-26.5 8.1-7 15.1-15.6 18.8-25.8 4.8-13 4-27.3 4-41-.4-31.7-.1-63.5-.6-95.3-.4-31.9 0-63.5 1.9-95.3ZM161 56.8c28.2-7.2 56.8-9.1 85.7-7 27.3 2.1 58.4 8.2 80.6 25 1.1.8.5 2.4-.9 2.1-14.9-2.3-29.4-6.7-44.2-9.5A278.2 278.2 0 0 0 239 62c-49.1-1.6-103.8 9.5-143.4 40.1A103.4 103.4 0 0 0 57.2 159a98.9 98.9 0 0 0 9 70.3c1.6 3.1 1 8-2.5 9.6a31 31 0 0 0-18 27.8c0 5.7 2 11.3 5.2 16 3.4 5 8.5 8.5 12.3 13.2a5.2 5.2 0 0 1 .4 6.1c2.2 1 4.5 1.5 6.7 2.7 1.8 1 1.9 4 0 4.9-4.8 2.4-10-.2-13.2-4l-1.5-2.2a23 23 0 0 1-10.3-5.4c-5.8 3.5-6.6 11.1-1.6 17 2.5 3 6 4.8 9.7 6.2l.4.1c3.6 1.3 6.8 2 9 4.8 1.6-3.1 3.3-6.1 5.3-8.8 7-9.9 17.8-18.6 30.7-17.5 10 .9 18.7 8 20.8 18 .2.7-1 1.3-1.3.5-4.8-11.2-20-11.6-29.2-5.8-10.7 7-16.5 20-18.8 32-2.4 12-1 26.5 7.9 35.5a24 24 0 0 0 13.8 7c2.5.3 4.8 0 7.2-.5l1.6-.3c1.1-.3 2.2-.5 3.4-.4l1.7.3 1 .4c.9.4.8.3-.2-.3 3-.2 4.5 2 4.6 4.4.1 0 .2 0 .3.2 11.2 13.7 19.6 29.5 31.5 42.8l3.5 3.9c9 10 19.2 20.8 31.3 26l1.5.6c3.5 1.4 7 3.5 7.5 7.8.4 3.8-2.6 6.7-6 7.6-8 2-17-5-22.8-9.7-12.5-9.9-23-22.5-31.6-35.8l-.9-1.4a100 100 0 0 1-15.8-37l-.4.7a9 9 0 0 1-1.5 1.6c-1.5 1.2-3.2 2-5 2.5-3.5 1-7.3 1-10.9.7a38 38 0 0 1-19.7-8c-17.4-13.6-19.5-39-12.4-59.6-5.8 1.4-12.4-2.5-16.9-5.8a25.2 25.2 0 0 1-10.4-15.9c-1-6.4 3-15 9.1-17.4a48.1 48.1 0 0 1-10.3-27c-.7-15 7.3-29.2 19.5-37.3a113.1 113.1 0 0 1-6-79.5c15.4-52 66.9-81 116.2-93.7Zm-43.8 394.6.2-.4c1.2-4 2.8-12 8.8-9 5.7 3 2 11.5 0 15.7-2.4 5-6.5 9-12 10.1-4.6.9-9.6-.2-12.7-3.7a11.9 11.9 0 0 1-2.4-4.4l-.5 1a51 51 0 0 0-6.8 9.2c-.4.8-1.8.2-1.4-.6 2-5.2 1.7-13.3 6.5-17 4.2-3.4 8.1-.8 10.3 3l.2.3c3.2 5.9 8.4.3 9.8-4.2Zm-45.6-18.8.4-.6c4.5-6.2 12-13.5 19.7-7.8 2.4 1.8 2.4 4.8 0 6.6l-1 .7c-3.3 2.3-6.6 4.5-9 7.9-2.7 3.7-5 7.5-8.6 10.4-6.3 5-16.4 6-21.8-.8l-.6-.7c-.4-.5-1-1.2-1.4-2l-.3.5v.1l-.2.2c-2.2 3.5-5 6.5-8.6 8.8a25 25 0 0 1-21.8 2.7c-.7-.2-.5-1.2.2-1.3 9-.8 17.7-7.2 21.4-15.4l.4-1c1.5-3.2 3.1-6.3 6.8-7.6a9 9 0 0 1 9.7 2.8c2 2.2 2.5 6.7 6.2 5.7 4-1 6.3-6.1 8.5-9.2ZM46 378c2-1.6 5 0 5.6 2.2 2.5 10-7.8 21.6-17.7 22-2.5 0-5-.6-7.2-1.8-1.8-.9-3.8-3.2-5.8-3.6-2.4-.5-4.6 2.8-6.4 4.5-2.2 2-4.3 4-6.7 5.8-1 .8-2.5-.5-2-1.6l.7-2.1c3-7.8 8.1-19.2 17.7-16 4.7 1.6 8.2 7 13.2 2.7 4-3.4 4.3-8.9 8.6-12.1Zm42.3-40c9-10.2 30-4.8 33.9 7.7.9 2.8 0 6.3-2.2 8.3a8.7 8.7 0 0 1-10.3 1.3c-3-1.7-4.2-4.5-6.4-7a26.2 26.2 0 0 0-12-7c-1.1.7-2.1 1.4-3 2.4-.6.4-1.5-.2-1-.8.5-.7 1.2-1.5 2-2.1l-.3-.1c-1.2-.4-1.5-1.8-.7-2.6Zm58-113.1c2 0 4.4 1.8 4.1 4v.6c-.6 4.2-2 6.6-6.2 8.5a33.6 33.6 0 0 1-15.7 3l-.4 1.9c-.6 3.8-1.2 7.7-1.4 11.6-.2 7.2 2.5 13.2 5.4 19.7a42 42 0 0 1 .2 37.2 6 6 0 0 1-5.5 3.1c-2.6-.2-3.9-1-5.4-3-1.3-1.8-1-4.4 0-6.2v-.2c3-6 4-12.6 2.5-19.1-1.5-6.1-4.8-11.6-6.3-17.7-2.4-10 .2-19.8 5.2-28.3-3.8-1.1-7.3-3-9.7-6-.8-1-.4-3 1.2-2.9l1.8.2c5 .4 9.7.8 14.9-.6 2.6-.7 4.9-2 7.1-3.4l.5-.3c2.8-1.9 4.4-2.1 7.7-2.1Zm12.2-73.4c12.7-.8 23.6 7.6 28.9 18.8 5.7 12.2 3.3 26-1.8 38l-1.4 3.4c-2.5 5.7-5.8 12.6-11 15.7-5.8 3.5-10.8-.5-9-7 1-3.8 3.7-6.7 6-9.9 2-3 4-6 5.6-9.2a43.6 43.6 0 0 0 5.8-20.4c0-13-8.7-28-23.1-27.8-1 0-1-1.6 0-1.6Zm64.3-21.1c-.8-.6 0-2 .8-1.4a64.5 64.5 0 0 1 28 44.3c1.3 9.6.3 19.9-3.8 28.8-2.3 5-6.3 10-12 11.3a10.2 10.2 0 0 1-12.1-6.7c-.6-2 .4-4 2-5.1 5.3-3.5 9.5-7.9 12-13.8a49.8 49.8 0 0 0 3.6-19.2 46 46 0 0 0-18.5-38.2Zm180.3 6.7c-.7-.8.2-1.9 1-1.4a38.4 38.4 0 0 1 19.4 28.1c2 11.5-.6 27.2-9.5 35.5-5 4.7-14-1.5-9.9-7.6 3-4.2 6.1-7.8 7.8-12.8a42.8 42.8 0 0 0-8.9-41.8Zm-130.4-14.5c18.2-.8 29.2 20 31.8 35.5 1.5 9.6.3 19.4-5 27.8l-.3.4c-4.3 6.7-12.3 14.3-20.8 11.2-3.6-1.4-4.6-5.2-2.2-8.2 3.8-4.5 9.5-6.3 13-11.1 4-5.4 5.2-12.2 5-18.7v-.7c-.6-12.1-6.4-35.2-21.5-34.8-.9 0-.9-1.3 0-1.4Zm57-3.4c17.6-2.3 28.3 18.5 31.6 32.8 2.1 8.9 2.6 18.9 0 27.7l-.3.7c-2.1 6.6-8.5 18-16.8 14.5-2.3-1-4.6-3.4-3.5-6.1 1.4-3.5 3.4-4.4 6-6.7 2.1-1.7 3.6-4.1 4.6-6.5 2.9-6.5 3.5-14 3-21v-.8c-1-13.6-8.3-33.9-24.6-33.5-.8 0-.7-1 0-1.1Zm32.2-19.5c9.9-3.7 17.9 5.6 23.5 12.3 7 8.4 13.5 17.5 17.1 28 3.3 9.2 3.8 19.6 1 29-1.5 4.7-3.8 9-6.8 12.9l-.4.5c-3.2 3.9-6.3 6.2-11.5 4.9-2.1-.6-3-2.7-2.6-4.7.7-4.3 3-5.4 5.8-8.4a27 27 0 0 0 5.7-9.3c2.6-7 2.7-14.7 1-22-2-8-5.8-15.6-10.3-22.6l-1-1.5c-4.6-7.5-11.3-19-21.3-17.7-.8 0-.8-1.1-.2-1.4Z" fill="#000000"/></g></g></svg>