<svg viewBox="0 0 704 704" fill="none" xmlns="http://www.w3.org/2000/svg"><g transform="matrix(.99789 0 0 1 156 62)"><g fill-rule="evenodd" clip-rule="evenodd"><path d="M256.6 39c56.8 0 127.9 64.7 148.7 92.3 17.5 23.2 15 142.6 15 213.4 0 14.8-6.7 42.8-9.1 57-9 52-47.7 95.4-124.5 95.4-62.6 0-110.7-19.8-157.2-70.4-10.6-11.6-62.5 29.8-73 14.9-27.8 0-51-258.8 3.4-336.4C114.3 27.6 199.8 39 256.6 39Z" fill="#FFDD00"/><path d="M86 57.2a172.4 172.4 0 0 1 120.5-43.1 223 223 0 0 1 67.2 12.3C284.5 30.1 295 35 305 40.5c3.6 2 7 4.4 10.2 6.8l.7.6A69 69 0 0 1 339 63c14-1 28 .2 41.4 4.5 18.7 6 36 16.9 48.2 32.4a88.6 88.6 0 0 1 17.2 62.8l-.3 3.8c-1.6 20-4.6 45.8-21 59-1.3 1-2.7 1.7-4.1 2.2a232.2 232.2 0 0 1 24.5 58.6c19.8 77.7 4.5 158.7-19.3 233.6-2 6.2-11.3 10.3-16 4.2a52.6 52.6 0 0 0-34.7-20.5c-8.6-1-17 .8-25.2-3.1a23 23 0 0 1-8.4-7 108.9 108.9 0 0 1-42.9 7c-24-1-49.5-9.3-66-27.5-2.6-3-3.2-6.2-2.6-9.1 2-.8 4.2-1.3 6.3-1.7a140.7 140.7 0 0 0 68.6 21c14.3.4 28.2-1.6 39.8-10.6 2.5-1.9 4.8-4 7-6.3 24.1-15.6 41.2-42 49.3-70.4 7.6-26.4 6.7-54 4-81l-1.3-14.3c-2-21-3.9-42-4.4-63.1h.2c5-.4 5.1-8.4 0-8-13.4.8-26.6-1.4-39.8-.4-.2-6.3-.6-12.5-2.5-18.6-1-3.4-7-4.1-7.7 0-.8 5.6-1.1 11-1.2 16.6-19.9-.2-39.8-2-59.6-1.2-3.7-4-4.9-10.9-6.6-15.7l-.7-2.1c-1.5 6.9-3.7 13.6-6.5 20.2h-4.9c-27.6.2-55.8 1-82.8 6.7-2-1.4-3-4-3.3-6.2-2-14.9-4.8-29.3-9.7-43.5l-.8-2-.1-.5a108 108 0 0 1-12.8 16.5c-2.8 3-5.7 6-8.7 8.7l-9 9.7.4 1.8A98 98 0 0 1 133 275l-.2 1c-.8 5.2-2 10.5-4.9 14.4 3.6 4 6.3 8.6 7.8 13.8 1.4 4.7-5 8.7-8.3 4.9-2.7-3-5.6-5.5-8.8-7.5-.3.2-.6.4-1 .2-9-5-24.3-3.5-33.3 1.2-11.1 5.8-15.5 17.8-14.3 30 1.2 11.6 6.3 25.1 16.2 31a14.6 14.6 0 0 0 17-.6l.9-.6c3.1-2.5 6-4.2 9.7-4.3a7 7 0 0 1 9.1 4.4l.1.3c.7 2 2 4.6 1.7 7.7a14.7 14.7 0 0 1-5.4 10c39.1 42.3 44.2 108.3 24.1 161.2l-2.8 6.8c-3.3 7.8-16.2 5.4-17.8-2.3a160.3 160.3 0 0 0-5.4-19.4l-.5-1.5-3.5-10.3-.1-.4-.2-.5-2 4.4-6.2 13.4c-2.9 6.3-12 2.9-12.4-3.1v-.3l-.1-3.3c-.5-8.1-1.9-16-4.1-23.8l-.8 1c-12 14.8-26.2 28.8-45.6 32.2-4.8.9-10.3-4.2-7-9.1l4-6.2a61.2 61.2 0 0 1-21.6-18.3 88.4 88.4 0 0 1-15.5-49.3c-1-18.5.6-37.9 5.6-55.6 2.2-7.7 5.1-15 8.6-22.2l-.7-2A305.8 305.8 0 0 1-2 275.5C-2.7 236 4.1 196 18.5 159.3c14.8-38 37-74.4 67.3-102ZM67.4 402c-2.7-4.2-9.5-.4-7 4 4.4 6.9 6.4 14.6 8.9 22.2 1.6 4.8 9.3 2.8 7.7-2.2l-.5-1.6c-2.5-7.7-4.7-15.5-9.1-22.4Zm23.7-81.6 1.8-1c5.7-2.6 10.6-4.5 17.4-2.1 9 3.2 18.6 13.3 12.5 23a9.5 9.5 0 0 1-10.3 4.2c-6.9-1.4-8.7-7.6-12.2-12.7l-.6-.9c-2.1-3-4.8-7.4-8.4-8.6-.8-.2-1.1-1.5-.2-2Zm5-207.9.6-.5c3.9-3.4-1.8-9-5.6-5.7-17.7 15.6-23.8 40-33 60.7-2 4.7 5 8.8 7 4 8.7-19.7 14.5-43.5 31-58.5Zm211.8-6.8c-4.6-2-8.7 4.6-4.2 6.8l.1.1c15.6 7 22.2 23 28.6 37.7 2 4.8 8.9.7 6.9-4l-1.2-2.6c-6.6-15.3-14.3-30.8-30.2-38Zm24.4-9.6c-5-1.7-7 6-2.2 7.7a61.2 61.2 0 0 1 30 25.8c2.8 4.2 9.7.2 6.8-4A70.2 70.2 0 0 0 332.4 96Z" fill="#000000"/></g></g></svg>