<svg viewBox="0 0 704 704" fill="none" xmlns="http://www.w3.org/2000/svg"><g transform="matrix(.99789 0 0 1 156 62)"><g fill-rule="evenodd" clip-rule="evenodd"><path d="M391.8 167.6c-30-41.4-85.4-53.3-133.4-43.2-93.8 17-183.4 88.7-200 186C32.5 369.3 49.1 462 124.3 469c10.7.6 21.3-1.9 32-.6 65.5 10.5 142.9 55.3 200.8 2.5 3 2 6.7 3 10 1.8 24.7-9.5 25.8-37.1 28-59.8 2.6-29.3 5.2-58.6 7.6-87.9.8-50.6 20.9-113.7-10.9-157.4Z" fill="#FFDD00"/><path d="M210 62.2c39.4-2.1 112.2 16 146.7 37.2 56.1 34.5 60.5 103.5 58.2 115.4-.9 4.5-3.7 8.7-8 7.3 3.7 31.4 3.4 49.3 4 80.8l.4 21 .6 42c1.4-.5 2.8.2 3.3 1.5.2.4-.3.6-.5.4-2.5-2.2-.7 2.8.1 3.8 1.2 1.4 3.2 2.7 4.6 3.9l3.8 3.2 3.8 3.3c4.8 4.2 9.5 8.4 14 13l1.3 1.2c8.3 8.4 18.7 16.6 23.9 27.4 4.9 10.4 3.4 22.2-4.8 30.5-3 3-6.5 5.3-10.2 7a36 36 0 0 1 .6 37.2 36.5 36.5 0 0 1-33.5 16.5c-.4 1.6-1 3.2-1.9 4.7-5.1 9.5-15.4 10.8-25.1 10.3h-.4c-22-1.3-43-6.8-62.2-17.5-6.7.5-12.6-5-14-11-3.4-.1-7-.4-10.5-.8a80 80 0 0 1-31-9c-1.4-.8-.8-3 .8-3 11.5-.3 23 .5 34.3-.7 10.5-1.2 21.7-4 31.5-8 17.5-7 32.6-19 40.9-35.7 10.8-21.6 9.8-47.4 11-70.8 1.2-26 2.8-51.8 4.5-77.7l.9-12.4a541 541 0 0 1 7.2-62.2c-12.7 1.1-65.2-17.8-81.6-48.7-31 65.8-188.1 38.9-195 140.2-.1.9-1.5.6-1.5-.2l-.2-2.3-.1-3.4v-1.1h-2.5c0 .3-.5.4-.6.1-2.3-6.6-13.4-4.5-18.2-2.9a43.6 43.6 0 0 0-12.2 6.3 36.5 36.5 0 0 0-15 21.8c-3.6 17.2 7.4 34.8 22 43.1 9.2 5.3 19.3 8.7 28 14.6 7.9 5.3 15.1 11.4 21.4 18.4 25 27.7 39.6 69.7 27.8 106.2-.9 2.8-3.3 6-6.4 6.5-5.2.7-10.4 0-13.4-5-1.1-2-1.6-4.1-1.5-6.3-2 7-8.6 13.8-14.6 16.4a26.9 26.9 0 0 1-24.8-2.1l-1 .7c-11.7 8.7-25 16.6-40 15A39 39 0 0 1 47 522.7a115 115 0 0 1-25.6 10.6l-1 .3c-12.1 3.3-27.7 6.4-39.1-.4-11-6.5-14.6-20.6-12-32.5a33 33 0 0 1 1.2-4c-8.3.4-16.5-.4-24.3-2.9-8-2.4-15.6-7.2-19.5-14.9a34.8 34.8 0 0 1 0-27.5 111 111 0 0 1 23.8-37.9c10-10.6 21.9-19.6 34.3-27.1l2.1-1.3c11.2-6.6 24.7-14.4 38-14l-.2-.4c-2-14.8-1.7-29.8-2.2-44.6-.4-13.7-1-27.4-1.3-41-.5-23.3-.3-46.6 2.7-69.7 2.7-20.5 7.6-40.4 16.4-59.2a135.3 135.3 0 0 1 40.5-49.7c36.1-27.8 84-42 129-44.3Zm-123 273c4-7.5 13-9.8 20.8-8.5 11 1.9 18.5 11.5 25 19.8 6.8 8.7-7.4 16.9-11 8.5l-.8-2c-3-6.7-6.4-13.7-12.3-18-6.4-4.7-15.3-5.4-20.9.8-.4.4-1-.2-.8-.7Z" fill="#000000"/></g></g></svg>