<svg viewBox="0 0 704 704" fill="none" xmlns="http://www.w3.org/2000/svg"><g transform="matrix(.99789 0 0 1 156 62)"><g fill-rule="evenodd" clip-rule="evenodd"><path d="M407.3 307.8c-1.7-78.6-21.3-165.6-88.4-214.1-4.3-3.1-10.7-1.6-14.2 2-3 .5-5.6 2.2-7.4 5.5A4238.1 4238.1 0 0 1 172 314.9c-28.2 45.3-62.4 90.6-66.9 145.4-.8 1-8 9.3-3.8 8.7 1.9-1 3.8-1.8 5.8-2.4 5.4 7.8 17.8 6.6 20.8-2.3 10.2.3 20.4 3 30.2 6 24 7.5 48.3 15 72.8 20.7 80.6 21.4 167.3-5.9 173.7-99.9 8.7-12.2 4-66.5 2.7-83.3Z" fill="#FFDD00"/><path d="M466 501a1825.5 1825.5 0 0 1-25.3-162.2c-3.2-26.3-5.7-52.7-8.7-79-2.7-24.5-6-49.1-12.3-73-6-22.2-14.7-44.2-27.5-63.3a187 187 0 0 0-44.4-46.2A175.3 175.3 0 0 0 227 42.8c-6.5.7-12.8 1.8-19.1 3.3 2-.6 4-1.2 6-1.6.7-.2.4-1-.2-1C40.2 59.2-.6 360.9-4.3 421.7L-5 436a401.5 401.5 0 0 0-2.7 31.8c-.6 12.2-.3 24.5.8 36.7 1.2 12.5 2.5 25.4 7.7 36.9 3.2 7 152.4-2.7 154-11 3-17 4.7-34.3 3.7-51.5-.5-8.2-1.3-16.4-3-24.5-.6-2.2-1-6.3-2.3-9.6a1235 1235 0 0 1 44-75.8c32-51.7 66.1-102.4 92.3-157.5 13.2-27.6 26.1-56.8 32.3-87l1 .1c-.1.4 0 .8.3 1 28.5 19.8 47.6 49.6 59.9 81.6a305.5 305.5 0 0 1 20.3 117.2c-1.6 63.3-25.6 141.6-93.5 161.6a99.2 99.2 0 0 1-48.1 2.5c-7.5-1.5-14.8-4-21.6-7.6-7.5-4-13.7-9.6-20.7-14.2-6.4-4.3-14 4-10.3 10.3 8.2 13.9 25.7 22.4 40.8 26.6a113.2 113.2 0 0 0 53.3 1 20 20 0 0 0 9.6 15.5c.2 4 2.8 8 7 9 22.5 4.6 115.9-7.6 138.3-14.3 6-1.8 9.1-7.7 7.8-13.7" fill="#000000"/></g></g></svg>