<svg viewBox="0 0 704 704" fill="none" xmlns="http://www.w3.org/2000/svg"><g transform="matrix(.99789 0 0 1 156 62)"><g fill-rule="evenodd" clip-rule="evenodd"><path d="M195.4 82.7c151.6-7.5 162.2 36.6 183 64.7 10.3 13.9 37 34.5 41.4 82.2 3 33-16.5 71.2-16.5 100.8 0 15 18.5 47.5 9.9 69.5-19.2 49-59.7 103.3-111.4 103.3-51.6 0-147-28.5-204-110.2C79 366.2 43.7 90 195.3 82.7Z" fill="#FFDD00"/><path d="M416 333.3c-3.3-3.6-5.9-6.6-6.7-11.6-.4-2.1-.6-4.3-.6-6.4 13.3-18.6 26.2-62.5 26.2-86.5 0-33.9-12.5-66.4-33-93.4C361.9 83 295.4 56 230.3 58.1c-62.3 2-128.6 25-167.5 74.1-129 163-20.8 341 58.6 378 6.9 3.3 29.2 2.2 26-4.7-8.9-19.8-16-56.2-17.5-64.4l7.6 5c4.6 3.1 10.7 6.6 16.4 5.6.3 0 .4-.3.4-.6.3-5.4-3.5-10.9-7-14.7-4.6-5.3-9-10.8-14.1-15.8l-6.5-6.3c-.3-12.7.5-25.4 2.8-38.1 4-22 10.7-43.6 18.5-64.8 6.5-4.8 12.8-9.8 18.7-15.3 14-13.3 24.8-29.6 34-46.7l.4-.1c17.9-8.3 35.6-17 53.2-25.9l27-14 15-7.3c-1.3 7-3.2 13.8-5.4 20.5-1.8 5.5 3.8 9.6 8.7 8.7a142 142 0 0 0 68-33.2 170 170 0 0 0 21.9 26c5.3 5.3 10.8 10.2 16.5 14.8-2.6 17.9-4.8 35.7-7.6 53.5-1.5 9.3-3.3 18.6-4.4 28-1.2 10.2 2.2 17.4 8.9 24.9 9.4 10.4 9.4 25.5 5.8 38.4a59 59 0 0 1-1.6 4.7l-.6 1.5v.1l-1.4 3a258.2 258.2 0 0 1-50 68.6 155.6 155.6 0 0 1-31.2 24.3l-3.3 1.7-2 .9a48.4 48.4 0 0 1-8.6 2.5h-1.3a168.3 168.3 0 0 1-64.6-13 98 98 0 0 1-10.5-5.5c-1.5-.9-3-2-4.5-2.8-2.4-1.2-4.7-1.1-7.3-1.2-4-.2-6.7 4-5.8 7.5 1.2 4.4 3 7 6.8 9.6 3 2 6.3 4 9.5 5.6 7.1 3.7 14.6 6.6 22.2 9 14.3 4.6 29.2 7.4 44.1 8.4 10.9.7 20.3-.7 30.2-5.3 10.4-4.8 19.7-12 28.4-19.5 19.4-16.7 36.2-37 50.5-58.2 13.4-20 23.9-41.6 20.4-66.4a47.3 47.3 0 0 0-12-25.9" fill="#000000"/></g></g></svg>