<svg viewBox="0 0 704 704" fill="none" xmlns="http://www.w3.org/2000/svg"><g transform="matrix(.99789 0 0 1 156 62)"><g fill-rule="evenodd" clip-rule="evenodd"><path d="M434.8 366.8c-17-76.6-20.2-160.8-64.8-227.6-19.5-27.3-50.8-62.9-87.4-51.6 1.5-16.2 3-32.3 4.3-48.5.7-9.3 4.2-21.6-3.6-28.7C270.3 0 249 16 239 25c-21.7 20.7-30.2 40.8-58.7 54.6C169 71.4 157.7 63 146.2 55c-11.9-8-28.8-21.1-41-6.2-10.4 12.6-3.8 32.5.4 46.4 2 7 4.2 14.8 7 22.1.3 5.6.8 11.1 1.4 16.7-21.1 3.7-42.8 6.9-63 14.3-11 6-10 19.4-2.2 27.5a121.6 121.6 0 0 0 42.5 26.1c-2.9 10.2-10 18.8-18.7 24.4-3 1.9-4.7 4.6-5.3 7.5a59.2 59.2 0 0 1-14.4 5c-6.4 1.3-10 8.7-8.4 14.6 4.6 14.4 20.8 6.2 31.3 5.2.3 10 .4 20.5 5 29.8-24.4 6.4-45.5 29.8-39.9 56 5.1 25.2 32.3 32.9 53.8 38.6 1.6 1 1.6 1.9 2 4.3 3.6 16.3.7 34.2-5 49.6-1.5 4.3.8 9.5 4.2 12 17.5 11.2 23.3-22.7 43.2-1.1-1.5-.2-5.2-2-5 .6 25.9 45.4 102.2 48.2 149 49.3 5.7 2.7 12.1 1.2 18.5-.6 6.2-.3 12.3-.8 18.4-1.4 11.1-2 30.8.4 31.5-15.3 28.8-11.4 53.5-31 70.4-57a67.3 67.3 0 0 0 12.9-56.5Z" fill="#FFDD00"/><path d="M97.9 411a68.5 68.5 0 0 0 15 33l-.5.2-.5.3c-4 2-8 3-11.6 0-3.2-2.8-1.8-8.4-1.5-12.2V431l.3-2.9v-1.2c.3-3.8.4-7.6-.6-11.1-.2-.7-.6-1.1-1-1.4 0-1 .2-1.8.3-2.8v-.5ZM72.6 226.2c-2.7 10-4.5 20-5.6 30.3-3 0-6 .4-9-.3-2.1-.5-4-1.3-5.9-2.3-.6-.4-1.5-1.4-2.3-1.8 1.6-1 3.6-4.3 4.9-5.6 2-2 4-4 6.2-5.8 2.8-2.5 9.1-5.7 9.7-9.6 0-.2 0-.4-.2-.5-.6-.3-1-.5-1.6-.5.8-1.4 2-2.6 3.4-3.7l.4-.2Zm56.7-172.4.5.2 2.3 1.2a807 807 0 0 1 43.5 24.3c.9.4 2-.6 1.4-1.4l-1.3-1.9.2.2c1.6 1.2 4.2 3.8-.6 7.3-11.6 8.3-22 18.2-31.8 28.4a239.8 239.8 0 0 0-39.2 53.2 131 131 0 0 0-21.5 33l-5-2.3c1.3-.2 2.5-.7 4-1.6l.4-.2.7-.4c2.3-1.3 3-5 .8-6.8-1.8-1.6-2.6-2.9-5-3.7-2.2-.7-4.4-1-6.6-1.6a45 45 0 0 1-22.2-14.5l-.7-.8-.6-.9c-1.3-1.6-2.8-3.7-2-5.5.8-1.7 4.5-3.7 6.2-4.7l1-.6c17.2-10.6 37.1-12 56.4-16.3.7-.1.5-1.2-.2-1.3-3.6-.3-7.1-.5-10.7-.6l14.7-2.6-.8-8.4c2.2 1.8 5.1 2.4 9.2.3 3.3-1.7 4.4-6 3-9.3-.4-1-1-2-1.8-2.6l-.2-.2L121 103l-5.3-24-.1-.8-.2-.7-1-4.2c-2-7.8-4.1-18.4 2.6-22 3.8-2.1 8.7.8 12.3 2.6Zm149.5-35.2.1.7.4 1.7a150.7 150.7 0 0 1 1 50.3c-.5 4.5-1.8 9-2.1 13.6-1.4 1.7-2.7 3.6-4.1 5.2-3.8 4.2-8.4 7.4-14.2 7.4-11.3.2-20.7-8.6-31.6-10.5h-.7c-1.8-.4-16.1-4.1-14.4-10.3l.1-.3a5 5 0 0 0-1.3-5 8 8 0 0 0-2-1.4c11-19.6 25.9-36.3 46.2-47.3l2.8-1.5 1.5-.8c4.7-2.3 10-4.8 14.8-5.2 2.5-.2 3 1.4 3.5 3.4Z" fill="#FF0000"/><path d="m260.2 4.7 1.6-.8C267.6 1.4 274-1 280.3.4c7.3 1.6 11.5 7.9 13.3 14.7 2.1 8 3 16.4 3.6 24.5.6 8.5.4 17-.2 25.4-.6 7-1.7 15.2-4.3 22l.4-.2c10.4-1 19.9-.4 29.8 3 9.2 3 18 7.4 26 12.9a128 128 0 0 1 40 48.3c19 37.7 23 80.4 28.3 121.6l.1 1.3c2.9 22 6.7 43.8 12.8 65.2l1 3.6c5.6 19.6 9 38.6 4.5 58.9-8.6 39.2-39 68.7-74 85.8a228 228 0 0 1-57 18.9c-20 3.8-41.8 4.4-60.1-6-9-5.1-1-18.3 8-13.8 19 9.2 40.5 6.2 60.1 1 19.6-5 38.8-12 56-22.5 29.8-18 54.8-49 55.7-85.1.4-20.3-8.3-39.7-12.4-59.3-3.7-17.2-6-34.7-8.2-52.3l-1.6-13c-4.6-37.3-10.4-75.7-29.6-108.7a120 120 0 0 0-80-58.6c-1 5.5-7 10.6-11 13.8a30.3 30.3 0 0 1-19.5 7.6c-14-.2-26-11.1-35.6-20.2-1.1-1 0-2.5 1.3-2.3 11.1 1.7 20.7 10.7 32.1 10.6 6 0 10.4-3.2 14.3-7.4 1.4-1.6 2.7-3.5 4-5.2.4-4.6 1.7-9 2.3-13.6.5-4.3 1-8.6 1.2-12.9a150.7 150.7 0 0 0-2.3-37.4l-.4-1.7c-.5-2.3-.8-4.3-3.6-4.1-6.1.5-13 4.2-18.3 7A116.4 116.4 0 0 0 210 70a8 8 0 0 1 2 1.4 5 5 0 0 1 1.3 5c-2.2 6.5-10.1 6.7-15.7 9.2-6 2.8-11.8 6.4-17.2 10.3a252.8 252.8 0 0 0-29.6 26 630.9 630.9 0 0 0-41.3 45.9l-2.8 6.2a237.3 237.3 0 0 0-21.3 84.6c-.6 10 .8 20 .7 30 .9 1.7 1.2 3.6.8 5.5 2.8.8 5.5 2 8 3.6.7.4.3 1.4-.4 1.2-3.3-.8-6.5-1-9.7-.6a9 9 0 0 1-7 3.3h-1.1c-.9 0-1.7-.2-2.5-.4a41.2 41.2 0 0 0-23.8 40 33.3 33.3 0 0 0 17.2 28c4.6 2.5 9.7 3.8 15 4 5 0 11.7-1.5 15.8 1.8.5.3.8.8 1 1.4l.9-3.7c.2-1 1.8-1 2 0l.2 1.4c3.5 19.5 4.7 39.7 18.5 55.4 6.5 7.3 14.3 14 22.2 19.5l1.4 1c3.4 2.3 7 4.6 11.1 5.4 4.5 1 8.3.7 12.4 3.2 2 1.2 3.2 3.7 2.5 6-4.7 14.3-22.8 7.9-32 2.2-5-3.1-10-7-14.6-11.2a36 36 0 0 1-13 4.7c-6.2 1-13-.4-18-4.5a18.1 18.1 0 0 1-6.2-17.2c.4-3.3 1.3-6.6 2.2-9.8l.8-2.6c1.1-3.8 2-7.8 4.2-11.1 1.2-1.7 3.9-1.5 4.5.6 1.3 4.8.7 10.2.4 15.2l-.1 1.2c-.2 3.7-1.8 9.5 1.5 12.3 4 3.4 8.3 1.8 12.5-.5l-1.2-1.6A74.6 74.6 0 0 1 98.2 382c-3.5 4.6-12.8 5.6-17.7 5.3-7.7-.6-15.2-3-21.8-7A47.6 47.6 0 0 1 37 340.4 48.5 48.5 0 0 1 56.5 300c3.4-2.4 7.2-4.3 11-5.5-1.8-7.6-2-16-1.6-24.3a31 31 0 0 1-13.7-1.6l-.7-.2c-6.4-2.3-14.5-7-15.7-14.1-1.5-8.9 9.4-14 15.8-17.5 3-1.7 6-3.2 9.1-4.5l1-.4c2.7-1 5.9-3 8.6-1.4.2 0 .3.3.2.5-.5 3.8-6.8 7.1-9.6 9.5a106 106 0 0 0-6.2 5.9c-1.3 1.3-3.3 4.6-5 5.6.8.4 1.8 1.3 2.4 1.7 1.8 1.1 3.7 1.9 5.8 2.3 3 .8 6 .5 9.1.4 1.3-12.1 3.5-24 7.1-35.6 6-19.6 16-40.2 30.2-55.6a239.8 239.8 0 0 1 39.2-53.2 237.6 237.6 0 0 1 31.7-28.4c5.1-3.7 10.5-7 16.2-9.7l2-.8c3-1.5 7-3.4 10.6-4a98.4 98.4 0 0 1 56.1-64.6ZM71.2 333a49 49 0 0 1 31.2-7.7 58 58 0 0 1 15.9 3.7l2 .8c5 2 10.1 4.3 10.3 10.2 0 2.3-1.7 4.2-3.7 4.9-5 1.8-9.2-2.5-13.3-4.7a59.8 59.8 0 0 0-13.3-5c-.5 0-1-.2-1.4-.3.3.5.4 1 .4 1.6-.1 1.4-.5 2.4-1 3.7 0 .4-.3 2.8-.6 3l.1 2.4c0 2.5-.2 4.5-1.5 6.6-3 5.3-11.8 5.8-14.7 0-3-5.8-.6-11.5 3.8-15.6 1.2-1.2 2.8-2.3 4.6-3.1-6.2-.6-12.4-.3-18.6.5-.6 0-.7-.8-.3-1Zm.5-194.7c12.5-2.1 25.6-2.6 38.3-1.3.6 0 1 1.1.1 1.3C91 142.6 71 144 53.8 154.6l-.8.5c-1.7 1-5.6 3-6.4 5-1 2.1 1.6 5 2.8 6.5a45 45 0 0 0 22.6 15c2.2.7 4.5 1 6.6 1.7 2.5.8 3.3 2 5.1 3.7 2.2 1.9 1.4 5.5-.9 6.8l-.6.4c-3 1.7-4.7 2.2-8.5 1.6a58.1 58.1 0 0 1-23-11.2l-.6-.6c-7.8-6.4-21-20.4-12.3-30.6 7.7-9 22.7-13.1 33.9-15Zm30.8-97.2c12-14.2 29-4.5 41.1 4 13 9 24.3 19.8 33.4 32.8.6.9-.6 1.9-1.4 1.4A807 807 0 0 0 132.1 55l-2.3-1c-3.7-1.9-8.9-5.2-12.8-3-8.3 4.6-3.2 19.7-1.4 27l.1.7 5.3 24 2.4 10.9a7 7 0 0 1 2 2.8c1.4 3.2.3 7.5-3 9.2-9.7 5-13-4.7-14.8-12l-4.5-17.8-2.5-9.9c-3.8-14.8-9.1-31.8 2-44.8Z" fill="#000000"/></g></g></svg>