<svg viewBox="0 0 704 704" fill="none" xmlns="http://www.w3.org/2000/svg"><g transform="matrix(.99789 0 0 1 156 62)"><g fill-rule="evenodd" clip-rule="evenodd"><path d="M393.1 242.5c.6-25-1.8-50.8-14-73.2a242.3 242.3 0 0 0-42.4-56.3c-6.7-7-15.7-14.2-14.9-25 1-11.2 7.7-35.6 8.8-47 2-22.4-14-28.5-32.7-39.2-22.6-12.8-49.6-11.3-74-5.5-45.6 10.8-99.9 29-117 77.3-4.2 11.9-3.2 24.4-4 36.8-.8 11.6-5.4 22.6-9.9 33.2-23.5 52.3-23.2 110-19 166.1-12.5 3-24.6 12.7-27.4 25.7-4.6 22.8 19.2 33.3 33.3 45.6 17.2 15 29.7 34.4 45.4 50.9C226.7 543.7 450.5 492.3 404 318.1c-6.3-24.8-11.8-49.8-10.9-75.6Z" fill="#FFDD00"/><path d="M223.9-3.7c24.2-5.7 50.9-7.2 73.3 5.2l2.4 1.3c18 10 33 16.5 31 38.2-1 11.4-7.9 35.8-8.8 47v1.1l-10.4 46.7h-56.6c-27.3-29.2-51.6-43.8-73-43.8-21.3 0-43.7 6.5-67.4 19.6l-1 .5-10.7.6.2-2.3c.8-12.4-.2-25 4-36.8C124 25.2 178.2 7 223.8-3.7Z" fill="#FF0000"/><path d="M192.5-1.3c25.2-9.8 52.4-14 79.4-10.5a141 141 0 0 1 41.7 12A117 117 0 0 1 332 10.8l.5.3c4.6 3.3 9.2 7.4 8.7 12.8.4 1.2.4 2.4.1 3.7-4.4 20.1-9.2 40.2-13.8 60.3l-2.9 12.7c31.7 23.9 61.4 56.4 72.7 95.1 11 38 6.2 77.8 10 116.6 1 9.2 2.6 18.3 5 27.2 2.6 9.6 7 18.6 9.3 28.3 4.4 19.5-2 38.6-12.3 55a177.1 177.1 0 0 1-81.3 70.2c-17 7-36 10.8-54.4 10.5-18.2-.3-38.8-4-54-14.5-10.3-7-1.5-21 9.5-16.4l3 1.3c7.7 3.2 15.3 6.2 23.5 7.9 9.2 2 18.6 2.3 28 1.7 18.1-1.1 35.3-7.1 51-16.2a171.6 171.6 0 0 0 38-30.6l1.2-1.3A134.3 134.3 0 0 0 401 397a43 43 0 0 0 3.4-23.5c-1.5-9.2-5.6-17.8-8-26.8-4.5-17-6-34.8-6.6-52.4v-1.4c-1-36 1.7-72.7-11-107.2-11.6-31.3-35.5-55.2-55-81.5l-3 13c-1 5.3-2.1 10.5-3.4 15.7v.4c.3 1 .2 2.3-.9 3.1l-.3.3a8 8 0 0 1-5.7 5c-3 .7-5.3-.5-6.6-2.7h-15.3c-9.8.1-20.5 1.3-30-.7-1.5-.3-1.4-2.4 0-2.8 9-2.9 19.6-2.8 29-3.7l14.8-1.3 2-.3h1l5.1-23c2-9.1 4.2-18.2 6-27.3 3.4-16.5 7.1-32.9 10.8-49.3A125.9 125.9 0 0 0 292 27h-1.4c-4.6.3-9.6.8-13.5 3.5-4.8 3.3-5.1 10.2-6.2 15.5-3 14.6-5 29.3-6.9 44-.9 7.2-1.5 14.3-2.3 21.5l-1 9.8c-.5 3-1.6 6-2.3 9 1.1 4.7-5.3 9-8.9 5-4.4-5.1-8.3-10.4-13.2-15-5-4.7-10.4-8.8-16.2-12.3a148.4 148.4 0 0 0-37.5-15.2c-.4-.1-.7-.4-.8-.7a186.3 186.3 0 0 0-38.1 15.4 118.9 118.9 0 0 0-58 72c-5.2 19-6.4 39.2-6.4 59 0 9 .1 18.3 1.6 27.3 1.6 10.1 5.3 19.1 8.2 28.8.8 2.5.6 4.8-.2 6.7h.7c6 1 17.8 3.7 19 10.3.2 1.8-.8 3.2-2.7 3.4-3.4.3-5.5-2.2-8.2-3.8l-1.4-.9h-.5c-16-9-35.3 4.8-38.9 20.9-3.3 15 2.3 32.3 16.8 38.9 7.3 3.3 15 5.3 21.8 9.9a71.6 71.6 0 0 1 15 13.6c9 10.7 15.7 23 23.6 34.4 3.5 5 7.3 9.8 12 13.9 5 4.4 12 6.2 14.1 13.1.8 2.7-.5 6-3 7.4-9 5-19-3.8-25.3-9.7a114.8 114.8 0 0 1-16.5-21c-8-12.4-15-26.6-26.7-36-7.1-5.7-16-7.8-24-11.8a40.8 40.8 0 0 1-19.5-21.5c-7.2-17.3-5.3-39.4 8.3-53.2 4.4-4.4 10-7.3 15.8-8.5a98 98 0 0 1-9.8-35.6 198.4 198.4 0 0 1-1-35.6V227c1.3-21.2 3.7-43 11.4-63a122.1 122.1 0 0 1 33.5-48.4c-.4-.3-.8-.6-1-1-3.7-4-3-9.3-2.5-14.2a115.1 115.1 0 0 1 76.5-97c5.2-1.9 10.7-3.4 16.2-4.7ZM70 330c5.9-3.7 14.9-2.3 21 .2 7.2 2.8 14.9 8.2 17.7 15.6 2.6 7-7.2 9.4-10.8 4.6-2.3-3-4-5.8-6.1-8.4l-.8.9-.1.2c-1 1.3-2.6 2.7-4.4 2.5h-.5c-1.8-.3-3.7-1.2-4.2-3.1v-.3l-.1-.3c-.4-2.2.2-4.6 2.3-5.7l.4-.2c-4.6-2.4-9.3-3.2-14.3-4.9-.4-.1-.6-.8 0-1ZM233.6 7.8c-30.7-.7-64.3 8.7-87 30a118 118 0 0 0-24.4 34.7c-3.1 6.2-5 13-6.6 19.7-.8 3.6-1.4 7.3-1.7 11l-.1 2.3c-.1.6-.2.7-.4.7 0 .2.4.5.6.9 23-16.5 51.3-26.2 79.4-19.9 1 .2 1 1.6 0 1.8l-4.3 1c12.3.3 25 4.2 35.5 9.9a95.3 95.3 0 0 1 29.5 23.6c-.2-1.4-.4-2.8-.4-4.3a563 563 0 0 1 1.7-37l.3-3.7a378 378 0 0 1 5.8-44.2A22.2 22.2 0 0 1 274 17.7c-11.6-7.4-27.3-9.5-40.5-9.9ZM290.4 3c-13.8-4.2-28.2-6-42.6-5.8a62.1 62.1 0 0 1 15 6c6.2 3.3 10.5 7.9 14.4 13.2 3.6-1.2 7.7-2 12-2.2 9.8-.7 19.7-.2 29.5 1.4A120.2 120.2 0 0 0 290.4 3Z" fill="#000000"/></g></g></svg>