<svg viewBox="0 0 704 704" fill="none" xmlns="http://www.w3.org/2000/svg"><g transform="matrix(.99789 0 0 1 156 62)"><g fill-rule="evenodd" clip-rule="evenodd"><path d="M236.5 86.8c48.7 0 142.9 56.6 142.9 56.6s44.2 185.2 35.3 238c-9 53-55.3 117.8-132.1 117.8s-97.7-27.1-116.2-39.4c-18.4-12.3-55.7-68.4-55.7-68.4s-25.2 7.9-32.7 3.3c-10.5-6.4-9.2-23.4-12.5-39.9-2.5-12-10.8-24-10.8-30.7 0-24.5 17.4-22.8 26.1-28.6-19.2-19-14.1-84.5 10-119 24.2-34.4 96.9-89.7 145.7-89.7Z" fill="#FFDD00"/><path d="M324.2 45c4.3-.6 7.7 5.4 3.2 7.6-19.3 9.5-39.4 16.6-59 25.2 10 1.2 20.2 3.1 30 6 11.4-4.6 23-8.4 35-11l3.8-.9c12.2-2.7 26-5.2 37.8-1 4 1.3 3.8 6.5 0 8-6.9 2.6-14.5 3.3-21.8 4.2a236.8 236.8 0 0 0-37.5 7.3 175.6 175.6 0 0 1 53.6 41.1 159.6 159.6 0 0 1 28.4 48.1 71 71 0 0 1 3.5 14.4c.6 4 .2 7.8.3 11.6.2 0 .4.3.4.5 2.4 9.3 2.7 19.4 3.4 29 .8 9.8 1.6 19.7 2.2 29.6.7 9.9.6 20.2 2.4 29.9 1.7 8.8 6.7 16.6 9.5 25.2 16.8 51.2.4 112.6-40.5 148a142 142 0 0 1-73.4 33 147.5 147.5 0 0 1-61.7-4.7l-2.4-.7a53 53 0 0 1-7.8-3c-3.5-1.7-5-4.7-6.3-8.2-.7-2.2.5-5.6 2.6-6.5l.7-.3c3.8-1.6 6.8-2.2 10.8-.7a124 124 0 0 0 72 4.8c24.4-5.4 46.9-17.8 63.8-36.3a127.7 127.7 0 0 0 27.5-120.6c-1-3.4-2.3-6.7-3.4-10.1-1-3-1.3-6.4-1.7-9.6l-.1-.7c-1.2-8.1-.8-16.4-.8-24.6v-24.8l.1-9.3.1-9.4c-1 .2-2.5-.6-2.6-2-.4-5-1.5-9.8-2.2-14.8l-.1-1.3a46 46 0 0 0-3.3-13.4c-3.9-8.6-6.6-17.7-10.3-26.3a140.8 140.8 0 0 0-31.7-46.3 140.3 140.3 0 0 0-57.9-33l-2 .9a238.7 238.7 0 0 0-57.2 35.6l-8.4 7.4a199.4 199.4 0 0 0-5.9 5.4c-1.7 1.2-1.8 3 0 5.2.5-.2 1 .8.4 1-3.4 1.8-6-2-5.3-5 .6-2.6 2.9-4.8 4.5-6.8l.2-.2c2.5-3.1 5-6.2 7.8-9.1 14.4-15.4 31.4-28 49.7-38.2a154.7 154.7 0 0 0-36.8-2.2 416.6 416.6 0 0 0-45.7 28.8c-1.4 1-3.6 2.3-4.7 3.6-.9 1-3.2 5.6-.2 5.5.3 0 .4.5 0 .5-2.6.7-3-2.1-2.5-4.2 1.1-5.3 8.2-9.5 12.1-12.8l.3-.2c8-6.8 16.2-13.3 24.7-19.5a168 168 0 0 0-73.5 30.4 200.2 200.2 0 0 0-63.3 81c-6.7 15-12.3 31-14.2 47.4-1.8 14.6 0 30.7 11.5 41h1.9l1-.1c8.1-.5 25.1 0 24.6 11.3 0 .5-.8.8-1 .3-2.7-5.8-10.5-4.8-16-3.9l-3.2.5a54 54 0 0 0-18.8 5.9 22.4 22.4 0 0 0-11.4 14.9c-1 6.4 3.2 11.2 6.9 16a31.7 31.7 0 0 1 7.9 17.7c.4 7-3 14-2 20.9 2.2 15.4 24.6 10.4 34.2 8 2.9-.6 6.9.5 8.2 3.4a128.8 128.8 0 0 0 43.5 52.6c6.4 4.4 12.6 8 17 14.6 1.7 2.6-.6 5.4-3.3 5.6-8.6.8-15.6-3.5-22.4-8.3a137.4 137.4 0 0 1-45.1-52.5l-1 .1c-14.8 2.8-31.2 2.8-40.8-10.8-4.2-6-4.7-13-3.6-20.1 1-7 3.6-13.4-.3-19.9C55 345 50 340.1 48 333.4c-2-6.5-.9-13.4 2-19.4 5.6-11.5 17.1-17.2 29.2-19-14.5-8.8-19.4-26.6-19.4-43 0-20.4 7.2-41 15.4-59.5a203.3 203.3 0 0 1 73.4-86.4A182 182 0 0 1 249 76.6c9-5.5 18.4-10.5 28-15.2l2-1c14.5-7 29-12.8 45-15.3ZM75.8 328.3c1.8-4.2 9.5-4.2 13.2-4h.7c11 .5 29.5 5 31.8 17.5.4 2-1 4.8-3.5 4.6-3.6-.4-6.4-1-9.4-3.2L107 342c-2.6-1.8-5-3.5-7.9-5-3.4-1.8-6.9-3.1-10.6-4.2l-4.6-1.2-3-.8c-1.2-.7-2-.2-2.3 1.4.4.2.4 1-.2 1-2.2-.3-3.5-2.9-2.7-5Zm35.4-18v4.6-4.6Z" fill="#000000"/></g></g></svg>