<svg viewBox="0 0 704 704" fill="none" xmlns="http://www.w3.org/2000/svg"><g transform="matrix(.99789 0 0 1 156 62)"><g fill-rule="evenodd" clip-rule="evenodd"><path d="M402 224.2c-9-38.1-28.8-73.6-60.4-102.3C246.2 27.6 71.2 78.8 72 220.8a188.6 188.6 0 0 0-3.7 50.6c.4 7.2 3.6 17.2-.6 23.7-9.5 12.2-15 21.2-11.8 37.3A39.6 39.6 0 0 0 81.2 362c7.8 2.2 15.1 7 18 14.5 17.3 31.6 30.1 58 57.4 79.6 7 5.5 79.3 38.9 103 38.9 69.7 0 157.5-25.2 159-103 .2-17.1-2.8-34.4-4.7-51.4-4.5-38.7-3-78.8-11.8-116.3Z" fill="#FFDD00"/><path d="M400.5 205.1c0-.4.7-.5.8 0 2.6 9.1 4 18.5 6.1 27.8 2 9 3.8 18 5.3 27a1428 1428 0 0 1 7.6 51.5l.6 4.3c4 30.3 10.4 61.8 4.7 92.2-4.8 26-21 47-42 62.3a182.2 182.2 0 0 1-67.9 29.1c-25.6 5.7-56 7.4-77-11.4-8.3-7.5 3.1-22.5 12.2-15.7 21.3 16 48.3 11.3 72.4 5l.7-.3c21-5.6 42.3-14.1 59-28.5a84.3 84.3 0 0 0 28.7-62c.6-13.6-.6-27.2-2-40.7l-.1-1.5c-1.6-15.4-3.3-30.8-4.8-46.3-1.4-14-2.6-28.2-3.2-42.3l-.3-7.2c-.6-14.4-1.4-29-.8-43.3ZM150.9 85.6c34.6-18 74.4-24.4 113-18.4 37 5.8 71 25 96.4 52.4a158 158 0 0 1 30.5 45.8 117.1 117.1 0 0 1 9.3 40.3c.2 4.3-1.1 8.4-1 12.8 0 .7-1 .8-1.2.2-1.2-5-4-8.7-5.9-13.4-1.4-3.5-2.9-6.9-4.5-10.3l-1.3-2.9c-4-8.5-8.6-16.6-13.2-24.7a175 175 0 0 0-35.4-43.6 153 153 0 0 0-89-38.6 163.3 163.3 0 0 0-98.2 23.5 152 152 0 0 0-62.7 78.5c-5.8 16.3-9 33.3-9.8 50.6-.3 8.7 0 17.5.6 26.3l.3 4.1c.4 5 .6 10-.1 14.9a36.8 36.8 0 0 1 16.3-1.5 20 20 0 0 1 16.9 11.9c.2.4-.2.8-.6.6-4.8-2.4-12.6-1.2-17.6 0-5.3 1.4-10 3.7-14.5 6.7a37.7 37.7 0 0 0-16.4 24.6 31.9 31.9 0 0 0 9.1 26.5c3.5 3.6 7.6 6.7 12.2 8.7 5.7 2.3 11.2 2.3 16.2 6.1 3 2.4 2.3 6.5.2 9.2 10.5 11.5 19.8 24 30.3 35.6 4.8 5.3 9.6 10.7 14.3 16.2l1.7 2c4.7 5.7 12 11.6 14.2 18.7 1.3 4.4-3.4 10-8.1 8-7.3-3-12.5-11-17.4-17l-.4-.5c-5.1-6.3-9.7-13-14-20l-1.3-2.3c-7.6-12.8-15-26-19.9-40l-1 .9c-7 5-17 1.1-24-2-6.6-3.1-12.6-7.7-17.3-13.2a49.6 49.6 0 0 1-11.5-43 51 51 0 0 1 24-32.6c-5.6-6.3-7.9-14.9-9.4-23.2A143 143 0 0 1 59 231a180 180 0 0 1 15.2-62.6c15.4-35.4 42.5-65 76.8-82.8Zm-73 236c7.3-1.4 14.1-1.7 21.1 1.3 7.6 3.4 13 8.9 18 15.4 5.6 7.3-9 15.3-12.6 5.6v-.3c-1-3-2.8-5.7-5-8.3-.7 1-1.6 2-2.6 2.5-1.3.6-3.2.1-3.5-1.5-.4-1.8 0-4 1-5.5l.2-.2c-5-4-11.1-7-16.5-8-.6 0-.6-1 0-1Z" fill="#000000"/></g></g></svg>