<svg viewBox="0 0 704 704" fill="none" xmlns="http://www.w3.org/2000/svg"><g transform="matrix(.99789 0 0 1 156 62)"><g fill-rule="evenodd" clip-rule="evenodd"><path d="M398.9 192C363.7 99.6 300.3 31.9 193.3 74.4c-3-2-7-2.6-10.9-.2A277.4 277.4 0 0 0 64.1 235.4a90.6 90.6 0 0 0-31.4 11.8c-20.9 13-35 33.9-48 54.2-4 6-.4 16.1 7 17.5 3.3.6 6.5 1 9.7 1a41 41 0 0 1-3.1 8c-4.7 9.1 4.2 18.7 12.5 16.2 1 .5 1.9 1 2.9 1.2 0 5.1 2.7 12 8 13 8.3 1.8 19.5-4.6 17.5-14 2.6.4 5 .5 7.6.2.2 4.9.1 10 .8 14.5A34 34 0 0 0 91.4 388c1.2 6.6 2.7 16 9.2 19.6 7.7 21.4 20.9 45.8 42.5 55.6-2 5-1 11 4.9 14.2 39.5 22.6 87 30.2 131.7 21.8 17.8-1 35.2-5 52-13.7a243.4 243.4 0 0 0 34.3-22.4c11-8.3 22.6-16.3 31.3-27a87 87 0 0 0 16.8-39.6A344.3 344.3 0 0 0 399 203.4c-29.6-77.7 29.5 66.3 0-11.3Z" fill="#FFDD00"/><path d="M32.6 243.4c32.8-19.3 74.7-14.3 94.4 15.7a56 56 0 0 1 7.4 17.5l.3 1 .3 1.2c.8 3.8 1.4 7.4 2.2 13.5l.8 7 .3 1.8a98 98 0 0 0 2.6 14.3l.2.8 1.3 4.4-4.9 1.8c-9.3 3.4-11.3 3.7-16.7 1-4.3-2.3-6.5-5.3-9.4-11.3l-.4-.9-1-2-.5-1c-1.9-3.8-3.4-7.9-5.6-9.4-3-2-12.2-2.8-18.6-2h-.4l-.3.1-.4.1a50.4 50.4 0 0 0-27.3 20.6 49.6 49.6 0 0 0-8.6 26.6v.6l-.2 5-10.5-.2.1-2-.1.4c-3.3 7-11.7 11.6-18.6 7l-.3-.2-.2-.2c-5.9-4.3-6.6-13-1.8-18.4l.2-.2.3-.2H17a10 10 0 0 0-5.1 2.9l-.5.4-1 1.1-1 1.1-.5.5a22 22 0 0 1-1.8 1.6l-1 .5c-1 .4-2 .6-3.3.3a5 5 0 0 1-3.4-2.8c-.3-.5-.4-1-.5-1.4l-.2-1.6v-3.5l.2-2.3c.4-7.6 2.4-15.2 5.9-22.3l.3-.7.2-.2-.4.5c-2.3 3-4.6 5.2-7.5 6.6l-.3.2-.4.2c-4 1.7-8 1-10.3-2.2a11.4 11.4 0 0 1-1.8-8.2c.7-6 3-11.4 7.6-19.3l.7-1.1 2.5-4.3a107.4 107.4 0 0 1 37-38.4Z" fill="#FF0000"/><path d="M228.8 56.3a145 145 0 0 1 53.5 7.2A185.4 185.4 0 0 1 401.9 181c11.5 33.6 13.3 69.6 16.5 104.7 1.6 17.8 4.3 35.2 7.2 52.8l.4 2.8c2.7 17.1 4.3 34.4.5 51.5-6.3 28.5-25.2 52.6-47.6 70.4-46 36.6-117.8 59-171.4 25.3-8.3-5.2-.5-18.6 7.6-13.1a83.2 83.2 0 0 0 18.2 9.4c27.1 9.7 56.8 6.3 83.6-2.7a180 180 0 0 0 71-43.9c20.5-21 31.8-46.9 30.2-76.4-1-17.5-5-34.8-7.2-52.2-2-15.4-3.2-31-4.5-46.4l-.5-5.6c-2.9-31.5-7-64-21.4-92.6-12-24-29.7-45.5-51-62a170.4 170.4 0 0 0-76.7-34c-32.8-5.4-64.2 4.3-91.6 22.3a216.8 216.8 0 0 0-61.1 61.5A254.6 254.6 0 0 0 84 189.9c-5.4 12.1-9 24.8-13.4 37.3a68.1 68.1 0 0 1 58.4 27.7c13.7 18.8 10 41.9 15.3 63.3.4 1.7-.3 3.3-1.7 4.2-8 5.2-19 5.4-26.7-.5a20.4 20.4 0 0 1-7.3-22.4c.4-1 2-.9 2 .3.5 13.7 13.2 24.3 25.7 17.7-5.4-18.4-2.5-39-13.5-55.7-19.4-29.5-59.5-30.7-87.7-14-14.9 8.7-26.6 21.8-35.4 36.5l-2.5 4.3a50 50 0 0 0-7.6 18.5c-.4 3.6 1 7 5.1 5.2 3.4-1.5 6-5 8-8 3.4-5 11.3-.6 8.4 4.8v.2A54.1 54.1 0 0 0 4 332.9l-.2 2.3c0 1.7 0 4 .3 4.1.4.1 3.4-3.3 3.8-3.8 2.4-2.2 4.9-4.1 8.2-4.7 4.3-.8 8.7 4.6 5 8.1l-.2.2c-3.4 2.9-3.2 8.7.5 11.5 5.3 3.8 11.7-2.5 12.5-7.7v-.2c.7-5.6 8.5-5.8 9 0 .9 12.7-14.2 23.2-25.6 16.9a17.2 17.2 0 0 1-8.3-12c-1.5.7-3 1.2-4.7 1.3-5.3.5-9.1-3.3-10-8.3-1-6-.4-12.2 1.1-18.3-2.9.7-6 .4-9-1.4-9.3-5.4-6.7-17.3-3.1-25.4 15-34.4 46-65.7 84.6-68.2.2-6 1-11.8 2.4-17.9A207.8 207.8 0 0 1 181.8 69a134.3 134.3 0 0 1 47-12.7ZM83 294h.5c6-1.4 21.8-3 20 7.2-.2.5-.9.4-1 0-1.9-6.4-14.5-1.3-18.2.3a53.4 53.4 0 0 0-14.3 8.8c-9.2 8-15.3 19-16.2 31.2-1 12 2.6 25 11.2 33.7 4.3 4.2 9.7 7.1 15.8 7.3 5.5.2 11.5-4 16.6-1.5 1 .5 1.8 1.8 1.7 3a7.4 7.4 0 0 1-2.5 5c8.4 15.3 15.3 31.7 26.1 45.7 5.4 7 11.6 13.5 18.5 19 3.3 2.7 7 5 10.6 7 4.4 2.4 8.1 4 11.2 8 2.6 3.4 0 10-4.3 10.7-10.3 1.4-20.3-7-27.8-13.1a100 100 0 0 1-19.4-22 132.5 132.5 0 0 1-20.1-52.6 33 33 0 0 1-30-5.8c-21.2-16.4-23.6-50-8.6-71.3A52 52 0 0 1 83 294Zm.1 39.1c5-.4 9.8.4 14.5 2l1.9.7c4 1.5 8.3 3.2 11.2 6.3 4.5 4.6 0 12.6-6.3 10.8-7-2-12.7-7.9-19.7-10.3a21 21 0 0 0-18.9 1.9c-.7.5-1.7-.5-1.2-1.2 4.2-6.5 11-9.5 18.5-10.2Z" fill="#000000"/></g></g></svg>