<svg viewBox="0 0 704 704" fill="none" xmlns="http://www.w3.org/2000/svg"><g transform="matrix(.99789 0 0 1 156 62)"><g fill-rule="evenodd" clip-rule="evenodd"><path d="M385.4 173.2c-3.8-23.3 8.8-28.2 0-50.4-19.6-41.1-73-39.4-112-42.5-43.8-1.7-88 4-128.2 21.6-9.7 4.2-19 9-27.8 14.7-7.6 4.8-6.6 14-1.8 19C80.8 185 100.7 251.2 73 303.2c-5.1 9.3-12 17.6-16.4 27.3-6.8 14.7-7.2 35.7 8.2 45.5 21.7 11.6 33.8-11.4 44.4 22 53.2 116.5 160.2 123 261.8 62.3a87.9 87.9 0 0 0 24.4-18c15-17 13.3-40.9 13.6-62 .2-12.4.2-24.9.1-37.3-.5-50.2-17.1-120-23.6-169.8Z" fill="#FFDD00"/><path d="M169 33.5A386.6 386.6 0 0 1 367 2.1c33 3.4 65.6 10.7 96.6 22.6l2.7 1c7.6 3 15.9 5.9 21.7 11.9a22 22 0 0 1 3.8 26.1 32.7 32.7 0 0 1-17.7 14c2.6 2.1 5 4.5 7.2 7 3.8 4.4 4.1 10.6 0 14.9a62.3 62.3 0 0 1-29.2 17c1.3 6 .6 12.7-2 18.6-7.7 17.2-29.2 19.2-45.7 18.2h-.5l-1 10.5c-.4 5.6-3.8 10-9.5 10.8h-.6c9 32.7 14.5 66.3 19.5 99.8 2.6 17.4 5 34.9 7.2 52.4l.8 5.8c2.4 19 5.4 38 6.4 57 1 17.2-2.3 33.7-13 47.6a102.8 102.8 0 0 1-36.5 28.8 342.8 342.8 0 0 1-99.9 32.8l-2.3.3a96.6 96.6 0 0 1-40.7 0c-11.8-3.2-24-11.6-21.4-25.2.9-4.6 7.3-4.8 9.5-1.3l.5.8a25 25 0 0 0 10.1 10.3 42.6 42.6 0 0 0 17.6 3.3c16.4.2 33.5-4 49.4-8 29.6-7.7 60-20.2 84.2-39.2a55.4 55.4 0 0 0 21.5-31.1c3.6-16 .3-33.5-1.4-49.5-3.3-33.2-7.4-66.3-11.6-99.4l-.8-6.6c-3.6-27.6-7.4-55.3-9.1-83-.8-1-1.3-2.2-1.5-3.5l-.3-1.8a269.4 269.4 0 0 1 .4-22c-5.1 1.2-10.4 2-15.7 2.9-37 5.6-74.8 7-112.2 4.2a650.9 650.9 0 0 1-83.8-11.9c-6.7-1.3-13.4-3.1-20-4.9a55.5 55.5 0 0 0-9.8 34.3c.8 13.8 10 26.2 7.4 40.3-2.4 13.1-13.7 17.2-24.8 20.5l-4.8 1.3c-3.6 1.1-6.2 2.1-6.9 6.5-1.1 7.5.3 16 .6 23.5.3 9 .8 17.9 1 26.8l.3 13.9a14 14 0 0 1-1.8 7.6c1 1.3 1.8 2.6 2.6 4 .3.5-.3 1-.7.6-1-1-2-2-3.2-2.8-.5.7-1.2 1.4-2 2.1-2.4 2.3-6.2 2.5-9.1 0l-.8-.7c-2.1-1.8-3.6-3.4-4.2-6.6l-.1-.4a31 31 0 0 0-16 3.8 37 37 0 0 0-16.6 18.1 21 21 0 0 0 4.6 4c.2.2 0 .6-.3.5-1.8-.9-3.4-2-4.8-3.2a44 44 0 0 0-2.5 9.7c-1.8 12 1.3 26.7 12.2 33.6a29.5 29.5 0 0 0 23.4 3.5c1.8-.5 3.6-1.1 5.4-1.1 1.6 0 3.1.4 4.5 1.2h-.4c-1 .1-.7.1.6.1 4 .2 6.2 4.3 4.4 7.8l-.2.6-.2.2-.1 1v.2l-.1.2v.1l6 9.2a270.8 270.8 0 0 0 42.5 53.3c6 5.8 13.2 8.6 20 13.2 3.7 2.4 4.8 7.6 1.5 10.8-9.8 9.7-23.5 2-31.5-5.8-7.6-7.5-14.1-16.4-19.8-25.4-10-16-17.9-33-21.4-51.3a14.6 14.6 0 0 1-5.1 2.8 47.9 47.9 0 0 1-33.9-2.9c-27.8-13.2-31.9-53-14.9-76.3-2.3-6.7-3.6-13.9-5-20l-.6-2.8c-7-30.7-11.7-63 .7-93 1.6-4 3.4-7.7 5.6-11.3 1.7-3 4.6-6 5.4-9.3 1.8-7.3-9.3-15-12.5-20.7-3.8-6.8-4.4-14.8.8-21a16 16 0 0 1 2.2-2.1c-5-9-5.2-20.1 1.3-29a28.4 28.4 0 0 1 17.9-11c4.3-.8 9.5-.5 14.3.8 26.1-24.2 56-44.5 88.4-59.2ZM68.9 337a31 31 0 0 1 24.1-8.5c9.6.8 21 4.7 26.7 13 4.4 6.4-4.6 15.9-11.1 11-6-4.4-9.9-9.4-17.2-11.8a47.7 47.7 0 0 0-21.7-2.3c-.8.2-1.5-.8-.8-1.4Z" fill="#000000"/></g></g></svg>