<svg viewBox="0 0 704 704" fill="none" xmlns="http://www.w3.org/2000/svg"><g transform="matrix(.99789 0 0 1 156 62)"><g fill-rule="evenodd" clip-rule="evenodd"><path d="M375.4 51c-53.4-15.7-237.3.4-241.9 3.8C126.1 61 90 80.6 84.3 85.1c-51 54-2.4 134.1-6.2 199.2.3 23.1-9.6 44.2-14 66.4a50.5 50.5 0 0 0 4.5 34.2c10.7 18.7 33.2 22.4 51.5 30 9.1 4 17.7 9.5 25.5 15.6 52.6 46.5 81.8 78.3 158.5 67.8.4 3.7 3.7 7.3 7.7 5.7 9.4-3.9 18.8-8 28.3-11.6 2 5 7.8 6.3 11.8 2 17.6-14.2 28.8-33.8 37.1-54.6a229 229 0 0 0 14.2-37.6c.4-1.5.4-2.8 0-4a509.6 509.6 0 0 0 18.6-178.8c-1-12.4-3.2-25-2.7-37.4.5-11.2 5.4-21.8 9-32.3 19.1-44.5-10-84.7-52.7-98.7Z" fill="#FFDD00"/><path d="m382.1-21.2.6-.5c6.2-4.8 12-11.2 20.7-8.8 7.1 2 10.7 7.9 12.2 15l6.4-7c5.6-6.7 18-3.2 19.8 5.2a132 132 0 0 1-1.6 58.8c3.8-4.7 7.3-9.6 10.4-14.7 3.4-5.6 11-2.8 11.6 3.2l.2 4.6c2.4.9 4 3.3 3.4 6.3-3.4 16.7-7.8 33-13.1 49.2 8.5-4.6 18-7.2 27-4 14.3 5 17.7 20.6 15 34a64.5 64.5 0 0 1-28.9 40.2l-5 7.8c0 7.3-1.3 14.7-4 21.5a46 46 0 0 1-15 19.3c-2.3 5-8.5 8.8-13.9 7.8h-.2c1.3 4.9 2.5 9.8 3.5 14.8 8 38.8 4 79.1-3.3 117.6l-.2 1.3c-6.6 34.2-14.2 69.7-29 101.6-13.3 28.7-36 54-68.3 60.3-38 7.4-80.2-4.3-113-23.8-11.9-7-1-25.8 10.8-18.6 17.1 10.4 35.6 17.7 55.2 21.5 18.4 3.6 38.8 4.8 56.4-2.6 24.5-10.3 39-35.4 48.2-59 5.4-14 9.5-28.4 13.3-42.9 4.9-18.5 9.4-37.3 12.8-56.2 6.4-35.3 8.4-72 1.7-107.3a219.1 219.1 0 0 0-9.1-33.6 19 19 0 0 1-1.8-2.5c-4-7.3-7-15.5-10-23.3-2.7-4.7-5.6-9.2-8.8-13.6-4.6-3.6-9-7.4-13.1-11.6a94.3 94.3 0 0 0 29.7-29.4c1.3-2 .5-4-1-5-6 7.4-13.8 13.8-22 19.4a106 106 0 0 1-13.3 9.7c-3.4.7-6.8 1.1-10 1.5-9.5 1-19 .7-28.3-.6-20.3-2.7-105.9-26.2-142-17-7.5 1.8-11 8.6-15 15-3.4 5.4-7.8 10-13 13.7l-.7.4c-10.3 7.2-31 29.7-39.7 49.9-11.2 26-22 103.8-17 104.5 13 1.8 20.1 8.6 30.7 16 .7.4.3 1.7-.6 1.4-7-2.5-14.5-4-21.9-5.2a39 39 0 0 0-20 1c-9.8 3.7-14.6 11.9-16.6 21.2a57 57 0 0 0-1.1 11.1v1.1c0 11.9 2.2 25 10.8 33.7a24 24 0 0 0 13.8 6.9c5.6.7 9.1-1.8 14.3-3.1 6-1.6 10.7 2.4 10.2 7.5l3.7 3.5c.8.4 1.6.8 2.2 1.4 1.2 1 2.1 2 2.9 3.2 1.7.3 3.3 1.2 4.6 3 2.8 3.5 5.3 7 7.6 10.7l12.6 13.5 14.7 16.6 2.4 2.8 7.9 9 .7.9c2.7 3 4.7 5 5 9.3.2 3.2-3.2 5.3-6 4.6-4.3-1.1-6.4-4.5-9-7.9l-7.6-9.8-5.5-7c-.5 4.3-5.1 7.8-9.3 8h-1c-9.8.4-21.7-1-29.2-8-3.3 3.4-7.5 6.1-12.7 7.7A24.1 24.1 0 0 1 76 441.4c-9.1 4-19.5 4.7-29.4 1.8a8 8 0 0 1-3.7-13.1l.2-.2c-.8-1.1-1.3-2.5-1.3-3.9-.1-1.7 1.1-3.5.9-5.2-1-6.1-11-1.6-14.3-.2-.6.2-1.1.4-1.7.4-5 1.4-10.3-5-7.7-10.4l17.3-36-2.2.7c-10.6 2.7-23.3-2.5-21-15.2.7-3 3.4-5 6-6 5.3-1.7 9.2-.4 13.2-2A69.3 69.3 0 0 0 56.6 332c1.3-6.3 3.6-12.1 7.2-17.2l.6-.9c-23-5.5-20-28.2-30.2-48.3l-.9-1.7c-6.9-13.4-13-28.6-9.4-44 .6-2.6 1.5-5.2 2.6-7.6l-5.5.6c-4.3.5-8.6-5-7-9a73.5 73.5 0 0 1 13.8-21c-7.1-.2-14.3-.2-21.3-1-6.7-.8-13.7-4.5-13.5-12.2.2-7.3 6.6-12.9 12.6-16.4A71.9 71.9 0 0 1 27.3 134l-5-.8h-.9A39 39 0 0 1 8 129.4c-3.9-1.8-3.8-7.2-1.3-10 8.3-8.9 20.6-6 30.2-.9l-2.2-2.4-.4-.5c-4.8-4.4 2.3-11.4 7-7 1.5 1.3 2.8 2.8 4 4.4l.1-.2a103 103 0 0 1 26.1-33l2.5-2c19.4-16.3 25.4-24 51.2-21.6-1-4.7-1-10-.7-14.3v-.5c1-16.3 7-35.9 23-43.2 4-1.9 8.7 1.2 7.6 6-.7 3.3-1.7 6.6-2.8 9.7 3.4-3.6 7.1-7 11-10.2C179.4-9 200.9-20 222-16.4c11.6 2 20.7 9.3 30.4 15.4a76.4 76.4 0 0 0 32.1 11c16 1.9 32 0 47.8-2.9A309.8 309.8 0 0 0 364-9c6.3-3.7 12.4-7.7 18.2-12.1Zm-283.5 354a22 22 0 0 1 10.6 0c8.7 2.2 16.9 9.5 17.4 18.7.2 4.2-3.2 8.2-7 9.3-4.5 1.2-8.3-1-10.9-4.4-2.7-3.7-3.4-7.8-6.8-11.1l-.8-.8c-2.9-2.7-7.2-6.3-11.2-5.7-.6.1-1-.7-.5-1 3.3-1.8 5.4-4 9.2-5Zm45.5-43.5c1.5-1.2 3.5.2 2.8 2v.2c-1.9 3.8.3 8.4 2.5 11.6 2 2.8-1.7 5.4-4.2 4.2-7.2-3.4-6.8-13.4-1.1-18Zm26-116c0-.9 1.2-1.3 1.5-.4 5.3 15.5 6.9 29.2 6 45.6v1.4c-1 15.8-3.8 32.5-13.3 45.4-2.2 3-6.8 1.2-6-2.5 2.9-15 8.5-29.4 10.7-44.6 2.3-16 3.3-29 1.2-44.9Zm-49.7 56.3c.8-4.2 7.1-8.4 10.3-4.3 1 1.5-.2 3.2-1.5 3.7-1.2.5-2.3-.2-3.5 0-1 .3-1.7.9-2.1 1.7l-.1.2c-1 1.8-3.5.4-3.1-1.3Zm-2.6-33c2.3-4.1 7.5-6.8 12-4.2 1.5.9.9 3.4-1 3.3h-1c-3.2-.1-6.4 0-9 2-.7.4-1.3-.5-1-1Zm8-115.2c-12.8-5.7-25.5-.5-36 7.6-.8.6-1.2 1.4-1.3 2.2a134.6 134.6 0 0 1 39-8.3c-.3-.6-.9-1.1-1.7-1.5Z" fill="#000000"/></g></g></svg>