<svg viewBox="0 0 704 704" fill="none" xmlns="http://www.w3.org/2000/svg"><g transform="matrix(.99789 0 0 1 156 62)"><g fill-rule="evenodd" clip-rule="evenodd"><path d="M388.4 151.8c-7-25.5-6-28.2-16.6-52.6-35-70.7-268.7-47-292.6 23.6C66.2 161 69.3 215 66 248.3L63 301a10181.4 10181.4 0 0 1-3.3 53.8c-4.3 36.5 14 40.2 45.4 39 8.4 20.2 21.8 36.9 38.5 50.5-4 11 10.5 16.6 18.4 21 42.7 23.8 95.2 38.4 142.5 25 14-4 71.4-17.6 89-59.9 8.7-20.8 26.3-128.2 3-225l-8-53.7Z" fill="#FFDD00"/><path d="M239-14.5c6.6-1.2 14-.7 17.8 5.8.8 1.4 1.3 2.8 1.6 4.2 18-4 36.8-4.5 55.2-1.9 5.5.8 7.5 8.2 5 12.3l-.7 1.3c5.8.5 11.5 1.5 17.2 3 4.1 1.1 8 6.4 6.1 10.7l-.5 1.1c9 1.6 17.6 5 25.1 10.8a11 11 0 0 1 2.4 2.5 84 84 0 0 1 49 9.7c4.3 2.3 6.3 8.8 3.5 12.9-1 1.3-1.8 2.5-2.8 3.6A30.7 30.7 0 0 1 434 74.2a29.6 29.6 0 0 1 3.3 23.3 21.4 21.4 0 0 1 5.5 19.7c-1.5 6.8-5.7 11-11 13.6 1 3.3.2 7-2.2 9.6-3.8 4-8.3 7-13.2 9 0 1.2-.3 2.5-1 3.7a29.9 29.9 0 0 1-23.6 15 893.2 893.2 0 0 1 19 115.4l.2 3c3.5 42.1 4.4 86.2-4.2 127.7-5.4 26.4-22 48.6-44 63.7a148.2 148.2 0 0 1-76.7 24.2c-13.8.6-27.6-.6-41-3.4-6.5-1.3-12.7-3.2-18.7-5.6-6.6-2.6-12-6.5-17.5-10.8-2.8-2.3-1.2-7.6 2.2-8.3l7.3-1.4c2.2-.4 4.6 1.8 4.1 3.8l4.7 1.3 4.7 1.2 2.3.6a148.8 148.8 0 0 0 62.4 5A126 126 0 0 0 362 458c8.9-7.5 16.3-16.4 21.7-26.8 6.8-13.2 9-27.8 10.6-42.4 5-42.1 3.5-84.3-.4-126.5-1.9-21-4.5-41.8-7.3-62.7-1.4-10.7-3-21.4-4.2-32.2a23 23 0 0 1-8-3.8 8 8 0 0 1-3-4.2c-2.5-.4-4.8-1.8-6.5-4l-.2-.3c-4.4-6.5-12-10.1-19.2-12.8-4.3-1.6-8.7-3-13-4.5-4.6-1.5-9.4-3.7-14.1-4.3-5.4-.6-10.9 1-16.4.4a20.8 20.8 0 0 1-16-10c-16.7 3.5-34.2-1-51.5 0-11.4.8-21.4 7.8-32.9 7.7-3.1 0-6.2-1.2-8.4-3.1-10.8 2-21.9 6-32 9.4-10.2 3.4-19.9 8-29.8 11.7-1.3 4.2-5.2 6-9.3 5.3-13.5-2.4-25-11-38-14-3.7 13.1-7.6 26.1-10.2 39.6a394.7 394.7 0 0 0-5.9 41 471.6 471.6 0 0 0-1.4 63c.1 6 1.3 13.5-.9 19.2l-.2.4c-.2.9-1.4 1.4-2 .6-4-4.7-5-12.1-6.2-18a295.4 295.4 0 0 1-3.9-65.1c1.5-28.7 6-59 16-86-3.1.2-4.5-4.3-4.7-6.8-.4-5 .4-10.4 1.3-15.4l.9-5.3c.8-5 1.7-9.7 3.4-14.5 4-11.6 9.9-22.4 17.1-32.3 14.8-20 35.3-35.3 58.6-44 1.4-.6 2.8-.6 4-.2a315.6 315.6 0 0 1 89-31.5ZM63 308c9.6-6 29.5-7.6 34.8 5.3.3.5-.4 1-.8.8l-1.3-.3c-5-1.2-9.5-2-14.6.1-4.6 1.8-9 4.7-12 8.6-7.1 9.3-7.9 21.9-7.2 33.1v.6c.6 9.8 3.2 21.8 12.8 26.7 4.9 2.5 10.2 2.3 15.5 2.3 6 0 12.2.6 18 2.5 3.2 1 4.8 5.3 2 7.8-.8.8-1.7 1.6-2.7 2.3 3 3.1 5.8 6.3 8.6 9.6 4.7 5.7 9.7 11.1 15 16.3 5 5 10.4 9.8 16.2 14 6.1 4.3 13.4 7.3 18.7 12.7 3.5 3.4 2.9 8.2 0 11.7-7 8.7-19-.4-25.9-5.5l-.8-.7a118 118 0 0 1-19.4-17.8 96.8 96.8 0 0 1-14.5-22.5 54.5 54.5 0 0 1-4.3-14.1 41.2 41.2 0 0 1-38.4-3.9C48 387.7 44 369.5 44 353v-1c.1-16 4.3-35 18.9-44Zm27.4 23.3h.4c5.4.1 10.2 2 14.7 4.7l.5.3c4.4 2.6 10.8 4.7 13 9.7 1.5 3 1.4 6.3-1 8.8-4.5 4.4-11.1 3.7-16 .2-3.5-2.6-5.8-6.5-9.3-9.1-6.6-5-17-4.7-23.8-.4-.5.2-.9-.3-.7-.7a24 24 0 0 1 22.2-13.5Z" fill="#000000"/></g></g></svg>