<svg viewBox="0 0 704 704" fill="none" xmlns="http://www.w3.org/2000/svg"><g transform="matrix(.99789 0 0 1 156 62)"><g fill-rule="evenodd" clip-rule="evenodd"><path d="M242 75.3c56.8 0 115.6 44 136.4 72 17.5 23.7 26.9 130.4 26.9 202.6 0 15 8.3 43.5 5.9 58-9 52.9-47.7 97.2-124.5 97.2S154.8 474.7 97.7 393c-27.7 0-41-21.3-41.3-54.8-.2-33.5 26.8-45.7 26.8-45.7s-9.6-132.3 14.5-166.7C122 91.3 185.3 75.3 242 75.3Z" fill="#FFDD00"/><path d="M218.1 56.6c35.9-3.7 71-.6 106.4 5.7 2.7.5 4.2 2.2 4.8 4.4 16.6.7 33.3 2 49.9 2.9 6 .3 9.4 6.3 6.7 11.6l-1.7 3.2.7-.3c5-1.6 10.4-2.3 15.3.2 6.2 3.2 8.6 10.4 7.2 17a26 26 0 0 1-1.6 4.8l4.1.1c7.3 1 12.6 6.6 13 14 .6 11.1-6.6 22.4-15 30.4 1.1 2.5 1.6 5.5 1.1 8.5-1 6-5.4 9.6-10.5 12a54.8 54.8 0 0 1 2.5 21c-.2 2.4-2.3 4.3-4.5 4.8a330.2 330.2 0 0 1 15.5 71.2 433.2 433.2 0 0 1 3 74.4l-.2 2.9c-.4 8.3-.4 17-2 25.3A71 71 0 0 1 421 400c1.1 12-.6 24.6-4.4 36-14.4 43.5-57.8 70.9-101.4 78-40.3 6.6-87-2.3-110.6-39-.4-.5.4-1 .9-.6a112.8 112.8 0 0 0 57.7 22.8c36.8 5.1 78-3.6 107.6-26.7a83.8 83.8 0 0 0 31-72c-1-9.2-5-17.2-7.6-26-.9-2.9 0-5.6 1.9-7.6.5-7.1 1.7-14.3 2.1-21.4a489.6 489.6 0 0 0-1-74.5c-2.5-30.5-9.4-60.3-13.4-90.6a5 5 0 0 1-5.9.7l-.2-.2-1.2-.7h-.2c-8.4.9-17-.3-25-2.8a73.6 73.6 0 0 1-23.1-12c-1.3 6.8-1.9 13.5-1.9 20.4 0 4.2-4.5 6.4-8 4.6-16-8-31.1-17.3-45.5-27.8l-5 25.9c-.7 3.3-5 4.6-7.7 3a96.2 96.2 0 0 1-27.6-24.2l-4.6 8.7-2.3 4.3c-2.3 4.3-5.3 9-10.3 10.3-5.2 1.5-9.6-2-11.4-6.7l-1.5-4.5a263.4 263.4 0 0 1-15.2 29.7c-8.6 14.3-19 27-29.2 40.2-3.1 4-8.5.1-8.9-3.7l-.6-6.8c-6 12-12.3 24-19 35.6l1 3.8c2.7 11.3 5 22.7 7.6 34 .8 3.7-1.1 8.9-5.4 9.5-5.1.8-10 3.4-15.2 1.6-5.7-2-6.8-7-9.5-11.6-.5-1-1.2-1.8-1.8-2.6l-.2.2c-.4.6-1.4 0-1.2-.6l.3-.8c-2.3-2.4-5-4.5-7.6-6.7-6-1-12.9.1-17 2.6-9.5 5.6-13.9 17.1-14 27.7a73 73 0 0 0 10.3 37c2.8 4.7 6.8 9 12 11 5 2 10.6 1.4 15.9 3.4 3.4 1.2 5.6 5 3.5 8.6l-.5.7 1.6 2 3.2 4.6 8.2 9c5 5.5 9.8 11.2 14.8 16.9 4.6 5.3 9.5 10.3 14.6 15.2 4.8 4.6 10.8 8.5 15.2 13.5 4.3 4.8 5.4 13.3-1.6 16-7.8 3.2-14.7-4-20-9l-.2-.1c-9.6-8.9-18.3-19-25.1-30.1-6.9 4.6-16.8 5-23.6.4a20.6 20.6 0 0 1-7.6-11 16 16 0 0 1-3.7.4c-.7.4-1.3.8-2 1-5 2.7-11.3 1.5-13.6-4-2-5.2 0-11 2-15.9l.4-1c1-2.8 2.3-5.8 3.7-8.7-4-3-7.6-7-10.6-11.3a84 84 0 0 1-12.8-54A46.6 46.6 0 0 1 65 295.5l-.3-.8A116.8 116.8 0 0 1 56 255c-1.4-15.4-1-31.2 1-46.6 3.6-29 13-57.4 29.7-81.5-4.8-5.6-8.5-12.3-6.6-20a15 15 0 0 1 6-8.8c1.7-1 3.7-1.3 5.4-2.2l.5-.3c.8-.4.2-.3-.2-2.4-1.8-8-.3-15.8 8.5-18.4 8.3-2.5 16.2 2.8 21.1 9.1 13-9.1 30-14 44.9-18 17-4.6 34.4-7.5 52-9.2ZM78.8 326.3c0-6.6 6.2-10.6 12.3-9.6 4 .8 7.5 3.2 10.7 5.7l1.6 1.3c3.9 3 8.4 6.4 10.7 10.7 3.4 6.4-3.8 15-10.5 10.6-4.7-3.1-7.6-8.1-10.7-12.7l-.3-.5c-1.4-2-2.6-4.3-4.5-6l-.4-.3c-.6-.5-1.3-1-2-1.2-1.6-.5-4.5.1-5.2 2v.2c-.3 1-1.7.7-1.7-.2Z" fill="#000000"/></g></g></svg>