<svg viewBox="0 0 704 704" fill="none" xmlns="http://www.w3.org/2000/svg"><g transform="matrix(.99789 0 0 1 156 62)"><g fill-rule="evenodd" clip-rule="evenodd"><path d="M418.4 337.6c-6.2-45.2-20.6-89.2-22.6-135l-3.7-59c-.5-12.3-16.4-16.5-22.5-5.6-13.9-15.3-38.7-13-57.6-12.6-111.3 4-217 79.2-255.3 184.2a10 10 0 0 0 .4 7.5c-17.8 59.4 45.2 97.6 88.1 124.1 17.5 18.5 38 33.8 61 44.2a214.2 214.2 0 0 0 85.7 20.2c6.5.1 10.4-5 10.8-10.5 9.4-2.2 25.5.4 30.4-9.2 56.6-24.6 93.4-86.9 85.3-148.3Z" fill="#FFDD00"/><path d="M392 177.2c-.2-1.5 2-1.6 2.4-.4 3.5 9.8 7.3 19.5 10 29.5 2.8 9.7 4.8 19.5 6.8 29.4 3.3 16.3 6.2 32.7 8.5 49.2 5-4 11.6-4.3 17.8-1.2 3 1.4 4 5.2 3.4 8.1-.6 2.4-1.3 4.7-2.1 7 1.8 1.6 3.2 3.5 4.3 5.7 2.9 5.8 2 12-.6 17.4l.6 1c3.7 7.3 1.7 13.7-1 20.7-2 5.3-1 11.2-5.3 15.2a40.2 40.2 0 0 1-10.3 16.8c-.4 7.7-1.2 15.4-2.7 23-6 29.6-24.8 56-48.2 74.5a155 155 0 0 1-78.6 32.6c-14.1 1.7-28.2 1.2-42.1-1.3l-1.8-.3c-12.9-2.3-28.4-6.2-37.3-15.9-4.7-5-2-16.3 6.3-15.3 4.4.6 8.2 1.3 12.3 3a115.7 115.7 0 0 0 29.2 7.9 130 130 0 0 0 41.5-1.5c24.6-4.8 48.5-16 67.2-32.9 21.7-19.6 34.4-45 36.3-74.2 2-32.6-1.7-66-4.8-98.4a995.4 995.4 0 0 0-6.2-50.5c-2.4-16.3-3.8-32.7-5.6-49.1ZM199.8 71.9l1-.1c41.9-6.4 85.8-6 125.1 11.3 7.6 3.3 15 7.3 21.9 12 5-.6 10-1 14.8-1 6.2-.2 12.3 3 13 9.3 5.8.7 11.1 2.8 14.5 7.1 1.4 1.7 2.3 3.6 2.7 5.6 3.6.8 7 2.1 10.4 3.8 4 2 6.3 7.8 4.9 12.1l-1.1 2.8-.3.7.1.3c3.3 5.1 1 12-3.9 15a37.6 37.6 0 0 1-12 5l.9 5.2c0 .7-.8 1.2-1.2.5 0 0 1.5 4.7 3.8 10 .9 2-2 3.8-3 1.7-3-5.5-4.8-11.2-7.5-16.8-2.4-.2-4.9-.8-7.2-1.8a8 8 0 0 1-3.6-3.3v.2c-8 10.1-23.4 13.7-35.3 16.9a275 275 0 0 1-39 7.1c-23 2.8-46.2 3.3-69.2 4.3l-4.6.3a63.6 63.6 0 0 1-54.6 13.8 21 21 0 0 1-9.2 5.5c-.7 13.1-8 25.5-19 32.8l.2.8c2.7 11.1 2.7 23.4-7.1 31.1a24 24 0 0 1-4.4 2.7l.4.8c5 11.9 6.7 25-2.9 34.9-3.8 4-10.6 3-13.6-1.6v-.2l-.6-.8c-.3.5-.7 1-1.2 1.2-3.7 1.6-5.1.4-8.4-1.2a51.6 51.6 0 0 0-17.7-5c-17 6.6-28 26.6-25.4 45.3 1.4 10.2 7 20.4 16.8 24.6 4.2 1.9 9.3 2.6 14 2 6.2-.8 11-4.8 17.5-2.5a6 6 0 0 1 4.3 5.6 12 12 0 0 1-3.9 10c4.6 3.8 8.2 9 12.2 13.3 5 5.2 10 10.5 15.3 15.4 5 4.6 10.4 8.9 16 12.7l.6.4c7.2 4.6 16.1 8.7 16.5 18.4 0 3-1.7 5.6-4 7-9 5.6-18.8-1.7-25.9-7l-8.2-6.7c-1.8.1-3.7-.1-5.7-1l-3.8-2c-4 1-7.8.2-11-2a30.3 30.3 0 0 1-13.3.4c-3.7-.8-7-2.6-9.7-5a21 21 0 0 1-17.7-1.9c-3.4-2-6-5-7.4-8.5a7.6 7.6 0 0 1-1.3-3.9v-.5c-4.9 0-9.8-1.6-13.6-5.5-3.4-3.6-5.1-8-5.3-12.5-5-1.4-9.5-4.3-12.9-8.7a25.3 25.3 0 0 1-3.5-24.5l-.5-1.3a36.6 36.6 0 0 1-7.3-21.9c0-1.2.2-2.3.4-3.5A14.5 14.5 0 0 1 16 308a19.7 19.7 0 0 1 2-19c0-1 0-1.8.2-2.8l-.5-2.9c-.8-10.7 6.6-20 15.6-25 2.4-1.3 5-2.4 7.5-3.3 1.9-.6 4.7-.8 6.3-2 0-.1.6-1 .7-1.5l.4-1.7c.2-2.5 0-5 0-7.5a272 272 0 0 1 1.3-34A148 148 0 0 1 67.7 149a135 135 0 0 1 35-38.9c28-21.3 62.7-32.8 97-38.2ZM70.7 331.1c-3.7-8.7 13.4-8.8 18-8.4 10.2 1 26.1 6 30.3 16.2 1.7 4.2-3.4 8.8-7.5 7.4-4-1.4-6.2-4.3-9.4-6.9l-2.6-1.9a9.5 9.5 0 0 0 2.2 4l.3.2c5 4.4-3.9 11.3-7.2 5.5a15.5 15.5 0 0 1-1.8-10c.1-1.1.4-2 .8-3l-1-.5-.6-.2c-3.9-1.8-20.6-8.8-20.4-2.6 0 .7-1 .7-1.1.2Z" fill="#000000"/></g></g></svg>