<svg viewBox="0 0 704 704" fill="none" xmlns="http://www.w3.org/2000/svg"><g transform="matrix(.99789 0 0 1 156 62)"><g fill-rule="evenodd" clip-rule="evenodd"><path d="M430.4 143.8c-.3-12-17.7-16.9-22.7-5l-1 .9c1.6-1.4-1.7.8-2.3 1.1l-1.4.7c-3.2-30.3-14.2-63-42.5-78.2-39.6-19.1-85.3-22.9-128.6-21-22 1.3-47.4 4.8-67-6.3-6-3.4-10.9-9-17.8-11-21.7-6-31.5 16.4-28.5 34.7-9.3 0-18.5 5.2-22.5 13.6-2.3 5-2.3 10.4-4.3 15.4-6.2 12.7-15 21.9-10 37.3-9 10-3.9 25.2 3.3 34.9 3.5 5 7.7 9.8 10.2 15.4 2.5 5.3-1.2 11.7-3.3 16.8-15.6 36.8-14.7 77.4-6.3 115.9-16.8 7.2-21.8 30-10.9 44.3 3.8 5 8.4 7 13.6 10 6.6 3.7 1.2 18.2 3.3 25.3 2.9 17 18.5 27.6 33.9 16.5 9.8-1.5 17.7 27 24.8 34.2 4.4 5.7 9.2 11 14.5 15.7 15.8 40.5 96.5 61 136.4 58.7 41.7-4.4 70-39.9 93.4-71.4 12-16.7 19.9-35.5 22.7-56 3-20.6 1.7-41.2-.3-61.8-4-43.8-10.5-107-14.6-151.2 15-1.2 28.4-14 28-29.5Z" fill="#FFDD00"/><path d="M132 30.8c2.8-2.9 7.6 0 10.7 2.4l.7.5 2 1.5c4.6 3.5 8.8 7.3 13.7 10.3 5.3 3.3 11.1 6 17 8a122 122 0 0 0 35.8 6.7c49.6 2.4 107.2-23.6 152.2 7.5A56.9 56.9 0 0 1 385.9 98c4.3 14 2.8 28.3 6.3 42.3 1.5 6 12 6.9 13.2.2v-.5l1-.6.3-.2c.4-.2.6-.3.2 0h.1l.3-.3.3-.3c2.3-5.3 7-7.3 11.5-6.7l-.1.3-1.4 3.4-.4 1.1c-1.6 4-3.4 7.8-6.4 11.2a42 42 0 0 1-15.6 11.2c-1.2.5-1 2.2.4 2.3a37 37 0 0 0 34.7-19.1l.1 1.3c0 1.5 0 3-.2 4.4-.8.3-1.5.7-2.2 1.3-4.3 3.6-6.5 9.5-10.5 13.5a42.2 42.2 0 0 1-15.5 10.2l-1.4-4.8c-.2-.6-1-.5-1.1.1-.1 1.1-15.8-10-28-8.2-22.6 3.4-27.9 16.6-60.5 14.7-16-1-49.6-15.9-79-17-26.7-1-74.4 14.2-87 23-6.5 4.5 12 19.6 8.6 26.5-9.5 19.4-5.7 45.1-15.6 60.5l-.4.6c-6.3 9.3-2.4 34.2-4.8 41.8-4.5 13.9-12 7.8-10.8 9.7.4.6 1.3.2 1.1-.5a32 32 0 0 0-22-22.5c.5-2.7-.4-6-2-8.1l-.7-3.1-.6-3c-1.4-6.8-2.7-13.6-3.4-20.6A196.2 196.2 0 0 1 101 190l.3-1.5 2.5-10.3c6.2 1.7 12.5 2.8 18.6 3.4 7.2.6 14.3.6 21.3 0 6.2 17 6 36.2-1.7 52.7-9 19.3-31 37.8-25 61.2 2.6 10.2 18 8.2 18.4-2.2v-.3a58 58 0 0 1 8.1-27.3l.7-1.2 1-2a93.3 93.3 0 0 0 11.7-32c2.2-17-1.3-34.4-9.7-49.2 29.9-3.1 58.8-15 88-21.3l1.3-.3 1.3-.3c21.6-4.3 45.4-4.8 64.9 6.5.4.2.7-.3.3-.6-28.3-20.4-65-17.5-97.6-10.3l-1.9.4-1.8.4c-30 7-61.6 17.2-92.3 8.2-8-2.3-15.8-6.2-22-11.7l-.5-.5c-2.7-2.4-5.7-5.5-6.2-9-.2-1.4-.1-2.2.6-3.3.8-1 2.2-1 1.4-1.4 9.2 4.5 17-8.3 8.4-13.8l-.6-.4c-11-7-5.5-23 7.2-22.9h.6c7.2 0 9.4-8.4 5.6-13.4l-.4-.5c-7.2-9.2 4.9-20.3 14.2-15.1l.6.3c4.4 2.4 9-.3 10.8-4.6 3.6-9.4 1.7-19 1.5-28.6V36c0-2 .3-4.2 1.4-5.3Zm270.3 143.7H402.6l.2 1.9-.2-1-.3-1Zm-307.2 1.2-.2-.4.7.3-.3.4-.2-.3Zm196.2-53.6c-.8-.2-1.3 1-.6 1.3A101.6 101.6 0 0 1 334 162c1 1.6 2.6 2 4.4 1.8.8-.1 1.3-.6 1.8-1.1l.1-.2.4-.5c.8-1 .7-2.8 0-3.9a86.6 86.6 0 0 0-49.4-36Zm43.8-5.5c-.8 0-1.3 1.2-.7 1.7a71 71 0 0 1 14.2 15.4c1.9 2.8 3.4 5.9 4.5 9 1.2 3.6 1.6 7.2 3.3 10.5 2.9 5.6 10.6 2.5 11-3 .5-8.1-6.3-17.3-11.7-22.9a34.8 34.8 0 0 0-20-10.7h-.6Zm-202.8-6.4c-2.2-.6-4 2.3-2.3 4a64.5 64.5 0 0 0 36 15.4l.7.1c12.2 1.7 30 2.7 39.3-7.3 2-2.1 1.4-6.2-1.8-6.8-4.3-1-8.7-.6-13 0h-1.3l-3.1.5a116 116 0 0 1-18.5 1.1c-12.3-.4-24-4-36-7Zm214.3-29.5c-1.3-.5-2.7 1.2-1.8 2.4 3.7 5.1 8.2 9.7 12 14.8 3.8 5 7 10.4 11.5 15 2.5 2.4 6.6 0 5.8-3.3a47.7 47.7 0 0 0-27.5-29Zm-194.1 5.6c-1.4-.5-2.3 1.4-1.4 2.3 12.6 12.6 35.1 19.1 51.8 11.9 3.7-1.7 1.4-6.9-2-7-8.3-.6-16.6.4-25-1a129 129 0 0 1-23.4-6.2Zm21-16.8c-1.7-.8-2.5 1.9-1.2 2.9A30.2 30.2 0 0 0 197 78c2.8-.6 2.2-5.2-.7-5-7.9.3-15.3-.5-22.6-3.5ZM232 42.2c10.7-.5 21.6-.6 32.5-.2l-4.8.6-3.2.4a282 282 0 0 1-37.3 3 130 130 0 0 1-25.2-2.4c12.7.7 25.8-.7 38-1.4Z" fill="#FF0000"/><path d="M428 149.5c5-4 12.7-.3 11 6.4-1.8 7.3-9.6 12.3-16.1 15.3-6.7 3.1-13.2 3.7-20.5 3.4 2 8 3.1 16.5 4.6 24.7 2 10.3 4 20.7 5.8 31 1.9 10 4.2 20 5.6 30l4.2 30.5c2.3 17 4.2 34 6.2 51l1 8.1c2 17 3.6 34.1-.2 51a126.7 126.7 0 0 1-20.8 44c-9 13-19.1 25.5-30.2 36.8-21.4 21.8-47.8 39.3-78.8 42.5a87.7 87.7 0 0 1-40-5l-1-.3c-12.6-5-28.1-13.6-31.4-27.7-2-8.6 6.8-15.4 14.6-11.3 3.7 2 6.4 4.1 9.3 6.8l.6.5a51.2 51.2 0 0 0 22.7 11.7c12 3 25 2.5 37.1-1 26-7.6 46-27.4 63.2-47.3 9.4-10.8 18.2-22 25-34.6a83.6 83.6 0 0 0 10.4-42c-.2-17-2.6-34-4.1-50.8-1.6-17.2-3-34.4-4.3-51.6-1.2-16-1.3-32.3-1.7-48.5l-.1-3-.6-25.8c-.2-8.5-.9-17.2 0-25.7 0-.7.9-.8 1-.2.6 1.6 1 3.2 1.5 4.9l.2-.2c5.7-2 11-5.8 15.3-10 4-4 6.2-10 10.5-13.6Zm-312-120c3.5-14.7 19.7-18 31.6-11 5.7 3.5 10.3 8.4 15.7 12.3 5.3 4 11.2 7 17.4 9.2 12.3 4.4 25.3 6 38.4 6 31.7.2 62.8-8.7 94.6-7.7 24.6.7 50.7 8 68.5 25.8a75 75 0 0 1 19.2 35c1.5 6 2.7 12.3 3.6 18.6l.2 1.5c.5 3.7 1.3 7.5 1.4 11.2 0 3.3-.7 6.8-1.2 10-1 7-11.7 6.2-13.2 0-3.5-13.9-2-28.3-6.3-42.1A56.9 56.9 0 0 0 364 67.8c-45-31-102.6-5-152.2-7.5a122 122 0 0 1-35.8-6.6 93.2 93.2 0 0 1-17-8c-5-3-9.1-6.9-13.7-10.4l-2-1.5c-3-2.3-8.4-6-11.5-2.9-1.4 1.3-1.4 4.4-1.4 6.7v1c.1 10 2.2 19.8-1.5 29.3-1.7 4.3-6.4 7-10.8 4.6l-.3-.1c-9.4-5.6-21.7 5.6-14.5 15l.2.2c4 5 2 13.7-5.4 13.6H98c-13-.4-18.8 15.8-7.6 23l.4.1c9 5.5 1 18.5-8.2 14 .8.4-.6.4-1.4 1.5-.7 1-.8 1.8-.6 3.1.5 3.9 4 7.1 6.7 9.6 6.2 5.5 14 9.4 22 11.7 32 9.4 64.8-2 96-9 32.5-7.2 69.3-10 97.6 10.4.4.2 0 .7-.3.5-20.4-11.8-45.3-10.7-67.5-5.9-29.2 6.4-58.1 18.2-88 21.3a79.4 79.4 0 0 1 9.7 49.2 93.3 93.3 0 0 1-11.7 32l-1 2a59.9 59.9 0 0 0-8.8 28.5c0 10.6-15.8 12.9-18.4 2.5-6-23.4 16-41.9 25-61.2 7.7-16.5 8-35.8 1.7-52.7-7 .6-14.1.6-21.3 0-6.1-.5-12.4-1.6-18.6-3.4l-2.5 10.4a251.2 251.2 0 0 0-7.2 41.9c-.6 10.5-.6 21 .4 31.6 1 9 2.8 17.8 4.7 26.7 1.6 2.1 2.5 5.4 2 8a32 32 0 0 1 22 22.6c.2.7-.7 1-1 .5-7.3-12-26-16.4-37.8-8.5a27.4 27.4 0 0 0-9.3 35 31.4 31.4 0 0 0 14.7 14l1.3.5c3.4 1.6 6.5 3.3 8.6 6.5 2.8 4.2 3 8.5 2.7 13.3l-.2 1.9a27 27 0 0 0 .8 9.5l.2.7c.2.7.5 1.4 1 2.1 0 .2 1.4 1.5 1.8 2l.5.1h.6c.6 0 1.5-.2 1.2 0l.8-.6.3-.2c.9-1.3 2-2.3 3.2-3l1.3-.6c3.2-3.4 8.8-1.6 11 1.8a14 14 0 0 1 2.7 7.4c.3-.4.9-.7 1.2-.2l2.3 2.8c8.4 10.8 16.7 21.6 26.2 31.4 5.3 5.4 11 10.5 16.9 15.2 5 4 14.7 7.8 14.8 15 0 2.5-1.6 4.1-3.7 5-6.7 2.5-15-6.3-19.7-10.7l-.4-.3a142 142 0 0 1-16.3-17 102.2 102.2 0 0 1-21.3-40.2c-.1 2.6-1.3 5.1-3.4 7.6a21.2 21.2 0 0 1-11.1 6.3c-9.6 2.1-19-1.3-24.7-9.3a36.6 36.6 0 0 1-5.6-23.9v-1c.1-1.3.2-3.7.6-4.7l-3-1.6c-3.7-2-7.2-4.6-10.3-7.4a44.6 44.6 0 0 1-12.9-46.2c3.5-10.2 11-19 20.5-23.6-1.6-3.7-2.1-8-2.7-12l-.1-.6a173.5 173.5 0 0 1-.2-55.1 132 132 0 0 1 21-55.8c-8.8-3.5-17-8.6-23.3-15.7-6.6-7.4-10.8-18-5.7-27.4 1.3-2.4 3-4.4 5-6a28.2 28.2 0 0 1-2.4-21 28.6 28.6 0 0 1 17.3-18.4c-2-8.2-.3-16.9 5.7-23.7 6-6.7 15.3-9.1 24-7.6.4-8.7-2.3-17.9-.3-26.4ZM91.7 333.2a29.4 29.4 0 0 1 25.1.4l.6.3c8.6 4.1 20 14 17.2 24.3-1.6 6-8.3 8.1-13.5 5.5-4.4-2.2-5.4-6.1-7.6-10-1.5-2.8-3.4-5-5.7-7.2-4.7-4.7-10-8.2-16.1-11-.9-.4-.8-1.9 0-2.3Zm199-209.7c-.8-.4-.3-1.5.5-1.3a86.6 86.6 0 0 1 49.4 36c.7 1.1.8 2.9 0 4l-.4.4c-.5.7-1 1.2-2 1.3-1.7.3-3.3-.2-4.3-1.8a101.6 101.6 0 0 0-43.3-38.6Zm132.8 3.3c1.7-2.8 6.1-2.3 7 1l.1.2c.5 1 .3 1.3-.6.7a7.3 7.3 0 0 1 2.5 7.5c-3.6 15.7-21.5 27-37 25.4-1.4-.1-1.6-1.8-.3-2.3a42 42 0 0 0 15.5-11.2c4.2-4.7 6-10 8.2-15.7a7.8 7.8 0 0 1 4-4.5l.6-1ZM335 116.7c8 1 15 5 20.6 10.7 5.4 5.6 12.2 14.8 11.7 23-.4 5.4-8.1 8.5-11 3-1.7-3.4-2.1-7-3.3-10.5a42.9 42.9 0 0 0-4.5-9 71 71 0 0 0-14.1-15.5c-.7-.5-.2-1.7.6-1.7ZM130 114.3c-1.8-1.7 0-4.6 2.3-4 12 3 23.7 6.7 36 7 6.2.2 12.4-.3 18.5-1l3-.5c4.9-.6 9.7-1.1 14.4-.1 3.2.6 3.8 4.7 1.8 6.8-9.2 10-27 9-39.3 7.3a65 65 0 0 1-36.7-15.5Zm214.8-31.1c-.9-1.2.5-3 1.8-2.4a47.7 47.7 0 0 1 27.5 28.9c.8 3.3-3.3 5.7-5.8 3.3-4.5-4.5-7.7-10-11.5-15-3.8-5.1-8.3-9.6-12-14.8ZM151 88.7c-1-1 0-2.8 1.4-2.3a129 129 0 0 0 23.5 6.3c8.3 1.3 16.6.3 25 .8 3.3.2 5.6 5.5 1.9 7-16.7 7.3-39.2.8-51.8-11.8Zm21.2-16.2c-1.3-1-.5-3.7 1.3-3 7.3 3.1 14.7 3.9 22.6 3.6 2.9-.2 3.5 4.4.7 5a30.2 30.2 0 0 1-24.6-5.6Z" fill="#000000"/></g></g></svg>