<svg viewBox="0 0 704 704" fill="none" xmlns="http://www.w3.org/2000/svg"><g transform="matrix(.99789 0 0 1 156 62)"><g fill-rule="evenodd" clip-rule="evenodd"><path d="M242 75.3c56.8 0 115.6 44 136.4 72 24 32.5 43 188.4 34.1 241.3-8.9 53-53.1 110.6-130 110.6-76.7 0-123.5-9.5-125.3-23.2-2-13.8-50.7-90.2-50.7-90.2s-49.9-14-50-47.6c-.3-33.5 26.7-45.7 26.7-45.7s-9.6-132.3 14.5-166.7C122 91.3 185.3 75.3 242 75.3Z" fill="#FFDD00"/><path d="M213.1 62h1c62.9.4 126.8 29.3 164.1 79.8l1.2 1.6 1.4 2.2c1.6 2.8 3.4 5.4 4.8 8.2 1.2 2.4 2 5 2.8 7.6l.3.8a229 229 0 0 1 5.8 19.4A1129.6 1129.6 0 0 1 420 360.4l.5 9.4c.6 9.8 1 19.6 0 29.4a99.5 99.5 0 0 1-9.6 32.3 128.2 128.2 0 0 1-17.2 26.4 59.5 59.5 0 0 1-12 11.7c-3.8 2.6-8.2 4.2-12.4 5.8a88.3 88.3 0 0 1-24.2 16.2 143.7 143.7 0 0 1-45 12.4c-16 1.9-32 1.4-47.7-1.3-15-2.6-31.2-9.2-40.5-22-.8-1 .7-2 1.7-1.6a156.4 156.4 0 0 0 126 .3c10.6-5 19.5-12.1 29-18.7 1.8-2.4 3.7-4.8 5.8-7l3.3-3.5a106.3 106.3 0 0 0 23.3-37.4c7.2-20.4 5.3-42.6 4-63.9l-.1-1.8a934.5 934.5 0 0 0-17.7-135.6l-6.9-33c-1.1-5.7-2-11.5-2.8-17.2-.5-3.5-.5-7-.5-10.3l-.3.4c.3.9 0 2-.8 2.5-3.3 1.9-7.2 1.2-11 1.2h-86.5c-32.5-.2-65.7 1.1-98.1-2l-2.5-.2-39.1-4.7h-.3c-14.2-1.7-28.2-4.1-42-7.8 4.4 1.8 8.8 4.3 13.3 6.1 5.8 2.4 11.7 4.5 17.6 6.5 12.2 4 24.4 8 36.5 12.3 3.5 1.2 11.4 31 13.4 35.6v.2c1 2.2 2.4 4.7 1.6 7.3-1.7 5.7-10.7 10-15.1 13.2l-4.6 3.3-6 4.3c-2.5 1.8-4.8 3.1-8 2.1 2.7 12.8 4 54.3 4.5 61.5.3 6.4 2.2 14.5-.8 20.2a4.6 4.6 0 0 1-4 2.4l-20.3-1.5c-1.8-.2-3.5-1.2-4-3v-.1c-.2 0-.5 0-.7-.2l-1.1-1.1c-9-8-22.8-10-33.8-5.8a41.7 41.7 0 0 0-16.4 10.5c-4.5 5.3-5.5 12.6-5.5 19.3 0 12.9 4.7 26 14.2 34.9 8.7 8.2 20 10.6 31.3 13l1.2.2c2.6.5 3.5 4.4 1.5 6 5.2 5 9.7 11.2 14 16.7 5.8 7.5 11.4 15.2 16.8 22.9l2.6 3.7c9.3 13.3 22.7 31.5 16.9 48.1-.8 2.2-4 3-5.3.7-4.2-7.7-6.5-16.2-10.5-24-3.9-7.6-8.7-14.7-13.5-21.8l-2.8-4c-4.6-7-9.2-13.8-13.4-21l-3-4.8a109 109 0 0 1-7.5-14.3c-13.6 3.3-28.5-4-38-13.8a60.7 60.7 0 0 1-16.2-47.4 37.1 37.1 0 0 1 12-25.8c-.3 0-.5-.3-.6-.5a97.5 97.5 0 0 1-5.6-34 298.8 298.8 0 0 1 12.2-97.2c9-30 24.4-59.5 49-79.7C144.5 70 179.7 62 213 62ZM82.4 325c3.8-1.8 9.5 1.2 12.8 3.1l.3.2a45 45 0 0 1 19.9 26c2 7-9.6 9.7-10.5 2.9a37.3 37.3 0 0 0-5.7-15.3l-2 1c-2.5 1.5-3.9 4.2-7.2 3.8-2.5-.3-5-2-4.9-4.8.3-4.7 4-6.6 8.1-6.8l-1.7-1.6-.7-.5c-.7-.5-8.6-6-8.9-4.6 0 .7-.7 1-1 .6-1.6-1.7-.2-3.3 1.5-4Z" fill="#000000"/></g></g></svg>