<svg viewBox="0 0 704 704" fill="none" xmlns="http://www.w3.org/2000/svg"><g transform="matrix(.99789 0 0 1 156 62)"><g fill-rule="evenodd" clip-rule="evenodd"><path d="M405.3 225.3c11.3-8.2-5.6-35-11.4-43l-15-31.4c.6-8.5-7.8-16.1-16-13.5-7.2-5.2-19.3-2.7-23 5.4-79.4-34.6-216.8-20.2-224 86.5-15.3 30.4-30.5 61-44.2 92.3-18.9 1-28 24-16.8 38.9 1.5 24 16.8 26 37.2 25 8.2 2 16.7 3.2 22.9 9.6a68.5 68.5 0 0 1 10.9 16.7 204.4 204.4 0 0 0 56.4 69.3c38 28.3 89.2 48.7 136.4 34.9 101.6-39.9 121.6-199.3 86.6-290.7Z" fill="#FFDD00"/><path d="M193.3 70c66.4-15.4 141 5.3 187 56.2a8 8 0 0 1 0 11.3l4 3.3c1.3 1.1 1.1 3.5 0 4.7-1.2 1.2-3.7 1.4-4.8 0l-1.6-2-2.4-3.2-2.8 1c14 9.4 25.8 21.8 33.8 36.8a183.9 183.9 0 0 1 17.9 51.4c6.4 32 7.3 64.9 6.5 97.4v1.8c-1.2 39.3-5 79.2-21.6 115.3-13.2 29-36.8 55.5-66.4 68.2-17 7.3-35.4 10.4-54 9.1-9.7-.7-19.4-2.2-28.9-4.6l-2.3-.5a79 79 0 0 1-25-9.7c-7.6-5-2.5-15.2 5.9-14 10 1.6 19.7 5.8 29.6 8 9.8 2 19.7 3.2 29.7 3 17.7-.6 33.9-6 48.5-16 56-37.7 62.8-113.7 64.2-175 .7-30-.4-60.5-7.3-89.8-6.6-28.2-18-56-34.2-80a42.2 42.2 0 0 1-10.9 2.8c-6.7 4-14.8 4.2-22.6 4.2h-1a275 275 0 0 1-24.4-1.2c-28.6-2.6-58-9-86.9-5l-1.1.3c-11.9 1.7-26.6 5.5-35.3 14-9.4 9.2-3 26.6 4.4 32.1 4.8 3.6 6.3 11.7 0 15-12.5 6.4-42.7 2.8-46 6.4-4.1 4.2-3.8 10.7-4 16.2v.4c-.4 15.7 0 31.4 1.3 47 1.3 15.2 4.2 30.4 4.9 45.6.2 5-5.9 6.5-9.2 3.8-.6-.6-1.3-1-2-1.5-6-4.3-12.8-6-20.1-7.2-.4 0-.7-.3-1-.5v-.1l-.8.6c1.5 1.9 2.8 4 3.9 6.4.2.5-.3 1.1-.8.8a44.9 44.9 0 0 0-32.9-6.2c-10.5 2.2-20 8.9-23 19.6a33.3 33.3 0 0 0 5.6 29.1c9.3 12 24.6 11 38.3 11.5 2.7 0 5.6 1.4 6.9 4 1.5 3 1.4 5 0 8a5 5 0 0 1-.7 1.2l3.3 3 3.6 3.7a277.3 277.3 0 0 1 26.6 31.1l.6.8c7.1 9.7 14.5 23.8 26.9 27 4.2 1 8.2 3 9.4 7.6 1.3 4.6-1.7 9-5.7 11-7 3.3-15.7-.6-21.4-4.8-12.3-9-20.3-23.9-28-37l-2-3.5c-3.9-6.7-7.7-13.5-11-20.6-1.8-4-3.8-8-5.5-12a42 42 0 0 1-1.4-3.7l-1.6.2c-16.5 1-35.5-1.5-47.5-14-16.4-17.3-18.4-48.2.3-64.7a36 36 0 0 1 6.6-4.6 73.3 73.3 0 0 1-7.2-18.3c-2.3-9-3.7-18.2-4.3-27.4a183 183 0 0 1 5.4-56.5c16.5-66.5 67-121.6 134.5-137.3ZM73.7 346c-3.2-19 34.7-5 43-3.6h.2c9.5 1.3 4.2 18-5.1 13l-.3-.2c-5-2.9-10.6-5-16-7.4l-1-.5c-4.3-2-18.2-11-19.7-1.3 0 .5-1 .5-1 0Z" fill="#000000"/></g></g></svg>