<svg viewBox="0 0 704 704" fill="none" xmlns="http://www.w3.org/2000/svg"><g transform="matrix(.99789 0 0 1 156 62)"><g fill-rule="evenodd" clip-rule="evenodd"><path d="M463.9 255.6A268.4 268.4 0 0 0 397.5 121c-4-4.4-7.6-11.3-13.7-12.5-6.1-12.4-17.8-21.3-27.1-31.3-20.4-20.3-39.9-43-66.2-55.9-121.8-50-239.1 92.8-264 200.3C1.8 308 28.8 427.3 136 430.8c15.2 20 36 33.9 57.6 46.3 29.3 18.8 61.3 26.4 95.2 16 33.8 8.8 68.9-19.6 89.2-44.4 16-19.3 27-42.8 41.7-62.7a37.5 37.5 0 0 0 34.7-32.3c16.2-29.8 15.4-65.4 9.6-98.1Z" fill="#FFDD00"/><path d="M26.5 221.6c24.9-107.5 142.2-250.4 264-200.3 26.3 12.9 45.8 35.6 66.2 55.9 9.3 10 21 18.9 27.1 31.3 6.1 1.2 9.7 8.1 13.7 12.5A268.4 268.4 0 0 1 464 255.6c5.8 32.7 6.6 68.3-9.6 98a37.5 37.5 0 0 1-34.7 32.4c-3.2 4.3-6.2 8.8-9 13.4l-.8.2v-5c-1.5-82-6.2-131.5-14.2-148.5-8-17.2-42.8-48.6-104-94.3l-2-1.4-14.3-11.8-11.2 12.6c-42 47.4-74.9 84-98.7 109.7-25.5 27.7-47.2 69.8-64.9 126.4l-.5 1.8 31.3 41.4C28 423.8 2 306.8 26.5 221.6Z" fill="#0000FF"/><path d="M198.4 4.3c22.2-5.1 45.4-4 67.4 1.6 43.5 11.3 79.4 40.7 109 73.4a405 405 0 0 1 70.4 108l.9 2c12.3 28 23 57.2 23.5 88.2a239 239 0 0 1-11 79.7c-7.6 22.5-21.7 45.3-46 50.7a155.4 155.4 0 0 1-75.7 82.8 129.7 129.7 0 0 1-68.5 12.5 128.4 128.4 0 0 1-65.5-28.7c-.5-.4.2-1.2.7-.9a142 142 0 0 0 75.5 17 128.2 128.2 0 0 0 104.4-60.8 185 185 0 0 0 14.5-28.4 9.1 9.1 0 0 1 3.7-10.1 133.5 133.5 0 0 0 6.5-35.2c.5-6.8.2-14 .9-20.8-.3-5.6-.6-11-1.1-16.6a199.9 199.9 0 0 0-11.2-52.2c-6.3-17-16.4-32-29-44.8-27.3-27.6-61.1-47.8-87.6-76.2l-1.4-1.5-10 10-15 15.4c-30.6 31.3-61 63-87.7 97.8a461.4 461.4 0 0 0-41 63.4 382 382 0 0 0-15.4 32.4l-1.9 4.4a105 105 0 0 0-5.7 17.1c3.8 3.9 6.6 9.5 9.8 13.8a130.4 130.4 0 0 0 25.7 26.4l.6.4c5.6 4 12.2 6.8 13 14.5.4 3.3-2.6 6-5.4 7-7.5 2.9-15.3-5.3-20.4-10-3.1-2.9-6-6-8.7-9.4-2.6.4-5.2.6-7.8.3-4-.5-8-1.2-12-2.2-32.4-8.6-56.4-35.5-69.4-65.6-17.4-40.3-17-86.8-9.8-129.4 13.2-78 56-150.7 120.7-196.8 18.1-13 38.2-24 60-29.2Zm35 10.5C191.6 12.6 153.6 34 123 60.9a296.6 296.6 0 0 0-96.8 193.7c-3.7 39-1 81 19.4 115.5a131 131 0 0 0 30 34.9 97.4 97.4 0 0 0 38 18.2 79.4 79.4 0 0 1-9.7-17.5c-.2.2-.5.2-.7 0-8.7-12-6-26.3-1.9-39.4 4.4-13.7 9.9-27.1 16.2-40.1 22.9-47.3 57-88.6 92.3-127 18-19.7 36.7-38.8 55.3-58A2691.7 2691.7 0 0 0 306.4 98c4.4-4.9 8.4-10 14-13.6 4.3-3 8.7 2.6 6.7 6.7-3.2 6.3-8.6 11.3-13.5 16.5l-.5.5a1443.4 1443.4 0 0 1-30.7 32.2c4.7-.5 9.5-.8 14.2-1.6 6.4-1 12.7-2.3 19-3.9 6.5-1.6 13-3.7 19.3-6.3 6-2.4 11.5-6.3 18-6.7 5.5-.3 7.2 6.5 4.2 10-4.2 5-11.8 7-18 8.8l-.8.2c-6.8 2-13.7 3.6-20.7 4.7-9.3 1.3-20 2-29.8.6 19.7 11.5 37.9 25.9 56 39.9l3.2 2.4a210 210 0 0 1 47.6 47 156.7 156.7 0 0 1 22.8 58.1c2 10.1 3.3 20.4 4.2 30.6 3.2 9.1 2.7 20 1.9 30l-.3 3.4v1c.1 6.3 2.7 20.3-3.3 25l-.3 1.5 2.2-1.4 1-.6.7-.7h.1a61.4 61.4 0 0 0 13.9-17.8c6-10.8 9.8-22.6 12.7-34.8a204 204 0 0 0 5.2-69c-.4-3.2-1-7.2-2.2-11.3A388.6 388.6 0 0 0 345.4 67.9c-30.4-28.3-69.8-51-112-53.1Zm-58.9 115.1c1.5-.9 3 .9 2.3 2.3-3.6 7-9.7 13-14.7 18.9l-15.6 18.6a973.5 973.5 0 0 0-30.8 38.9l-2.6 3.5A484.4 484.4 0 0 0 88.2 248c-4 6.5-7.4 13.2-10.6 20.1-3 6.6-4.4 14.5-8 20.7-.3.4-1 .4-1.1-.1-1.2-6.7 1.7-14.7 3.8-21a128 128 0 0 1 9.9-21.2c7.9-14.2 17.4-27.6 27-40.7a747.8 747.8 0 0 1 45.4-56.7l2-2.2c5.5-5.9 11-12.7 18-17Zm-25.3-20.6c2.5-1.9 4.6 1.9 3 3.9-9.4 11.8-20.2 22.5-30.5 33.6a381.7 381.7 0 0 0-73.6 109c-.2.5-1 .2-.8-.3C53.8 226.4 69 200 86.6 176l.6-.9c17.7-24 38-48.1 62-66Z" fill="#000000"/></g></g></svg>