<svg viewBox="0 0 704 704" fill="none" xmlns="http://www.w3.org/2000/svg"><g transform="matrix(.99789 0 0 1 156 62)"><g fill-rule="evenodd" clip-rule="evenodd"><path d="M408 252c-3.6-29.6-15.3-61-27.6-88.6C353 105 289.7 97 233.1 84.9c-55.8-8.1-115-15.5-170 .8-30.9 7.5-43 44.4-38 73.4 2.7 18.1 11 35.3 18 52 14 34.5 22.8 71.4 22.9 108.7-1 24.4-4.4 52.3 23.6 62.6 26.6 13.3 28.9 49.2 62.3 69.6 13.5 27.3 50.3 29.8 76.7 36 16.8 3.3 33.7 5.7 50.7 7.2 49 6.3 88.4-8 114.1-51.7 17.2-26.7 30-57.4 26.9-89.7-3.2-34-8.4-67.8-12.2-101.7Z" fill="#FFDD00"/><path d="M233.6 14c2.8-3.2 7-2.1 9.7.4 1.7.5 3.4 1.2 5 2.2 3.5-.4 7.2-.4 10.6-.3l2.8-1.3c7-2.5 13.2-1.2 18.3 2.2a12.1 12.1 0 0 1 17.8.5c2.1-3.1 5.6-5.3 10-5.6 6-.5 11.9 2 16.7 5.7 2.8-3.2 6.7-5 11-5 2.8-.6 5.8-.4 8.4.4 4 1.2 7.4 3.4 10.1 6.3 4.3-4.2 9.6-7.1 15.7-6.7 7.9.6 14.4 6.4 17.5 13.5a40 40 0 0 1 14.4 9.6l.6.7c2.2.8 4.3 2 6.2 3.5 5.8 4.8 7 11.8 5.2 18.7l.7 3.4a18 18 0 0 1 13.2 9c3.9 7.1 3.1 16.4-1 23.1a31 31 0 0 1-6.7 7.5 18.8 18.8 0 0 1-3.2 19.7 25.5 25.5 0 0 1-4 5A15.7 15.7 0 0 1 405 144l-.5 1.3-.3.6-.2.9c-.2 2.4-1 4.8-2.5 7-3.3 4.6-7.3 7.5-9.4 12.9l-.2.5c-1 2.6-3.9 4.4-6.4 3.6 14 28.6 21.3 60.5 26.3 91.7a790 790 0 0 1 6 47l1.5 15.6c1.4 13.9 2.6 27.8 2.6 41.7 0 31.6-9 61.9-28.4 87a130.5 130.5 0 0 1-73.5 47.7c-30.2 7-65.6 4.2-92.7-11.8-8-4.7-1-16 7.1-12.2 15.4 7.1 31 12.5 48.1 13.7 16.6 1.1 33.3-1 49-6.4A120.3 120.3 0 0 0 409 396c3.3-16.6 2.8-33.7 1.6-50.4v-1.2c-2.5-32.3-5.8-64.8-11-96.8-4.6-28.2-11.7-56-21-83a49.6 49.6 0 0 0-11.9-7.8c-31.6-1.4-63.3-1-94.9 1.2a790 790 0 0 0-80.3 9.7l-2.9.5c-5.9 1-12.4 1.6-18 4-4.7 2-6.6 6-7.8 10.8-3 12.2-3.5 25.5-4 38-.5 12.2.6 24.5-.4 36.7a42.7 42.7 0 0 1-11 28c-4 3.9-8.8 6-13.3 9-3 1.8-4.2 3.8-3.9 7.3.9 7.6 7 17.3 0 23.8-1.1 1.2-3.2 1.3-4.4 0-2.9-3-6.8-5.5-10.2-8-1.5-1-.3-3 1.3-2.3l6.5 3a41 41 0 0 0-26.6-7.6 166.2 166.2 0 0 1-15.6 6.4 37.8 37.8 0 0 0-13 35.3c1.1 7.4 4.5 15.3 11 19.6 7.5 5.1 17.6 3 25.8 6.7a34.9 34.9 0 0 1 15.8 18l1.5 3.1a98.5 98.5 0 0 0 39.7 46l1 .6c3.7 2.2 6.4 4.3 6.6 8.9 0 1.6-1 3-2.2 3.9-5.6 3.5-11.2-1-15.9-4a115.1 115.1 0 0 1-35.7-38.3c-4.2-7.6-6.7-18.4-13.5-24.3-4.1-3.6-10-3.6-15.1-4.3-4.8-.6-9.4-1.6-13.7-4-17.4-9.6-22.3-33-18.2-51.1.7-3 1.7-6 3-9-6.6 1.2-13.8-5.5-11.2-12.3l.6-1.5c-4.2-2.8-7.6-7-9.2-12.6-.8-3-1-5.8-.5-8.6-2-1.4-3.8-3.3-4.9-5.7-3.4-1.6-6.5-4-8.3-7.3-2.5-4.7-2.2-9-.3-13l-.8-1.4c-7-4.5-12-12.2-11.4-20.8a21 21 0 0 1 2-7.6l-.3-1c-5.9-3-10.7-7.8-12.5-14.4-1.7-6.6.3-13.2 4.4-18.3-6-4.4-9.6-10.5-7.4-19.8.9-3.8 2.7-7.2 5.1-10.1v-.3l-.6-.4c-7.4-5.9-11.7-13.3-7.1-22.5 2-4 5-7 8.3-8.8l.2-.6c-2.4-5.2-3.3-11-1.6-17.2 1.4-5 4.7-9 8.9-11.7-.3-2.3-.3-4.7.2-7.3.7-4.4 3-8.3 6.1-11l.4-1.7c1.1-3.5 3.1-7.3 5.5-10.1 2-2.3 4-3.2 6.7-3.3-.1-2.1 0-4.3.4-6.5a22.4 22.4 0 0 1 12.1-16.2c2.7-1.2 5.4-1.5 8.1-1.2 2.3-4.8 6.8-8.3 12.2-9 2.2-.3 4.1-.3 6 0a34.3 34.3 0 0 1 5.4-2c2.5-3.2 5.9-5.7 9.8-7.3 4.5-1.7 9-1.5 13 0l1.4-.3c2-3.5 5.2-6.2 10.2-7.5 5.6-1.4 11.3.6 15.8 4.1 2.3-5.2 6.3-8.8 13-8.5 4 .1 7.8 2.2 10.7 5.1l4.8-.5c1.7-2 3.6-3.9 5.7-5.6 3.4-2.7 7.8-2.5 10.3 1.4l1.6 2.5 2.3-.1c2.7-3.7 6.5-6.2 11.5-6.4 4.7-.2 8 2 10.5 5.3l6.2-.1c2.5-2.8 5.3-5.3 8.5-7.3 2.5-1.6 6.2-1 8.2 1l3.8 4.4c3-3.3 7.1-5.6 11.5-6.4ZM86.4 331.5c4.7-2.7 11 .2 15.5 2.5 5.5 2.7 11 6.9 14.3 12 4.6 7.2-6.2 12.9-11 6.5-3-3.9-5.4-7.8-9-11.2-3.2-3.2-8-5.3-10-9.4 0-.2 0-.3.2-.4Zm3.3-171.8v-.3c1.4-3.6-4.4-5.2-5.7-1.6-2 5.5.3 11.4 5.7 13.8 1.5.6 3.2.4 4-1.1.8-1.3.5-3.5-1-4.1-3-1.3-4-3.7-3-6.7Zm-50-10.2c3-2.6-1.3-6.8-4.2-4.2-2.7 2.3-4.7 5.6-4.2 9.3.6 3.8 3.4 6.4 6.5 8.3 3.3 2 6.4-3.2 3-5.2l-.3-.2c-1.4-.8-3-2-3.3-3.7-.2-1.8 1.3-3.2 2.5-4.3Zm16.5-45.2.2-.1c3.1-2.2.1-7.5-3-5.2-3 2-5.2 4.7-5.5 8.4-.2 3.6 1.6 6.7 4 9.3 2.7 2.8 7-1.5 4.3-4.3-2.6-2.7-3.1-5.7 0-8Z" fill="#000000"/></g></g></svg>