<svg viewBox="0 0 704 704" fill="none" xmlns="http://www.w3.org/2000/svg"><g transform="matrix(.99789 0 0 1 156 62)"><g fill-rule="evenodd" clip-rule="evenodd"><path d="M68 102.4a35.3 35.3 0 0 1 19-11 139 139 0 0 0-19 11Zm-10.2 48c-1-4.3-1.5-8.5-1.7-12.8a9 9 0 0 0 5 3.5c-1.3 3-2.4 6.1-3.3 9.3Zm347 66.5c-6-25-33.9-72.9-40.5-82-7.1-23 32-41.2 10.7-59.1-9.6-8-22.4-11-34.3-13.8a376.8 376.8 0 0 0-248 26.7 36.2 36.2 0 0 0-32.3 10.7c-39.8 40 14.4 112.3 26.3 157.4 20.4 50.3-21.6 58.8-17 101.4 3.4 22 25.7 27.8 44.5 31 3 .8 7 1 8 4a83 83 0 0 0 27.5 48.4c-1.2 3.7-.3 8 4 11.3a212.9 212.9 0 0 0 137.4 41 132.1 132.1 0 0 0 95.6-45C427 394.5 422.1 323 414 258.3c-5.7-45 1.5 2.6-9-41.5Z" fill="#FFDD00"/><path d="M225.3 9.5c1.9-5.7 7-9.1 13-8.4 5.2.6 10.8 5.8 10.2 11.6l-.5 3.1v.4a550.3 550.3 0 0 0-4.7 14c1.3-.1 2.8 0 4.2.2L252 19c1.6-4 2.8-9.4 6-12.5 4-4.1 11-5 16-2 5.3 3 7.2 8.5 6 14.3-.6 3-2.6 5-5 6.3l-.3.2-1.9 4.4a15.8 15.8 0 0 1 4.9-1.2 215 215 0 0 1 8.7-14.3c3.5-5.4 10.4-7.6 16.2-4.2 5.2 3 8 11 4.3 16.2l-8.1 12 1.3.4.6-.8c2.9-3.6 6.2-6.2 9.7-9.2 3.2-2.8 4.6-7.2 8.9-9.3 5.3-2.6 11.7-1.3 14.8 4 6.8 11.2-4.6 19.5-11.8 26.4A179 179 0 0 1 353.5 34a14 14 0 0 1 15.3 2.5A8.3 8.3 0 0 1 371 45c-1.9 5-4.9 8-10.2 9.5-3.7 1-7.4 1.7-11.1 2.8a124 124 0 0 0-18.1 6.6l1.2.9a164.7 164.7 0 0 1 35.7-7.3l2.5-.3c9.1-.8 20-2.4 25.6 6.3 1.8 2.8 2 7.5 0 10.4-4 5.4-7.8 6.5-14.2 6.6a400.6 400.6 0 0 1 31.9 4.7l2.1.4c5.3 1 11.2 1.7 15.7 4.7 9.8 6.7 5.2 19.6-5.7 21-5.3.6-11.1-1.6-16.3-2.6a336.7 336.7 0 0 0-23-3.8c5.4.7 10.7 1.8 15.8 3.4l1.5.4c10 3 23.5 8 26.6 18.6 1.9 6.5-3.3 12.1-9.6 12.5-5.8.4-10.6-3.1-15.6-5.7a66.2 66.2 0 0 0-11.1-4.4c-4-1.2-8.1-2.3-12.2-3 3.4 1.8 6.8 4 10 6.3l1.6 1.1c8.6 6.4 21.8 16.4 18.8 28.5-1 3.8-5.2 7.5-9.3 7-10.6-1-16.5-12.2-24.5-18.3-2-1.6-4.4-3.1-6.8-4.6a193.3 193.3 0 0 1 29.2 48.5c16.1 38 21 73.2 21.2 114.1v1.3c0 22.6-.5 45.5-2.7 68a169 169 0 0 1-15.2 60 130.4 130.4 0 0 1-80.4 65.4 127.6 127.6 0 0 1-110.7-21.7c-7.9-6.2 2.6-19.4 10.6-13.8A116 116 0 0 0 335 482.8a113.8 113.8 0 0 0 62.9-68c6.3-19.1 8.2-39.5 10.4-59.3l.2-1.4c2.4-20.7 3.8-41.7 3.8-62.6 0-38.8-5.6-70.8-22.7-106a187 187 0 0 0-31-45.5c-3.7.8-7.8-.3-11.6-.7l-5.8-.6c2 1.3 4 2.6 5.8 4l2.5 1.8c8 5.7 18 12.1 16 23-.6 3-3.6 5.7-6.4 6.4-10.4 2.4-17.5-7.6-24.4-13.6a284.4 284.4 0 0 0-23.4-17.6l4.1 5 2 2.5c6 7.4 14.5 17 9.2 26.7a9 9 0 0 1-7.8 4.5c-10.7-.3-15-12.4-20-20a279.9 279.9 0 0 0-17.7-24 418.8 418.8 0 0 0-111.2 21l-1.2.3a55 55 0 0 0-22 11.5c-.8 3.9-.1 8 .7 11.8l.6 3c2.5 12.4 4.2 24.5 3 37.2a137 137 0 0 1-10.2 37.1c-2.3 5.8-4.6 4.7-5.4 10.9-.7 4.7-.3 9.5.1 14.2l.4 4c.9 10.6 1.3 22-5.5 30.7-1.1 1.3-3.4.8-4.2-.5l-1-1.6a21.3 21.3 0 0 0-14.2-8.6c-.7-.1-.4-1 .2-1.2 5-.6 9.6.7 13.5 3.2-1.8-6.5-16.4-3.3-21.2-2h-.1c-6 1.6-11.6 4.2-16.6 7.9-10 7.4-15.8 19-15.5 31.3a33.9 33.9 0 0 0 34.6 33.5c6.1 0 11.6-2.8 17.8-2.4 3.6.2 6.4 4 4.3 7.4a17 17 0 0 1-5.3 5.4 176 176 0 0 0 19 33.1c4.2 5.7 8.8 11 14 15.8 4 3.8 12.7 8.1 12.2 14.4-.1 2.2-1.3 3.6-3.4 4.5-6.4 2.6-14.2-6.4-18.5-10.8l-.3-.3a119.5 119.5 0 0 1-14.4-17.5A87.7 87.7 0 0 1 117 394a51 51 0 0 1-32.2-3.6c-26.4-11.9-35-47.3-19-71 3.1-4.5 7-8.4 11.4-11.6-1-.5-1.8-1.2-2.6-2-4.5-4.8-7.7-11-10.8-16.8l-.4-.6c-2.8-5-5.4-10.2-8-15.4l-.8-2c-5.5-11.8-10.4-17-14.3-29.4a250 250 0 0 1-8.7-36.8l-.5-3.3c-1.1-7.2-2.2-15-1.4-22.3-5.6 1.9-11.2 3-16.8.2-3.6-1.8-5.6-7-4.4-10.8 1-2.8 2.4-5 4.4-6.7-1.2-.6-2.3-1.4-3.2-2.2l-.8-.7c-3.4-3-3.6-8.5-1.6-12.1l.6-1c2-3.6 6-5.8 10-5.8h1.8c-1.8-.4-3.6-1-5.3-2-7.8-4.8-6.8-17.8 2.6-20 4-1 8.3-.6 12.6.4-.2 0-.3-.2-.5-.3-3.3-2-6-6-5.7-10a11.5 11.5 0 0 1 17.4-10c3 2 5.8 4.1 8.6 6.4a29.7 29.7 0 0 1-6.2-11c-1.2-5 .8-10.4 5.3-13a11 11 0 0 1 10.6-.2c-.2-2.6.4-5.3 2.1-7.6 3.6-4.8 10-7.6 15.5-4 .8.4 1.7 1.2 2.7 2.2-1.9-6-.2-12.1 6.1-14.8 3.9-1.6 9-.8 12.4 2-2-11.4 14.8-19.9 21.4-8 1.5 2.7 3 5.5 4.3 8.4l.5 1-.3-.7-.3-.8c-1.9-4.3-4.2-8.7-4.8-13.3-1-6.8 2-13.3 9.5-14.3 3.8-.5 8 1.2 10.6 4.3-1.3-10.6 10.5-18.3 19-10.4 4 3.7 6.2 9.2 8.7 14l4.4 8.1 1.2-1.3c-2.2-6.4-3.8-13-5.2-19.7-1.4-6.2 1.8-12.7 8.2-14.5 5.9-1.6 13.2 2 14.5 8.3 1 4.4 2 8.7 3.3 13l2.4-.4.2-2.5.3-2.8c.7-6.7 1.4-14.2 4.9-19.8 5.9-9.6 21-5.6 21.1 5.7.1 5.9-2.3 11.7-3 17.5-.5 2.5-.7 5.1-.8 7.7 1.6-8.5 3.8-17 6.4-25.2l1-3ZM95 337.3c13.3-2 25.4 5.4 33.3 15.7 1.4 2 .4 4.6-.8 6.2-1 1.1-2.2 1.3-3.6 1.5-1.7.2-3.7-1.1-4.4-2.6A43 43 0 0 0 95 337.8c-.1 0-.2-.4 0-.5Zm18.4-180.6.4-.4c2.7-2.8-1.5-7-4.2-4.3-2.9 3-4.7 6.5-6.5 10.2-1.8 3.4 3.4 6.4 5.1 3l.8-1.6a31 31 0 0 1 4.4-6.9ZM76.2 151c3.8-.6 2.2-6.4-1.6-5.8L60 147.8c-3.8.7-2.2 6.4 1.6 5.8l14.7-2.6Zm226.4-39.5c-3.7-1.2-5.3 4.6-1.6 5.8 5 1.7 10 3.4 14.8 5.8 3.5 1.6 6.5-3.5 3-5.2a132 132 0 0 0-16.2-6.4Zm-227.3-7.7c-3.6-1.5-5.1 4.3-1.6 5.7l13 5.2c3.6 1.5 5.1-4.3 1.6-5.8l-13-5.1Zm272.5-14.1-.5-.3c-3.2-2.1-6.2 3-3 5.1 2 1.3 4.2 2.1 6 3.6l.3.3c2.8 2.6 7-1.6 4.3-4.2-2-2-4.7-3-7-4.5Z" fill="#000000"/></g></g></svg>