<svg viewBox="0 0 704 704" fill="none" xmlns="http://www.w3.org/2000/svg"><g transform="translate(179 343)"><g fill-rule="evenodd" clip-rule="evenodd"><path d="M393.3 70.4c-2-24-32-34-47-37-50-11.8-92.5 18.3-152 19-6 0-23.2-1-31.2-3C122.5 40 82 30.3 42 18.1c-5.8 1.4-7.5 9-3.5 13.4 38.1 13.5 96.5 25.6 127.2 27a135.3 135.3 0 0 1-50.5 101.8c46 51 153.6 67.7 217 41 31-9.4 64-93 61-131" fill="#FFFFFF"/><path d="M39 19.4c-1.7 0-.7-5 3.1-4.3 49.9 11.6 112 33.8 163.2 33.7 37.7-1.3 71.5-22.3 109.4-22.4 25.4.5 58 4.1 75.7 24.6C414 125.5 361 227 277.7 227.6l-15.8-1.2c-53.7-4-112.6-10.3-147.3-55.9l-.2.3c-5.2-3.5-5-11-.5-14.9v.2l.4-.4v-.2c1.6-1.7 3.5-3.4 5.3-4.9 26-21.6 43-54.4 44-88.3C155 64.6 10.3 34.6 36 27.3A623.8 623.8 0 0 0 93 44a549 549 0 0 0 70.5 11.6l-.1-3.4C121.3 44 80 31.7 39 19.4Zm341 30.3c-86.3-43.7-129.2 20.8-212.8 3 8.8 39-12.8 81.1-42.1 106.6 42.6 36.9 61 42.5 116.9 48.5l7.3.8c11 1.3 22 2.5 33 2.7 57.2-4.1 100.3-63.6 106.8-117.4v-1.5c.3-13.7-.3-28.1-6.4-40.6-1-.4-2-1.1-2.6-2.1ZM259.9 84c3-.7 6 2.5 4.2 5.4-6 9.2-20.6 12.8-30.9 14.2a71.2 71.2 0 0 1-34.5-3.6c-.6-.3-.6-1.3.1-1.2 10.7 1.2 21.7.3 32.1-2.5 10.5-2 19-9 29-12.3Zm81.2-6.7c0-1.7 8.6 3.3 10 4 10.4 6.3 22.6 6.8 34.2 9.3 2.7 1 2.7 4.5 0 5.5-14.5 3.8-36.4-6.3-44.2-18.8Z" fill="#000000"/></g></g></svg>