<svg viewBox="0 0 704 704" fill="none" xmlns="http://www.w3.org/2000/svg"><g transform="translate(179 343)"><g fill-rule="evenodd" clip-rule="evenodd"><path d="M344.3 27.1c-8.8-9.2-17.7-18.5-29-24.8.5-2.7-.6-5.8-3.8-7.1-31.3-11.7-51.2 22-73.8 37-5.3 2.8-10.7 6.1-16.6 7.2a59.7 59.7 0 0 0-30.8 21.3c-4 4-11.3 10.5-13.3 15.8-1.2 2.2-111.3-50.1-136.3-56-12-4-18.3 7.3-3.3 13 39.5 15.2 116.9 49 134.2 58.8a60 60 0 0 0-1.1 33.9 48 48 0 0 0 13 41.5c2.2 3.2 5.5 5.5 7.7 8.3 8 20.9 27.2 31 49.6 41 35.7 15.8 66.7 19 86.3 12 50.7-19.3 80.2-76.2 70.7-128-9-36.6-7.1-68.7-53.5-73.9Z" fill="#9DDADB"/><path d="M234.3 26.9c30.5-17 35.6-51.8 80-34.1C328-1.6 332.8 6.6 342 17c4.8 4.3 10.8 6.5 16.7 8.8 22.6 7.5 35.9 28.8 41 51.1a141.4 141.4 0 0 1-34.5 134.6c.5.9.4 2.1-.6 2.7-2 1-3.8 2-5.7 3.2-11.8 10.2-35.7 23.6-53.5 23.6-39.6 0-77.9-16-101.2-36.7-30-24.1-48.8-74.5-39.1-110.7C109.6 67.4 58 47.6 36.5 38.9c0 0-8-8.4-.2-6.2C87 47 186.5 93.5 187.7 93.5c.7 0 3.3-5.6 3.8-8-2.3-.3-139.7-59.6-156.8-65.1l-.9-.3c-8.1-2.6-6-4.6.2-4.2 12.7.7 120.1 50.6 141 55.6 9.4-21 36-31.9 59.3-44.6ZM300.9-3c-17-5-29.5 7.3-38.6 20.3-21.4 26.5-60.5 27.4-76.6 59l-.5 1 6.4 1.9.1-.3c.6-.8 2-2.8 3.3-1 6.6 7.1-3.7 30.7-9.1 20.3l-.2-.3-8.9-2.5c-16 65 45.2 123.5 106.7 133.4 0 0 25.7.4 36-2 7.6-2 14.1-5.5 21.1-9 7-3.5 12.7-8.9 19.5-12.6 19.2-19 32-45.3 35.3-72.5 3.4-32.6.3-74.2-28-94.8-9.4-6-20.9-7.5-29.4-14.8-10.1-11.3-22-22.7-37-26Zm-30.5 152.6c-.3-.5.3-1 .7-.6 6 5.6 11.7 11.4 17.3 17.4l1-.3c2-.5 3.8 1.6 2.9 3.5l-.3.4c-1.5 2.6-4.9 4.8-7 1.8a352.6 352.6 0 0 1-14.6-22.2Zm-73.7 13.4v-.2c0-2.2-1.8-7.7 1.7-6.8 4.2 2.4 5.7 8.7 6 13.2.2 4.9-8 5-7.7 0 0-2 .2-4.2 0-6.2Zm172.5-15.2c.6 0 .9.6.4 1-6.6 3.7-6 11.1-7.1 17.3-7.6 5-6.8-16.5 6.7-18.3Zm-188.9-26.3c63.4 6.3 131.6 25.3 196.4 6 4-1 5.5 5 1.6 6-65.4 16.6-134.8 6.8-198-12Zm172-26.2c1.9-.5 3.7 9.2 6.8 11 1.5 3 13.4 5.7 8.4 9.4-8.6 1.8-18-12.7-15.3-20.4Zm-55.8 2.3c1.5 0 2.5 1 3 2.3 1.3 3.8-4.3 3.2-6.4 4.5a56.2 56.2 0 0 1-30 11.2c-.7 0-.7-.9-.1-1l1.9-.8c6-2.4 11.7-4.8 17.2-8.3 4.5-2.8 8.8-8 14.4-8Zm-33.4-66.4c-1.5-10.8 32.6-38 43-26.4 2.7 3-.8 7.5-4.4 5.6-14.6-3.8-28.5 12-38.6 20.8Z" fill="#000000"/></g></g></svg>