<svg viewBox="0 0 704 704" fill="none" xmlns="http://www.w3.org/2000/svg"><g transform="translate(279 400)"><g fill-rule="evenodd" clip-rule="evenodd"><path d="M-11.6-16.2c7 0 10 16.4 10 16.4 18 31 35.3 62 66.1 83.2 34.3 13.8 68 37.2 107 39.7 17.7-1.8 22.8-18 44.6-12.3 13.9 3.4 29.4 10 42.3.5 10.8-7.1 18.4-17.9 27.8-26.5.4-1.6 3.6 15 2.6 20.5l-.7 3.2c-5.8 25.5-11.7 55.6-37.6 69.7-7.9 4.1-19 8.2-27.7 5.8-46.3 7.4-96.5 2-137-21-14.3-3.8-24.9-15.2-36.1-23.8-27.5-24-59-54.6-62-91.1-3-36.6-1.6-64.3.7-64.3ZM128.3 56c15.7-25.3 47-21.2 71.4-9.7 13.4-9.1 31.2-7.4 45.7-1 13.5 7.4 23.7 19.4 33 31 2.3 3 3.2 7.2 0 8.7-15 12.4-46.4 5.1-60.6-4.1-10.3-.8-8-15.4-20-5.2a64 64 0 0 1-28.5 14.8 75.2 75.2 0 0 1-67.4-6c-2.7-.3-13.7-6.6-9.8-8.8 4.3 1.2 28-12.4 36.2-19.7Z" fill="#FF0000"/><path d="M-15.3 11c.2-1.4 2.3-1.4 2.3 0 1 29.2 10.5 61.3 26.6 86.4 38.8 63.2 117.8 94.9 194 84 55.5-.8 61.5-32.3 75.3-76.3 7.2-5.9 10.7-3.7 8.5 3.2-17.2 53-23 83.5-90.8 83-108.9 15.5-227-73.5-215.9-180.4Zm153.8 23.5c17.8-7.9 39-6.8 53.8 4.2l1 .2c2.6.6 5 1 8 .8C240.6 19 266.8 55 287 82c1.5 0 2.8 1.3 2.4 2.7l.6.7a36 36 0 0 1-13.4 17.4c-20.5 27.4-35.9 18.8-62.6 7.6-27.5-4.1-28.6 28.3-67 13.4l-1.5-.4a95.6 95.6 0 0 1-36.3-19.7c-.3-.3 0-.9.5-.7 21.3 6.4 48.7 27.4 70.3 13.3 5.5-3.7 10.4-8.2 16.6-11 35-11.7 47.2 34.6 77.8-13.4-24.9 4.3-53 0-71.6-17-27.8 33.6-82 28.2-116.5 7.4-4.7.6-11.7-4-7.4-8.5 4.8-3.7 12.3-2.2 18.1-4.3 18.7-6.6 23-27.7 41.6-35Zm62.3 14c-19.7-14-49.1-16.3-68 .2-11.7 11.8-19.4 28.8-38.3 32 32.5 18.7 79.3 19 104.4-10.8.8-2.6 4.9-1.5 5.4.7a86.6 86.6 0 0 0 74 12.9l-3.4-4.6c-17.5-24-40.1-52-73.6-32.2-.8.4-1-.6-1.2-1.1l-.4.3c.3.6 2.8 2.7 1 2.7Zm80.6 41.8.4.5a54 54 0 0 1 1.7-1h-.1l-2 .5ZM-12.7-25.4v-1c0-9.6 2.6 2.6 3.7 5 5 9 9.2 18 14.5 26.7C26.8 43.6 30.1 60.3 73 82c3.2 2.8-.1 7.7-4 6.7-6-1.5-11.6-5.3-16.8-8.4C23 65.3 12.2 34.6-1 7.8c-3.8-10.6-12.7-22-11.7-33.2Z" fill="#000000"/></g></g></svg>