<svg viewBox="0 0 704 704" fill="none" xmlns="http://www.w3.org/2000/svg"><g transform="translate(279 400)"><path fill-rule="evenodd" clip-rule="evenodd" d="M228 104.3c-9.3-8.3-19.8-25-33.1-11.8-3.3 3.8-4.7 12.1-9.7 13.8-6.8 2.1-13.4-5-15.7-10.4-9.4-30.4 29.3-38.7 51.4-33.8 10.8 4.4 18.7 22.3 19.2 31.6.3 6.2-5 15.4-12.1 10.6Zm70.3-46.7-.4-1.1c-4.1-1.6-7.4 0-9.4 3 0 .7.3 1.4.4 2.2-1.5 3.2-3 7.3-5 10.1l-1.3-.1c-35 3.6-17.9-32.9-53.3-42-27.4-4.5-76.8.7-89.7 29.2-10.2 45.5-62 13.8-79-9.9C42.4 27.5 30.7 1.2 19.4-24.4c-2.4-5.4-9.8-1.5-9 3.7C-.1.3.3 25.4-2.3 48.3c-4.4 46-8.7 110.2 33.9 138.2 55.5 62.7 194 84.8 258 27.2 22.2-47.6 19.4-105.7 8.7-156.1Z" fill="#000000"/></g></svg>