<svg viewBox="0 0 704 704" fill="none" xmlns="http://www.w3.org/2000/svg"><g transform="translate(279 400)"><path fill-rule="evenodd" clip-rule="evenodd" d="M117.7 95.2c8.1-19 25.8-33 46.1-38 15-3.7 30.7-3.6 45.9-2.1 8 .7 16.5 1.4 24 4.3a35.3 35.3 0 0 1 15.6 13 73.2 73.2 0 0 1 11 25.4c-1 5.9-3 10.9-8.5 14.6-5.3 3.6-11.6 5-18 5.6l-1.7-.9c-10-5.6-16.9-19-29.3-17.2-11.1 1.6-18.5 15.6-25 23.8a87 87 0 0 1-59.8-16c-.8-4.2-.9-8.4-.3-12.5Zm157-14.4a78 78 0 0 0-42.9-46c-36-15.6-82.8-4.7-112 20.7-10 8.7-20 21.4-23 35.1a5 5 0 0 0-2.5 1.3c-21-13.2-42.8-26-59.8-44.4A118.3 118.3 0 0 1 8.4 1c-.5-1.5-2.8-1.3-2.7.3v1.1c-.2-.6-1.2-.3-1.3.4-2.8 21-6.4 43.5-3 64.7 1.8 12.6 7.6 22 15.3 32a316.6 316.6 0 0 0 27 30.2c6.1 6 12.5 13 19.9 17.5 8.6 5.2 18.4 9.2 27.6 13.2 9.3 4 18.8 7.8 28.5 11 19.3 6.6 39.3 11.1 59.7 13.1 16.3 1.6 34.9 3.3 50.5-2.8a68.2 68.2 0 0 0 29.3-23.4c8.3-11.1 15-23.8 18.6-37.2 3.7-13.8-2.2-38-3-40.3Z" fill="#000000"/></g></svg>