<svg viewBox="0 0 704 704" fill="none" xmlns="http://www.w3.org/2000/svg"><g transform="translate(279 400)"><path fill-rule="evenodd" clip-rule="evenodd" d="M248.1 111.7c-3.5-1.1-6.9-2.4-10.3-3.7a70.4 70.4 0 0 0-57.4-3c-9 3.6-17.5 10.2-26.6 14.5l-6.5 2.2a195 195 0 0 1-31.6-14.6l-3-3.8a148 148 0 0 0 18.3-4c17.3-4.7 33.7-12.5 51-17.4 16-4.7 33.5-7.2 49.7-1.4 7.6 2.7 14.4 7.5 21.9 10.7 3.8 1.7 8.4 3.3 13 3.5-3 7-6.6 13.5-11.7 19l-6.8-2Zm37.6-54.6c-1.6 1.3-8 5.5-10 8l-1.6-.7a4.4 4.4 0 0 0-3.6-1.6 85.6 85.6 0 0 1-25.6-18.5c-5.4-5.6-11-11.4-18-14.7-8.6-3.8-16.9-2-25.8-1.4-9.5.6-18.8-2-28.3-.8-6.9 1-13.4 3.9-19 8-11.4 8.4-19.3 20.3-29 30.5a80.4 80.4 0 0 1-39.4 22.7c-.2 0-.3-.2-.5-.3-11-10-21-21.3-29.9-33.3-8.6-11.8-31.3-64.7-36.8-69.3-2.3-2-4.8-2.8-7.2-2.7C6.7-16.9 2.7-13.9.9-9c-3 8-1.5 18.4-1.3 26.9a409.2 409.2 0 0 0 12.3 88.1A91.6 91.6 0 0 0 34 150.1c12.5 12.4 29.5 20.6 45.2 28 15 7 30.7 13.2 46.9 18 14 6.4 29 11.4 44 14 16.6 3 34 3.2 50-2.6a88 88 0 0 0 22.1-11.7c9.6-5 18.2-11.8 25.3-20.8a113.4 113.4 0 0 0 21.2-56.2c.7-5.2 3.3-25 3.5-28.1l1.9-30c.3-4.8-5.5-6-8.5-3.6Z" fill="#000000"/></g></svg>