<svg viewBox="0 0 704 704" fill="none" xmlns="http://www.w3.org/2000/svg"><g transform="translate(279 400)"><path fill-rule="evenodd" clip-rule="evenodd" d="M237.6 65.9c2.7 2.8 5.4 5.8 7.8 9 .7 4.8.9 9.8.3 15-1 7.5-3 14.8-5.8 21.8-1.6-.2-3.2-.7-4.8-1.4-5-2.3-7.7-6.9-11-11-6.8-8-19-12.8-27.6-4.4-3.7 3.6-6.1 8.7-9.4 12.7-3.7 4.4-7.8 8.6-12 12.4l-1.7 1.5-7-8.3a80.9 80.9 0 0 1-15.8-27.8c-1-3.2-1.6-6.7-1.8-10.1a54 54 0 0 1 10.4-10c11.8-8.6 25.5-10 39.7-10.7 14.7-.8 28 .2 38.7 11.3Zm35.8 39.6C273 99.8 272 94 270.7 88c-4.8-22-15-44-35.7-54a48.3 48.3 0 0 0-31.4-4.2c-18.4-7-39 .1-53.4 12.8-17.2 14.9-25 38.3-27.8 60.2-1.8 15.3-2.5 35.6 1.8 46.7 4.4 11 31.9 40.7 71.1 40.9 56 .3 69.5-37.4 71.2-40.7a79.3 79.3 0 0 0 7-44Z" fill="#000000"/></g></svg>