<svg viewBox="0 0 704 704" fill="none" xmlns="http://www.w3.org/2000/svg"><g transform="translate(279 400)"><path fill-rule="evenodd" clip-rule="evenodd" d="M208 31.3c-11.2-5-31.2-.6-38.4 1.1-16.9 4-33.8 12.8-39 26.5-6 15.4 5.8 20.3 7.5 19.5 11.7.8 25.6-6.5 37.8-8.4 10-1.6 20.4-3 29.7-8.2 6.8 3.7 22.1 5.7 34.5 9 10.6 2.8 15.1 8.8 25 7.5 11.6-1.5 6.8-26.1-6.2-36.1-14.3-11-38.5-15.4-51-10.9Zm22 105.4c-9.8 2.3-10.4-19-11.5-26.5-.9-6-5.7-21-17.9-20.4-12.1.6-16.7 13.3-16.1 21.2.4 5.2 5.1 31.2-10 34.4-9.6 0-20.7-.6-30.8-2.5-12-2.7-27.4-12.1-31.5 6.4-1.5 6.7 51 26.6 74.2 28.4a75.1 75.1 0 0 0 68-20.6c3.9-4.1 14.6-21.2 15.4-25.3 1.6-8.8-2.1-14.5-13-11.4-7.6 4.1-20.6 14.7-26.9 16.3Z" fill="#000000"/></g></svg>