<svg viewBox="0 0 704 704" fill="none" xmlns="http://www.w3.org/2000/svg"><g transform="translate(279 400)"><path fill-rule="evenodd" clip-rule="evenodd" d="M258.5 37.2c-9-4.2-18.7-6.7-28.7-7.6-4.4-.4-12.9-1.6-17.5 1.2a17 17 0 0 0-5.4 5.4c-.5-.8-1.3-1.4-1.7-2.3-2.5-4.5-18-4.6-22.7-4.2-11 1-21.8 3.5-32 7.9-18.1 7.8-33.4 24.1-28.6 44.8.7 3 4 4 6.7 3.6l54.6-10.3 12.7-2.4c3.8-.7 8.5-1 12.1-2.6 1.5.7 3.1 1 4.9 1.4 21.9 4.4 43.8 8.6 65.8 12.9 2.6.5 6-.8 6.5-3.8 3.2-19.4-9.2-35.8-26.7-44" fill="#000000"/></g></svg>