<svg viewBox="0 0 704 704" fill="none" xmlns="http://www.w3.org/2000/svg"><g transform="translate(279 400)"><path fill-rule="evenodd" clip-rule="evenodd" d="M294.4 32.7c-1.3-4-8.2-3.6-7.8 1 .5 5.4-1.3 11.4-6.5 14-5.3 2.7-11.4.3-14.7-4.4-2.8-4-4.8-8.5-8.3-12a31.2 31.2 0 0 0-11.9-7.3c-3.4-1.2-7-1.5-10.5-1.1a25.6 25.6 0 0 0-25 10.5l-1.7-2.1c-1.6-1.9-3.5-2.3-5.2-1.8a31.3 31.3 0 0 0-34.5-1.6c-8.9 5.2-16.2 13-27.2 13.6-8.6.4-18-4.5-18.6-14-.4-5-7.1-9.1-11-4.5a34 34 0 0 0-5 34.2 46.1 46.1 0 0 0 26 26.1 102 102 0 0 0 42.3 7 43.8 43.8 0 0 0 37.8-21.4A43.4 43.4 0 0 0 246.7 84c13.7.3 29.9-2 39.5-12.7a39.6 39.6 0 0 0 8.2-38.6" fill="#000000"/></g></svg>