<svg viewBox="0 0 704 704" fill="none" xmlns="http://www.w3.org/2000/svg"><g transform="translate(279 400)"><g fill-rule="evenodd" clip-rule="evenodd"><path d="M245.4 32.8c-14-2.3-28.6 1.2-42.2 4.9-21.4-14.1-49.3.1-64.7 17.7-5.2 4.4-16.3 10.1-10.5 18.4-2.2 5.9-2.8 8.6 1.8 1.8 25.9 3 53.6-2.7 79.2-8 8.8 3 16.4 9.8 26 7.5 9 1.9 19 3.7 27-2.1 6.3-.3 20.2 10.9 20-2.1-2-12.5-26.7-33.2-36.6-38Z" fill="#FF0000"/><path d="M255.9 72.8a63 63 0 0 1-43.4-9.6c-1.4-1-2.7-1-3.8-.4-1.3-.1-2.6.4-3.4 2-3.2 6-13.8 4.7-19.6 4.8-19 .4-38.8-.7-57.2 5.1C146 40.4 170.4 25.5 207.9 39c-3.4 2.8 13.6-3.6 15-3.8 26-6.5 47.5 15.3 58 37-8-2-16.8-.3-25 .6Zm36.3 5.9c-11.5-25.8-34-54.2-65.6-49.8-6.5 1-13.3 5.4-19.8 4.6-18.9-7-34.5-10.5-53.4.8-8 .6-53.1 56.4-31.7 51.9 26.4-15.1 72.1-1 88.5-14.4 32 21 58.2-1.8 76.3 11.3 3 3 7.5-.7 5.7-4.4Z" fill="#000000"/></g></g></svg>