<svg viewBox="0 0 704 704" fill="none" xmlns="http://www.w3.org/2000/svg"><g transform="translate(279 400)"><path fill-rule="evenodd" clip-rule="evenodd" d="M305.3 13C302 8.6 296 2.7 290 3c-.8 0-1 1-.6 1.5 2 2.4 4.6 4 6.6 6.5 2.4 3 4 6.5 5.1 10 1.6 5.2 2 11 .6 16.2a31 31 0 0 1-19 19.5c-8.6 3.4-18.8 4.6-27-.4-11.9-7.4-22-18-37-18.3-3.5 0-6 1.5-7.4 3.8a8.6 8.6 0 0 0-7.4-3.8c-16.8-.2-29.4 11.4-43.5 18.6-9.5 5-21.9 3.4-31.7.2-9.3-3-19.4-9.2-22.9-18.8-1.9-5.3-1.5-11.5.5-16.8 1.3-3.4 3.3-6.8 5.8-9.5 2.6-2.8 6-4.6 8.7-7.2.5-.6 0-1.4-.6-1.5-11.3-.7-21.4 12.7-23.6 22.4-2 9.6 1 19.2 7.4 26.5 12.8 15 36.6 19.8 55 15.4 15-3.5 29.3-11.7 45-10.5 3.3.3 5.8-1.2 7.3-3.3 1.5 2.2 4 3.7 7.4 3.3 14.6-1.4 27.6 9 41.8 11.5 11.2 2 23.4-.7 33-6.8a35.8 35.8 0 0 0 17.7-28.7c.3-7-1.7-14.2-6-19.8" fill="#000000"/></g></svg>