<svg viewBox="0 0 704 704" fill="none" xmlns="http://www.w3.org/2000/svg"><g transform="translate(279 400)"><path fill-rule="evenodd" clip-rule="evenodd" d="M279.5 190.9c2 1.9 6.4 6 10.6 8h4l2.4-.7c1.1-2.6 1.3-5.7.8-8.8-3-17-5.6-34.3-4.2-51.6 1.3-16.4 6-32.7 4.8-49.2-1.8-39-39.4-66-72.4-58-4.2.3-8.4 1.5-12 3.7-51.5-21.6-115 14.8-103 74.4 2.3 16.1 6 31.4 4.8 47.8a199 199 0 0 1-3.2 23.4c-1.1 5.8-4 13-1.4 18.7 10.8 6.8 22-7.4 29.2-19.5 3.8-10.2 6.9-20.6 10.4-30.9 6.4-18.5 7.9-28.7 28.9-33.7a72 72 0 0 0 24-13.7c5.4-2.5 8.4-7.6 10.2-12.8 1 2.5-.3 5.6-.5 8.3 15.2 20.2 34 16.3 40.8 30.4 5.2 13.2 8.1 27.3 12 41 .6 1.8 10.7 20.2 13.8 23.2" fill="#000000"/></g></svg>