<svg viewBox="0 0 704 704" fill="none" xmlns="http://www.w3.org/2000/svg"><g transform="translate(279 400)"><path fill-rule="evenodd" clip-rule="evenodd" d="M520.3-58.5c-16 14.6-5.7 51.1.6 41.3.9-9.2 3.7-26.7 13-30.3 68.2-2.9 54.2 165.8-73 145-81-5.4-166.5-122.7-242.6-51.3C135.6-21.2 42 79.8-43.1 93.7-112.4 116-215.9 74.9-197.2-10.5c4.6-25 39.3-53.7 60.5-28.3 6.3 6-1.7 28.2 5 23.6 10.2-11.3 7.5-29.4-2-40.7-15.7-18.7-43.7-10.5-60 2.7C-267.2 19-178.7 128.2-90 121 7 132.9 139-2 205.7 63.5c6.8 6.7 19.6 6.7 25.5 0C288-.5 397.4 130.4 476.5 121c84 7.7 151.4-93.8 102.8-165.6-12-18.3-41.1-32-59-14Z" fill="#000000"/></g></svg>