<svg viewBox="0 0 704 704" fill="none" xmlns="http://www.w3.org/2000/svg"><g transform="translate(279 400)"><path fill-rule="evenodd" clip-rule="evenodd" d="M258.6 38.7c-6.6-1.3-13.4-1-20-2.4-6.3-1.4-11.4-5.6-17.6-7.5a18 18 0 0 0-16 2.8c-4-1.9-8.4-2.3-12.9-1.7a60 60 0 0 0-19.1 7l-2.1 1c-11.2-.3-22.6-.3-33.6 2.1a40 40 0 0 0-24.6 15.3c-6.5 9.2-7.7 21-8.7 31.9-.6 6.9 9 8.3 12.3 3.3a80.7 80.7 0 0 1 11.3-14.7 27.7 27.7 0 0 1 18.3-7.3c15.4-1 30.9-.1 46.2-.8 9-.4 18.9-3.8 22.5-11.6 3.8 6 12.5 9.6 19.7 10.1 7.5.6 15.2-.8 22.7.8 7.1 1.5 15.6 6.8 14 15.3-1 5 5.4 8 8.3 3.5 11.9-18.1.2-43.2-20.7-47.1" fill="#000000"/></g></svg>